G04 #@! TF.GenerationSoftware,KiCad,Pcbnew,9.0.7*
G04 #@! TF.CreationDate,2026-03-18T00:55:46+08:00*
G04 #@! TF.ProjectId,chemistrylabreport,6368656d-6973-4747-9279-6c6162726570,rev?*
G04 #@! TF.SameCoordinates,Original*
G04 #@! TF.FileFunction,Copper,L1,Top*
G04 #@! TF.FilePolarity,Positive*
%FSLAX46Y46*%
G04 Gerber Fmt 4.6, Leading zero omitted, Abs format (unit mm)*
G04 Created by KiCad (PCBNEW 9.0.7) date 2026-03-18 00:55:46*
%MOMM*%
%LPD*%
G01*
G04 APERTURE LIST*
G04 #@! TA.AperFunction,ComponentPad*
%ADD10C,1.600000*%
G04 #@! TD*
G04 #@! TA.AperFunction,ComponentPad*
%ADD11R,1.725000X1.725000*%
G04 #@! TD*
G04 #@! TA.AperFunction,ComponentPad*
%ADD12C,1.725000*%
G04 #@! TD*
G04 #@! TA.AperFunction,ComponentPad*
%ADD13R,1.800000X1.800000*%
G04 #@! TD*
G04 #@! TA.AperFunction,ComponentPad*
%ADD14C,1.800000*%
G04 #@! TD*
G04 #@! TA.AperFunction,ComponentPad*
%ADD15R,1.500000X1.500000*%
G04 #@! TD*
G04 #@! TA.AperFunction,ComponentPad*
%ADD16C,1.500000*%
G04 #@! TD*
G04 #@! TA.AperFunction,ComponentPad*
%ADD17C,1.408000*%
G04 #@! TD*
G04 #@! TA.AperFunction,ViaPad*
%ADD18C,0.600000*%
G04 #@! TD*
G04 #@! TA.AperFunction,Conductor*
%ADD19C,0.500000*%
G04 #@! TD*
G04 #@! TA.AperFunction,Conductor*
%ADD20C,0.250000*%
G04 #@! TD*
G04 APERTURE END LIST*
D10*
X137700000Y-68900000D03*
X137700000Y-63900000D03*
X134250000Y-56140000D03*
X134250000Y-63760000D03*
X130750000Y-56150000D03*
X130750000Y-61150000D03*
X137800000Y-56200000D03*
X137800000Y-61200000D03*
D11*
X172200000Y-59650000D03*
D12*
X172200000Y-62190000D03*
X172200000Y-64730000D03*
X172200000Y-67270000D03*
X172200000Y-69810000D03*
X172200000Y-72350000D03*
D13*
X127250000Y-56010000D03*
D14*
X127250000Y-58550000D03*
X127250000Y-61090000D03*
X127250000Y-63630000D03*
D10*
X168100000Y-81800000D03*
X168100000Y-86800000D03*
D15*
X141320000Y-53755000D03*
D16*
X141320000Y-56295000D03*
X141320000Y-58835000D03*
X141320000Y-61375000D03*
X141320000Y-63915000D03*
X141320000Y-66455000D03*
X141320000Y-68995000D03*
X141320000Y-71535000D03*
X141320000Y-74075000D03*
X141320000Y-76615000D03*
X141320000Y-79155000D03*
X141320000Y-81695000D03*
X141320000Y-84235000D03*
X141320000Y-86775000D03*
X141320000Y-89315000D03*
X164180000Y-89315000D03*
X164180000Y-86775000D03*
X164180000Y-84235000D03*
X164180000Y-81695000D03*
X164180000Y-79155000D03*
X164180000Y-76615000D03*
X164180000Y-74075000D03*
X164180000Y-71535000D03*
X164180000Y-68995000D03*
X164180000Y-66455000D03*
X164180000Y-63915000D03*
X164180000Y-61375000D03*
X164180000Y-58835000D03*
X164180000Y-56295000D03*
X164180000Y-53755000D03*
D10*
X137800000Y-77000000D03*
X137800000Y-72000000D03*
X131000000Y-67500000D03*
X131000000Y-75100000D03*
D13*
X172250000Y-84140000D03*
D14*
X172250000Y-81600000D03*
X172250000Y-79060000D03*
X172250000Y-76520000D03*
D17*
X133000000Y-87800000D03*
X133000000Y-80200000D03*
D18*
X133000000Y-77000000D03*
X170000000Y-65000000D03*
X162000000Y-55000000D03*
X144000000Y-55000000D03*
X145000000Y-90000000D03*
X133000000Y-90000000D03*
X170000000Y-84700000D03*
X131000000Y-64000000D03*
X161000000Y-90000000D03*
D19*
X141320000Y-84235000D02*
X141320000Y-86775000D01*
X141320000Y-56295000D02*
X141320000Y-58835000D01*
D20*
X140935000Y-77000000D02*
X141320000Y-76615000D01*
X137800000Y-77000000D02*
X140935000Y-77000000D01*
D19*
X168300000Y-81600000D02*
X168100000Y-81800000D01*
X172250000Y-81600000D02*
X168300000Y-81600000D01*
X171814000Y-60036000D02*
X172200000Y-59650000D01*
X142521000Y-60036000D02*
X171814000Y-60036000D01*
X141320000Y-58835000D02*
X142521000Y-60036000D01*
D20*
X170475000Y-71535000D02*
X172200000Y-69810000D01*
X164180000Y-71535000D02*
X170475000Y-71535000D01*
X164180000Y-74075000D02*
X170475000Y-74075000D01*
X170475000Y-74075000D02*
X172200000Y-72350000D01*
X164180000Y-76615000D02*
X172155000Y-76615000D01*
X172155000Y-79155000D02*
X172250000Y-79060000D01*
X164180000Y-79155000D02*
X172155000Y-79155000D01*
X172155000Y-76615000D02*
X172250000Y-76520000D01*
D19*
X130750000Y-56150000D02*
X127390000Y-56150000D01*
X127390000Y-56150000D02*
X127250000Y-56010000D01*
X130760000Y-56140000D02*
X130750000Y-56150000D01*
X134250000Y-56140000D02*
X130760000Y-56140000D01*
X134310000Y-56200000D02*
X134250000Y-56140000D01*
X137800000Y-56200000D02*
X134310000Y-56200000D01*
D20*
X135950000Y-77000000D02*
X137800000Y-77000000D01*
X126800000Y-67850000D02*
X135950000Y-77000000D01*
X126800000Y-63620000D02*
X126800000Y-67850000D01*
D19*
X127050000Y-56250000D02*
X126800000Y-56000000D01*
X126885000Y-56300000D02*
X126800000Y-56215000D01*
X141215000Y-56190000D02*
X141320000Y-56295000D01*
X141320000Y-56295000D02*
X137895000Y-56295000D01*
X137895000Y-56295000D02*
X137800000Y-56200000D01*
X137790000Y-56190000D02*
X137800000Y-56200000D01*
D20*
X140275000Y-80200000D02*
X141320000Y-79155000D01*
X133000000Y-80200000D02*
X140275000Y-80200000D01*
X141215000Y-63810000D02*
X141320000Y-63915000D01*
X137700000Y-63900000D02*
X141305000Y-63900000D01*
X141305000Y-63900000D02*
X141320000Y-63915000D01*
D19*
X162841000Y-62714000D02*
X171676000Y-62714000D01*
X171676000Y-62714000D02*
X172200000Y-62190000D01*
X141320000Y-84235000D02*
X162841000Y-62714000D01*
D20*
X131000000Y-67500000D02*
X134250000Y-64250000D01*
X134250000Y-64250000D02*
X134250000Y-63760000D01*
X134250000Y-63760000D02*
X137560000Y-63760000D01*
X137560000Y-63760000D02*
X137700000Y-63900000D01*
G04 #@! TA.AperFunction,Conductor*
G36*
X140123690Y-52545185D02*
G01*
X140169445Y-52597989D01*
X140179389Y-52667147D01*
X140155917Y-52723812D01*
X140126647Y-52762910D01*
X140126645Y-52762913D01*
X140076403Y-52897620D01*
X140076401Y-52897627D01*
X140070000Y-52957155D01*
X140070000Y-53505000D01*
X140944722Y-53505000D01*
X140900667Y-53581306D01*
X140870000Y-53695756D01*
X140870000Y-53814244D01*
X140900667Y-53928694D01*
X140944722Y-54005000D01*
X140070000Y-54005000D01*
X140070000Y-54552844D01*
X140076401Y-54612372D01*
X140076403Y-54612379D01*
X140126645Y-54747086D01*
X140126649Y-54747093D01*
X140212809Y-54862187D01*
X140212812Y-54862190D01*
X140327906Y-54948350D01*
X140327913Y-54948354D01*
X140462620Y-54998596D01*
X140462627Y-54998598D01*
X140522155Y-55004999D01*
X140522172Y-55005000D01*
X140586421Y-55005000D01*
X140653460Y-55024685D01*
X140699215Y-55077489D01*
X140709159Y-55146647D01*
X140680134Y-55210203D01*
X140659307Y-55229317D01*
X140505354Y-55341172D01*
X140505352Y-55341174D01*
X140505351Y-55341174D01*
X140366171Y-55480354D01*
X140356703Y-55493387D01*
X140301372Y-55536052D01*
X140256386Y-55544500D01*
X138994439Y-55544500D01*
X138927400Y-55524815D01*
X138894121Y-55493385D01*
X138791971Y-55352787D01*
X138791967Y-55352782D01*
X138647213Y-55208028D01*
X138481613Y-55087715D01*
X138481612Y-55087714D01*
X138481610Y-55087713D01*
X138383480Y-55037713D01*
X138299223Y-54994781D01*
X138104534Y-54931522D01*
X137929995Y-54903878D01*
X137902352Y-54899500D01*
X137697648Y-54899500D01*
X137673329Y-54903351D01*
X137495465Y-54931522D01*
X137300776Y-54994781D01*
X137118386Y-55087715D01*
X136952786Y-55208028D01*
X136808032Y-55352782D01*
X136808028Y-55352787D01*
X136774900Y-55398385D01*
X136719571Y-55441051D01*
X136674582Y-55449500D01*
X135419009Y-55449500D01*
X135351970Y-55429815D01*
X135318690Y-55398384D01*
X135313362Y-55391051D01*
X135282364Y-55348385D01*
X135241969Y-55292784D01*
X135097213Y-55148028D01*
X134931613Y-55027715D01*
X134931612Y-55027714D01*
X134931610Y-55027713D01*
X134874465Y-54998596D01*
X134749223Y-54934781D01*
X134554534Y-54871522D01*
X134379995Y-54843878D01*
X134352352Y-54839500D01*
X134147648Y-54839500D01*
X134123329Y-54843351D01*
X133945465Y-54871522D01*
X133750776Y-54934781D01*
X133568386Y-55027715D01*
X133402786Y-55148028D01*
X133258032Y-55292782D01*
X133258028Y-55292787D01*
X133224900Y-55338385D01*
X133169571Y-55381051D01*
X133124582Y-55389500D01*
X131868152Y-55389500D01*
X131801113Y-55369815D01*
X131767835Y-55338387D01*
X131741966Y-55302781D01*
X131597219Y-55158034D01*
X131597213Y-55158028D01*
X131431613Y-55037715D01*
X131431612Y-55037714D01*
X131431610Y-55037713D01*
X131354839Y-54998596D01*
X131249223Y-54944781D01*
X131054534Y-54881522D01*
X130879995Y-54853878D01*
X130852352Y-54849500D01*
X130647648Y-54849500D01*
X130623329Y-54853351D01*
X130445465Y-54881522D01*
X130250776Y-54944781D01*
X130068386Y-55037715D01*
X129902786Y-55158028D01*
X129758032Y-55302782D01*
X129758028Y-55302787D01*
X129724900Y-55348385D01*
X129669571Y-55391051D01*
X129624582Y-55399500D01*
X128774499Y-55399500D01*
X128707460Y-55379815D01*
X128661705Y-55327011D01*
X128650499Y-55275500D01*
X128650499Y-55062129D01*
X128650498Y-55062123D01*
X128650497Y-55062116D01*
X128644091Y-55002517D01*
X128642629Y-54998598D01*
X128593797Y-54867671D01*
X128593793Y-54867664D01*
X128507547Y-54752455D01*
X128507544Y-54752452D01*
X128392335Y-54666206D01*
X128392328Y-54666202D01*
X128257482Y-54615908D01*
X128257483Y-54615908D01*
X128197883Y-54609501D01*
X128197881Y-54609500D01*
X128197873Y-54609500D01*
X128197864Y-54609500D01*
X126302129Y-54609500D01*
X126302123Y-54609501D01*
X126242516Y-54615908D01*
X126107671Y-54666202D01*
X126107664Y-54666206D01*
X125992455Y-54752452D01*
X125992452Y-54752455D01*
X125906206Y-54867664D01*
X125906202Y-54867671D01*
X125855908Y-55002517D01*
X125851395Y-55044500D01*
X125849501Y-55062123D01*
X125849500Y-55062135D01*
X125849500Y-56957870D01*
X125849501Y-56957876D01*
X125855908Y-57017483D01*
X125906202Y-57152328D01*
X125906206Y-57152335D01*
X125992452Y-57267544D01*
X125992455Y-57267547D01*
X126107664Y-57353793D01*
X126107671Y-57353797D01*
X126136432Y-57364524D01*
X126242517Y-57404091D01*
X126302127Y-57410500D01*
X126412693Y-57410499D01*
X126479730Y-57430183D01*
X126500372Y-57446818D01*
X127038941Y-57985387D01*
X127018409Y-57990889D01*
X126881592Y-58069881D01*
X126769881Y-58181592D01*
X126690889Y-58318409D01*
X126685387Y-58338940D01*
X126098932Y-57752485D01*
X126098931Y-57752485D01*
X126052616Y-57816233D01*
X125952567Y-58012589D01*
X125884473Y-58222164D01*
X125850000Y-58439818D01*
X125850000Y-58660181D01*
X125884473Y-58877835D01*
X125952567Y-59087410D01*
X126052611Y-59283756D01*
X126098932Y-59347513D01*
X126685387Y-58761058D01*
X126690889Y-58781591D01*
X126769881Y-58918408D01*
X126881592Y-59030119D01*
X127018409Y-59109111D01*
X127038939Y-59114612D01*
X126452485Y-59701065D01*
X126452485Y-59701066D01*
X126477680Y-59719371D01*
X126520346Y-59774701D01*
X126526325Y-59844314D01*
X126493720Y-59906110D01*
X126477681Y-59920008D01*
X126337636Y-60021756D01*
X126181756Y-60177636D01*
X126181752Y-60177641D01*
X126052187Y-60355974D01*
X125952104Y-60552393D01*
X125952103Y-60552396D01*
X125883985Y-60762047D01*
X125854403Y-60948819D01*
X125849500Y-60979778D01*
X125849500Y-61200222D01*
X125861594Y-61276583D01*
X125883985Y-61417952D01*
X125952103Y-61627603D01*
X125952104Y-61627606D01*
X126052187Y-61824025D01*
X126181752Y-62002358D01*
X126181756Y-62002363D01*
X126337636Y-62158243D01*
X126337641Y-62158247D01*
X126477254Y-62259682D01*
X126519920Y-62315012D01*
X126525899Y-62384625D01*
X126493293Y-62446420D01*
X126477254Y-62460318D01*
X126337641Y-62561752D01*
X126337636Y-62561756D01*
X126181756Y-62717636D01*
X126181752Y-62717641D01*
X126052187Y-62895974D01*
X125952104Y-63092393D01*
X125952103Y-63092396D01*
X125883985Y-63302047D01*
X125861345Y-63444990D01*
X125849500Y-63519778D01*
X125849500Y-63740222D01*
X125861594Y-63816583D01*
X125883985Y-63957952D01*
X125952103Y-64167603D01*
X125952104Y-64167606D01*
X126052185Y-64364022D01*
X126150818Y-64499780D01*
X126174298Y-64565585D01*
X126174500Y-64572664D01*
X126174500Y-67911606D01*
X126198537Y-68032452D01*
X126207592Y-68054312D01*
X126245688Y-68146286D01*
X126279915Y-68197509D01*
X126283997Y-68203618D01*
X126283998Y-68203620D01*
X126314141Y-68248733D01*
X126405586Y-68340178D01*
X126405608Y-68340198D01*
X131928348Y-73862938D01*
X131961833Y-73924261D01*
X131956849Y-73993953D01*
X131914977Y-74049886D01*
X131849513Y-74074303D01*
X131781240Y-74059451D01*
X131767781Y-74050937D01*
X131681349Y-73988140D01*
X131499031Y-73895244D01*
X131304417Y-73832009D01*
X131102317Y-73800000D01*
X130897683Y-73800000D01*
X130695582Y-73832009D01*
X130500968Y-73895244D01*
X130318644Y-73988143D01*
X130274077Y-74020523D01*
X130274077Y-74020524D01*
X130953554Y-74700000D01*
X130947339Y-74700000D01*
X130845606Y-74727259D01*
X130754394Y-74779920D01*
X130679920Y-74854394D01*
X130627259Y-74945606D01*
X130600000Y-75047339D01*
X130600000Y-75053553D01*
X129920524Y-74374077D01*
X129920523Y-74374077D01*
X129888143Y-74418644D01*
X129795244Y-74600968D01*
X129732009Y-74795582D01*
X129700000Y-74997682D01*
X129700000Y-75202317D01*
X129732009Y-75404417D01*
X129795244Y-75599031D01*
X129888141Y-75781350D01*
X129888147Y-75781359D01*
X129920523Y-75825921D01*
X129920524Y-75825922D01*
X130600000Y-75146446D01*
X130600000Y-75152661D01*
X130627259Y-75254394D01*
X130679920Y-75345606D01*
X130754394Y-75420080D01*
X130845606Y-75472741D01*
X130947339Y-75500000D01*
X130953553Y-75500000D01*
X130274076Y-76179474D01*
X130318650Y-76211859D01*
X130500968Y-76304755D01*
X130695582Y-76367990D01*
X130897683Y-76400000D01*
X131102317Y-76400000D01*
X131304417Y-76367990D01*
X131499031Y-76304755D01*
X131681349Y-76211859D01*
X131725921Y-76179474D01*
X131046447Y-75500000D01*
X131052661Y-75500000D01*
X131154394Y-75472741D01*
X131245606Y-75420080D01*
X131320080Y-75345606D01*
X131372741Y-75254394D01*
X131400000Y-75152661D01*
X131400000Y-75146446D01*
X132079474Y-75825921D01*
X132111859Y-75781349D01*
X132204755Y-75599031D01*
X132267990Y-75404417D01*
X132300000Y-75202317D01*
X132300000Y-74997682D01*
X132267990Y-74795582D01*
X132204755Y-74600968D01*
X132111859Y-74418650D01*
X132049062Y-74332218D01*
X132025582Y-74266412D01*
X132041407Y-74198358D01*
X132091513Y-74149663D01*
X132159991Y-74135787D01*
X132225100Y-74161136D01*
X132237061Y-74171651D01*
X135464139Y-77398729D01*
X135464142Y-77398733D01*
X135551267Y-77485858D01*
X135602490Y-77520084D01*
X135653714Y-77554312D01*
X135653715Y-77554312D01*
X135653716Y-77554313D01*
X135727390Y-77584829D01*
X135727394Y-77584830D01*
X135734207Y-77587652D01*
X135767548Y-77601463D01*
X135827971Y-77613481D01*
X135888393Y-77625500D01*
X135888394Y-77625500D01*
X136583885Y-77625500D01*
X136650924Y-77645185D01*
X136683606Y-77678571D01*
X136684849Y-77677669D01*
X136808028Y-77847213D01*
X136952786Y-77991971D01*
X137107749Y-78104556D01*
X137118390Y-78112287D01*
X137234607Y-78171503D01*
X137300776Y-78205218D01*
X137300778Y-78205218D01*
X137300781Y-78205220D01*
X137405137Y-78239127D01*
X137495465Y-78268477D01*
X137596557Y-78284488D01*
X137697648Y-78300500D01*
X137697649Y-78300500D01*
X137902351Y-78300500D01*
X137902352Y-78300500D01*
X138104534Y-78268477D01*
X138299219Y-78205220D01*
X138481610Y-78112287D01*
X138574590Y-78044732D01*
X138647213Y-77991971D01*
X138647215Y-77991968D01*
X138647219Y-77991966D01*
X138791966Y-77847219D01*
X138791968Y-77847215D01*
X138791971Y-77847213D01*
X138915151Y-77677669D01*
X138916823Y-77678884D01*
X138962208Y-77637831D01*
X139016115Y-77625500D01*
X140543065Y-77625500D01*
X140610104Y-77645185D01*
X140615950Y-77649182D01*
X140655160Y-77677669D01*
X140664595Y-77684524D01*
X140783310Y-77745012D01*
X140841213Y-77774515D01*
X140892009Y-77822489D01*
X140908804Y-77890310D01*
X140886267Y-77956445D01*
X140841213Y-77995485D01*
X140664594Y-78085476D01*
X140579041Y-78147635D01*
X140505354Y-78201172D01*
X140505352Y-78201174D01*
X140505351Y-78201174D01*
X140366174Y-78340351D01*
X140366174Y-78340352D01*
X140366172Y-78340354D01*
X140316485Y-78408741D01*
X140250476Y-78499594D01*
X140161117Y-78674970D01*
X140100290Y-78862173D01*
X140069500Y-79056577D01*
X140069500Y-79253422D01*
X140096189Y-79421931D01*
X140095488Y-79427349D01*
X140097399Y-79432469D01*
X140091058Y-79461633D01*
X140087234Y-79491225D01*
X140083407Y-79496821D01*
X140082555Y-79500744D01*
X140061407Y-79529001D01*
X140052238Y-79538172D01*
X139990918Y-79571663D01*
X139964547Y-79574500D01*
X134097573Y-79574500D01*
X134030534Y-79554815D01*
X133997255Y-79523386D01*
X133918741Y-79415321D01*
X133784679Y-79281259D01*
X133631296Y-79169819D01*
X133462372Y-79083747D01*
X133378751Y-79056577D01*
X133282055Y-79025158D01*
X133282051Y-79025157D01*
X133282050Y-79025157D01*
X133094800Y-78995500D01*
X133094796Y-78995500D01*
X132905204Y-78995500D01*
X132905200Y-78995500D01*
X132717949Y-79025157D01*
X132717946Y-79025157D01*
X132717945Y-79025158D01*
X132659482Y-79044153D01*
X132537627Y-79083747D01*
X132368703Y-79169819D01*
X132215319Y-79281260D01*
X132081260Y-79415319D01*
X131969819Y-79568703D01*
X131883747Y-79737627D01*
X131825157Y-79917949D01*
X131795500Y-80105199D01*
X131795500Y-80294800D01*
X131816964Y-80430318D01*
X131825158Y-80482055D01*
X131841306Y-80531752D01*
X131883747Y-80662372D01*
X131954618Y-80801463D01*
X131969819Y-80831296D01*
X132081259Y-80984679D01*
X132215321Y-81118741D01*
X132368704Y-81230181D01*
X132448515Y-81270846D01*
X132537627Y-81316252D01*
X132537629Y-81316252D01*
X132537632Y-81316254D01*
X132717945Y-81374842D01*
X132811574Y-81389671D01*
X132905200Y-81404500D01*
X132905204Y-81404500D01*
X133094800Y-81404500D01*
X133178022Y-81391318D01*
X133282055Y-81374842D01*
X133462368Y-81316254D01*
X133631296Y-81230181D01*
X133784679Y-81118741D01*
X133918741Y-80984679D01*
X133997255Y-80876613D01*
X134052585Y-80833949D01*
X134097573Y-80825500D01*
X140163280Y-80825500D01*
X140230319Y-80845185D01*
X140276074Y-80897989D01*
X140286018Y-80967147D01*
X140263597Y-81022387D01*
X140250904Y-81039855D01*
X140161581Y-81215164D01*
X140100778Y-81402294D01*
X140070000Y-81596617D01*
X140070000Y-81793382D01*
X140100778Y-81987705D01*
X140161581Y-82174835D01*
X140250905Y-82350145D01*
X140276319Y-82385125D01*
X140276320Y-82385125D01*
X140877861Y-81783583D01*
X140900667Y-81868694D01*
X140959910Y-81971306D01*
X141043694Y-82055090D01*
X141146306Y-82114333D01*
X141231414Y-82137137D01*
X140629873Y-82738677D01*
X140629873Y-82738678D01*
X140664858Y-82764096D01*
X140841764Y-82854234D01*
X140892560Y-82902209D01*
X140909355Y-82970030D01*
X140886818Y-83036164D01*
X140841764Y-83075204D01*
X140664594Y-83165476D01*
X140627851Y-83192172D01*
X140505354Y-83281172D01*
X140505352Y-83281174D01*
X140505351Y-83281174D01*
X140366174Y-83420351D01*
X140366174Y-83420352D01*
X140366172Y-83420354D01*
X140316485Y-83488741D01*
X140250476Y-83579594D01*
X140161117Y-83754970D01*
X140100290Y-83942173D01*
X140069500Y-84136577D01*
X140069500Y-84333422D01*
X140100290Y-84527826D01*
X140161117Y-84715029D01*
X140250476Y-84890405D01*
X140366172Y-85049646D01*
X140505354Y-85188828D01*
X140518385Y-85198295D01*
X140561050Y-85253622D01*
X140569500Y-85298613D01*
X140569500Y-85711385D01*
X140549815Y-85778424D01*
X140518388Y-85811701D01*
X140505356Y-85821169D01*
X140366171Y-85960355D01*
X140250476Y-86119594D01*
X140161117Y-86294970D01*
X140100290Y-86482173D01*
X140069500Y-86676577D01*
X140069500Y-86873422D01*
X140100290Y-87067826D01*
X140161117Y-87255029D01*
X140225133Y-87380667D01*
X140250476Y-87430405D01*
X140366172Y-87589646D01*
X140505354Y-87728828D01*
X140603312Y-87799999D01*
X140664596Y-87844525D01*
X140841763Y-87934795D01*
X140892560Y-87982769D01*
X140909355Y-88050590D01*
X140886818Y-88116725D01*
X140841764Y-88155765D01*
X140664859Y-88245902D01*
X140629873Y-88271320D01*
X140629872Y-88271320D01*
X141231415Y-88872861D01*
X141146306Y-88895667D01*
X141043694Y-88954910D01*
X140959910Y-89038694D01*
X140900667Y-89141306D01*
X140877861Y-89226414D01*
X140276320Y-88624872D01*
X140276320Y-88624873D01*
X140250902Y-88659859D01*
X140250899Y-88659863D01*
X140161582Y-88835161D01*
X140100778Y-89022294D01*
X140070000Y-89216617D01*
X140070000Y-89413382D01*
X140100778Y-89607705D01*
X140161581Y-89794835D01*
X140250905Y-89970145D01*
X140276319Y-90005125D01*
X140276320Y-90005125D01*
X140877861Y-89403584D01*
X140900667Y-89488694D01*
X140959910Y-89591306D01*
X141043694Y-89675090D01*
X141146306Y-89734333D01*
X141231414Y-89757137D01*
X140629873Y-90358677D01*
X140629873Y-90358678D01*
X140664858Y-90384096D01*
X140840164Y-90473418D01*
X141027294Y-90534221D01*
X141221618Y-90565000D01*
X141418382Y-90565000D01*
X141612705Y-90534221D01*
X141799835Y-90473418D01*
X141975143Y-90384095D01*
X142010125Y-90358678D01*
X142010126Y-90358678D01*
X141408585Y-89757137D01*
X141493694Y-89734333D01*
X141596306Y-89675090D01*
X141680090Y-89591306D01*
X141739333Y-89488694D01*
X141762137Y-89403585D01*
X142363678Y-90005126D01*
X142363678Y-90005125D01*
X142389095Y-89970143D01*
X142478418Y-89794835D01*
X142539221Y-89607705D01*
X142570000Y-89413382D01*
X142570000Y-89216617D01*
X142539221Y-89022294D01*
X142478418Y-88835164D01*
X142389096Y-88659858D01*
X142363678Y-88624873D01*
X142363677Y-88624873D01*
X141762137Y-89226413D01*
X141739333Y-89141306D01*
X141680090Y-89038694D01*
X141596306Y-88954910D01*
X141493694Y-88895667D01*
X141408584Y-88872861D01*
X142010125Y-88271320D01*
X142010125Y-88271319D01*
X141975145Y-88245905D01*
X141798235Y-88155765D01*
X141747439Y-88107790D01*
X141730644Y-88039969D01*
X141753182Y-87973834D01*
X141798236Y-87934795D01*
X141800022Y-87933884D01*
X141800025Y-87933884D01*
X141975405Y-87844524D01*
X142134646Y-87728828D01*
X142273828Y-87589646D01*
X142389524Y-87430405D01*
X142478884Y-87255025D01*
X142539709Y-87067826D01*
X142565923Y-86902317D01*
X142570500Y-86873422D01*
X142570500Y-86676577D01*
X142539709Y-86482173D01*
X142478882Y-86294970D01*
X142389523Y-86119594D01*
X142356452Y-86074076D01*
X142273828Y-85960354D01*
X142134646Y-85821172D01*
X142134645Y-85821171D01*
X142134643Y-85821169D01*
X142121612Y-85811701D01*
X142078948Y-85756370D01*
X142070500Y-85711385D01*
X142070500Y-85298613D01*
X142090185Y-85231574D01*
X142121613Y-85198296D01*
X142134646Y-85188828D01*
X142273828Y-85049646D01*
X142389524Y-84890405D01*
X142478884Y-84715025D01*
X142539709Y-84527826D01*
X142570500Y-84333422D01*
X142570500Y-84139917D01*
X142570500Y-84136583D01*
X142567737Y-84119143D01*
X142567535Y-84117619D01*
X142572647Y-84084554D01*
X142576934Y-84051380D01*
X142578022Y-84049787D01*
X142578211Y-84048570D01*
X142581042Y-84045370D01*
X142602769Y-84013597D01*
X162717819Y-63898548D01*
X162779142Y-63865063D01*
X162848834Y-63870047D01*
X162904767Y-63911919D01*
X162929184Y-63977383D01*
X162929500Y-63986229D01*
X162929500Y-64013422D01*
X162960290Y-64207826D01*
X163021117Y-64395029D01*
X163087596Y-64525500D01*
X163110476Y-64570405D01*
X163226172Y-64729646D01*
X163365354Y-64868828D01*
X163524595Y-64984524D01*
X163610858Y-65028477D01*
X163701213Y-65074515D01*
X163752009Y-65122489D01*
X163768804Y-65190310D01*
X163746267Y-65256445D01*
X163701213Y-65295485D01*
X163524594Y-65385476D01*
X163433741Y-65451485D01*
X163365354Y-65501172D01*
X163365352Y-65501174D01*
X163365351Y-65501174D01*
X163226174Y-65640351D01*
X163226174Y-65640352D01*
X163226172Y-65640354D01*
X163176485Y-65708741D01*
X163110476Y-65799594D01*
X163021117Y-65974970D01*
X162960290Y-66162173D01*
X162929500Y-66356577D01*
X162929500Y-66553422D01*
X162960290Y-66747826D01*
X163021117Y-66935029D01*
X163096192Y-67082371D01*
X163110476Y-67110405D01*
X163226172Y-67269646D01*
X163365354Y-67408828D01*
X163484784Y-67495600D01*
X163524596Y-67524525D01*
X163701763Y-67614795D01*
X163752560Y-67662769D01*
X163769355Y-67730590D01*
X163746818Y-67796725D01*
X163701764Y-67835765D01*
X163524859Y-67925902D01*
X163489873Y-67951320D01*
X163489872Y-67951320D01*
X164091415Y-68552861D01*
X164006306Y-68575667D01*
X163903694Y-68634910D01*
X163819910Y-68718694D01*
X163760667Y-68821306D01*
X163737861Y-68906414D01*
X163136320Y-68304872D01*
X163136320Y-68304873D01*
X163110902Y-68339859D01*
X163110899Y-68339863D01*
X163021582Y-68515161D01*
X162960778Y-68702294D01*
X162930000Y-68896617D01*
X162930000Y-69093382D01*
X162960778Y-69287705D01*
X163021581Y-69474835D01*
X163110905Y-69650145D01*
X163136319Y-69685125D01*
X163136320Y-69685125D01*
X163737861Y-69083584D01*
X163760667Y-69168694D01*
X163819910Y-69271306D01*
X163903694Y-69355090D01*
X164006306Y-69414333D01*
X164091414Y-69437137D01*
X163489873Y-70038677D01*
X163489873Y-70038678D01*
X163524858Y-70064096D01*
X163701764Y-70154234D01*
X163752560Y-70202209D01*
X163769355Y-70270030D01*
X163746818Y-70336164D01*
X163701764Y-70375204D01*
X163524594Y-70465476D01*
X163433741Y-70531485D01*
X163365354Y-70581172D01*
X163365352Y-70581174D01*
X163365351Y-70581174D01*
X163226174Y-70720351D01*
X163226174Y-70720352D01*
X163226172Y-70720354D01*
X163176485Y-70788741D01*
X163110476Y-70879594D01*
X163021117Y-71054970D01*
X162960290Y-71242173D01*
X162929500Y-71436577D01*
X162929500Y-71633422D01*
X162960290Y-71827826D01*
X163021117Y-72015029D01*
X163093411Y-72156913D01*
X163110476Y-72190405D01*
X163226172Y-72349646D01*
X163365354Y-72488828D01*
X163524595Y-72604524D01*
X163647992Y-72667397D01*
X163701213Y-72694515D01*
X163752009Y-72742489D01*
X163768804Y-72810310D01*
X163746267Y-72876445D01*
X163701213Y-72915485D01*
X163524594Y-73005476D01*
X163433741Y-73071485D01*
X163365354Y-73121172D01*
X163365352Y-73121174D01*
X163365351Y-73121174D01*
X163226174Y-73260351D01*
X163226174Y-73260352D01*
X163226172Y-73260354D01*
X163176485Y-73328741D01*
X163110476Y-73419594D01*
X163021117Y-73594970D01*
X162960290Y-73782173D01*
X162929500Y-73976577D01*
X162929500Y-74173422D01*
X162960290Y-74367826D01*
X163021117Y-74555029D01*
X163094984Y-74700000D01*
X163110476Y-74730405D01*
X163226172Y-74889646D01*
X163365354Y-75028828D01*
X163524595Y-75144524D01*
X163638021Y-75202317D01*
X163701213Y-75234515D01*
X163752009Y-75282489D01*
X163768804Y-75350310D01*
X163746267Y-75416445D01*
X163701213Y-75455485D01*
X163524594Y-75545476D01*
X163450883Y-75599031D01*
X163365354Y-75661172D01*
X163365352Y-75661174D01*
X163365351Y-75661174D01*
X163226174Y-75800351D01*
X163226174Y-75800352D01*
X163226172Y-75800354D01*
X163207596Y-75825922D01*
X163110476Y-75959594D01*
X163021117Y-76134970D01*
X162960290Y-76322173D01*
X162929500Y-76516577D01*
X162929500Y-76713422D01*
X162960290Y-76907826D01*
X163021117Y-77095029D01*
X163095239Y-77240500D01*
X163110476Y-77270405D01*
X163226172Y-77429646D01*
X163365354Y-77568828D01*
X163524595Y-77684524D01*
X163561995Y-77703580D01*
X163701213Y-77774515D01*
X163752009Y-77822489D01*
X163768804Y-77890310D01*
X163746267Y-77956445D01*
X163701213Y-77995485D01*
X163524594Y-78085476D01*
X163439041Y-78147635D01*
X163365354Y-78201172D01*
X163365352Y-78201174D01*
X163365351Y-78201174D01*
X163226174Y-78340351D01*
X163226174Y-78340352D01*
X163226172Y-78340354D01*
X163176485Y-78408741D01*
X163110476Y-78499594D01*
X163021117Y-78674970D01*
X162960290Y-78862173D01*
X162929500Y-79056577D01*
X162929500Y-79253422D01*
X162960290Y-79447826D01*
X163021117Y-79635029D01*
X163095239Y-79780500D01*
X163110476Y-79810405D01*
X163226172Y-79969646D01*
X163365354Y-80108828D01*
X163484784Y-80195600D01*
X163524596Y-80224525D01*
X163701763Y-80314795D01*
X163752560Y-80362769D01*
X163769355Y-80430590D01*
X163746818Y-80496725D01*
X163701764Y-80535765D01*
X163524859Y-80625902D01*
X163489873Y-80651320D01*
X163489872Y-80651320D01*
X164091415Y-81252861D01*
X164006306Y-81275667D01*
X163903694Y-81334910D01*
X163819910Y-81418694D01*
X163760667Y-81521306D01*
X163737861Y-81606414D01*
X163136320Y-81004872D01*
X163136320Y-81004873D01*
X163110902Y-81039859D01*
X163110899Y-81039863D01*
X163021582Y-81215161D01*
X162960778Y-81402294D01*
X162930000Y-81596617D01*
X162930000Y-81793382D01*
X162960778Y-81987705D01*
X163021581Y-82174835D01*
X163110905Y-82350145D01*
X163136319Y-82385125D01*
X163136320Y-82385125D01*
X163737861Y-81783584D01*
X163760667Y-81868694D01*
X163819910Y-81971306D01*
X163903694Y-82055090D01*
X164006306Y-82114333D01*
X164091414Y-82137137D01*
X163489873Y-82738677D01*
X163489873Y-82738678D01*
X163524858Y-82764096D01*
X163701764Y-82854234D01*
X163752560Y-82902209D01*
X163769355Y-82970030D01*
X163746818Y-83036164D01*
X163701764Y-83075204D01*
X163524594Y-83165476D01*
X163487851Y-83192172D01*
X163365354Y-83281172D01*
X163365352Y-83281174D01*
X163365351Y-83281174D01*
X163226174Y-83420351D01*
X163226174Y-83420352D01*
X163226172Y-83420354D01*
X163176485Y-83488741D01*
X163110476Y-83579594D01*
X163021117Y-83754970D01*
X162960290Y-83942173D01*
X162929500Y-84136577D01*
X162929500Y-84333422D01*
X162960290Y-84527826D01*
X163021117Y-84715029D01*
X163110476Y-84890405D01*
X163226172Y-85049646D01*
X163365354Y-85188828D01*
X163524595Y-85304524D01*
X163647992Y-85367397D01*
X163701213Y-85394515D01*
X163752009Y-85442489D01*
X163768804Y-85510310D01*
X163746267Y-85576445D01*
X163701213Y-85615485D01*
X163524594Y-85705476D01*
X163503883Y-85720524D01*
X163365354Y-85821172D01*
X163365352Y-85821174D01*
X163365351Y-85821174D01*
X163226174Y-85960351D01*
X163226174Y-85960352D01*
X163226172Y-85960354D01*
X163176485Y-86028741D01*
X163110476Y-86119594D01*
X163021117Y-86294970D01*
X162960290Y-86482173D01*
X162929500Y-86676577D01*
X162929500Y-86873422D01*
X162960290Y-87067826D01*
X163021117Y-87255029D01*
X163085133Y-87380667D01*
X163110476Y-87430405D01*
X163226172Y-87589646D01*
X163365354Y-87728828D01*
X163463312Y-87799999D01*
X163524596Y-87844525D01*
X163701763Y-87934795D01*
X163752560Y-87982769D01*
X163769355Y-88050590D01*
X163746818Y-88116725D01*
X163701764Y-88155765D01*
X163524859Y-88245902D01*
X163489873Y-88271320D01*
X163489872Y-88271320D01*
X164091415Y-88872861D01*
X164006306Y-88895667D01*
X163903694Y-88954910D01*
X163819910Y-89038694D01*
X163760667Y-89141306D01*
X163737861Y-89226414D01*
X163136320Y-88624872D01*
X163136320Y-88624873D01*
X163110902Y-88659859D01*
X163110899Y-88659863D01*
X163021582Y-88835161D01*
X162960778Y-89022294D01*
X162930000Y-89216617D01*
X162930000Y-89413382D01*
X162960778Y-89607705D01*
X163021581Y-89794835D01*
X163110905Y-89970145D01*
X163136319Y-90005125D01*
X163136320Y-90005125D01*
X163737861Y-89403584D01*
X163760667Y-89488694D01*
X163819910Y-89591306D01*
X163903694Y-89675090D01*
X164006306Y-89734333D01*
X164091414Y-89757137D01*
X163489873Y-90358677D01*
X163489873Y-90358678D01*
X163524858Y-90384096D01*
X163700164Y-90473418D01*
X163887294Y-90534221D01*
X164081618Y-90565000D01*
X164278382Y-90565000D01*
X164472705Y-90534221D01*
X164659835Y-90473418D01*
X164835143Y-90384095D01*
X164870125Y-90358678D01*
X164870126Y-90358678D01*
X164268585Y-89757137D01*
X164353694Y-89734333D01*
X164456306Y-89675090D01*
X164540090Y-89591306D01*
X164599333Y-89488694D01*
X164622137Y-89403585D01*
X165223678Y-90005126D01*
X165223678Y-90005125D01*
X165249095Y-89970143D01*
X165288038Y-89893713D01*
X172649500Y-89893713D01*
X172649500Y-90106287D01*
X172682754Y-90316243D01*
X172733823Y-90473418D01*
X172748444Y-90518414D01*
X172844951Y-90707820D01*
X172969890Y-90879786D01*
X173120213Y-91030109D01*
X173292179Y-91155048D01*
X173292181Y-91155049D01*
X173292184Y-91155051D01*
X173481588Y-91251557D01*
X173683757Y-91317246D01*
X173893713Y-91350500D01*
X173893714Y-91350500D01*
X174106286Y-91350500D01*
X174106287Y-91350500D01*
X174316243Y-91317246D01*
X174518412Y-91251557D01*
X174707816Y-91155051D01*
X174729789Y-91139086D01*
X174879786Y-91030109D01*
X174879788Y-91030106D01*
X174879792Y-91030104D01*
X175030104Y-90879792D01*
X175030106Y-90879788D01*
X175030109Y-90879786D01*
X175155048Y-90707820D01*
X175155047Y-90707820D01*
X175155051Y-90707816D01*
X175251557Y-90518412D01*
X175317246Y-90316243D01*
X175350500Y-90106287D01*
X175350500Y-89893713D01*
X175317246Y-89683757D01*
X175251557Y-89481588D01*
X175155051Y-89292184D01*
X175155049Y-89292181D01*
X175155048Y-89292179D01*
X175030109Y-89120213D01*
X174879786Y-88969890D01*
X174707820Y-88844951D01*
X174518414Y-88748444D01*
X174518413Y-88748443D01*
X174518412Y-88748443D01*
X174316243Y-88682754D01*
X174316241Y-88682753D01*
X174316240Y-88682753D01*
X174154957Y-88657208D01*
X174106287Y-88649500D01*
X173893713Y-88649500D01*
X173845042Y-88657208D01*
X173683760Y-88682753D01*
X173481585Y-88748444D01*
X173292179Y-88844951D01*
X173120213Y-88969890D01*
X172969890Y-89120213D01*
X172844951Y-89292179D01*
X172748444Y-89481585D01*
X172682753Y-89683760D01*
X172674743Y-89734333D01*
X172649500Y-89893713D01*
X165288038Y-89893713D01*
X165319205Y-89832546D01*
X165319206Y-89832544D01*
X165338417Y-89794838D01*
X165399221Y-89607705D01*
X165430000Y-89413382D01*
X165430000Y-89216617D01*
X165399221Y-89022294D01*
X165338418Y-88835164D01*
X165249096Y-88659858D01*
X165223678Y-88624873D01*
X165223677Y-88624873D01*
X164622137Y-89226413D01*
X164599333Y-89141306D01*
X164540090Y-89038694D01*
X164456306Y-88954910D01*
X164353694Y-88895667D01*
X164268584Y-88872861D01*
X164870125Y-88271320D01*
X164870125Y-88271319D01*
X164835145Y-88245905D01*
X164658235Y-88155765D01*
X164607439Y-88107790D01*
X164590644Y-88039969D01*
X164613182Y-87973834D01*
X164658236Y-87934795D01*
X164660022Y-87933884D01*
X164660025Y-87933884D01*
X164835405Y-87844524D01*
X164994646Y-87728828D01*
X165133828Y-87589646D01*
X165249524Y-87430405D01*
X165338884Y-87255025D01*
X165399709Y-87067826D01*
X165425923Y-86902317D01*
X165430500Y-86873422D01*
X165430500Y-86697682D01*
X166800000Y-86697682D01*
X166800000Y-86902317D01*
X166832009Y-87104417D01*
X166895244Y-87299031D01*
X166988141Y-87481350D01*
X166988147Y-87481359D01*
X167020523Y-87525921D01*
X167020524Y-87525922D01*
X167700000Y-86846446D01*
X167700000Y-86852661D01*
X167727259Y-86954394D01*
X167779920Y-87045606D01*
X167854394Y-87120080D01*
X167945606Y-87172741D01*
X168047339Y-87200000D01*
X168053553Y-87200000D01*
X167374076Y-87879474D01*
X167418650Y-87911859D01*
X167600968Y-88004755D01*
X167795582Y-88067990D01*
X167997683Y-88100000D01*
X168202317Y-88100000D01*
X168404417Y-88067990D01*
X168599031Y-88004755D01*
X168781349Y-87911859D01*
X168825921Y-87879474D01*
X168146447Y-87200000D01*
X168152661Y-87200000D01*
X168254394Y-87172741D01*
X168345606Y-87120080D01*
X168420080Y-87045606D01*
X168472741Y-86954394D01*
X168500000Y-86852661D01*
X168500000Y-86846448D01*
X169179474Y-87525922D01*
X169179474Y-87525921D01*
X169211859Y-87481349D01*
X169304755Y-87299031D01*
X169367990Y-87104417D01*
X169400000Y-86902317D01*
X169400000Y-86697682D01*
X169367990Y-86495582D01*
X169304755Y-86300968D01*
X169211859Y-86118650D01*
X169179474Y-86074077D01*
X169179474Y-86074076D01*
X168500000Y-86753551D01*
X168500000Y-86747339D01*
X168472741Y-86645606D01*
X168420080Y-86554394D01*
X168345606Y-86479920D01*
X168254394Y-86427259D01*
X168152661Y-86400000D01*
X168146446Y-86400000D01*
X168825922Y-85720524D01*
X168825921Y-85720523D01*
X168781359Y-85688147D01*
X168781350Y-85688141D01*
X168599031Y-85595244D01*
X168404417Y-85532009D01*
X168202317Y-85500000D01*
X167997683Y-85500000D01*
X167795582Y-85532009D01*
X167600968Y-85595244D01*
X167418644Y-85688143D01*
X167374077Y-85720523D01*
X167374077Y-85720524D01*
X168053554Y-86400000D01*
X168047339Y-86400000D01*
X167945606Y-86427259D01*
X167854394Y-86479920D01*
X167779920Y-86554394D01*
X167727259Y-86645606D01*
X167700000Y-86747339D01*
X167700000Y-86753553D01*
X167020524Y-86074077D01*
X167020523Y-86074077D01*
X166988143Y-86118644D01*
X166895244Y-86300968D01*
X166832009Y-86495582D01*
X166800000Y-86697682D01*
X165430500Y-86697682D01*
X165430500Y-86676577D01*
X165399709Y-86482173D01*
X165338882Y-86294970D01*
X165249523Y-86119594D01*
X165248833Y-86118644D01*
X165133828Y-85960354D01*
X164994646Y-85821172D01*
X164856117Y-85720524D01*
X164835403Y-85705474D01*
X164658787Y-85615485D01*
X164607990Y-85567511D01*
X164591195Y-85499690D01*
X164613732Y-85433555D01*
X164658787Y-85394515D01*
X164835403Y-85304525D01*
X164835402Y-85304525D01*
X164835405Y-85304524D01*
X164994646Y-85188828D01*
X165133828Y-85049646D01*
X165249524Y-84890405D01*
X165338884Y-84715025D01*
X165399709Y-84527826D01*
X165430500Y-84333417D01*
X165430500Y-84136583D01*
X165430500Y-84136577D01*
X165399709Y-83942173D01*
X165338882Y-83754970D01*
X165249523Y-83579594D01*
X165220756Y-83540000D01*
X165133828Y-83420354D01*
X164994646Y-83281172D01*
X164835405Y-83165476D01*
X164660025Y-83076116D01*
X164660024Y-83076115D01*
X164658235Y-83075204D01*
X164607439Y-83027230D01*
X164590644Y-82959409D01*
X164613181Y-82893274D01*
X164658236Y-82854234D01*
X164835141Y-82764097D01*
X164870125Y-82738678D01*
X164870126Y-82738678D01*
X164268585Y-82137137D01*
X164353694Y-82114333D01*
X164456306Y-82055090D01*
X164540090Y-81971306D01*
X164599333Y-81868694D01*
X164622137Y-81783585D01*
X165223678Y-82385126D01*
X165223678Y-82385125D01*
X165249095Y-82350143D01*
X165338418Y-82174835D01*
X165399221Y-81987705D01*
X165430000Y-81793382D01*
X165430000Y-81596617D01*
X165399221Y-81402294D01*
X165338418Y-81215164D01*
X165249096Y-81039858D01*
X165223678Y-81004873D01*
X165223677Y-81004873D01*
X164622137Y-81606413D01*
X164599333Y-81521306D01*
X164540090Y-81418694D01*
X164456306Y-81334910D01*
X164353694Y-81275667D01*
X164268584Y-81252861D01*
X164870125Y-80651320D01*
X164870125Y-80651319D01*
X164835145Y-80625905D01*
X164658235Y-80535765D01*
X164607439Y-80487790D01*
X164590644Y-80419969D01*
X164613182Y-80353834D01*
X164658236Y-80314795D01*
X164660022Y-80313884D01*
X164660025Y-80313884D01*
X164835405Y-80224524D01*
X164994646Y-80108828D01*
X165133828Y-79969646D01*
X165234115Y-79831614D01*
X165289446Y-79788949D01*
X165334433Y-79780500D01*
X170979179Y-79780500D01*
X171046218Y-79800185D01*
X171079497Y-79831615D01*
X171181752Y-79972358D01*
X171181756Y-79972363D01*
X171337636Y-80128243D01*
X171337641Y-80128247D01*
X171477254Y-80229682D01*
X171519920Y-80285012D01*
X171525899Y-80354625D01*
X171493293Y-80416420D01*
X171477254Y-80430318D01*
X171337641Y-80531752D01*
X171337636Y-80531756D01*
X171181754Y-80687638D01*
X171101295Y-80798384D01*
X171045965Y-80841051D01*
X171000976Y-80849500D01*
X169040047Y-80849500D01*
X168973008Y-80829815D01*
X168952366Y-80813181D01*
X168947213Y-80808028D01*
X168781613Y-80687715D01*
X168781612Y-80687714D01*
X168781610Y-80687713D01*
X168710183Y-80651319D01*
X168599223Y-80594781D01*
X168404534Y-80531522D01*
X168229995Y-80503878D01*
X168202352Y-80499500D01*
X167997648Y-80499500D01*
X167973329Y-80503351D01*
X167795465Y-80531522D01*
X167600776Y-80594781D01*
X167418386Y-80687715D01*
X167252786Y-80808028D01*
X167108028Y-80952786D01*
X166987715Y-81118386D01*
X166894781Y-81300776D01*
X166831522Y-81495465D01*
X166799500Y-81697648D01*
X166799500Y-81902351D01*
X166831522Y-82104534D01*
X166894781Y-82299223D01*
X166987715Y-82481613D01*
X167108028Y-82647213D01*
X167252786Y-82791971D01*
X167398581Y-82897895D01*
X167418390Y-82912287D01*
X167510872Y-82959409D01*
X167600776Y-83005218D01*
X167600778Y-83005218D01*
X167600781Y-83005220D01*
X167668521Y-83027230D01*
X167795465Y-83068477D01*
X167896557Y-83084488D01*
X167997648Y-83100500D01*
X167997649Y-83100500D01*
X168202351Y-83100500D01*
X168202352Y-83100500D01*
X168404534Y-83068477D01*
X168599219Y-83005220D01*
X168781610Y-82912287D01*
X168874590Y-82844732D01*
X168947213Y-82791971D01*
X168947215Y-82791968D01*
X168947219Y-82791966D01*
X169091966Y-82647219D01*
X169091968Y-82647215D01*
X169091971Y-82647213D01*
X169189942Y-82512365D01*
X169212287Y-82481610D01*
X169244593Y-82418205D01*
X169292567Y-82367409D01*
X169355078Y-82350500D01*
X171000976Y-82350500D01*
X171002811Y-82351038D01*
X171004661Y-82350555D01*
X171036196Y-82360842D01*
X171068015Y-82370185D01*
X171069843Y-82371817D01*
X171071086Y-82372223D01*
X171079866Y-82380766D01*
X171097061Y-82396118D01*
X171099247Y-82398798D01*
X171181758Y-82512365D01*
X171236757Y-82567364D01*
X171240720Y-82572222D01*
X171251946Y-82598872D01*
X171265801Y-82624246D01*
X171265341Y-82630673D01*
X171267843Y-82636612D01*
X171262879Y-82665096D01*
X171260817Y-82693938D01*
X171256954Y-82699096D01*
X171255849Y-82705444D01*
X171236274Y-82726722D01*
X171218945Y-82749871D01*
X171210976Y-82754222D01*
X171208545Y-82756865D01*
X171203920Y-82758074D01*
X171187969Y-82766785D01*
X171107918Y-82796643D01*
X171107906Y-82796649D01*
X170992812Y-82882809D01*
X170992809Y-82882812D01*
X170906649Y-82997906D01*
X170906645Y-82997913D01*
X170856403Y-83132620D01*
X170856401Y-83132627D01*
X170850000Y-83192155D01*
X170850000Y-83890000D01*
X171701518Y-83890000D01*
X171690889Y-83908409D01*
X171650000Y-84061009D01*
X171650000Y-84218991D01*
X171690889Y-84371591D01*
X171701518Y-84390000D01*
X170850000Y-84390000D01*
X170850000Y-85087844D01*
X170856401Y-85147372D01*
X170856403Y-85147379D01*
X170906645Y-85282086D01*
X170906649Y-85282093D01*
X170992809Y-85397187D01*
X170992812Y-85397190D01*
X171107906Y-85483350D01*
X171107913Y-85483354D01*
X171242620Y-85533596D01*
X171242627Y-85533598D01*
X171302155Y-85539999D01*
X171302172Y-85540000D01*
X172000000Y-85540000D01*
X172000000Y-84688482D01*
X172018409Y-84699111D01*
X172171009Y-84740000D01*
X172328991Y-84740000D01*
X172481591Y-84699111D01*
X172500000Y-84688482D01*
X172500000Y-85540000D01*
X173197828Y-85540000D01*
X173197844Y-85539999D01*
X173257372Y-85533598D01*
X173257379Y-85533596D01*
X173392086Y-85483354D01*
X173392093Y-85483350D01*
X173507187Y-85397190D01*
X173507190Y-85397187D01*
X173593350Y-85282093D01*
X173593354Y-85282086D01*
X173643596Y-85147379D01*
X173643598Y-85147372D01*
X173649999Y-85087844D01*
X173650000Y-85087827D01*
X173650000Y-84390000D01*
X172798482Y-84390000D01*
X172809111Y-84371591D01*
X172850000Y-84218991D01*
X172850000Y-84061009D01*
X172809111Y-83908409D01*
X172798482Y-83890000D01*
X173650000Y-83890000D01*
X173650000Y-83192172D01*
X173649999Y-83192155D01*
X173643598Y-83132627D01*
X173643596Y-83132620D01*
X173593354Y-82997913D01*
X173593350Y-82997906D01*
X173507190Y-82882812D01*
X173507187Y-82882809D01*
X173392093Y-82796649D01*
X173392087Y-82796646D01*
X173312030Y-82766786D01*
X173256097Y-82724914D01*
X173231680Y-82659450D01*
X173246532Y-82591177D01*
X173267681Y-82562925D01*
X173318242Y-82512365D01*
X173447815Y-82334022D01*
X173547895Y-82137606D01*
X173616015Y-81927951D01*
X173650500Y-81710222D01*
X173650500Y-81489778D01*
X173616015Y-81272049D01*
X173547895Y-81062394D01*
X173547895Y-81062393D01*
X173492046Y-80952786D01*
X173447815Y-80865978D01*
X173409456Y-80813181D01*
X173318247Y-80687641D01*
X173318243Y-80687636D01*
X173162363Y-80531756D01*
X173162358Y-80531752D01*
X173022745Y-80430318D01*
X172980079Y-80374989D01*
X172974100Y-80305375D01*
X173006705Y-80243580D01*
X173022745Y-80229682D01*
X173162358Y-80128247D01*
X173162356Y-80128247D01*
X173162365Y-80128242D01*
X173318242Y-79972365D01*
X173447815Y-79794022D01*
X173547895Y-79597606D01*
X173616015Y-79387951D01*
X173650500Y-79170222D01*
X173650500Y-78949778D01*
X173616015Y-78732049D01*
X173547895Y-78522394D01*
X173547895Y-78522393D01*
X173513237Y-78454375D01*
X173447815Y-78325978D01*
X173360080Y-78205220D01*
X173318247Y-78147641D01*
X173318243Y-78147636D01*
X173162363Y-77991756D01*
X173162358Y-77991752D01*
X173022745Y-77890318D01*
X172980079Y-77834989D01*
X172974100Y-77765375D01*
X173006705Y-77703580D01*
X173022745Y-77689682D01*
X173162358Y-77588247D01*
X173162356Y-77588247D01*
X173162365Y-77588242D01*
X173318242Y-77432365D01*
X173447815Y-77254022D01*
X173547895Y-77057606D01*
X173616015Y-76847951D01*
X173650500Y-76630222D01*
X173650500Y-76409778D01*
X173616015Y-76192049D01*
X173547895Y-75982394D01*
X173547895Y-75982393D01*
X173499652Y-75887713D01*
X173447815Y-75785978D01*
X173408251Y-75731522D01*
X173318247Y-75607641D01*
X173318243Y-75607636D01*
X173162363Y-75451756D01*
X173162358Y-75451752D01*
X172984025Y-75322187D01*
X172984024Y-75322186D01*
X172984022Y-75322185D01*
X172906115Y-75282489D01*
X172787606Y-75222104D01*
X172787603Y-75222103D01*
X172577952Y-75153985D01*
X172469086Y-75136742D01*
X172360222Y-75119500D01*
X172139778Y-75119500D01*
X172067201Y-75130995D01*
X171922047Y-75153985D01*
X171712396Y-75222103D01*
X171712393Y-75222104D01*
X171515974Y-75322187D01*
X171337641Y-75451752D01*
X171337636Y-75451756D01*
X171181756Y-75607636D01*
X171181752Y-75607641D01*
X171052187Y-75785974D01*
X170982982Y-75921795D01*
X170935007Y-75972591D01*
X170872497Y-75989500D01*
X165334433Y-75989500D01*
X165267394Y-75969815D01*
X165234115Y-75938386D01*
X165152404Y-75825922D01*
X165133828Y-75800354D01*
X164994646Y-75661172D01*
X164909117Y-75599031D01*
X164835403Y-75545474D01*
X164658787Y-75455485D01*
X164607990Y-75407511D01*
X164591195Y-75339690D01*
X164613732Y-75273555D01*
X164658787Y-75234515D01*
X164835403Y-75144525D01*
X164835402Y-75144525D01*
X164835405Y-75144524D01*
X164994646Y-75028828D01*
X165133828Y-74889646D01*
X165234115Y-74751614D01*
X165289446Y-74708949D01*
X165334433Y-74700500D01*
X170536607Y-74700500D01*
X170597029Y-74688481D01*
X170657452Y-74676463D01*
X170690792Y-74662652D01*
X170771286Y-74629312D01*
X170822509Y-74595084D01*
X170873733Y-74560858D01*
X170960858Y-74473733D01*
X170960858Y-74473731D01*
X170971066Y-74463524D01*
X170971068Y-74463521D01*
X171732242Y-73702346D01*
X171793563Y-73668863D01*
X171858236Y-73672097D01*
X171880830Y-73679439D01*
X171906404Y-73683489D01*
X172092725Y-73713000D01*
X172092730Y-73713000D01*
X172307275Y-73713000D01*
X172519170Y-73679439D01*
X172541763Y-73672098D01*
X172723211Y-73613142D01*
X172914368Y-73515742D01*
X173087935Y-73389638D01*
X173239638Y-73237935D01*
X173365742Y-73064368D01*
X173463142Y-72873211D01*
X173529439Y-72669170D01*
X173539678Y-72604523D01*
X173563000Y-72457275D01*
X173563000Y-72242724D01*
X173529439Y-72030829D01*
X173498678Y-71936160D01*
X173463142Y-71826789D01*
X173463140Y-71826786D01*
X173463140Y-71826784D01*
X173365741Y-71635631D01*
X173364136Y-71633422D01*
X173239638Y-71462065D01*
X173087935Y-71310362D01*
X172914368Y-71184258D01*
X172914367Y-71184257D01*
X172910426Y-71181394D01*
X172911504Y-71179909D01*
X172869893Y-71133919D01*
X172858468Y-71064990D01*
X172886123Y-71000826D01*
X172910944Y-70979319D01*
X172910426Y-70978606D01*
X172914368Y-70975742D01*
X173087935Y-70849638D01*
X173239638Y-70697935D01*
X173365742Y-70524368D01*
X173463142Y-70333211D01*
X173529439Y-70129170D01*
X173539678Y-70064524D01*
X173563000Y-69917275D01*
X173563000Y-69702724D01*
X173529439Y-69490829D01*
X173483210Y-69348553D01*
X173463142Y-69286789D01*
X173463140Y-69286786D01*
X173463140Y-69286784D01*
X173365741Y-69095631D01*
X173364136Y-69093422D01*
X173239638Y-68922065D01*
X173087935Y-68770362D01*
X172914368Y-68644258D01*
X172914367Y-68644257D01*
X172910426Y-68641394D01*
X172911504Y-68639909D01*
X172869893Y-68593919D01*
X172858468Y-68524990D01*
X172886123Y-68460826D01*
X172910944Y-68439319D01*
X172910426Y-68438606D01*
X172914368Y-68435742D01*
X173087935Y-68309638D01*
X173239638Y-68157935D01*
X173365742Y-67984368D01*
X173463142Y-67793211D01*
X173529439Y-67589170D01*
X173539678Y-67524524D01*
X173563000Y-67377275D01*
X173563000Y-67162724D01*
X173529439Y-66950829D01*
X173498678Y-66856160D01*
X173463142Y-66746789D01*
X173463140Y-66746786D01*
X173463140Y-66746784D01*
X173365741Y-66555631D01*
X173364136Y-66553422D01*
X173239638Y-66382065D01*
X173087935Y-66230362D01*
X172914368Y-66104258D01*
X172914367Y-66104257D01*
X172910426Y-66101394D01*
X172911504Y-66099909D01*
X172869893Y-66053919D01*
X172858468Y-65984990D01*
X172886123Y-65920826D01*
X172910944Y-65899319D01*
X172910426Y-65898606D01*
X172914368Y-65895742D01*
X173087935Y-65769638D01*
X173239638Y-65617935D01*
X173365742Y-65444368D01*
X173463142Y-65253211D01*
X173529439Y-65049170D01*
X173542735Y-64965220D01*
X173563000Y-64837275D01*
X173563000Y-64622724D01*
X173529439Y-64410829D01*
X173480179Y-64259223D01*
X173463142Y-64206789D01*
X173463140Y-64206786D01*
X173463140Y-64206784D01*
X173365741Y-64015631D01*
X173364136Y-64013422D01*
X173239638Y-63842065D01*
X173087935Y-63690362D01*
X172914368Y-63564258D01*
X172914367Y-63564257D01*
X172910426Y-63561394D01*
X172911504Y-63559909D01*
X172869893Y-63513919D01*
X172858468Y-63444990D01*
X172886123Y-63380826D01*
X172910944Y-63359319D01*
X172910426Y-63358606D01*
X172914368Y-63355742D01*
X173087935Y-63229638D01*
X173239638Y-63077935D01*
X173365742Y-62904368D01*
X173463142Y-62713211D01*
X173529439Y-62509170D01*
X173538019Y-62454998D01*
X173563000Y-62297275D01*
X173563000Y-62082724D01*
X173529439Y-61870829D01*
X173463140Y-61666784D01*
X173389745Y-61522741D01*
X173365742Y-61475632D01*
X173239638Y-61302065D01*
X173141944Y-61204371D01*
X173108459Y-61143048D01*
X173113443Y-61073356D01*
X173155315Y-61017423D01*
X173186292Y-61000508D01*
X173304828Y-60956297D01*
X173304827Y-60956297D01*
X173304831Y-60956296D01*
X173420046Y-60870046D01*
X173506296Y-60754831D01*
X173556591Y-60619983D01*
X173563000Y-60560373D01*
X173562999Y-58739628D01*
X173556591Y-58680017D01*
X173508097Y-58549999D01*
X173506297Y-58545171D01*
X173506293Y-58545164D01*
X173420047Y-58429955D01*
X173420044Y-58429952D01*
X173304835Y-58343706D01*
X173304828Y-58343702D01*
X173169982Y-58293408D01*
X173169983Y-58293408D01*
X173110383Y-58287001D01*
X173110381Y-58287000D01*
X173110373Y-58287000D01*
X173110364Y-58287000D01*
X171289629Y-58287000D01*
X171289623Y-58287001D01*
X171230016Y-58293408D01*
X171095171Y-58343702D01*
X171095164Y-58343706D01*
X170979955Y-58429952D01*
X170979952Y-58429955D01*
X170893706Y-58545164D01*
X170893702Y-58545171D01*
X170843408Y-58680017D01*
X170837328Y-58736577D01*
X170837001Y-58739623D01*
X170837000Y-58739635D01*
X170837000Y-59161500D01*
X170817315Y-59228539D01*
X170764511Y-59274294D01*
X170713000Y-59285500D01*
X165519148Y-59285500D01*
X165452109Y-59265815D01*
X165406354Y-59213011D01*
X165396410Y-59143853D01*
X165398574Y-59132554D01*
X165399709Y-59127824D01*
X165430500Y-58933422D01*
X165430500Y-58736577D01*
X165399709Y-58542173D01*
X165338882Y-58354970D01*
X165258110Y-58196446D01*
X165249524Y-58179595D01*
X165133828Y-58020354D01*
X164994646Y-57881172D01*
X164905266Y-57816233D01*
X164835403Y-57765474D01*
X164658787Y-57675485D01*
X164607990Y-57627511D01*
X164591195Y-57559690D01*
X164613732Y-57493555D01*
X164658787Y-57454515D01*
X164835403Y-57364525D01*
X164835402Y-57364525D01*
X164835405Y-57364524D01*
X164994646Y-57248828D01*
X165133828Y-57109646D01*
X165249524Y-56950405D01*
X165338884Y-56775025D01*
X165399709Y-56587826D01*
X165430500Y-56393422D01*
X165430500Y-56196577D01*
X165399709Y-56002173D01*
X165338882Y-55814970D01*
X165249523Y-55639594D01*
X165133828Y-55480354D01*
X164994646Y-55341172D01*
X164835405Y-55225476D01*
X164660025Y-55136116D01*
X164660024Y-55136115D01*
X164658235Y-55135204D01*
X164607439Y-55087230D01*
X164590644Y-55019409D01*
X164613181Y-54953274D01*
X164658236Y-54914234D01*
X164698511Y-54893713D01*
X172649500Y-54893713D01*
X172649500Y-55106287D01*
X172655892Y-55146647D01*
X172680622Y-55302787D01*
X172682754Y-55316243D01*
X172740311Y-55493385D01*
X172748444Y-55518414D01*
X172844951Y-55707820D01*
X172969890Y-55879786D01*
X173120213Y-56030109D01*
X173292179Y-56155048D01*
X173292181Y-56155049D01*
X173292184Y-56155051D01*
X173481588Y-56251557D01*
X173683757Y-56317246D01*
X173893713Y-56350500D01*
X173893714Y-56350500D01*
X174106286Y-56350500D01*
X174106287Y-56350500D01*
X174316243Y-56317246D01*
X174518412Y-56251557D01*
X174707816Y-56155051D01*
X174729789Y-56139086D01*
X174879786Y-56030109D01*
X174879788Y-56030106D01*
X174879792Y-56030104D01*
X175030104Y-55879792D01*
X175030106Y-55879788D01*
X175030109Y-55879786D01*
X175155048Y-55707820D01*
X175155047Y-55707820D01*
X175155051Y-55707816D01*
X175251557Y-55518412D01*
X175317246Y-55316243D01*
X175350500Y-55106287D01*
X175350500Y-54893713D01*
X175317246Y-54683757D01*
X175251557Y-54481588D01*
X175155051Y-54292184D01*
X175155049Y-54292181D01*
X175155048Y-54292179D01*
X175030109Y-54120213D01*
X174879786Y-53969890D01*
X174707820Y-53844951D01*
X174518414Y-53748444D01*
X174518413Y-53748443D01*
X174518412Y-53748443D01*
X174316243Y-53682754D01*
X174316241Y-53682753D01*
X174316240Y-53682753D01*
X174151222Y-53656617D01*
X174106287Y-53649500D01*
X173893713Y-53649500D01*
X173848778Y-53656617D01*
X173683760Y-53682753D01*
X173481585Y-53748444D01*
X173292179Y-53844951D01*
X173120213Y-53969890D01*
X172969890Y-54120213D01*
X172844951Y-54292179D01*
X172748444Y-54481585D01*
X172682753Y-54683760D01*
X172656503Y-54849500D01*
X172649500Y-54893713D01*
X164698511Y-54893713D01*
X164835145Y-54824094D01*
X164870125Y-54798679D01*
X164870126Y-54798678D01*
X164268585Y-54197137D01*
X164353694Y-54174333D01*
X164456306Y-54115090D01*
X164540090Y-54031306D01*
X164599333Y-53928694D01*
X164622137Y-53843585D01*
X165223678Y-54445126D01*
X165223678Y-54445125D01*
X165249095Y-54410143D01*
X165338418Y-54234835D01*
X165399221Y-54047705D01*
X165430000Y-53853382D01*
X165430000Y-53656617D01*
X165399221Y-53462294D01*
X165338418Y-53275164D01*
X165249096Y-53099858D01*
X165223678Y-53064873D01*
X165223677Y-53064873D01*
X164622137Y-53666413D01*
X164599333Y-53581306D01*
X164540090Y-53478694D01*
X164456306Y-53394910D01*
X164353694Y-53335667D01*
X164268584Y-53312861D01*
X164870125Y-52711320D01*
X164866026Y-52659229D01*
X164880390Y-52590852D01*
X164929441Y-52541095D01*
X164989644Y-52525500D01*
X176875500Y-52525500D01*
X176942539Y-52545185D01*
X176988294Y-52597989D01*
X176999500Y-52649500D01*
X176999500Y-92150500D01*
X176979815Y-92217539D01*
X176927011Y-92263294D01*
X176875500Y-92274500D01*
X123124500Y-92274500D01*
X123057461Y-92254815D01*
X123011706Y-92202011D01*
X123000500Y-92150500D01*
X123000500Y-89893713D01*
X124649500Y-89893713D01*
X124649500Y-90106287D01*
X124682754Y-90316243D01*
X124733823Y-90473418D01*
X124748444Y-90518414D01*
X124844951Y-90707820D01*
X124969890Y-90879786D01*
X125120213Y-91030109D01*
X125292179Y-91155048D01*
X125292181Y-91155049D01*
X125292184Y-91155051D01*
X125481588Y-91251557D01*
X125683757Y-91317246D01*
X125893713Y-91350500D01*
X125893714Y-91350500D01*
X126106286Y-91350500D01*
X126106287Y-91350500D01*
X126316243Y-91317246D01*
X126518412Y-91251557D01*
X126707816Y-91155051D01*
X126729789Y-91139086D01*
X126879786Y-91030109D01*
X126879788Y-91030106D01*
X126879792Y-91030104D01*
X127030104Y-90879792D01*
X127030106Y-90879788D01*
X127030109Y-90879786D01*
X127155048Y-90707820D01*
X127155047Y-90707820D01*
X127155051Y-90707816D01*
X127251557Y-90518412D01*
X127317246Y-90316243D01*
X127350500Y-90106287D01*
X127350500Y-89893713D01*
X127317246Y-89683757D01*
X127251557Y-89481588D01*
X127155051Y-89292184D01*
X127155049Y-89292180D01*
X127149567Y-89284635D01*
X127149566Y-89284634D01*
X127030109Y-89120214D01*
X127030105Y-89120209D01*
X126879790Y-88969894D01*
X126879785Y-88969890D01*
X126733792Y-88863820D01*
X126733769Y-88863805D01*
X126707815Y-88844948D01*
X126518414Y-88748444D01*
X126518413Y-88748443D01*
X126518412Y-88748443D01*
X126316243Y-88682754D01*
X126316241Y-88682753D01*
X126316240Y-88682753D01*
X126154957Y-88657208D01*
X126106287Y-88649500D01*
X125893713Y-88649500D01*
X125845042Y-88657208D01*
X125683760Y-88682753D01*
X125481585Y-88748444D01*
X125292179Y-88844951D01*
X125120213Y-88969890D01*
X124969890Y-89120213D01*
X124844951Y-89292179D01*
X124748444Y-89481585D01*
X124682753Y-89683760D01*
X124674743Y-89734333D01*
X124649500Y-89893713D01*
X123000500Y-89893713D01*
X123000500Y-87705237D01*
X131796000Y-87705237D01*
X131796000Y-87894762D01*
X131825645Y-88081937D01*
X131884210Y-88262178D01*
X131970246Y-88431033D01*
X131989253Y-88457192D01*
X131989253Y-88457193D01*
X132557861Y-87888584D01*
X132580667Y-87973694D01*
X132639910Y-88076306D01*
X132723694Y-88160090D01*
X132826306Y-88219333D01*
X132911414Y-88242137D01*
X132342806Y-88810745D01*
X132342806Y-88810746D01*
X132368966Y-88829752D01*
X132537821Y-88915789D01*
X132718062Y-88974354D01*
X132905238Y-89004000D01*
X133094762Y-89004000D01*
X133281937Y-88974354D01*
X133462182Y-88915788D01*
X133462184Y-88915787D01*
X133631027Y-88829756D01*
X133631043Y-88829746D01*
X133657192Y-88810746D01*
X133657193Y-88810745D01*
X133088585Y-88242137D01*
X133173694Y-88219333D01*
X133276306Y-88160090D01*
X133360090Y-88076306D01*
X133419333Y-87973694D01*
X133442137Y-87888585D01*
X134010745Y-88457193D01*
X134010746Y-88457192D01*
X134029746Y-88431043D01*
X134029756Y-88431027D01*
X134115787Y-88262184D01*
X134115788Y-88262182D01*
X134174354Y-88081937D01*
X134204000Y-87894762D01*
X134204000Y-87705237D01*
X134174354Y-87518062D01*
X134115789Y-87337821D01*
X134029752Y-87168966D01*
X134010745Y-87142806D01*
X133442137Y-87711414D01*
X133419333Y-87626306D01*
X133360090Y-87523694D01*
X133276306Y-87439910D01*
X133173694Y-87380667D01*
X133088584Y-87357861D01*
X133657193Y-86789253D01*
X133631033Y-86770246D01*
X133462178Y-86684210D01*
X133281937Y-86625645D01*
X133094762Y-86596000D01*
X132905238Y-86596000D01*
X132718062Y-86625645D01*
X132537821Y-86684210D01*
X132368969Y-86770245D01*
X132342806Y-86789253D01*
X132911415Y-87357861D01*
X132826306Y-87380667D01*
X132723694Y-87439910D01*
X132639910Y-87523694D01*
X132580667Y-87626306D01*
X132557861Y-87711414D01*
X131989253Y-87142806D01*
X131970245Y-87168969D01*
X131884210Y-87337821D01*
X131825645Y-87518062D01*
X131796000Y-87705237D01*
X123000500Y-87705237D01*
X123000500Y-52649500D01*
X123020185Y-52582461D01*
X123072989Y-52536706D01*
X123124500Y-52525500D01*
X140056651Y-52525500D01*
X140123690Y-52545185D01*
G37*
G04 #@! TD.AperFunction*
G04 #@! TA.AperFunction,Conductor*
G36*
X162953256Y-60806185D02*
G01*
X162999011Y-60858989D01*
X163008955Y-60928147D01*
X163004148Y-60948819D01*
X162960778Y-61082296D01*
X162930000Y-61276617D01*
X162930000Y-61473382D01*
X162960778Y-61667703D01*
X163004148Y-61801181D01*
X163006143Y-61871023D01*
X162970063Y-61930856D01*
X162907362Y-61961684D01*
X162886217Y-61963500D01*
X162767080Y-61963500D01*
X162622092Y-61992340D01*
X162622086Y-61992342D01*
X162485508Y-62048914D01*
X162485496Y-62048921D01*
X162436269Y-62081813D01*
X162362588Y-62131044D01*
X162362580Y-62131050D01*
X142781681Y-81711949D01*
X142720358Y-81745434D01*
X142650666Y-81740450D01*
X142594733Y-81698578D01*
X142570316Y-81633114D01*
X142570000Y-81624268D01*
X142570000Y-81596617D01*
X142539221Y-81402294D01*
X142478418Y-81215164D01*
X142389096Y-81039858D01*
X142363678Y-81004873D01*
X142363677Y-81004873D01*
X141762137Y-81606414D01*
X141739333Y-81521306D01*
X141680090Y-81418694D01*
X141596306Y-81334910D01*
X141493694Y-81275667D01*
X141408583Y-81252861D01*
X142010125Y-80651320D01*
X142010125Y-80651319D01*
X141975145Y-80625905D01*
X141798235Y-80535765D01*
X141747439Y-80487790D01*
X141730644Y-80419969D01*
X141753182Y-80353834D01*
X141798236Y-80314795D01*
X141800022Y-80313884D01*
X141800025Y-80313884D01*
X141975405Y-80224524D01*
X142134646Y-80108828D01*
X142273828Y-79969646D01*
X142389524Y-79810405D01*
X142478884Y-79635025D01*
X142539709Y-79447826D01*
X142549192Y-79387951D01*
X142570500Y-79253422D01*
X142570500Y-79056577D01*
X142539709Y-78862173D01*
X142511487Y-78775317D01*
X142478884Y-78674975D01*
X142478882Y-78674972D01*
X142478882Y-78674970D01*
X142404761Y-78529500D01*
X142389524Y-78499595D01*
X142273828Y-78340354D01*
X142134646Y-78201172D01*
X142012303Y-78112284D01*
X141975403Y-78085474D01*
X141798787Y-77995485D01*
X141747990Y-77947511D01*
X141731195Y-77879690D01*
X141753732Y-77813555D01*
X141798787Y-77774515D01*
X141975403Y-77684525D01*
X141975402Y-77684525D01*
X141975405Y-77684524D01*
X142134646Y-77568828D01*
X142273828Y-77429646D01*
X142389524Y-77270405D01*
X142478884Y-77095025D01*
X142539709Y-76907826D01*
X142549192Y-76847951D01*
X142570500Y-76713422D01*
X142570500Y-76516577D01*
X142539709Y-76322173D01*
X142503865Y-76211859D01*
X142478884Y-76134975D01*
X142478882Y-76134972D01*
X142478882Y-76134970D01*
X142414205Y-76008034D01*
X142389524Y-75959595D01*
X142273828Y-75800354D01*
X142134646Y-75661172D01*
X142049117Y-75599031D01*
X141975403Y-75545474D01*
X141798787Y-75455485D01*
X141747990Y-75407511D01*
X141731195Y-75339690D01*
X141753732Y-75273555D01*
X141798787Y-75234515D01*
X141975403Y-75144525D01*
X141975402Y-75144525D01*
X141975405Y-75144524D01*
X142134646Y-75028828D01*
X142273828Y-74889646D01*
X142389524Y-74730405D01*
X142478884Y-74555025D01*
X142539709Y-74367826D01*
X142545349Y-74332218D01*
X142570500Y-74173422D01*
X142570500Y-73976577D01*
X142539709Y-73782173D01*
X142511487Y-73695317D01*
X142478884Y-73594975D01*
X142478882Y-73594972D01*
X142478882Y-73594970D01*
X142389523Y-73419594D01*
X142384864Y-73413181D01*
X142273828Y-73260354D01*
X142134646Y-73121172D01*
X141975405Y-73005476D01*
X141800025Y-72916116D01*
X141800024Y-72916115D01*
X141798235Y-72915204D01*
X141747439Y-72867230D01*
X141730644Y-72799409D01*
X141753181Y-72733274D01*
X141798236Y-72694234D01*
X141975141Y-72604097D01*
X142010125Y-72578678D01*
X142010126Y-72578678D01*
X141408585Y-71977137D01*
X141493694Y-71954333D01*
X141596306Y-71895090D01*
X141680090Y-71811306D01*
X141739333Y-71708694D01*
X141762137Y-71623585D01*
X142363678Y-72225126D01*
X142363678Y-72225125D01*
X142389095Y-72190143D01*
X142478418Y-72014835D01*
X142539221Y-71827705D01*
X142570000Y-71633382D01*
X142570000Y-71436617D01*
X142539221Y-71242294D01*
X142478418Y-71055164D01*
X142389096Y-70879858D01*
X142363678Y-70844873D01*
X142363677Y-70844873D01*
X141762137Y-71446413D01*
X141739333Y-71361306D01*
X141680090Y-71258694D01*
X141596306Y-71174910D01*
X141493694Y-71115667D01*
X141408584Y-71092861D01*
X142010125Y-70491320D01*
X142010125Y-70491319D01*
X141975145Y-70465905D01*
X141798235Y-70375765D01*
X141747439Y-70327790D01*
X141730644Y-70259969D01*
X141753182Y-70193834D01*
X141798236Y-70154795D01*
X141800022Y-70153884D01*
X141800025Y-70153884D01*
X141975405Y-70064524D01*
X142134646Y-69948828D01*
X142273828Y-69809646D01*
X142389524Y-69650405D01*
X142478884Y-69475025D01*
X142539709Y-69287826D01*
X142542098Y-69272741D01*
X142570500Y-69093422D01*
X142570500Y-68896577D01*
X142539709Y-68702173D01*
X142489243Y-68546858D01*
X142478884Y-68514975D01*
X142478882Y-68514972D01*
X142478882Y-68514970D01*
X142420795Y-68400968D01*
X142389524Y-68339595D01*
X142273828Y-68180354D01*
X142134646Y-68041172D01*
X141975405Y-67925476D01*
X141800025Y-67836116D01*
X141800024Y-67836115D01*
X141798235Y-67835204D01*
X141747439Y-67787230D01*
X141730644Y-67719409D01*
X141753181Y-67653274D01*
X141798236Y-67614234D01*
X141975141Y-67524097D01*
X142010125Y-67498678D01*
X142010126Y-67498678D01*
X141408585Y-66897137D01*
X141493694Y-66874333D01*
X141596306Y-66815090D01*
X141680090Y-66731306D01*
X141739333Y-66628694D01*
X141762137Y-66543585D01*
X142363678Y-67145126D01*
X142363678Y-67145125D01*
X142389095Y-67110143D01*
X142478418Y-66934835D01*
X142539221Y-66747705D01*
X142570000Y-66553382D01*
X142570000Y-66356617D01*
X142539221Y-66162294D01*
X142478418Y-65975164D01*
X142389096Y-65799858D01*
X142363678Y-65764873D01*
X142363677Y-65764873D01*
X141762137Y-66366413D01*
X141739333Y-66281306D01*
X141680090Y-66178694D01*
X141596306Y-66094910D01*
X141493694Y-66035667D01*
X141408584Y-66012861D01*
X142010125Y-65411320D01*
X142010125Y-65411319D01*
X141975145Y-65385905D01*
X141798235Y-65295765D01*
X141747439Y-65247790D01*
X141730644Y-65179969D01*
X141753182Y-65113834D01*
X141798236Y-65074795D01*
X141800022Y-65073884D01*
X141800025Y-65073884D01*
X141975405Y-64984524D01*
X142134646Y-64868828D01*
X142273828Y-64729646D01*
X142389524Y-64570405D01*
X142478884Y-64395025D01*
X142539709Y-64207826D01*
X142546080Y-64167603D01*
X142570500Y-64013422D01*
X142570500Y-63816577D01*
X142539709Y-63622173D01*
X142485542Y-63455466D01*
X142478884Y-63434975D01*
X142478882Y-63434972D01*
X142478882Y-63434970D01*
X142390128Y-63260781D01*
X142389524Y-63259595D01*
X142273828Y-63100354D01*
X142134646Y-62961172D01*
X142044909Y-62895974D01*
X141975403Y-62845474D01*
X141798787Y-62755485D01*
X141747990Y-62707511D01*
X141731195Y-62639690D01*
X141753732Y-62573555D01*
X141798787Y-62534515D01*
X141975403Y-62444525D01*
X141975402Y-62444525D01*
X141975405Y-62444524D01*
X142134646Y-62328828D01*
X142273828Y-62189646D01*
X142389524Y-62030405D01*
X142478884Y-61855025D01*
X142539709Y-61667826D01*
X142539874Y-61666784D01*
X142570500Y-61473422D01*
X142570500Y-61276577D01*
X142539709Y-61082173D01*
X142498809Y-60956297D01*
X142496378Y-60948818D01*
X142494384Y-60878977D01*
X142530464Y-60819144D01*
X142593165Y-60788316D01*
X142614310Y-60786500D01*
X162886217Y-60786500D01*
X162953256Y-60806185D01*
G37*
G04 #@! TD.AperFunction*
G04 #@! TA.AperFunction,Conductor*
G36*
X133191621Y-56910185D02*
G01*
X133224900Y-56941615D01*
X133258028Y-56987212D01*
X133258032Y-56987217D01*
X133402786Y-57131971D01*
X133557749Y-57244556D01*
X133568390Y-57252287D01*
X133653069Y-57295433D01*
X133750776Y-57345218D01*
X133750778Y-57345218D01*
X133750781Y-57345220D01*
X133810190Y-57364523D01*
X133945465Y-57408477D01*
X134008602Y-57418477D01*
X134147648Y-57440500D01*
X134147649Y-57440500D01*
X134352351Y-57440500D01*
X134352352Y-57440500D01*
X134554534Y-57408477D01*
X134749219Y-57345220D01*
X134931610Y-57252287D01*
X135024590Y-57184732D01*
X135097213Y-57131971D01*
X135097215Y-57131968D01*
X135097219Y-57131966D01*
X135241966Y-56987219D01*
X135241966Y-56987218D01*
X135242366Y-56986819D01*
X135303689Y-56953334D01*
X135330047Y-56950500D01*
X136674582Y-56950500D01*
X136741621Y-56970185D01*
X136774900Y-57001615D01*
X136808028Y-57047212D01*
X136808032Y-57047217D01*
X136952786Y-57191971D01*
X137056810Y-57267547D01*
X137118390Y-57312287D01*
X137199856Y-57353796D01*
X137300776Y-57405218D01*
X137300778Y-57405218D01*
X137300781Y-57405220D01*
X137405137Y-57439127D01*
X137495465Y-57468477D01*
X137596557Y-57484488D01*
X137697648Y-57500500D01*
X137697649Y-57500500D01*
X137902351Y-57500500D01*
X137902352Y-57500500D01*
X138104534Y-57468477D01*
X138299219Y-57405220D01*
X138481610Y-57312287D01*
X138647219Y-57191966D01*
X138757367Y-57081818D01*
X138818690Y-57048334D01*
X138845048Y-57045500D01*
X140256386Y-57045500D01*
X140323425Y-57065185D01*
X140356702Y-57096612D01*
X140366172Y-57109646D01*
X140505354Y-57248828D01*
X140518385Y-57258295D01*
X140561050Y-57313622D01*
X140569500Y-57358613D01*
X140569500Y-57771385D01*
X140549815Y-57838424D01*
X140518388Y-57871701D01*
X140505356Y-57881169D01*
X140366171Y-58020355D01*
X140250476Y-58179594D01*
X140161117Y-58354970D01*
X140100290Y-58542173D01*
X140069500Y-58736577D01*
X140069500Y-58933422D01*
X140100290Y-59127826D01*
X140161117Y-59315029D01*
X140250476Y-59490405D01*
X140366172Y-59649646D01*
X140505354Y-59788828D01*
X140664595Y-59904524D01*
X140718538Y-59932009D01*
X140841213Y-59994515D01*
X140892009Y-60042489D01*
X140908804Y-60110310D01*
X140886267Y-60176445D01*
X140841213Y-60215485D01*
X140664594Y-60305476D01*
X140595091Y-60355974D01*
X140505354Y-60421172D01*
X140505352Y-60421174D01*
X140505351Y-60421174D01*
X140366174Y-60560351D01*
X140366174Y-60560352D01*
X140366172Y-60560354D01*
X140322849Y-60619983D01*
X140250476Y-60719594D01*
X140161117Y-60894970D01*
X140100290Y-61082173D01*
X140069500Y-61276577D01*
X140069500Y-61473422D01*
X140100290Y-61667826D01*
X140161117Y-61855029D01*
X140215461Y-61961684D01*
X140250476Y-62030405D01*
X140366172Y-62189646D01*
X140505354Y-62328828D01*
X140664595Y-62444524D01*
X140787992Y-62507397D01*
X140841213Y-62534515D01*
X140892009Y-62582489D01*
X140908804Y-62650310D01*
X140886267Y-62716445D01*
X140841213Y-62755485D01*
X140664594Y-62845476D01*
X140578500Y-62908028D01*
X140505354Y-62961172D01*
X140505352Y-62961174D01*
X140505351Y-62961174D01*
X140366174Y-63100351D01*
X140366174Y-63100352D01*
X140366172Y-63100354D01*
X140276784Y-63223386D01*
X140221454Y-63266051D01*
X140176466Y-63274500D01*
X138916115Y-63274500D01*
X138849076Y-63254815D01*
X138816393Y-63221428D01*
X138815151Y-63222331D01*
X138691971Y-63052786D01*
X138547213Y-62908028D01*
X138381613Y-62787715D01*
X138381612Y-62787714D01*
X138381610Y-62787713D01*
X138323176Y-62757939D01*
X138199219Y-62694779D01*
X138165776Y-62683913D01*
X138108101Y-62644475D01*
X138080904Y-62580116D01*
X138092819Y-62511270D01*
X138140064Y-62459795D01*
X138165778Y-62448052D01*
X138299029Y-62404755D01*
X138481349Y-62311859D01*
X138525921Y-62279474D01*
X137846447Y-61600000D01*
X137852661Y-61600000D01*
X137954394Y-61572741D01*
X138045606Y-61520080D01*
X138120080Y-61445606D01*
X138172741Y-61354394D01*
X138200000Y-61252661D01*
X138200000Y-61246448D01*
X138879474Y-61925922D01*
X138879474Y-61925921D01*
X138911859Y-61881349D01*
X139004755Y-61699031D01*
X139067990Y-61504417D01*
X139100000Y-61302317D01*
X139100000Y-61097682D01*
X139067990Y-60895582D01*
X139004755Y-60700968D01*
X138911859Y-60518650D01*
X138879474Y-60474077D01*
X138879474Y-60474076D01*
X138200000Y-61153551D01*
X138200000Y-61147339D01*
X138172741Y-61045606D01*
X138120080Y-60954394D01*
X138045606Y-60879920D01*
X137954394Y-60827259D01*
X137852661Y-60800000D01*
X137846446Y-60800000D01*
X138525922Y-60120524D01*
X138525921Y-60120523D01*
X138481359Y-60088147D01*
X138481350Y-60088141D01*
X138299031Y-59995244D01*
X138104417Y-59932009D01*
X137902317Y-59900000D01*
X137697683Y-59900000D01*
X137495582Y-59932009D01*
X137300968Y-59995244D01*
X137118644Y-60088143D01*
X137074077Y-60120523D01*
X137074077Y-60120524D01*
X137753554Y-60800000D01*
X137747339Y-60800000D01*
X137645606Y-60827259D01*
X137554394Y-60879920D01*
X137479920Y-60954394D01*
X137427259Y-61045606D01*
X137400000Y-61147339D01*
X137400000Y-61153553D01*
X136720524Y-60474077D01*
X136720523Y-60474077D01*
X136688143Y-60518644D01*
X136595244Y-60700968D01*
X136532009Y-60895582D01*
X136500000Y-61097682D01*
X136500000Y-61302317D01*
X136532009Y-61504417D01*
X136595244Y-61699031D01*
X136688141Y-61881350D01*
X136688147Y-61881359D01*
X136720523Y-61925921D01*
X136720524Y-61925922D01*
X137400000Y-61246446D01*
X137400000Y-61252661D01*
X137427259Y-61354394D01*
X137479920Y-61445606D01*
X137554394Y-61520080D01*
X137645606Y-61572741D01*
X137747339Y-61600000D01*
X137753553Y-61600000D01*
X137074076Y-62279474D01*
X137118650Y-62311859D01*
X137300968Y-62404755D01*
X137334222Y-62415560D01*
X137391897Y-62454998D01*
X137419095Y-62519357D01*
X137407180Y-62588203D01*
X137359935Y-62639679D01*
X137334222Y-62651422D01*
X137200776Y-62694781D01*
X137018386Y-62787715D01*
X136852786Y-62908028D01*
X136708032Y-63052782D01*
X136708028Y-63052787D01*
X136685798Y-63083385D01*
X136630468Y-63126051D01*
X136585480Y-63134500D01*
X135466115Y-63134500D01*
X135399076Y-63114815D01*
X135366393Y-63081428D01*
X135365151Y-63082331D01*
X135241971Y-62912786D01*
X135097213Y-62768028D01*
X134931613Y-62647715D01*
X134931612Y-62647714D01*
X134931610Y-62647713D01*
X134836987Y-62599500D01*
X134749223Y-62554781D01*
X134554534Y-62491522D01*
X134379995Y-62463878D01*
X134352352Y-62459500D01*
X134147648Y-62459500D01*
X134123329Y-62463351D01*
X133945465Y-62491522D01*
X133750776Y-62554781D01*
X133568386Y-62647715D01*
X133402786Y-62768028D01*
X133258028Y-62912786D01*
X133137715Y-63078386D01*
X133044781Y-63260776D01*
X132981522Y-63455465D01*
X132955118Y-63622175D01*
X132949500Y-63657648D01*
X132949500Y-63862352D01*
X132950719Y-63870047D01*
X132981522Y-64064534D01*
X133044781Y-64259223D01*
X133089115Y-64346232D01*
X133098181Y-64364025D01*
X133108993Y-64385243D01*
X133121889Y-64453912D01*
X133095613Y-64518652D01*
X133086189Y-64529219D01*
X131417627Y-66197781D01*
X131356304Y-66231266D01*
X131309584Y-66230776D01*
X131309346Y-66232285D01*
X131205898Y-66215900D01*
X131102352Y-66199500D01*
X130897648Y-66199500D01*
X130873329Y-66203351D01*
X130695465Y-66231522D01*
X130500776Y-66294781D01*
X130318386Y-66387715D01*
X130152786Y-66508028D01*
X130008028Y-66652786D01*
X129887715Y-66818386D01*
X129794781Y-67000776D01*
X129731522Y-67195465D01*
X129699500Y-67397648D01*
X129699500Y-67602351D01*
X129731522Y-67804534D01*
X129794781Y-67999223D01*
X129822851Y-68054312D01*
X129883874Y-68174076D01*
X129887715Y-68181613D01*
X130008028Y-68347213D01*
X130152786Y-68491971D01*
X130267986Y-68575667D01*
X130318390Y-68612287D01*
X130381137Y-68644258D01*
X130500776Y-68705218D01*
X130500778Y-68705218D01*
X130500781Y-68705220D01*
X130542250Y-68718694D01*
X130695465Y-68768477D01*
X130796557Y-68784488D01*
X130897648Y-68800500D01*
X130897649Y-68800500D01*
X131102351Y-68800500D01*
X131102352Y-68800500D01*
X131120144Y-68797682D01*
X136400000Y-68797682D01*
X136400000Y-69002317D01*
X136432009Y-69204417D01*
X136495244Y-69399031D01*
X136588141Y-69581350D01*
X136588147Y-69581359D01*
X136620523Y-69625921D01*
X136620524Y-69625922D01*
X137300000Y-68946446D01*
X137300000Y-68952661D01*
X137327259Y-69054394D01*
X137379920Y-69145606D01*
X137454394Y-69220080D01*
X137545606Y-69272741D01*
X137647339Y-69300000D01*
X137653553Y-69300000D01*
X136974076Y-69979474D01*
X137018650Y-70011859D01*
X137200968Y-70104755D01*
X137395582Y-70167990D01*
X137597683Y-70200000D01*
X137802317Y-70200000D01*
X138004417Y-70167990D01*
X138199031Y-70104755D01*
X138381349Y-70011859D01*
X138425921Y-69979474D01*
X137746447Y-69300000D01*
X137752661Y-69300000D01*
X137854394Y-69272741D01*
X137945606Y-69220080D01*
X138020080Y-69145606D01*
X138072741Y-69054394D01*
X138100000Y-68952661D01*
X138100000Y-68946447D01*
X138779474Y-69625921D01*
X138811859Y-69581349D01*
X138904755Y-69399031D01*
X138967990Y-69204417D01*
X139000000Y-69002317D01*
X139000000Y-68797682D01*
X138967990Y-68595582D01*
X138904755Y-68400968D01*
X138811859Y-68218650D01*
X138779474Y-68174077D01*
X138779474Y-68174076D01*
X138100000Y-68853551D01*
X138100000Y-68847339D01*
X138072741Y-68745606D01*
X138020080Y-68654394D01*
X137945606Y-68579920D01*
X137854394Y-68527259D01*
X137752661Y-68500000D01*
X137746446Y-68500000D01*
X138425922Y-67820524D01*
X138425921Y-67820523D01*
X138381359Y-67788147D01*
X138381350Y-67788141D01*
X138199031Y-67695244D01*
X138004417Y-67632009D01*
X137802317Y-67600000D01*
X137597683Y-67600000D01*
X137395582Y-67632009D01*
X137200968Y-67695244D01*
X137018644Y-67788143D01*
X136974077Y-67820523D01*
X136974077Y-67820524D01*
X137653554Y-68500000D01*
X137647339Y-68500000D01*
X137545606Y-68527259D01*
X137454394Y-68579920D01*
X137379920Y-68654394D01*
X137327259Y-68745606D01*
X137300000Y-68847339D01*
X137300000Y-68853553D01*
X136620524Y-68174077D01*
X136620523Y-68174077D01*
X136588143Y-68218644D01*
X136495244Y-68400968D01*
X136432009Y-68595582D01*
X136400000Y-68797682D01*
X131120144Y-68797682D01*
X131304534Y-68768477D01*
X131499219Y-68705220D01*
X131681610Y-68612287D01*
X131771666Y-68546858D01*
X131847213Y-68491971D01*
X131847215Y-68491968D01*
X131847219Y-68491966D01*
X131991966Y-68347219D01*
X131991968Y-68347215D01*
X131991971Y-68347213D01*
X132044732Y-68274590D01*
X132112287Y-68181610D01*
X132205220Y-67999219D01*
X132245901Y-67874013D01*
X132260377Y-67829464D01*
X132260377Y-67829463D01*
X132268476Y-67804538D01*
X132268476Y-67804537D01*
X132268477Y-67804534D01*
X132300500Y-67602352D01*
X132300500Y-67397648D01*
X132297272Y-67377270D01*
X132267715Y-67190654D01*
X132269777Y-67190327D01*
X132272784Y-67129304D01*
X132302215Y-67082373D01*
X134290284Y-65094305D01*
X134351605Y-65060822D01*
X134358532Y-65059521D01*
X134554534Y-65028477D01*
X134749219Y-64965220D01*
X134931610Y-64872287D01*
X135024590Y-64804732D01*
X135097213Y-64751971D01*
X135097215Y-64751968D01*
X135097219Y-64751966D01*
X135241966Y-64607219D01*
X135241968Y-64607215D01*
X135241971Y-64607213D01*
X135365151Y-64437669D01*
X135366823Y-64438884D01*
X135412208Y-64397831D01*
X135466115Y-64385500D01*
X136411803Y-64385500D01*
X136478842Y-64405185D01*
X136522286Y-64453203D01*
X136567713Y-64542358D01*
X136587715Y-64581614D01*
X136708028Y-64747213D01*
X136852786Y-64891971D01*
X136995989Y-64996012D01*
X137018390Y-65012287D01*
X137113645Y-65060822D01*
X137200776Y-65105218D01*
X137200778Y-65105218D01*
X137200781Y-65105220D01*
X137291539Y-65134709D01*
X137395465Y-65168477D01*
X137466261Y-65179690D01*
X137597648Y-65200500D01*
X137597649Y-65200500D01*
X137802351Y-65200500D01*
X137802352Y-65200500D01*
X138004534Y-65168477D01*
X138199219Y-65105220D01*
X138381610Y-65012287D01*
X138497767Y-64927895D01*
X138547213Y-64891971D01*
X138547215Y-64891968D01*
X138547219Y-64891966D01*
X138691966Y-64747219D01*
X138691968Y-64747215D01*
X138691971Y-64747213D01*
X138815151Y-64577669D01*
X138816823Y-64578884D01*
X138862208Y-64537831D01*
X138916115Y-64525500D01*
X140154669Y-64525500D01*
X140221708Y-64545185D01*
X140254987Y-64576614D01*
X140366172Y-64729646D01*
X140505354Y-64868828D01*
X140586654Y-64927896D01*
X140664596Y-64984525D01*
X140841763Y-65074795D01*
X140892560Y-65122769D01*
X140909355Y-65190590D01*
X140886818Y-65256725D01*
X140841764Y-65295765D01*
X140664859Y-65385902D01*
X140629873Y-65411320D01*
X140629872Y-65411320D01*
X141231415Y-66012861D01*
X141146306Y-66035667D01*
X141043694Y-66094910D01*
X140959910Y-66178694D01*
X140900667Y-66281306D01*
X140877861Y-66366414D01*
X140276320Y-65764872D01*
X140276320Y-65764873D01*
X140250902Y-65799859D01*
X140250899Y-65799863D01*
X140161582Y-65975161D01*
X140100778Y-66162294D01*
X140070000Y-66356617D01*
X140070000Y-66553382D01*
X140100778Y-66747705D01*
X140161581Y-66934835D01*
X140250905Y-67110145D01*
X140276319Y-67145125D01*
X140276320Y-67145125D01*
X140877861Y-66543584D01*
X140900667Y-66628694D01*
X140959910Y-66731306D01*
X141043694Y-66815090D01*
X141146306Y-66874333D01*
X141231414Y-66897137D01*
X140629873Y-67498677D01*
X140629873Y-67498678D01*
X140664858Y-67524096D01*
X140841764Y-67614234D01*
X140892560Y-67662209D01*
X140909355Y-67730030D01*
X140886818Y-67796164D01*
X140841764Y-67835204D01*
X140664594Y-67925476D01*
X140573741Y-67991485D01*
X140505354Y-68041172D01*
X140505352Y-68041174D01*
X140505351Y-68041174D01*
X140366174Y-68180351D01*
X140366174Y-68180352D01*
X140366172Y-68180354D01*
X140338353Y-68218644D01*
X140250476Y-68339594D01*
X140161117Y-68514970D01*
X140100290Y-68702173D01*
X140069500Y-68896577D01*
X140069500Y-69093422D01*
X140100290Y-69287826D01*
X140161117Y-69475029D01*
X140238001Y-69625921D01*
X140250476Y-69650405D01*
X140366172Y-69809646D01*
X140505354Y-69948828D01*
X140624784Y-70035600D01*
X140664596Y-70064525D01*
X140841763Y-70154795D01*
X140892560Y-70202769D01*
X140909355Y-70270590D01*
X140886818Y-70336725D01*
X140841764Y-70375765D01*
X140664859Y-70465902D01*
X140629873Y-70491320D01*
X140629872Y-70491320D01*
X141231415Y-71092861D01*
X141146306Y-71115667D01*
X141043694Y-71174910D01*
X140959910Y-71258694D01*
X140900667Y-71361306D01*
X140877861Y-71446414D01*
X140276320Y-70844872D01*
X140276320Y-70844873D01*
X140250902Y-70879859D01*
X140250899Y-70879863D01*
X140161582Y-71055161D01*
X140100778Y-71242294D01*
X140070000Y-71436617D01*
X140070000Y-71633382D01*
X140100778Y-71827705D01*
X140161581Y-72014835D01*
X140250905Y-72190145D01*
X140276319Y-72225125D01*
X140276320Y-72225125D01*
X140877861Y-71623584D01*
X140900667Y-71708694D01*
X140959910Y-71811306D01*
X141043694Y-71895090D01*
X141146306Y-71954333D01*
X141231414Y-71977137D01*
X140629873Y-72578677D01*
X140629873Y-72578678D01*
X140664858Y-72604096D01*
X140841764Y-72694234D01*
X140892560Y-72742209D01*
X140909355Y-72810030D01*
X140886818Y-72876164D01*
X140841764Y-72915204D01*
X140664594Y-73005476D01*
X140573741Y-73071485D01*
X140505354Y-73121172D01*
X140505352Y-73121174D01*
X140505351Y-73121174D01*
X140366174Y-73260351D01*
X140366174Y-73260352D01*
X140366172Y-73260354D01*
X140316485Y-73328741D01*
X140250476Y-73419594D01*
X140161117Y-73594970D01*
X140100290Y-73782173D01*
X140069500Y-73976577D01*
X140069500Y-74173422D01*
X140100290Y-74367826D01*
X140161117Y-74555029D01*
X140234984Y-74700000D01*
X140250476Y-74730405D01*
X140366172Y-74889646D01*
X140505354Y-75028828D01*
X140664595Y-75144524D01*
X140778021Y-75202317D01*
X140841213Y-75234515D01*
X140892009Y-75282489D01*
X140908804Y-75350310D01*
X140886267Y-75416445D01*
X140841213Y-75455485D01*
X140664594Y-75545476D01*
X140590883Y-75599031D01*
X140505354Y-75661172D01*
X140505352Y-75661174D01*
X140505351Y-75661174D01*
X140366174Y-75800351D01*
X140366174Y-75800352D01*
X140366172Y-75800354D01*
X140347596Y-75825922D01*
X140250476Y-75959594D01*
X140161118Y-76134970D01*
X140161117Y-76134972D01*
X140161116Y-76134975D01*
X140136135Y-76211859D01*
X140111129Y-76288819D01*
X140071691Y-76346494D01*
X140007332Y-76373692D01*
X139993198Y-76374500D01*
X139016115Y-76374500D01*
X138949076Y-76354815D01*
X138916393Y-76321428D01*
X138915151Y-76322331D01*
X138791971Y-76152786D01*
X138647213Y-76008028D01*
X138481613Y-75887715D01*
X138481612Y-75887714D01*
X138481610Y-75887713D01*
X138424653Y-75858691D01*
X138299223Y-75794781D01*
X138104534Y-75731522D01*
X137929995Y-75703878D01*
X137902352Y-75699500D01*
X137697648Y-75699500D01*
X137673329Y-75703351D01*
X137495465Y-75731522D01*
X137300776Y-75794781D01*
X137118386Y-75887715D01*
X136952786Y-76008028D01*
X136808028Y-76152786D01*
X136684849Y-76322331D01*
X136683176Y-76321115D01*
X136637792Y-76362169D01*
X136583885Y-76374500D01*
X136260452Y-76374500D01*
X136193413Y-76354815D01*
X136172771Y-76338181D01*
X131732272Y-71897682D01*
X136500000Y-71897682D01*
X136500000Y-72102317D01*
X136532009Y-72304417D01*
X136595244Y-72499031D01*
X136688141Y-72681350D01*
X136688147Y-72681359D01*
X136720523Y-72725921D01*
X136720524Y-72725922D01*
X137400000Y-72046446D01*
X137400000Y-72052661D01*
X137427259Y-72154394D01*
X137479920Y-72245606D01*
X137554394Y-72320080D01*
X137645606Y-72372741D01*
X137747339Y-72400000D01*
X137753553Y-72400000D01*
X137074076Y-73079474D01*
X137118650Y-73111859D01*
X137300968Y-73204755D01*
X137495582Y-73267990D01*
X137697683Y-73300000D01*
X137902317Y-73300000D01*
X138104417Y-73267990D01*
X138299031Y-73204755D01*
X138481349Y-73111859D01*
X138525921Y-73079474D01*
X137846447Y-72400000D01*
X137852661Y-72400000D01*
X137954394Y-72372741D01*
X138045606Y-72320080D01*
X138120080Y-72245606D01*
X138172741Y-72154394D01*
X138200000Y-72052661D01*
X138200000Y-72046448D01*
X138879474Y-72725922D01*
X138879474Y-72725921D01*
X138911859Y-72681349D01*
X139004755Y-72499031D01*
X139067990Y-72304417D01*
X139100000Y-72102317D01*
X139100000Y-71897682D01*
X139067990Y-71695582D01*
X139004753Y-71500965D01*
X138998172Y-71488047D01*
X138998171Y-71488046D01*
X138911859Y-71318650D01*
X138879474Y-71274077D01*
X138879474Y-71274076D01*
X138200000Y-71953551D01*
X138200000Y-71947339D01*
X138172741Y-71845606D01*
X138120080Y-71754394D01*
X138045606Y-71679920D01*
X137954394Y-71627259D01*
X137852661Y-71600000D01*
X137846446Y-71600000D01*
X138525922Y-70920524D01*
X138525921Y-70920523D01*
X138481359Y-70888147D01*
X138481350Y-70888141D01*
X138299031Y-70795244D01*
X138104417Y-70732009D01*
X137902317Y-70700000D01*
X137697683Y-70700000D01*
X137495582Y-70732009D01*
X137300968Y-70795244D01*
X137118644Y-70888143D01*
X137074077Y-70920523D01*
X137074077Y-70920524D01*
X137753554Y-71600000D01*
X137747339Y-71600000D01*
X137645606Y-71627259D01*
X137554394Y-71679920D01*
X137479920Y-71754394D01*
X137427259Y-71845606D01*
X137400000Y-71947339D01*
X137400000Y-71953553D01*
X136720524Y-71274077D01*
X136720523Y-71274077D01*
X136688143Y-71318644D01*
X136595244Y-71500968D01*
X136532009Y-71695582D01*
X136500000Y-71897682D01*
X131732272Y-71897682D01*
X127461819Y-67627229D01*
X127428334Y-67565906D01*
X127425500Y-67539548D01*
X127425500Y-65126066D01*
X127445185Y-65059027D01*
X127497989Y-65013272D01*
X127530095Y-65003594D01*
X127577951Y-64996015D01*
X127787606Y-64927895D01*
X127984022Y-64827815D01*
X128162365Y-64698242D01*
X128318242Y-64542365D01*
X128447815Y-64364022D01*
X128547895Y-64167606D01*
X128616015Y-63957951D01*
X128650500Y-63740222D01*
X128650500Y-63519778D01*
X128616015Y-63302049D01*
X128555180Y-63114815D01*
X128547896Y-63092396D01*
X128547895Y-63092393D01*
X128481033Y-62961172D01*
X128447815Y-62895978D01*
X128369158Y-62787715D01*
X128318247Y-62717641D01*
X128318243Y-62717636D01*
X128162363Y-62561756D01*
X128162358Y-62561752D01*
X128022745Y-62460318D01*
X127980079Y-62404989D01*
X127974100Y-62335375D01*
X128006705Y-62273580D01*
X128022745Y-62259682D01*
X128162358Y-62158247D01*
X128162356Y-62158247D01*
X128162365Y-62158242D01*
X128318242Y-62002365D01*
X128447815Y-61824022D01*
X128547895Y-61627606D01*
X128616015Y-61417951D01*
X128650500Y-61200222D01*
X128650500Y-61047682D01*
X129450000Y-61047682D01*
X129450000Y-61252317D01*
X129482009Y-61454417D01*
X129545244Y-61649031D01*
X129638141Y-61831350D01*
X129638147Y-61831359D01*
X129670523Y-61875921D01*
X129670524Y-61875922D01*
X130350000Y-61196446D01*
X130350000Y-61202661D01*
X130377259Y-61304394D01*
X130429920Y-61395606D01*
X130504394Y-61470080D01*
X130595606Y-61522741D01*
X130697339Y-61550000D01*
X130703553Y-61550000D01*
X130024076Y-62229474D01*
X130068650Y-62261859D01*
X130250968Y-62354755D01*
X130445582Y-62417990D01*
X130647683Y-62450000D01*
X130852317Y-62450000D01*
X131054417Y-62417990D01*
X131249031Y-62354755D01*
X131431349Y-62261859D01*
X131475921Y-62229474D01*
X130796447Y-61550000D01*
X130802661Y-61550000D01*
X130904394Y-61522741D01*
X130995606Y-61470080D01*
X131070080Y-61395606D01*
X131122741Y-61304394D01*
X131150000Y-61202661D01*
X131150000Y-61196447D01*
X131829474Y-61875921D01*
X131861859Y-61831349D01*
X131954755Y-61649031D01*
X132017990Y-61454417D01*
X132050000Y-61252317D01*
X132050000Y-61047682D01*
X132017990Y-60845582D01*
X131954755Y-60650968D01*
X131861859Y-60468650D01*
X131829474Y-60424077D01*
X131829474Y-60424076D01*
X131150000Y-61103551D01*
X131150000Y-61097339D01*
X131122741Y-60995606D01*
X131070080Y-60904394D01*
X130995606Y-60829920D01*
X130904394Y-60777259D01*
X130802661Y-60750000D01*
X130796446Y-60750000D01*
X131466345Y-60080102D01*
X131475922Y-60070524D01*
X131475921Y-60070523D01*
X131431359Y-60038147D01*
X131431350Y-60038141D01*
X131249031Y-59945244D01*
X131054417Y-59882009D01*
X130852317Y-59850000D01*
X130647683Y-59850000D01*
X130445582Y-59882009D01*
X130250968Y-59945244D01*
X130068644Y-60038143D01*
X130024077Y-60070523D01*
X130024077Y-60070524D01*
X130703554Y-60750000D01*
X130697339Y-60750000D01*
X130595606Y-60777259D01*
X130504394Y-60829920D01*
X130429920Y-60904394D01*
X130377259Y-60995606D01*
X130350000Y-61097339D01*
X130350000Y-61103553D01*
X129670524Y-60424077D01*
X129670523Y-60424077D01*
X129638143Y-60468644D01*
X129545244Y-60650968D01*
X129482009Y-60845582D01*
X129450000Y-61047682D01*
X128650500Y-61047682D01*
X128650500Y-60979778D01*
X128616015Y-60762049D01*
X128550491Y-60560383D01*
X128547896Y-60552396D01*
X128547895Y-60552393D01*
X128507990Y-60474077D01*
X128447815Y-60355978D01*
X128437763Y-60342142D01*
X128327712Y-60190668D01*
X128318247Y-60177641D01*
X128318243Y-60177636D01*
X128162363Y-60021756D01*
X128162358Y-60021752D01*
X128022319Y-59920008D01*
X127979653Y-59864678D01*
X127973674Y-59795065D01*
X128006279Y-59733270D01*
X128022319Y-59719372D01*
X128047513Y-59701066D01*
X128047514Y-59701066D01*
X127461059Y-59114612D01*
X127481591Y-59109111D01*
X127618408Y-59030119D01*
X127730119Y-58918408D01*
X127809111Y-58781591D01*
X127814612Y-58761060D01*
X128401066Y-59347514D01*
X128401066Y-59347513D01*
X128447386Y-59283760D01*
X128547432Y-59087410D01*
X128615526Y-58877835D01*
X128650000Y-58660181D01*
X128650000Y-58439818D01*
X128615526Y-58222164D01*
X128547432Y-58012589D01*
X128447388Y-57816243D01*
X128401066Y-57752485D01*
X128401065Y-57752485D01*
X127814612Y-58338939D01*
X127809111Y-58318409D01*
X127730119Y-58181592D01*
X127618408Y-58069881D01*
X127481591Y-57990889D01*
X127461058Y-57985387D01*
X127999628Y-57446818D01*
X128060951Y-57413333D01*
X128087308Y-57410499D01*
X128197872Y-57410499D01*
X128257483Y-57404091D01*
X128392331Y-57353796D01*
X128507546Y-57267546D01*
X128593796Y-57152331D01*
X128644091Y-57017483D01*
X128644762Y-57011244D01*
X128671500Y-56946693D01*
X128728893Y-56906845D01*
X128768051Y-56900500D01*
X129624582Y-56900500D01*
X129691621Y-56920185D01*
X129724900Y-56951615D01*
X129758028Y-56997212D01*
X129758032Y-56997217D01*
X129902786Y-57141971D01*
X130049861Y-57248825D01*
X130068390Y-57262287D01*
X130184607Y-57321503D01*
X130250776Y-57355218D01*
X130250778Y-57355218D01*
X130250781Y-57355220D01*
X130355137Y-57389127D01*
X130445465Y-57418477D01*
X130546557Y-57434488D01*
X130647648Y-57450500D01*
X130647649Y-57450500D01*
X130852351Y-57450500D01*
X130852352Y-57450500D01*
X131054534Y-57418477D01*
X131249219Y-57355220D01*
X131431610Y-57262287D01*
X131528391Y-57191972D01*
X131597213Y-57141971D01*
X131597215Y-57141968D01*
X131597219Y-57141966D01*
X131741966Y-56997219D01*
X131770550Y-56957876D01*
X131782365Y-56941615D01*
X131837695Y-56898949D01*
X131882683Y-56890500D01*
X133124582Y-56890500D01*
X133191621Y-56910185D01*
G37*
G04 #@! TD.AperFunction*
G04 #@! TA.AperFunction,Conductor*
G36*
X171308344Y-63484185D02*
G01*
X171354099Y-63536989D01*
X171364043Y-63606147D01*
X171335018Y-63669703D01*
X171314194Y-63688814D01*
X171312951Y-63689717D01*
X171312063Y-63690363D01*
X171160364Y-63842062D01*
X171160364Y-63842063D01*
X171160362Y-63842065D01*
X171145623Y-63862352D01*
X171034258Y-64015631D01*
X170936859Y-64206784D01*
X170870560Y-64410829D01*
X170837000Y-64622724D01*
X170837000Y-64837275D01*
X170870560Y-65049170D01*
X170936859Y-65253215D01*
X171017419Y-65411320D01*
X171034258Y-65444368D01*
X171160362Y-65617935D01*
X171312065Y-65769638D01*
X171485632Y-65895742D01*
X171489574Y-65898606D01*
X171488499Y-65900085D01*
X171530120Y-65946109D01*
X171541527Y-66015041D01*
X171513856Y-66079198D01*
X171489058Y-66100684D01*
X171489574Y-66101394D01*
X171485632Y-66104257D01*
X171485632Y-66104258D01*
X171312065Y-66230362D01*
X171312063Y-66230364D01*
X171312062Y-66230364D01*
X171160364Y-66382062D01*
X171160364Y-66382063D01*
X171160362Y-66382065D01*
X171150415Y-66395756D01*
X171034258Y-66555631D01*
X170936859Y-66746784D01*
X170870560Y-66950829D01*
X170837000Y-67162724D01*
X170837000Y-67377275D01*
X170870560Y-67589170D01*
X170936859Y-67793215D01*
X171017419Y-67951320D01*
X171034258Y-67984368D01*
X171160362Y-68157935D01*
X171312065Y-68309638D01*
X171437770Y-68400968D01*
X171489574Y-68438606D01*
X171488499Y-68440085D01*
X171530120Y-68486109D01*
X171541527Y-68555041D01*
X171513856Y-68619198D01*
X171489058Y-68640684D01*
X171489574Y-68641394D01*
X171485632Y-68644257D01*
X171485632Y-68644258D01*
X171312065Y-68770362D01*
X171312063Y-68770364D01*
X171312062Y-68770364D01*
X171160364Y-68922062D01*
X171160364Y-68922063D01*
X171160362Y-68922065D01*
X171150415Y-68935756D01*
X171034258Y-69095631D01*
X170936859Y-69286784D01*
X170870560Y-69490829D01*
X170837000Y-69702724D01*
X170837000Y-69917275D01*
X170870561Y-70129171D01*
X170870561Y-70129174D01*
X170877900Y-70151759D01*
X170879895Y-70221600D01*
X170847650Y-70277758D01*
X170252229Y-70873181D01*
X170190906Y-70906666D01*
X170164548Y-70909500D01*
X165334433Y-70909500D01*
X165267394Y-70889815D01*
X165234115Y-70858386D01*
X165188239Y-70795244D01*
X165133828Y-70720354D01*
X164994646Y-70581172D01*
X164835405Y-70465476D01*
X164660025Y-70376116D01*
X164660024Y-70376115D01*
X164658235Y-70375204D01*
X164607439Y-70327230D01*
X164590644Y-70259409D01*
X164613181Y-70193274D01*
X164658236Y-70154234D01*
X164835141Y-70064097D01*
X164870125Y-70038678D01*
X164870126Y-70038678D01*
X164268585Y-69437137D01*
X164353694Y-69414333D01*
X164456306Y-69355090D01*
X164540090Y-69271306D01*
X164599333Y-69168694D01*
X164622137Y-69083585D01*
X165223678Y-69685126D01*
X165223678Y-69685125D01*
X165249095Y-69650143D01*
X165338418Y-69474835D01*
X165399221Y-69287705D01*
X165430000Y-69093382D01*
X165430000Y-68896617D01*
X165399221Y-68702294D01*
X165338418Y-68515164D01*
X165249096Y-68339858D01*
X165223678Y-68304873D01*
X165223677Y-68304873D01*
X164622137Y-68906413D01*
X164599333Y-68821306D01*
X164540090Y-68718694D01*
X164456306Y-68634910D01*
X164353694Y-68575667D01*
X164268584Y-68552861D01*
X164870125Y-67951320D01*
X164870125Y-67951319D01*
X164835145Y-67925905D01*
X164658235Y-67835765D01*
X164607439Y-67787790D01*
X164590644Y-67719969D01*
X164613182Y-67653834D01*
X164658236Y-67614795D01*
X164660022Y-67613884D01*
X164660025Y-67613884D01*
X164835405Y-67524524D01*
X164994646Y-67408828D01*
X165133828Y-67269646D01*
X165249524Y-67110405D01*
X165338884Y-66935025D01*
X165399709Y-66747826D01*
X165399874Y-66746784D01*
X165430500Y-66553422D01*
X165430500Y-66356577D01*
X165399709Y-66162173D01*
X165338882Y-65974970D01*
X165291743Y-65882455D01*
X165249524Y-65799595D01*
X165133828Y-65640354D01*
X164994646Y-65501172D01*
X164870975Y-65411319D01*
X164835403Y-65385474D01*
X164658787Y-65295485D01*
X164607990Y-65247511D01*
X164591195Y-65179690D01*
X164613732Y-65113555D01*
X164658787Y-65074515D01*
X164835403Y-64984525D01*
X164835402Y-64984525D01*
X164835405Y-64984524D01*
X164994646Y-64868828D01*
X165133828Y-64729646D01*
X165249524Y-64570405D01*
X165338884Y-64395025D01*
X165399709Y-64207826D01*
X165406080Y-64167603D01*
X165430500Y-64013422D01*
X165430500Y-63816577D01*
X165399709Y-63622175D01*
X165398574Y-63617446D01*
X165402065Y-63547664D01*
X165442730Y-63490846D01*
X165507656Y-63465034D01*
X165519148Y-63464500D01*
X171241305Y-63464500D01*
X171308344Y-63484185D01*
G37*
G04 #@! TD.AperFunction*
G04 #@! TA.AperFunction,Conductor*
G36*
X144843039Y-52545185D02*
G01*
X144888794Y-52597989D01*
X144900000Y-52649500D01*
X144900000Y-54800000D01*
X160200000Y-54800000D01*
X160200000Y-52649500D01*
X160219685Y-52582461D01*
X160272489Y-52536706D01*
X160324000Y-52525500D01*
X163370355Y-52525500D01*
X163437394Y-52545185D01*
X163483149Y-52597989D01*
X163493973Y-52659230D01*
X163489872Y-52711320D01*
X164091415Y-53312861D01*
X164006306Y-53335667D01*
X163903694Y-53394910D01*
X163819910Y-53478694D01*
X163760667Y-53581306D01*
X163737861Y-53666414D01*
X163136320Y-53064872D01*
X163136320Y-53064873D01*
X163110902Y-53099859D01*
X163110899Y-53099863D01*
X163021582Y-53275161D01*
X162960778Y-53462294D01*
X162930000Y-53656617D01*
X162930000Y-53853382D01*
X162960778Y-54047705D01*
X163021581Y-54234835D01*
X163110905Y-54410145D01*
X163136319Y-54445125D01*
X163136320Y-54445125D01*
X163737861Y-53843584D01*
X163760667Y-53928694D01*
X163819910Y-54031306D01*
X163903694Y-54115090D01*
X164006306Y-54174333D01*
X164091414Y-54197137D01*
X163489873Y-54798677D01*
X163489873Y-54798678D01*
X163524858Y-54824096D01*
X163701764Y-54914234D01*
X163752560Y-54962209D01*
X163769355Y-55030030D01*
X163746818Y-55096164D01*
X163701764Y-55135204D01*
X163524594Y-55225476D01*
X163455743Y-55275500D01*
X163365354Y-55341172D01*
X163365352Y-55341174D01*
X163365351Y-55341174D01*
X163226174Y-55480351D01*
X163226174Y-55480352D01*
X163226172Y-55480354D01*
X163216703Y-55493387D01*
X163110476Y-55639594D01*
X163021117Y-55814970D01*
X162960290Y-56002173D01*
X162929500Y-56196577D01*
X162929500Y-56393422D01*
X162960290Y-56587826D01*
X163021117Y-56775029D01*
X163079953Y-56890500D01*
X163110476Y-56950405D01*
X163226172Y-57109646D01*
X163365354Y-57248828D01*
X163524595Y-57364524D01*
X163647992Y-57427397D01*
X163701213Y-57454515D01*
X163752009Y-57502489D01*
X163768804Y-57570310D01*
X163746267Y-57636445D01*
X163701213Y-57675485D01*
X163524594Y-57765476D01*
X163454546Y-57816370D01*
X163365354Y-57881172D01*
X163365352Y-57881174D01*
X163365351Y-57881174D01*
X163226174Y-58020351D01*
X163226174Y-58020352D01*
X163226172Y-58020354D01*
X163190188Y-58069881D01*
X163110476Y-58179594D01*
X163021117Y-58354970D01*
X162960290Y-58542173D01*
X162929500Y-58736577D01*
X162929500Y-58933422D01*
X162960290Y-59127824D01*
X162961426Y-59132554D01*
X162957935Y-59202336D01*
X162917270Y-59259154D01*
X162852344Y-59284966D01*
X162840852Y-59285500D01*
X142883229Y-59285500D01*
X142816190Y-59265815D01*
X142795548Y-59249181D01*
X142602772Y-59056405D01*
X142569287Y-58995082D01*
X142567980Y-58949325D01*
X142570500Y-58933415D01*
X142570500Y-58736577D01*
X142539709Y-58542173D01*
X142478882Y-58354970D01*
X142398110Y-58196446D01*
X142389524Y-58179595D01*
X142273828Y-58020354D01*
X142134646Y-57881172D01*
X142134645Y-57881171D01*
X142134643Y-57881169D01*
X142121612Y-57871701D01*
X142078948Y-57816370D01*
X142070500Y-57771385D01*
X142070500Y-57358613D01*
X142090185Y-57291574D01*
X142121613Y-57258296D01*
X142134646Y-57248828D01*
X142273828Y-57109646D01*
X142389524Y-56950405D01*
X142478884Y-56775025D01*
X142539709Y-56587826D01*
X142570500Y-56393422D01*
X142570500Y-56196577D01*
X142539709Y-56002173D01*
X142478882Y-55814970D01*
X142389523Y-55639594D01*
X142273828Y-55480354D01*
X142134646Y-55341172D01*
X141980692Y-55229317D01*
X141938028Y-55173988D01*
X141932049Y-55104374D01*
X141964655Y-55042579D01*
X142025494Y-55008222D01*
X142053579Y-55005000D01*
X142117828Y-55005000D01*
X142117844Y-55004999D01*
X142177372Y-54998598D01*
X142177379Y-54998596D01*
X142312086Y-54948354D01*
X142312093Y-54948350D01*
X142427187Y-54862190D01*
X142427190Y-54862187D01*
X142513350Y-54747093D01*
X142513354Y-54747086D01*
X142563596Y-54612379D01*
X142563598Y-54612372D01*
X142569999Y-54552844D01*
X142570000Y-54552827D01*
X142570000Y-54005000D01*
X141695278Y-54005000D01*
X141739333Y-53928694D01*
X141770000Y-53814244D01*
X141770000Y-53695756D01*
X141739333Y-53581306D01*
X141695278Y-53505000D01*
X142570000Y-53505000D01*
X142570000Y-52957172D01*
X142569999Y-52957155D01*
X142563598Y-52897627D01*
X142563596Y-52897620D01*
X142513354Y-52762913D01*
X142513352Y-52762910D01*
X142484083Y-52723812D01*
X142459665Y-52658348D01*
X142474516Y-52590075D01*
X142523920Y-52540669D01*
X142583349Y-52525500D01*
X144776000Y-52525500D01*
X144843039Y-52545185D01*
G37*
G04 #@! TD.AperFunction*
M02*
