G04 #@! TF.GenerationSoftware,KiCad,Pcbnew,9.0.7*
G04 #@! TF.CreationDate,2026-03-18T00:55:46+08:00*
G04 #@! TF.ProjectId,chemistrylabreport,6368656d-6973-4747-9279-6c6162726570,rev?*
G04 #@! TF.SameCoordinates,Original*
G04 #@! TF.FileFunction,Legend,Top*
G04 #@! TF.FilePolarity,Positive*
%FSLAX46Y46*%
G04 Gerber Fmt 4.6, Leading zero omitted, Abs format (unit mm)*
G04 Created by KiCad (PCBNEW 9.0.7) date 2026-03-18 00:55:46*
%MOMM*%
%LPD*%
G01*
G04 APERTURE LIST*
%ADD10C,0.150000*%
%ADD11C,0.254000*%
%ADD12C,0.120000*%
%ADD13C,0.200000*%
%ADD14C,0.127000*%
%ADD15C,2.200000*%
%ADD16C,1.600000*%
%ADD17R,1.725000X1.725000*%
%ADD18C,1.725000*%
%ADD19R,1.800000X1.800000*%
%ADD20C,1.800000*%
%ADD21R,1.500000X1.500000*%
%ADD22C,1.500000*%
%ADD23C,1.612000*%
G04 APERTURE END LIST*
D10*
X129367731Y-83544295D02*
X129367731Y-84115723D01*
X129367731Y-84115723D02*
X129329636Y-84230009D01*
X129329636Y-84230009D02*
X129253445Y-84306200D01*
X129253445Y-84306200D02*
X129139160Y-84344295D01*
X129139160Y-84344295D02*
X129062969Y-84344295D01*
X130129636Y-84344295D02*
X129748684Y-84344295D01*
X129748684Y-84344295D02*
X129748684Y-83544295D01*
X130853446Y-84268104D02*
X130815350Y-84306200D01*
X130815350Y-84306200D02*
X130701065Y-84344295D01*
X130701065Y-84344295D02*
X130624874Y-84344295D01*
X130624874Y-84344295D02*
X130510588Y-84306200D01*
X130510588Y-84306200D02*
X130434398Y-84230009D01*
X130434398Y-84230009D02*
X130396303Y-84153819D01*
X130396303Y-84153819D02*
X130358207Y-84001438D01*
X130358207Y-84001438D02*
X130358207Y-83887152D01*
X130358207Y-83887152D02*
X130396303Y-83734771D01*
X130396303Y-83734771D02*
X130434398Y-83658580D01*
X130434398Y-83658580D02*
X130510588Y-83582390D01*
X130510588Y-83582390D02*
X130624874Y-83544295D01*
X130624874Y-83544295D02*
X130701065Y-83544295D01*
X130701065Y-83544295D02*
X130815350Y-83582390D01*
X130815350Y-83582390D02*
X130853446Y-83620485D01*
X131424874Y-83544295D02*
X131424874Y-84115723D01*
X131424874Y-84115723D02*
X131386779Y-84230009D01*
X131386779Y-84230009D02*
X131310588Y-84306200D01*
X131310588Y-84306200D02*
X131196303Y-84344295D01*
X131196303Y-84344295D02*
X131120112Y-84344295D01*
X132186779Y-84344295D02*
X131805827Y-84344295D01*
X131805827Y-84344295D02*
X131805827Y-83544295D01*
X132910589Y-84268104D02*
X132872493Y-84306200D01*
X132872493Y-84306200D02*
X132758208Y-84344295D01*
X132758208Y-84344295D02*
X132682017Y-84344295D01*
X132682017Y-84344295D02*
X132567731Y-84306200D01*
X132567731Y-84306200D02*
X132491541Y-84230009D01*
X132491541Y-84230009D02*
X132453446Y-84153819D01*
X132453446Y-84153819D02*
X132415350Y-84001438D01*
X132415350Y-84001438D02*
X132415350Y-83887152D01*
X132415350Y-83887152D02*
X132453446Y-83734771D01*
X132453446Y-83734771D02*
X132491541Y-83658580D01*
X132491541Y-83658580D02*
X132567731Y-83582390D01*
X132567731Y-83582390D02*
X132682017Y-83544295D01*
X132682017Y-83544295D02*
X132758208Y-83544295D01*
X132758208Y-83544295D02*
X132872493Y-83582390D01*
X132872493Y-83582390D02*
X132910589Y-83620485D01*
X133482017Y-83544295D02*
X133482017Y-84115723D01*
X133482017Y-84115723D02*
X133443922Y-84230009D01*
X133443922Y-84230009D02*
X133367731Y-84306200D01*
X133367731Y-84306200D02*
X133253446Y-84344295D01*
X133253446Y-84344295D02*
X133177255Y-84344295D01*
X134243922Y-84344295D02*
X133862970Y-84344295D01*
X133862970Y-84344295D02*
X133862970Y-83544295D01*
X134967732Y-84268104D02*
X134929636Y-84306200D01*
X134929636Y-84306200D02*
X134815351Y-84344295D01*
X134815351Y-84344295D02*
X134739160Y-84344295D01*
X134739160Y-84344295D02*
X134624874Y-84306200D01*
X134624874Y-84306200D02*
X134548684Y-84230009D01*
X134548684Y-84230009D02*
X134510589Y-84153819D01*
X134510589Y-84153819D02*
X134472493Y-84001438D01*
X134472493Y-84001438D02*
X134472493Y-83887152D01*
X134472493Y-83887152D02*
X134510589Y-83734771D01*
X134510589Y-83734771D02*
X134548684Y-83658580D01*
X134548684Y-83658580D02*
X134624874Y-83582390D01*
X134624874Y-83582390D02*
X134739160Y-83544295D01*
X134739160Y-83544295D02*
X134815351Y-83544295D01*
X134815351Y-83544295D02*
X134929636Y-83582390D01*
X134929636Y-83582390D02*
X134967732Y-83620485D01*
X135539160Y-83544295D02*
X135539160Y-84115723D01*
X135539160Y-84115723D02*
X135501065Y-84230009D01*
X135501065Y-84230009D02*
X135424874Y-84306200D01*
X135424874Y-84306200D02*
X135310589Y-84344295D01*
X135310589Y-84344295D02*
X135234398Y-84344295D01*
X136301065Y-84344295D02*
X135920113Y-84344295D01*
X135920113Y-84344295D02*
X135920113Y-83544295D01*
X137024875Y-84268104D02*
X136986779Y-84306200D01*
X136986779Y-84306200D02*
X136872494Y-84344295D01*
X136872494Y-84344295D02*
X136796303Y-84344295D01*
X136796303Y-84344295D02*
X136682017Y-84306200D01*
X136682017Y-84306200D02*
X136605827Y-84230009D01*
X136605827Y-84230009D02*
X136567732Y-84153819D01*
X136567732Y-84153819D02*
X136529636Y-84001438D01*
X136529636Y-84001438D02*
X136529636Y-83887152D01*
X136529636Y-83887152D02*
X136567732Y-83734771D01*
X136567732Y-83734771D02*
X136605827Y-83658580D01*
X136605827Y-83658580D02*
X136682017Y-83582390D01*
X136682017Y-83582390D02*
X136796303Y-83544295D01*
X136796303Y-83544295D02*
X136872494Y-83544295D01*
X136872494Y-83544295D02*
X136986779Y-83582390D01*
X136986779Y-83582390D02*
X137024875Y-83620485D01*
X174189160Y-70144295D02*
X174189160Y-69344295D01*
X174722493Y-69344295D02*
X174874874Y-69344295D01*
X174874874Y-69344295D02*
X174951064Y-69382390D01*
X174951064Y-69382390D02*
X175027255Y-69458580D01*
X175027255Y-69458580D02*
X175065350Y-69610961D01*
X175065350Y-69610961D02*
X175065350Y-69877628D01*
X175065350Y-69877628D02*
X175027255Y-70030009D01*
X175027255Y-70030009D02*
X174951064Y-70106200D01*
X174951064Y-70106200D02*
X174874874Y-70144295D01*
X174874874Y-70144295D02*
X174722493Y-70144295D01*
X174722493Y-70144295D02*
X174646302Y-70106200D01*
X174646302Y-70106200D02*
X174570112Y-70030009D01*
X174570112Y-70030009D02*
X174532016Y-69877628D01*
X174532016Y-69877628D02*
X174532016Y-69610961D01*
X174532016Y-69610961D02*
X174570112Y-69458580D01*
X174570112Y-69458580D02*
X174646302Y-69382390D01*
X174646302Y-69382390D02*
X174722493Y-69344295D01*
X175332016Y-69344295D02*
X175865350Y-69344295D01*
X175865350Y-69344295D02*
X175522492Y-70144295D01*
X124201064Y-63665723D02*
X124582017Y-63665723D01*
X124124874Y-63894295D02*
X124391541Y-63094295D01*
X124391541Y-63094295D02*
X124658207Y-63894295D01*
X125077255Y-63094295D02*
X125229636Y-63094295D01*
X125229636Y-63094295D02*
X125305826Y-63132390D01*
X125305826Y-63132390D02*
X125382017Y-63208580D01*
X125382017Y-63208580D02*
X125420112Y-63360961D01*
X125420112Y-63360961D02*
X125420112Y-63627628D01*
X125420112Y-63627628D02*
X125382017Y-63780009D01*
X125382017Y-63780009D02*
X125305826Y-63856200D01*
X125305826Y-63856200D02*
X125229636Y-63894295D01*
X125229636Y-63894295D02*
X125077255Y-63894295D01*
X125077255Y-63894295D02*
X125001064Y-63856200D01*
X125001064Y-63856200D02*
X124924874Y-63780009D01*
X124924874Y-63780009D02*
X124886778Y-63627628D01*
X124886778Y-63627628D02*
X124886778Y-63360961D01*
X124886778Y-63360961D02*
X124924874Y-63208580D01*
X124924874Y-63208580D02*
X125001064Y-63132390D01*
X125001064Y-63132390D02*
X125077255Y-63094295D01*
X124139160Y-61394295D02*
X124139160Y-60594295D01*
X124139160Y-60594295D02*
X124329636Y-60594295D01*
X124329636Y-60594295D02*
X124443922Y-60632390D01*
X124443922Y-60632390D02*
X124520112Y-60708580D01*
X124520112Y-60708580D02*
X124558207Y-60784771D01*
X124558207Y-60784771D02*
X124596303Y-60937152D01*
X124596303Y-60937152D02*
X124596303Y-61051438D01*
X124596303Y-61051438D02*
X124558207Y-61203819D01*
X124558207Y-61203819D02*
X124520112Y-61280009D01*
X124520112Y-61280009D02*
X124443922Y-61356200D01*
X124443922Y-61356200D02*
X124329636Y-61394295D01*
X124329636Y-61394295D02*
X124139160Y-61394295D01*
X125091541Y-60594295D02*
X125243922Y-60594295D01*
X125243922Y-60594295D02*
X125320112Y-60632390D01*
X125320112Y-60632390D02*
X125396303Y-60708580D01*
X125396303Y-60708580D02*
X125434398Y-60860961D01*
X125434398Y-60860961D02*
X125434398Y-61127628D01*
X125434398Y-61127628D02*
X125396303Y-61280009D01*
X125396303Y-61280009D02*
X125320112Y-61356200D01*
X125320112Y-61356200D02*
X125243922Y-61394295D01*
X125243922Y-61394295D02*
X125091541Y-61394295D01*
X125091541Y-61394295D02*
X125015350Y-61356200D01*
X125015350Y-61356200D02*
X124939160Y-61280009D01*
X124939160Y-61280009D02*
X124901064Y-61127628D01*
X124901064Y-61127628D02*
X124901064Y-60860961D01*
X124901064Y-60860961D02*
X124939160Y-60708580D01*
X124939160Y-60708580D02*
X125015350Y-60632390D01*
X125015350Y-60632390D02*
X125091541Y-60594295D01*
X123858207Y-58132390D02*
X123782017Y-58094295D01*
X123782017Y-58094295D02*
X123667731Y-58094295D01*
X123667731Y-58094295D02*
X123553445Y-58132390D01*
X123553445Y-58132390D02*
X123477255Y-58208580D01*
X123477255Y-58208580D02*
X123439160Y-58284771D01*
X123439160Y-58284771D02*
X123401064Y-58437152D01*
X123401064Y-58437152D02*
X123401064Y-58551438D01*
X123401064Y-58551438D02*
X123439160Y-58703819D01*
X123439160Y-58703819D02*
X123477255Y-58780009D01*
X123477255Y-58780009D02*
X123553445Y-58856200D01*
X123553445Y-58856200D02*
X123667731Y-58894295D01*
X123667731Y-58894295D02*
X123743922Y-58894295D01*
X123743922Y-58894295D02*
X123858207Y-58856200D01*
X123858207Y-58856200D02*
X123896303Y-58818104D01*
X123896303Y-58818104D02*
X123896303Y-58551438D01*
X123896303Y-58551438D02*
X123743922Y-58551438D01*
X124239160Y-58894295D02*
X124239160Y-58094295D01*
X124239160Y-58094295D02*
X124696303Y-58894295D01*
X124696303Y-58894295D02*
X124696303Y-58094295D01*
X125077255Y-58894295D02*
X125077255Y-58094295D01*
X125077255Y-58094295D02*
X125267731Y-58094295D01*
X125267731Y-58094295D02*
X125382017Y-58132390D01*
X125382017Y-58132390D02*
X125458207Y-58208580D01*
X125458207Y-58208580D02*
X125496302Y-58284771D01*
X125496302Y-58284771D02*
X125534398Y-58437152D01*
X125534398Y-58437152D02*
X125534398Y-58551438D01*
X125534398Y-58551438D02*
X125496302Y-58703819D01*
X125496302Y-58703819D02*
X125458207Y-58780009D01*
X125458207Y-58780009D02*
X125382017Y-58856200D01*
X125382017Y-58856200D02*
X125267731Y-58894295D01*
X125267731Y-58894295D02*
X125077255Y-58894295D01*
X123562969Y-55344295D02*
X124058207Y-55344295D01*
X124058207Y-55344295D02*
X123791541Y-55649057D01*
X123791541Y-55649057D02*
X123905826Y-55649057D01*
X123905826Y-55649057D02*
X123982017Y-55687152D01*
X123982017Y-55687152D02*
X124020112Y-55725247D01*
X124020112Y-55725247D02*
X124058207Y-55801438D01*
X124058207Y-55801438D02*
X124058207Y-55991914D01*
X124058207Y-55991914D02*
X124020112Y-56068104D01*
X124020112Y-56068104D02*
X123982017Y-56106200D01*
X123982017Y-56106200D02*
X123905826Y-56144295D01*
X123905826Y-56144295D02*
X123677255Y-56144295D01*
X123677255Y-56144295D02*
X123601064Y-56106200D01*
X123601064Y-56106200D02*
X123562969Y-56068104D01*
X124286779Y-55344295D02*
X124553446Y-56144295D01*
X124553446Y-56144295D02*
X124820112Y-55344295D01*
X125010588Y-55344295D02*
X125505826Y-55344295D01*
X125505826Y-55344295D02*
X125239160Y-55649057D01*
X125239160Y-55649057D02*
X125353445Y-55649057D01*
X125353445Y-55649057D02*
X125429636Y-55687152D01*
X125429636Y-55687152D02*
X125467731Y-55725247D01*
X125467731Y-55725247D02*
X125505826Y-55801438D01*
X125505826Y-55801438D02*
X125505826Y-55991914D01*
X125505826Y-55991914D02*
X125467731Y-56068104D01*
X125467731Y-56068104D02*
X125429636Y-56106200D01*
X125429636Y-56106200D02*
X125353445Y-56144295D01*
X125353445Y-56144295D02*
X125124874Y-56144295D01*
X125124874Y-56144295D02*
X125048683Y-56106200D01*
X125048683Y-56106200D02*
X125010588Y-56068104D01*
X174189160Y-72644295D02*
X174189160Y-71844295D01*
X174722493Y-71844295D02*
X174874874Y-71844295D01*
X174874874Y-71844295D02*
X174951064Y-71882390D01*
X174951064Y-71882390D02*
X175027255Y-71958580D01*
X175027255Y-71958580D02*
X175065350Y-72110961D01*
X175065350Y-72110961D02*
X175065350Y-72377628D01*
X175065350Y-72377628D02*
X175027255Y-72530009D01*
X175027255Y-72530009D02*
X174951064Y-72606200D01*
X174951064Y-72606200D02*
X174874874Y-72644295D01*
X174874874Y-72644295D02*
X174722493Y-72644295D01*
X174722493Y-72644295D02*
X174646302Y-72606200D01*
X174646302Y-72606200D02*
X174570112Y-72530009D01*
X174570112Y-72530009D02*
X174532016Y-72377628D01*
X174532016Y-72377628D02*
X174532016Y-72110961D01*
X174532016Y-72110961D02*
X174570112Y-71958580D01*
X174570112Y-71958580D02*
X174646302Y-71882390D01*
X174646302Y-71882390D02*
X174722493Y-71844295D01*
X175751064Y-71844295D02*
X175598683Y-71844295D01*
X175598683Y-71844295D02*
X175522492Y-71882390D01*
X175522492Y-71882390D02*
X175484397Y-71920485D01*
X175484397Y-71920485D02*
X175408207Y-72034771D01*
X175408207Y-72034771D02*
X175370111Y-72187152D01*
X175370111Y-72187152D02*
X175370111Y-72491914D01*
X175370111Y-72491914D02*
X175408207Y-72568104D01*
X175408207Y-72568104D02*
X175446302Y-72606200D01*
X175446302Y-72606200D02*
X175522492Y-72644295D01*
X175522492Y-72644295D02*
X175674873Y-72644295D01*
X175674873Y-72644295D02*
X175751064Y-72606200D01*
X175751064Y-72606200D02*
X175789159Y-72568104D01*
X175789159Y-72568104D02*
X175827254Y-72491914D01*
X175827254Y-72491914D02*
X175827254Y-72301438D01*
X175827254Y-72301438D02*
X175789159Y-72225247D01*
X175789159Y-72225247D02*
X175751064Y-72187152D01*
X175751064Y-72187152D02*
X175674873Y-72149057D01*
X175674873Y-72149057D02*
X175522492Y-72149057D01*
X175522492Y-72149057D02*
X175446302Y-72187152D01*
X175446302Y-72187152D02*
X175408207Y-72225247D01*
X175408207Y-72225247D02*
X175370111Y-72301438D01*
X174151064Y-67606200D02*
X174265350Y-67644295D01*
X174265350Y-67644295D02*
X174455826Y-67644295D01*
X174455826Y-67644295D02*
X174532017Y-67606200D01*
X174532017Y-67606200D02*
X174570112Y-67568104D01*
X174570112Y-67568104D02*
X174608207Y-67491914D01*
X174608207Y-67491914D02*
X174608207Y-67415723D01*
X174608207Y-67415723D02*
X174570112Y-67339533D01*
X174570112Y-67339533D02*
X174532017Y-67301438D01*
X174532017Y-67301438D02*
X174455826Y-67263342D01*
X174455826Y-67263342D02*
X174303445Y-67225247D01*
X174303445Y-67225247D02*
X174227255Y-67187152D01*
X174227255Y-67187152D02*
X174189160Y-67149057D01*
X174189160Y-67149057D02*
X174151064Y-67072866D01*
X174151064Y-67072866D02*
X174151064Y-66996676D01*
X174151064Y-66996676D02*
X174189160Y-66920485D01*
X174189160Y-66920485D02*
X174227255Y-66882390D01*
X174227255Y-66882390D02*
X174303445Y-66844295D01*
X174303445Y-66844295D02*
X174493922Y-66844295D01*
X174493922Y-66844295D02*
X174608207Y-66882390D01*
X174951065Y-67644295D02*
X174951065Y-66844295D01*
X174951065Y-66844295D02*
X175141541Y-66844295D01*
X175141541Y-66844295D02*
X175255827Y-66882390D01*
X175255827Y-66882390D02*
X175332017Y-66958580D01*
X175332017Y-66958580D02*
X175370112Y-67034771D01*
X175370112Y-67034771D02*
X175408208Y-67187152D01*
X175408208Y-67187152D02*
X175408208Y-67301438D01*
X175408208Y-67301438D02*
X175370112Y-67453819D01*
X175370112Y-67453819D02*
X175332017Y-67530009D01*
X175332017Y-67530009D02*
X175255827Y-67606200D01*
X175255827Y-67606200D02*
X175141541Y-67644295D01*
X175141541Y-67644295D02*
X174951065Y-67644295D01*
X175712969Y-67415723D02*
X176093922Y-67415723D01*
X175636779Y-67644295D02*
X175903446Y-66844295D01*
X175903446Y-66844295D02*
X176170112Y-67644295D01*
X174201064Y-65106200D02*
X174315350Y-65144295D01*
X174315350Y-65144295D02*
X174505826Y-65144295D01*
X174505826Y-65144295D02*
X174582017Y-65106200D01*
X174582017Y-65106200D02*
X174620112Y-65068104D01*
X174620112Y-65068104D02*
X174658207Y-64991914D01*
X174658207Y-64991914D02*
X174658207Y-64915723D01*
X174658207Y-64915723D02*
X174620112Y-64839533D01*
X174620112Y-64839533D02*
X174582017Y-64801438D01*
X174582017Y-64801438D02*
X174505826Y-64763342D01*
X174505826Y-64763342D02*
X174353445Y-64725247D01*
X174353445Y-64725247D02*
X174277255Y-64687152D01*
X174277255Y-64687152D02*
X174239160Y-64649057D01*
X174239160Y-64649057D02*
X174201064Y-64572866D01*
X174201064Y-64572866D02*
X174201064Y-64496676D01*
X174201064Y-64496676D02*
X174239160Y-64420485D01*
X174239160Y-64420485D02*
X174277255Y-64382390D01*
X174277255Y-64382390D02*
X174353445Y-64344295D01*
X174353445Y-64344295D02*
X174543922Y-64344295D01*
X174543922Y-64344295D02*
X174658207Y-64382390D01*
X175458208Y-65068104D02*
X175420112Y-65106200D01*
X175420112Y-65106200D02*
X175305827Y-65144295D01*
X175305827Y-65144295D02*
X175229636Y-65144295D01*
X175229636Y-65144295D02*
X175115350Y-65106200D01*
X175115350Y-65106200D02*
X175039160Y-65030009D01*
X175039160Y-65030009D02*
X175001065Y-64953819D01*
X175001065Y-64953819D02*
X174962969Y-64801438D01*
X174962969Y-64801438D02*
X174962969Y-64687152D01*
X174962969Y-64687152D02*
X175001065Y-64534771D01*
X175001065Y-64534771D02*
X175039160Y-64458580D01*
X175039160Y-64458580D02*
X175115350Y-64382390D01*
X175115350Y-64382390D02*
X175229636Y-64344295D01*
X175229636Y-64344295D02*
X175305827Y-64344295D01*
X175305827Y-64344295D02*
X175420112Y-64382390D01*
X175420112Y-64382390D02*
X175458208Y-64420485D01*
X176182017Y-65144295D02*
X175801065Y-65144295D01*
X175801065Y-65144295D02*
X175801065Y-64344295D01*
X174570112Y-61844295D02*
X174189160Y-61844295D01*
X174189160Y-61844295D02*
X174151064Y-62225247D01*
X174151064Y-62225247D02*
X174189160Y-62187152D01*
X174189160Y-62187152D02*
X174265350Y-62149057D01*
X174265350Y-62149057D02*
X174455826Y-62149057D01*
X174455826Y-62149057D02*
X174532017Y-62187152D01*
X174532017Y-62187152D02*
X174570112Y-62225247D01*
X174570112Y-62225247D02*
X174608207Y-62301438D01*
X174608207Y-62301438D02*
X174608207Y-62491914D01*
X174608207Y-62491914D02*
X174570112Y-62568104D01*
X174570112Y-62568104D02*
X174532017Y-62606200D01*
X174532017Y-62606200D02*
X174455826Y-62644295D01*
X174455826Y-62644295D02*
X174265350Y-62644295D01*
X174265350Y-62644295D02*
X174189160Y-62606200D01*
X174189160Y-62606200D02*
X174151064Y-62568104D01*
X174836779Y-61844295D02*
X175103446Y-62644295D01*
X175103446Y-62644295D02*
X175370112Y-61844295D01*
X174112969Y-59094295D02*
X174608207Y-59094295D01*
X174608207Y-59094295D02*
X174341541Y-59399057D01*
X174341541Y-59399057D02*
X174455826Y-59399057D01*
X174455826Y-59399057D02*
X174532017Y-59437152D01*
X174532017Y-59437152D02*
X174570112Y-59475247D01*
X174570112Y-59475247D02*
X174608207Y-59551438D01*
X174608207Y-59551438D02*
X174608207Y-59741914D01*
X174608207Y-59741914D02*
X174570112Y-59818104D01*
X174570112Y-59818104D02*
X174532017Y-59856200D01*
X174532017Y-59856200D02*
X174455826Y-59894295D01*
X174455826Y-59894295D02*
X174227255Y-59894295D01*
X174227255Y-59894295D02*
X174151064Y-59856200D01*
X174151064Y-59856200D02*
X174112969Y-59818104D01*
X174836779Y-59094295D02*
X175103446Y-59894295D01*
X175103446Y-59894295D02*
X175370112Y-59094295D01*
X175560588Y-59094295D02*
X176055826Y-59094295D01*
X176055826Y-59094295D02*
X175789160Y-59399057D01*
X175789160Y-59399057D02*
X175903445Y-59399057D01*
X175903445Y-59399057D02*
X175979636Y-59437152D01*
X175979636Y-59437152D02*
X176017731Y-59475247D01*
X176017731Y-59475247D02*
X176055826Y-59551438D01*
X176055826Y-59551438D02*
X176055826Y-59741914D01*
X176055826Y-59741914D02*
X176017731Y-59818104D01*
X176017731Y-59818104D02*
X175979636Y-59856200D01*
X175979636Y-59856200D02*
X175903445Y-59894295D01*
X175903445Y-59894295D02*
X175674874Y-59894295D01*
X175674874Y-59894295D02*
X175598683Y-59856200D01*
X175598683Y-59856200D02*
X175560588Y-59818104D01*
X174608207Y-83632390D02*
X174532017Y-83594295D01*
X174532017Y-83594295D02*
X174417731Y-83594295D01*
X174417731Y-83594295D02*
X174303445Y-83632390D01*
X174303445Y-83632390D02*
X174227255Y-83708580D01*
X174227255Y-83708580D02*
X174189160Y-83784771D01*
X174189160Y-83784771D02*
X174151064Y-83937152D01*
X174151064Y-83937152D02*
X174151064Y-84051438D01*
X174151064Y-84051438D02*
X174189160Y-84203819D01*
X174189160Y-84203819D02*
X174227255Y-84280009D01*
X174227255Y-84280009D02*
X174303445Y-84356200D01*
X174303445Y-84356200D02*
X174417731Y-84394295D01*
X174417731Y-84394295D02*
X174493922Y-84394295D01*
X174493922Y-84394295D02*
X174608207Y-84356200D01*
X174608207Y-84356200D02*
X174646303Y-84318104D01*
X174646303Y-84318104D02*
X174646303Y-84051438D01*
X174646303Y-84051438D02*
X174493922Y-84051438D01*
X174989160Y-84394295D02*
X174989160Y-83594295D01*
X174989160Y-83594295D02*
X175446303Y-84394295D01*
X175446303Y-84394295D02*
X175446303Y-83594295D01*
X175827255Y-84394295D02*
X175827255Y-83594295D01*
X175827255Y-83594295D02*
X176017731Y-83594295D01*
X176017731Y-83594295D02*
X176132017Y-83632390D01*
X176132017Y-83632390D02*
X176208207Y-83708580D01*
X176208207Y-83708580D02*
X176246302Y-83784771D01*
X176246302Y-83784771D02*
X176284398Y-83937152D01*
X176284398Y-83937152D02*
X176284398Y-84051438D01*
X176284398Y-84051438D02*
X176246302Y-84203819D01*
X176246302Y-84203819D02*
X176208207Y-84280009D01*
X176208207Y-84280009D02*
X176132017Y-84356200D01*
X176132017Y-84356200D02*
X176017731Y-84394295D01*
X176017731Y-84394295D02*
X175827255Y-84394295D01*
X174112969Y-81094295D02*
X174608207Y-81094295D01*
X174608207Y-81094295D02*
X174341541Y-81399057D01*
X174341541Y-81399057D02*
X174455826Y-81399057D01*
X174455826Y-81399057D02*
X174532017Y-81437152D01*
X174532017Y-81437152D02*
X174570112Y-81475247D01*
X174570112Y-81475247D02*
X174608207Y-81551438D01*
X174608207Y-81551438D02*
X174608207Y-81741914D01*
X174608207Y-81741914D02*
X174570112Y-81818104D01*
X174570112Y-81818104D02*
X174532017Y-81856200D01*
X174532017Y-81856200D02*
X174455826Y-81894295D01*
X174455826Y-81894295D02*
X174227255Y-81894295D01*
X174227255Y-81894295D02*
X174151064Y-81856200D01*
X174151064Y-81856200D02*
X174112969Y-81818104D01*
X174836779Y-81094295D02*
X175103446Y-81894295D01*
X175103446Y-81894295D02*
X175370112Y-81094295D01*
X175560588Y-81094295D02*
X176055826Y-81094295D01*
X176055826Y-81094295D02*
X175789160Y-81399057D01*
X175789160Y-81399057D02*
X175903445Y-81399057D01*
X175903445Y-81399057D02*
X175979636Y-81437152D01*
X175979636Y-81437152D02*
X176017731Y-81475247D01*
X176017731Y-81475247D02*
X176055826Y-81551438D01*
X176055826Y-81551438D02*
X176055826Y-81741914D01*
X176055826Y-81741914D02*
X176017731Y-81818104D01*
X176017731Y-81818104D02*
X175979636Y-81856200D01*
X175979636Y-81856200D02*
X175903445Y-81894295D01*
X175903445Y-81894295D02*
X175674874Y-81894295D01*
X175674874Y-81894295D02*
X175598683Y-81856200D01*
X175598683Y-81856200D02*
X175560588Y-81818104D01*
X174151064Y-79356200D02*
X174265350Y-79394295D01*
X174265350Y-79394295D02*
X174455826Y-79394295D01*
X174455826Y-79394295D02*
X174532017Y-79356200D01*
X174532017Y-79356200D02*
X174570112Y-79318104D01*
X174570112Y-79318104D02*
X174608207Y-79241914D01*
X174608207Y-79241914D02*
X174608207Y-79165723D01*
X174608207Y-79165723D02*
X174570112Y-79089533D01*
X174570112Y-79089533D02*
X174532017Y-79051438D01*
X174532017Y-79051438D02*
X174455826Y-79013342D01*
X174455826Y-79013342D02*
X174303445Y-78975247D01*
X174303445Y-78975247D02*
X174227255Y-78937152D01*
X174227255Y-78937152D02*
X174189160Y-78899057D01*
X174189160Y-78899057D02*
X174151064Y-78822866D01*
X174151064Y-78822866D02*
X174151064Y-78746676D01*
X174151064Y-78746676D02*
X174189160Y-78670485D01*
X174189160Y-78670485D02*
X174227255Y-78632390D01*
X174227255Y-78632390D02*
X174303445Y-78594295D01*
X174303445Y-78594295D02*
X174493922Y-78594295D01*
X174493922Y-78594295D02*
X174608207Y-78632390D01*
X175408208Y-79318104D02*
X175370112Y-79356200D01*
X175370112Y-79356200D02*
X175255827Y-79394295D01*
X175255827Y-79394295D02*
X175179636Y-79394295D01*
X175179636Y-79394295D02*
X175065350Y-79356200D01*
X175065350Y-79356200D02*
X174989160Y-79280009D01*
X174989160Y-79280009D02*
X174951065Y-79203819D01*
X174951065Y-79203819D02*
X174912969Y-79051438D01*
X174912969Y-79051438D02*
X174912969Y-78937152D01*
X174912969Y-78937152D02*
X174951065Y-78784771D01*
X174951065Y-78784771D02*
X174989160Y-78708580D01*
X174989160Y-78708580D02*
X175065350Y-78632390D01*
X175065350Y-78632390D02*
X175179636Y-78594295D01*
X175179636Y-78594295D02*
X175255827Y-78594295D01*
X175255827Y-78594295D02*
X175370112Y-78632390D01*
X175370112Y-78632390D02*
X175408208Y-78670485D01*
X176132017Y-79394295D02*
X175751065Y-79394295D01*
X175751065Y-79394295D02*
X175751065Y-78594295D01*
X174151064Y-76856200D02*
X174265350Y-76894295D01*
X174265350Y-76894295D02*
X174455826Y-76894295D01*
X174455826Y-76894295D02*
X174532017Y-76856200D01*
X174532017Y-76856200D02*
X174570112Y-76818104D01*
X174570112Y-76818104D02*
X174608207Y-76741914D01*
X174608207Y-76741914D02*
X174608207Y-76665723D01*
X174608207Y-76665723D02*
X174570112Y-76589533D01*
X174570112Y-76589533D02*
X174532017Y-76551438D01*
X174532017Y-76551438D02*
X174455826Y-76513342D01*
X174455826Y-76513342D02*
X174303445Y-76475247D01*
X174303445Y-76475247D02*
X174227255Y-76437152D01*
X174227255Y-76437152D02*
X174189160Y-76399057D01*
X174189160Y-76399057D02*
X174151064Y-76322866D01*
X174151064Y-76322866D02*
X174151064Y-76246676D01*
X174151064Y-76246676D02*
X174189160Y-76170485D01*
X174189160Y-76170485D02*
X174227255Y-76132390D01*
X174227255Y-76132390D02*
X174303445Y-76094295D01*
X174303445Y-76094295D02*
X174493922Y-76094295D01*
X174493922Y-76094295D02*
X174608207Y-76132390D01*
X174951065Y-76894295D02*
X174951065Y-76094295D01*
X174951065Y-76094295D02*
X175141541Y-76094295D01*
X175141541Y-76094295D02*
X175255827Y-76132390D01*
X175255827Y-76132390D02*
X175332017Y-76208580D01*
X175332017Y-76208580D02*
X175370112Y-76284771D01*
X175370112Y-76284771D02*
X175408208Y-76437152D01*
X175408208Y-76437152D02*
X175408208Y-76551438D01*
X175408208Y-76551438D02*
X175370112Y-76703819D01*
X175370112Y-76703819D02*
X175332017Y-76780009D01*
X175332017Y-76780009D02*
X175255827Y-76856200D01*
X175255827Y-76856200D02*
X175141541Y-76894295D01*
X175141541Y-76894295D02*
X174951065Y-76894295D01*
X175712969Y-76665723D02*
X176093922Y-76665723D01*
X175636779Y-76894295D02*
X175903446Y-76094295D01*
X175903446Y-76094295D02*
X176170112Y-76894295D01*
X138059580Y-66566666D02*
X138107200Y-66614285D01*
X138107200Y-66614285D02*
X138154819Y-66757142D01*
X138154819Y-66757142D02*
X138154819Y-66852380D01*
X138154819Y-66852380D02*
X138107200Y-66995237D01*
X138107200Y-66995237D02*
X138011961Y-67090475D01*
X138011961Y-67090475D02*
X137916723Y-67138094D01*
X137916723Y-67138094D02*
X137726247Y-67185713D01*
X137726247Y-67185713D02*
X137583390Y-67185713D01*
X137583390Y-67185713D02*
X137392914Y-67138094D01*
X137392914Y-67138094D02*
X137297676Y-67090475D01*
X137297676Y-67090475D02*
X137202438Y-66995237D01*
X137202438Y-66995237D02*
X137154819Y-66852380D01*
X137154819Y-66852380D02*
X137154819Y-66757142D01*
X137154819Y-66757142D02*
X137202438Y-66614285D01*
X137202438Y-66614285D02*
X137250057Y-66566666D01*
X137488152Y-65709523D02*
X138154819Y-65709523D01*
X137107200Y-65947618D02*
X137821485Y-66185713D01*
X137821485Y-66185713D02*
X137821485Y-65566666D01*
X134704819Y-60116666D02*
X134228628Y-60449999D01*
X134704819Y-60688094D02*
X133704819Y-60688094D01*
X133704819Y-60688094D02*
X133704819Y-60307142D01*
X133704819Y-60307142D02*
X133752438Y-60211904D01*
X133752438Y-60211904D02*
X133800057Y-60164285D01*
X133800057Y-60164285D02*
X133895295Y-60116666D01*
X133895295Y-60116666D02*
X134038152Y-60116666D01*
X134038152Y-60116666D02*
X134133390Y-60164285D01*
X134133390Y-60164285D02*
X134181009Y-60211904D01*
X134181009Y-60211904D02*
X134228628Y-60307142D01*
X134228628Y-60307142D02*
X134228628Y-60688094D01*
X134704819Y-59164285D02*
X134704819Y-59735713D01*
X134704819Y-59449999D02*
X133704819Y-59449999D01*
X133704819Y-59449999D02*
X133847676Y-59545237D01*
X133847676Y-59545237D02*
X133942914Y-59640475D01*
X133942914Y-59640475D02*
X133990533Y-59735713D01*
X131109580Y-58816666D02*
X131157200Y-58864285D01*
X131157200Y-58864285D02*
X131204819Y-59007142D01*
X131204819Y-59007142D02*
X131204819Y-59102380D01*
X131204819Y-59102380D02*
X131157200Y-59245237D01*
X131157200Y-59245237D02*
X131061961Y-59340475D01*
X131061961Y-59340475D02*
X130966723Y-59388094D01*
X130966723Y-59388094D02*
X130776247Y-59435713D01*
X130776247Y-59435713D02*
X130633390Y-59435713D01*
X130633390Y-59435713D02*
X130442914Y-59388094D01*
X130442914Y-59388094D02*
X130347676Y-59340475D01*
X130347676Y-59340475D02*
X130252438Y-59245237D01*
X130252438Y-59245237D02*
X130204819Y-59102380D01*
X130204819Y-59102380D02*
X130204819Y-59007142D01*
X130204819Y-59007142D02*
X130252438Y-58864285D01*
X130252438Y-58864285D02*
X130300057Y-58816666D01*
X130300057Y-58435713D02*
X130252438Y-58388094D01*
X130252438Y-58388094D02*
X130204819Y-58292856D01*
X130204819Y-58292856D02*
X130204819Y-58054761D01*
X130204819Y-58054761D02*
X130252438Y-57959523D01*
X130252438Y-57959523D02*
X130300057Y-57911904D01*
X130300057Y-57911904D02*
X130395295Y-57864285D01*
X130395295Y-57864285D02*
X130490533Y-57864285D01*
X130490533Y-57864285D02*
X130633390Y-57911904D01*
X130633390Y-57911904D02*
X131204819Y-58483332D01*
X131204819Y-58483332D02*
X131204819Y-57864285D01*
X138159580Y-58866666D02*
X138207200Y-58914285D01*
X138207200Y-58914285D02*
X138254819Y-59057142D01*
X138254819Y-59057142D02*
X138254819Y-59152380D01*
X138254819Y-59152380D02*
X138207200Y-59295237D01*
X138207200Y-59295237D02*
X138111961Y-59390475D01*
X138111961Y-59390475D02*
X138016723Y-59438094D01*
X138016723Y-59438094D02*
X137826247Y-59485713D01*
X137826247Y-59485713D02*
X137683390Y-59485713D01*
X137683390Y-59485713D02*
X137492914Y-59438094D01*
X137492914Y-59438094D02*
X137397676Y-59390475D01*
X137397676Y-59390475D02*
X137302438Y-59295237D01*
X137302438Y-59295237D02*
X137254819Y-59152380D01*
X137254819Y-59152380D02*
X137254819Y-59057142D01*
X137254819Y-59057142D02*
X137302438Y-58914285D01*
X137302438Y-58914285D02*
X137350057Y-58866666D01*
X137254819Y-58533332D02*
X137254819Y-57914285D01*
X137254819Y-57914285D02*
X137635771Y-58247618D01*
X137635771Y-58247618D02*
X137635771Y-58104761D01*
X137635771Y-58104761D02*
X137683390Y-58009523D01*
X137683390Y-58009523D02*
X137731009Y-57961904D01*
X137731009Y-57961904D02*
X137826247Y-57914285D01*
X137826247Y-57914285D02*
X138064342Y-57914285D01*
X138064342Y-57914285D02*
X138159580Y-57961904D01*
X138159580Y-57961904D02*
X138207200Y-58009523D01*
X138207200Y-58009523D02*
X138254819Y-58104761D01*
X138254819Y-58104761D02*
X138254819Y-58390475D01*
X138254819Y-58390475D02*
X138207200Y-58485713D01*
X138207200Y-58485713D02*
X138159580Y-58533332D01*
D11*
X171504318Y-60073332D02*
X172411461Y-60073332D01*
X172411461Y-60073332D02*
X172592889Y-60133809D01*
X172592889Y-60133809D02*
X172713842Y-60254761D01*
X172713842Y-60254761D02*
X172774318Y-60436190D01*
X172774318Y-60436190D02*
X172774318Y-60557142D01*
X171504318Y-59589523D02*
X171504318Y-58803332D01*
X171504318Y-58803332D02*
X171988127Y-59226666D01*
X171988127Y-59226666D02*
X171988127Y-59045237D01*
X171988127Y-59045237D02*
X172048603Y-58924285D01*
X172048603Y-58924285D02*
X172109080Y-58863809D01*
X172109080Y-58863809D02*
X172230032Y-58803332D01*
X172230032Y-58803332D02*
X172532413Y-58803332D01*
X172532413Y-58803332D02*
X172653365Y-58863809D01*
X172653365Y-58863809D02*
X172713842Y-58924285D01*
X172713842Y-58924285D02*
X172774318Y-59045237D01*
X172774318Y-59045237D02*
X172774318Y-59408094D01*
X172774318Y-59408094D02*
X172713842Y-59529047D01*
X172713842Y-59529047D02*
X172653365Y-59589523D01*
X126554318Y-56433332D02*
X127461461Y-56433332D01*
X127461461Y-56433332D02*
X127642889Y-56493809D01*
X127642889Y-56493809D02*
X127763842Y-56614761D01*
X127763842Y-56614761D02*
X127824318Y-56796190D01*
X127824318Y-56796190D02*
X127824318Y-56917142D01*
X126675270Y-55889047D02*
X126614794Y-55828571D01*
X126614794Y-55828571D02*
X126554318Y-55707618D01*
X126554318Y-55707618D02*
X126554318Y-55405237D01*
X126554318Y-55405237D02*
X126614794Y-55284285D01*
X126614794Y-55284285D02*
X126675270Y-55223809D01*
X126675270Y-55223809D02*
X126796222Y-55163332D01*
X126796222Y-55163332D02*
X126917175Y-55163332D01*
X126917175Y-55163332D02*
X127098603Y-55223809D01*
X127098603Y-55223809D02*
X127824318Y-55949523D01*
X127824318Y-55949523D02*
X127824318Y-55163332D01*
D10*
X168459580Y-84466666D02*
X168507200Y-84514285D01*
X168507200Y-84514285D02*
X168554819Y-84657142D01*
X168554819Y-84657142D02*
X168554819Y-84752380D01*
X168554819Y-84752380D02*
X168507200Y-84895237D01*
X168507200Y-84895237D02*
X168411961Y-84990475D01*
X168411961Y-84990475D02*
X168316723Y-85038094D01*
X168316723Y-85038094D02*
X168126247Y-85085713D01*
X168126247Y-85085713D02*
X167983390Y-85085713D01*
X167983390Y-85085713D02*
X167792914Y-85038094D01*
X167792914Y-85038094D02*
X167697676Y-84990475D01*
X167697676Y-84990475D02*
X167602438Y-84895237D01*
X167602438Y-84895237D02*
X167554819Y-84752380D01*
X167554819Y-84752380D02*
X167554819Y-84657142D01*
X167554819Y-84657142D02*
X167602438Y-84514285D01*
X167602438Y-84514285D02*
X167650057Y-84466666D01*
X168554819Y-83514285D02*
X168554819Y-84085713D01*
X168554819Y-83799999D02*
X167554819Y-83799999D01*
X167554819Y-83799999D02*
X167697676Y-83895237D01*
X167697676Y-83895237D02*
X167792914Y-83990475D01*
X167792914Y-83990475D02*
X167840533Y-84085713D01*
X138159580Y-74666666D02*
X138207200Y-74714285D01*
X138207200Y-74714285D02*
X138254819Y-74857142D01*
X138254819Y-74857142D02*
X138254819Y-74952380D01*
X138254819Y-74952380D02*
X138207200Y-75095237D01*
X138207200Y-75095237D02*
X138111961Y-75190475D01*
X138111961Y-75190475D02*
X138016723Y-75238094D01*
X138016723Y-75238094D02*
X137826247Y-75285713D01*
X137826247Y-75285713D02*
X137683390Y-75285713D01*
X137683390Y-75285713D02*
X137492914Y-75238094D01*
X137492914Y-75238094D02*
X137397676Y-75190475D01*
X137397676Y-75190475D02*
X137302438Y-75095237D01*
X137302438Y-75095237D02*
X137254819Y-74952380D01*
X137254819Y-74952380D02*
X137254819Y-74857142D01*
X137254819Y-74857142D02*
X137302438Y-74714285D01*
X137302438Y-74714285D02*
X137350057Y-74666666D01*
X137254819Y-73761904D02*
X137254819Y-74238094D01*
X137254819Y-74238094D02*
X137731009Y-74285713D01*
X137731009Y-74285713D02*
X137683390Y-74238094D01*
X137683390Y-74238094D02*
X137635771Y-74142856D01*
X137635771Y-74142856D02*
X137635771Y-73904761D01*
X137635771Y-73904761D02*
X137683390Y-73809523D01*
X137683390Y-73809523D02*
X137731009Y-73761904D01*
X137731009Y-73761904D02*
X137826247Y-73714285D01*
X137826247Y-73714285D02*
X138064342Y-73714285D01*
X138064342Y-73714285D02*
X138159580Y-73761904D01*
X138159580Y-73761904D02*
X138207200Y-73809523D01*
X138207200Y-73809523D02*
X138254819Y-73904761D01*
X138254819Y-73904761D02*
X138254819Y-74142856D01*
X138254819Y-74142856D02*
X138207200Y-74238094D01*
X138207200Y-74238094D02*
X138159580Y-74285713D01*
X131454819Y-71466666D02*
X130978628Y-71799999D01*
X131454819Y-72038094D02*
X130454819Y-72038094D01*
X130454819Y-72038094D02*
X130454819Y-71657142D01*
X130454819Y-71657142D02*
X130502438Y-71561904D01*
X130502438Y-71561904D02*
X130550057Y-71514285D01*
X130550057Y-71514285D02*
X130645295Y-71466666D01*
X130645295Y-71466666D02*
X130788152Y-71466666D01*
X130788152Y-71466666D02*
X130883390Y-71514285D01*
X130883390Y-71514285D02*
X130931009Y-71561904D01*
X130931009Y-71561904D02*
X130978628Y-71657142D01*
X130978628Y-71657142D02*
X130978628Y-72038094D01*
X130550057Y-71085713D02*
X130502438Y-71038094D01*
X130502438Y-71038094D02*
X130454819Y-70942856D01*
X130454819Y-70942856D02*
X130454819Y-70704761D01*
X130454819Y-70704761D02*
X130502438Y-70609523D01*
X130502438Y-70609523D02*
X130550057Y-70561904D01*
X130550057Y-70561904D02*
X130645295Y-70514285D01*
X130645295Y-70514285D02*
X130740533Y-70514285D01*
X130740533Y-70514285D02*
X130883390Y-70561904D01*
X130883390Y-70561904D02*
X131454819Y-71133332D01*
X131454819Y-71133332D02*
X131454819Y-70514285D01*
D11*
X171554318Y-84563332D02*
X172461461Y-84563332D01*
X172461461Y-84563332D02*
X172642889Y-84623809D01*
X172642889Y-84623809D02*
X172763842Y-84744761D01*
X172763842Y-84744761D02*
X172824318Y-84926190D01*
X172824318Y-84926190D02*
X172824318Y-85047142D01*
X172824318Y-83293332D02*
X172824318Y-84019047D01*
X172824318Y-83656190D02*
X171554318Y-83656190D01*
X171554318Y-83656190D02*
X171735746Y-83777142D01*
X171735746Y-83777142D02*
X171856699Y-83898094D01*
X171856699Y-83898094D02*
X171917175Y-84019047D01*
D12*
X139070000Y-69020000D02*
X138733000Y-69020000D01*
X139070000Y-63780000D02*
X139070000Y-69020000D01*
X138733000Y-63780000D02*
X139070000Y-63780000D01*
X136667000Y-69020000D02*
X136330000Y-69020000D01*
X136330000Y-69020000D02*
X136330000Y-63780000D01*
X136330000Y-63780000D02*
X136667000Y-63780000D01*
X135620000Y-63220000D02*
X135620000Y-56680000D01*
X135620000Y-56680000D02*
X135290000Y-56680000D01*
X135290000Y-63220000D02*
X135620000Y-63220000D01*
X133210000Y-63220000D02*
X132880000Y-63220000D01*
X132880000Y-63220000D02*
X132880000Y-56680000D01*
X132880000Y-56680000D02*
X133210000Y-56680000D01*
X129380000Y-56030000D02*
X129717000Y-56030000D01*
X129380000Y-61270000D02*
X129380000Y-56030000D01*
X129717000Y-61270000D02*
X129380000Y-61270000D01*
X131783000Y-56030000D02*
X132120000Y-56030000D01*
X132120000Y-56030000D02*
X132120000Y-61270000D01*
X132120000Y-61270000D02*
X131783000Y-61270000D01*
X136430000Y-56080000D02*
X136767000Y-56080000D01*
X136430000Y-61320000D02*
X136430000Y-56080000D01*
X136767000Y-61320000D02*
X136430000Y-61320000D01*
X138833000Y-56080000D02*
X139170000Y-56080000D01*
X139170000Y-56080000D02*
X139170000Y-61320000D01*
X139170000Y-61320000D02*
X138833000Y-61320000D01*
D13*
X170880000Y-58130000D02*
X170880000Y-73870000D01*
X170880000Y-73870000D02*
X173520000Y-73870000D01*
X172200000Y-58130000D02*
X170880000Y-58130000D01*
X173520000Y-73870000D02*
X173520000Y-59650000D01*
X126000000Y-56010000D02*
X126000000Y-65450000D01*
X126000000Y-65450000D02*
X128500000Y-65450000D01*
X128500000Y-54540000D02*
X127250000Y-54540000D01*
X128500000Y-65450000D02*
X128500000Y-54540000D01*
D12*
X169470000Y-86920000D02*
X169133000Y-86920000D01*
X169470000Y-81680000D02*
X169470000Y-86920000D01*
X169133000Y-81680000D02*
X169470000Y-81680000D01*
X167067000Y-86920000D02*
X166730000Y-86920000D01*
X166730000Y-86920000D02*
X166730000Y-81680000D01*
X166730000Y-81680000D02*
X167067000Y-81680000D01*
X140050000Y-52075000D02*
X165450000Y-52075000D01*
X140050000Y-90995000D02*
X140050000Y-52075000D01*
X165450000Y-52075000D02*
X165450000Y-90995000D01*
X165450000Y-90995000D02*
X140050000Y-90995000D01*
X136430000Y-71880000D02*
X136767000Y-71880000D01*
X136430000Y-77120000D02*
X136430000Y-71880000D01*
X136767000Y-77120000D02*
X136430000Y-77120000D01*
X138833000Y-71880000D02*
X139170000Y-71880000D01*
X139170000Y-71880000D02*
X139170000Y-77120000D01*
X139170000Y-77120000D02*
X138833000Y-77120000D01*
X126600000Y-68300000D02*
X126600000Y-74300000D01*
X135400000Y-68300000D02*
X135400000Y-74300000D01*
X126600000Y-68300000D02*
G75*
G02*
X135377560Y-68267350I4400000J-3000000D01*
G01*
X135400000Y-74300000D02*
G75*
G02*
X126622440Y-74332650I-4400000J3000000D01*
G01*
D13*
X173500000Y-84140000D02*
X173500000Y-74700000D01*
X173500000Y-74700000D02*
X171000000Y-74700000D01*
X171000000Y-85610000D02*
X172250000Y-85610000D01*
X171000000Y-74700000D02*
X171000000Y-85610000D01*
D14*
X133000000Y-75640000D02*
X133000000Y-76640000D01*
X133000000Y-91360000D02*
X133000000Y-92360000D01*
X133500000Y-76140000D02*
X132500000Y-76140000D01*
X139000000Y-84000000D02*
G75*
G02*
X127000000Y-84000000I-6000000J0D01*
G01*
X127000000Y-84000000D02*
G75*
G02*
X139000000Y-84000000I6000000J0D01*
G01*
%LPC*%
D15*
X126000000Y-90000000D03*
X174000000Y-90000000D03*
X174000000Y-55000000D03*
D16*
X137700000Y-68900000D03*
X137700000Y-63900000D03*
X134250000Y-56140000D03*
X134250000Y-63760000D03*
X130750000Y-56150000D03*
X130750000Y-61150000D03*
X137800000Y-56200000D03*
X137800000Y-61200000D03*
D17*
X172200000Y-59650000D03*
D18*
X172200000Y-62190000D03*
X172200000Y-64730000D03*
X172200000Y-67270000D03*
X172200000Y-69810000D03*
X172200000Y-72350000D03*
D19*
X127250000Y-56010000D03*
D20*
X127250000Y-58550000D03*
X127250000Y-61090000D03*
X127250000Y-63630000D03*
D16*
X168100000Y-81800000D03*
X168100000Y-86800000D03*
D21*
X141320000Y-53755000D03*
D22*
X141320000Y-56295000D03*
X141320000Y-58835000D03*
X141320000Y-61375000D03*
X141320000Y-63915000D03*
X141320000Y-66455000D03*
X141320000Y-68995000D03*
X141320000Y-71535000D03*
X141320000Y-74075000D03*
X141320000Y-76615000D03*
X141320000Y-79155000D03*
X141320000Y-81695000D03*
X141320000Y-84235000D03*
X141320000Y-86775000D03*
X141320000Y-89315000D03*
X164180000Y-89315000D03*
X164180000Y-86775000D03*
X164180000Y-84235000D03*
X164180000Y-81695000D03*
X164180000Y-79155000D03*
X164180000Y-76615000D03*
X164180000Y-74075000D03*
X164180000Y-71535000D03*
X164180000Y-68995000D03*
X164180000Y-66455000D03*
X164180000Y-63915000D03*
X164180000Y-61375000D03*
X164180000Y-58835000D03*
X164180000Y-56295000D03*
X164180000Y-53755000D03*
D16*
X137800000Y-77000000D03*
X137800000Y-72000000D03*
X131000000Y-67500000D03*
X131000000Y-75100000D03*
D19*
X172250000Y-84140000D03*
D20*
X172250000Y-81600000D03*
X172250000Y-79060000D03*
X172250000Y-76520000D03*
D23*
X133000000Y-87800000D03*
X133000000Y-80200000D03*
%LPD*%
M02*
