G04 #@! TF.GenerationSoftware,KiCad,Pcbnew,9.0.7*
G04 #@! TF.CreationDate,2026-03-18T00:55:46+08:00*
G04 #@! TF.ProjectId,chemistrylabreport,6368656d-6973-4747-9279-6c6162726570,rev?*
G04 #@! TF.SameCoordinates,Original*
G04 #@! TF.FileFunction,Legend,Bot*
G04 #@! TF.FilePolarity,Positive*
%FSLAX46Y46*%
G04 Gerber Fmt 4.6, Leading zero omitted, Abs format (unit mm)*
G04 Created by KiCad (PCBNEW 9.0.7) date 2026-03-18 00:55:46*
%MOMM*%
%LPD*%
G01*
G04 APERTURE LIST*
%ADD10C,0.300000*%
%ADD11C,0.150000*%
%ADD12C,0.000000*%
%ADD13C,2.200000*%
%ADD14C,1.600000*%
%ADD15R,1.725000X1.725000*%
%ADD16C,1.725000*%
%ADD17R,1.800000X1.800000*%
%ADD18C,1.800000*%
%ADD19R,1.500000X1.500000*%
%ADD20C,1.500000*%
%ADD21C,1.612000*%
G04 APERTURE END LIST*
D10*
X153721427Y-63749757D02*
X153864285Y-63678328D01*
X153864285Y-63678328D02*
X154078570Y-63678328D01*
X154078570Y-63678328D02*
X154292856Y-63749757D01*
X154292856Y-63749757D02*
X154435713Y-63892614D01*
X154435713Y-63892614D02*
X154507142Y-64035471D01*
X154507142Y-64035471D02*
X154578570Y-64321185D01*
X154578570Y-64321185D02*
X154578570Y-64535471D01*
X154578570Y-64535471D02*
X154507142Y-64821185D01*
X154507142Y-64821185D02*
X154435713Y-64964042D01*
X154435713Y-64964042D02*
X154292856Y-65106900D01*
X154292856Y-65106900D02*
X154078570Y-65178328D01*
X154078570Y-65178328D02*
X153935713Y-65178328D01*
X153935713Y-65178328D02*
X153721427Y-65106900D01*
X153721427Y-65106900D02*
X153649999Y-65035471D01*
X153649999Y-65035471D02*
X153649999Y-64535471D01*
X153649999Y-64535471D02*
X153935713Y-64535471D01*
X152792856Y-63678328D02*
X152792856Y-64035471D01*
X153149999Y-63892614D02*
X152792856Y-64035471D01*
X152792856Y-64035471D02*
X152435713Y-63892614D01*
X153007142Y-64321185D02*
X152792856Y-64035471D01*
X152792856Y-64035471D02*
X152578570Y-64321185D01*
X151649999Y-63678328D02*
X151649999Y-64035471D01*
X152007142Y-63892614D02*
X151649999Y-64035471D01*
X151649999Y-64035471D02*
X151292856Y-63892614D01*
X151864285Y-64321185D02*
X151649999Y-64035471D01*
X151649999Y-64035471D02*
X151435713Y-64321185D01*
X150507142Y-63678328D02*
X150507142Y-64035471D01*
X150864285Y-63892614D02*
X150507142Y-64035471D01*
X150507142Y-64035471D02*
X150149999Y-63892614D01*
X150721428Y-64321185D02*
X150507142Y-64035471D01*
X150507142Y-64035471D02*
X150292856Y-64321185D01*
D11*
G36*
X159359036Y-74115000D02*
G01*
X159071440Y-74115000D01*
X159071440Y-73614790D01*
X159032110Y-73618002D01*
X159009658Y-73625680D01*
X158998046Y-73636039D01*
X158988732Y-73665817D01*
X158984002Y-73746376D01*
X158984002Y-74115000D01*
X158716922Y-74115000D01*
X158716922Y-73822580D01*
X158719408Y-73700930D01*
X158724127Y-73658571D01*
X158735858Y-73629084D01*
X158760641Y-73593175D01*
X158782960Y-73573340D01*
X158819474Y-73554180D01*
X158875375Y-73536327D01*
X158814338Y-73524983D01*
X158774174Y-73506760D01*
X158749040Y-73483204D01*
X158733396Y-73451268D01*
X158721691Y-73396852D01*
X158716922Y-73310158D01*
X158718775Y-73282131D01*
X158984002Y-73282131D01*
X158984002Y-73343009D01*
X158987192Y-73392430D01*
X158994455Y-73418104D01*
X159003480Y-73429532D01*
X159026997Y-73438842D01*
X159071440Y-73442843D01*
X159071440Y-73196646D01*
X159026189Y-73201559D01*
X159002808Y-73213072D01*
X158989713Y-73235115D01*
X158984002Y-73282131D01*
X158718775Y-73282131D01*
X158723112Y-73216512D01*
X158739179Y-73150332D01*
X158762351Y-73104811D01*
X158796194Y-73066758D01*
X158835020Y-73040469D01*
X158879832Y-73024760D01*
X158968213Y-73014022D01*
X159155460Y-73009068D01*
X159359036Y-73009068D01*
X159359036Y-74115000D01*
G37*
G36*
X158343129Y-72989283D02*
G01*
X158397429Y-72999735D01*
X158445263Y-73016395D01*
X158489584Y-73040261D01*
X158526531Y-73069558D01*
X158556943Y-73104506D01*
X158580874Y-73144284D01*
X158597186Y-73186345D01*
X158606158Y-73231268D01*
X158611587Y-73312843D01*
X158613974Y-73467390D01*
X158613974Y-73656678D01*
X158611455Y-73814698D01*
X158605791Y-73895853D01*
X158596539Y-73940022D01*
X158579608Y-73981988D01*
X158554562Y-74022309D01*
X158523018Y-74057588D01*
X158485358Y-74086536D01*
X158440805Y-74109443D01*
X158392855Y-74125253D01*
X158339942Y-74135053D01*
X158281315Y-74138447D01*
X158219497Y-74134791D01*
X158165198Y-74124360D01*
X158117367Y-74107733D01*
X158073044Y-74083832D01*
X158036097Y-74054514D01*
X158005687Y-74019562D01*
X157981762Y-73979782D01*
X157965471Y-73937722D01*
X157956533Y-73892800D01*
X157951061Y-73811224D01*
X157948656Y-73656678D01*
X157948656Y-73467390D01*
X157951175Y-73309370D01*
X157952292Y-73293367D01*
X158236252Y-73293367D01*
X158236252Y-73801331D01*
X158239003Y-73890211D01*
X158244495Y-73924918D01*
X158252320Y-73939352D01*
X158264359Y-73947802D01*
X158282048Y-73950868D01*
X158306028Y-73944929D01*
X158318623Y-73928337D01*
X158323769Y-73896873D01*
X158326439Y-73809513D01*
X158326439Y-73293367D01*
X158322292Y-73216421D01*
X158314471Y-73190601D01*
X158300012Y-73177626D01*
X158279972Y-73173199D01*
X158257514Y-73178792D01*
X158244801Y-73194692D01*
X158239077Y-73223033D01*
X158236252Y-73293367D01*
X157952292Y-73293367D01*
X157956838Y-73228215D01*
X157966093Y-73184047D01*
X157983024Y-73142102D01*
X158008068Y-73101819D01*
X158039618Y-73066508D01*
X158077278Y-73037561D01*
X158121824Y-73014685D01*
X158169778Y-72998842D01*
X158222690Y-72989021D01*
X158281315Y-72985621D01*
X158343129Y-72989283D01*
G37*
G36*
X157840823Y-74115000D02*
G01*
X157508164Y-74115000D01*
X157389901Y-74111924D01*
X157318170Y-74104512D01*
X157278637Y-74095094D01*
X157244517Y-74077917D01*
X157217611Y-74053505D01*
X157196999Y-74020966D01*
X157184032Y-73983634D01*
X157174885Y-73929699D01*
X157171353Y-73854209D01*
X157171353Y-73751261D01*
X157173490Y-73719021D01*
X157458949Y-73719021D01*
X157458949Y-73823190D01*
X157464376Y-73883912D01*
X157475680Y-73908126D01*
X157498732Y-73920286D01*
X157553227Y-73927421D01*
X157553227Y-73614790D01*
X157495733Y-73621490D01*
X157473970Y-73632070D01*
X157464012Y-73654742D01*
X157458949Y-73719021D01*
X157173490Y-73719021D01*
X157176121Y-73679326D01*
X157188629Y-73627231D01*
X157206891Y-73590305D01*
X157234744Y-73560888D01*
X157278123Y-73535556D01*
X157342140Y-73515139D01*
X157283677Y-73497492D01*
X157245555Y-73477748D01*
X157222278Y-73456704D01*
X157207024Y-73429284D01*
X157196160Y-73386440D01*
X157191870Y-73322248D01*
X157193133Y-73301976D01*
X157458949Y-73301976D01*
X157462964Y-73390997D01*
X157470551Y-73421350D01*
X157480332Y-73432004D01*
X157497203Y-73439276D01*
X157524528Y-73442172D01*
X157553227Y-73442843D01*
X157553227Y-73196646D01*
X157512452Y-73198930D01*
X157493449Y-73202814D01*
X157480094Y-73211522D01*
X157468536Y-73229131D01*
X157461885Y-73253984D01*
X157458949Y-73301976D01*
X157193133Y-73301976D01*
X157197792Y-73227194D01*
X157213079Y-73160611D01*
X157234917Y-73115375D01*
X157267088Y-73076930D01*
X157304510Y-73048852D01*
X157348002Y-73030134D01*
X157426258Y-73015219D01*
X157553899Y-73009068D01*
X157840823Y-73009068D01*
X157840823Y-74115000D01*
G37*
G36*
X156805376Y-72989283D02*
G01*
X156859676Y-72999735D01*
X156907510Y-73016395D01*
X156951831Y-73040261D01*
X156988778Y-73069558D01*
X157019190Y-73104506D01*
X157043121Y-73144284D01*
X157059433Y-73186345D01*
X157068405Y-73231268D01*
X157073834Y-73312843D01*
X157076221Y-73467390D01*
X157076221Y-73656678D01*
X157073702Y-73814698D01*
X157068039Y-73895853D01*
X157058786Y-73940022D01*
X157041855Y-73981988D01*
X157016809Y-74022309D01*
X156985265Y-74057588D01*
X156947605Y-74086536D01*
X156903052Y-74109443D01*
X156855102Y-74125253D01*
X156802189Y-74135053D01*
X156743562Y-74138447D01*
X156681744Y-74134791D01*
X156627445Y-74124360D01*
X156579614Y-74107733D01*
X156535291Y-74083832D01*
X156498344Y-74054514D01*
X156467934Y-74019562D01*
X156444009Y-73979782D01*
X156427718Y-73937722D01*
X156418780Y-73892800D01*
X156413308Y-73811224D01*
X156410903Y-73656678D01*
X156410903Y-73467390D01*
X156413422Y-73309370D01*
X156414539Y-73293367D01*
X156698499Y-73293367D01*
X156698499Y-73801331D01*
X156701250Y-73890211D01*
X156706742Y-73924918D01*
X156714567Y-73939352D01*
X156726607Y-73947802D01*
X156744295Y-73950868D01*
X156768275Y-73944929D01*
X156780870Y-73928337D01*
X156786016Y-73896873D01*
X156788686Y-73809513D01*
X156788686Y-73293367D01*
X156784539Y-73216421D01*
X156776718Y-73190601D01*
X156762259Y-73177626D01*
X156742219Y-73173199D01*
X156719761Y-73178792D01*
X156707048Y-73194692D01*
X156701324Y-73223033D01*
X156698499Y-73293367D01*
X156414539Y-73293367D01*
X156419085Y-73228215D01*
X156428340Y-73184047D01*
X156445271Y-73142102D01*
X156470315Y-73101819D01*
X156501865Y-73066508D01*
X156539525Y-73037561D01*
X156584071Y-73014685D01*
X156632025Y-72998842D01*
X156684937Y-72989021D01*
X156743562Y-72985621D01*
X156805376Y-72989283D01*
G37*
G36*
X155723787Y-73009068D02*
G01*
X155723787Y-73231817D01*
X155894574Y-73231817D01*
X155894574Y-74115000D01*
X156182170Y-74115000D01*
X156182170Y-73231817D01*
X156352285Y-73231817D01*
X156352285Y-73009068D01*
X155723787Y-73009068D01*
G37*
G36*
X155370673Y-73009068D02*
G01*
X155370673Y-74115000D01*
X155658269Y-74115000D01*
X155658269Y-73009068D01*
X155370673Y-73009068D01*
G37*
G36*
X154584272Y-73489738D02*
G01*
X154871868Y-73489738D01*
X154871868Y-73298190D01*
X154874979Y-73222347D01*
X154881088Y-73193960D01*
X154894932Y-73178883D01*
X154921755Y-73173199D01*
X154943754Y-73176398D01*
X154958057Y-73184861D01*
X154966878Y-73198478D01*
X154973300Y-73230953D01*
X154976404Y-73307716D01*
X154976404Y-73821114D01*
X154973311Y-73894792D01*
X154966878Y-73926322D01*
X154958194Y-73939613D01*
X154944478Y-73947801D01*
X154923770Y-73950868D01*
X154904018Y-73947834D01*
X154890584Y-73939618D01*
X154881760Y-73926078D01*
X154875154Y-73893020D01*
X154871868Y-73809513D01*
X154871868Y-73669501D01*
X154584272Y-73669501D01*
X154584272Y-73712793D01*
X154587774Y-73829516D01*
X154596591Y-73907888D01*
X154608513Y-73957646D01*
X154630012Y-74001954D01*
X154664878Y-74043947D01*
X154715797Y-74084164D01*
X154773414Y-74113561D01*
X154840874Y-74131954D01*
X154920350Y-74138447D01*
X155003649Y-74132798D01*
X155072240Y-74117094D01*
X155128689Y-74092651D01*
X155178088Y-74057385D01*
X155213726Y-74015437D01*
X155237316Y-73965889D01*
X155250751Y-73910760D01*
X155260273Y-73831735D01*
X155263939Y-73722257D01*
X155263939Y-73399063D01*
X155261536Y-73286985D01*
X155255757Y-73219666D01*
X155246933Y-73181052D01*
X155230878Y-73142839D01*
X155206908Y-73104567D01*
X155176994Y-73070909D01*
X155139767Y-73041892D01*
X155094190Y-73017433D01*
X155045193Y-73000146D01*
X154990292Y-72989374D01*
X154928532Y-72985621D01*
X154844989Y-72991641D01*
X154775954Y-73008432D01*
X154718850Y-73034713D01*
X154668302Y-73071654D01*
X154632878Y-73112224D01*
X154610223Y-73156957D01*
X154597215Y-73207004D01*
X154587894Y-73280641D01*
X154584272Y-73384836D01*
X154584272Y-73489738D01*
G37*
G36*
X153871693Y-73345146D02*
G01*
X154138773Y-73345146D01*
X154138773Y-73262592D01*
X154142138Y-73210184D01*
X154149031Y-73189014D01*
X154162146Y-73177412D01*
X154183164Y-73173199D01*
X154206127Y-73178502D01*
X154222487Y-73194143D01*
X154231973Y-73218183D01*
X154235798Y-73257585D01*
X154231473Y-73308484D01*
X154220778Y-73339956D01*
X154198016Y-73366693D01*
X154139506Y-73407855D01*
X154012144Y-73491109D01*
X153936811Y-73552354D01*
X153897644Y-73596716D01*
X153878022Y-73633416D01*
X153862344Y-73682734D01*
X153851722Y-73747843D01*
X153847758Y-73832411D01*
X153851577Y-73911648D01*
X153861449Y-73967926D01*
X153875418Y-74006617D01*
X153897963Y-74040098D01*
X153932620Y-74071368D01*
X153982335Y-74100528D01*
X154036406Y-74121115D01*
X154097489Y-74133960D01*
X154166800Y-74138447D01*
X154242724Y-74133212D01*
X154307825Y-74118387D01*
X154363843Y-74094849D01*
X154414015Y-74061473D01*
X154448763Y-74024610D01*
X154470760Y-73983841D01*
X154483716Y-73938003D01*
X154492658Y-73875580D01*
X154496039Y-73792477D01*
X154496039Y-73720303D01*
X154228960Y-73720303D01*
X154228960Y-73853904D01*
X154225304Y-73909936D01*
X154217724Y-73933222D01*
X154202934Y-73946067D01*
X154177730Y-73950868D01*
X154152475Y-73945126D01*
X154135048Y-73928398D01*
X154125012Y-73902664D01*
X154121004Y-73861475D01*
X154125015Y-73795917D01*
X154134734Y-73756190D01*
X154147627Y-73733920D01*
X154185943Y-73700589D01*
X154282266Y-73633353D01*
X154379698Y-73565842D01*
X154424354Y-73530038D01*
X154455237Y-73493225D01*
X154482056Y-73441256D01*
X154498667Y-73380144D01*
X154504954Y-73296420D01*
X154500468Y-73211344D01*
X154488902Y-73151433D01*
X154472531Y-73110612D01*
X154447200Y-73075141D01*
X154412751Y-73044598D01*
X154367629Y-73018777D01*
X154318265Y-73000968D01*
X154260469Y-72989641D01*
X154192751Y-72985621D01*
X154118702Y-72990038D01*
X154055608Y-73002474D01*
X154001814Y-73022013D01*
X153952444Y-73050247D01*
X153918685Y-73080740D01*
X153897339Y-73113604D01*
X153884674Y-73151892D01*
X153875382Y-73211894D01*
X153871693Y-73301243D01*
X153871693Y-73345146D01*
G37*
G36*
X152901561Y-73345146D02*
G01*
X153168640Y-73345146D01*
X153168640Y-73262592D01*
X153172006Y-73210184D01*
X153178899Y-73189014D01*
X153192014Y-73177412D01*
X153213032Y-73173199D01*
X153235994Y-73178502D01*
X153252355Y-73194143D01*
X153261840Y-73218183D01*
X153265666Y-73257585D01*
X153261340Y-73308484D01*
X153250645Y-73339956D01*
X153227883Y-73366693D01*
X153169373Y-73407855D01*
X153042011Y-73491109D01*
X152966678Y-73552354D01*
X152927512Y-73596716D01*
X152907889Y-73633416D01*
X152892211Y-73682734D01*
X152881590Y-73747843D01*
X152877625Y-73832411D01*
X152881445Y-73911648D01*
X152891317Y-73967926D01*
X152905286Y-74006617D01*
X152927831Y-74040098D01*
X152962488Y-74071368D01*
X153012203Y-74100528D01*
X153066273Y-74121115D01*
X153127357Y-74133960D01*
X153196667Y-74138447D01*
X153272592Y-74133212D01*
X153337692Y-74118387D01*
X153393710Y-74094849D01*
X153443883Y-74061473D01*
X153478631Y-74024610D01*
X153500627Y-73983841D01*
X153513583Y-73938003D01*
X153522525Y-73875580D01*
X153525907Y-73792477D01*
X153525907Y-73720303D01*
X153258827Y-73720303D01*
X153258827Y-73853904D01*
X153255171Y-73909936D01*
X153247592Y-73933222D01*
X153232802Y-73946067D01*
X153207597Y-73950868D01*
X153182342Y-73945126D01*
X153164916Y-73928398D01*
X153154879Y-73902664D01*
X153150872Y-73861475D01*
X153154882Y-73795917D01*
X153164602Y-73756190D01*
X153177494Y-73733920D01*
X153215810Y-73700589D01*
X153312133Y-73633353D01*
X153409565Y-73565842D01*
X153454221Y-73530038D01*
X153485105Y-73493225D01*
X153511924Y-73441256D01*
X153528534Y-73380144D01*
X153534821Y-73296420D01*
X153530335Y-73211344D01*
X153518770Y-73151433D01*
X153502398Y-73110612D01*
X153477067Y-73075141D01*
X153442619Y-73044598D01*
X153397496Y-73018777D01*
X153348132Y-73000968D01*
X153290336Y-72989641D01*
X153222618Y-72985621D01*
X153148569Y-72990038D01*
X153085475Y-73002474D01*
X153031681Y-73022013D01*
X152982312Y-73050247D01*
X152948552Y-73080740D01*
X152927206Y-73113604D01*
X152914541Y-73151892D01*
X152905250Y-73211894D01*
X152901561Y-73301243D01*
X152901561Y-73345146D01*
G37*
G36*
X152524288Y-72989283D02*
G01*
X152578587Y-72999735D01*
X152626421Y-73016395D01*
X152670743Y-73040261D01*
X152707689Y-73069558D01*
X152738101Y-73104506D01*
X152762033Y-73144284D01*
X152778345Y-73186345D01*
X152787316Y-73231268D01*
X152792746Y-73312843D01*
X152795132Y-73467390D01*
X152795132Y-73656678D01*
X152792613Y-73814698D01*
X152786950Y-73895853D01*
X152777697Y-73940022D01*
X152760766Y-73981988D01*
X152735720Y-74022309D01*
X152704176Y-74057588D01*
X152666517Y-74086536D01*
X152621964Y-74109443D01*
X152574013Y-74125253D01*
X152521100Y-74135053D01*
X152462473Y-74138447D01*
X152400656Y-74134791D01*
X152346356Y-74124360D01*
X152298525Y-74107733D01*
X152254202Y-74083832D01*
X152217255Y-74054514D01*
X152186845Y-74019562D01*
X152162920Y-73979782D01*
X152146629Y-73937722D01*
X152137691Y-73892800D01*
X152132219Y-73811224D01*
X152129815Y-73656678D01*
X152129815Y-73467390D01*
X152132333Y-73309370D01*
X152133450Y-73293367D01*
X152417410Y-73293367D01*
X152417410Y-73801331D01*
X152420161Y-73890211D01*
X152425654Y-73924918D01*
X152433478Y-73939352D01*
X152445518Y-73947802D01*
X152463206Y-73950868D01*
X152487187Y-73944929D01*
X152499781Y-73928337D01*
X152504928Y-73896873D01*
X152507597Y-73809513D01*
X152507597Y-73293367D01*
X152503451Y-73216421D01*
X152495629Y-73190601D01*
X152481171Y-73177626D01*
X152461130Y-73173199D01*
X152438672Y-73178792D01*
X152425959Y-73194692D01*
X152420235Y-73223033D01*
X152417410Y-73293367D01*
X152133450Y-73293367D01*
X152137997Y-73228215D01*
X152147251Y-73184047D01*
X152164182Y-73142102D01*
X152189227Y-73101819D01*
X152220776Y-73066508D01*
X152258436Y-73037561D01*
X152302983Y-73014685D01*
X152350936Y-72998842D01*
X152403849Y-72989021D01*
X152462473Y-72985621D01*
X152524288Y-72989283D01*
G37*
G36*
X151350497Y-73489738D02*
G01*
X151638093Y-73489738D01*
X151638093Y-73298190D01*
X151641204Y-73222347D01*
X151647313Y-73193960D01*
X151661157Y-73178883D01*
X151687979Y-73173199D01*
X151709978Y-73176398D01*
X151724282Y-73184861D01*
X151733103Y-73198478D01*
X151739525Y-73230953D01*
X151742629Y-73307716D01*
X151742629Y-73821114D01*
X151739535Y-73894792D01*
X151733103Y-73926322D01*
X151724418Y-73939613D01*
X151710703Y-73947801D01*
X151689994Y-73950868D01*
X151670242Y-73947834D01*
X151656808Y-73939618D01*
X151647984Y-73926078D01*
X151641378Y-73893020D01*
X151638093Y-73809513D01*
X151638093Y-73669501D01*
X151350497Y-73669501D01*
X151350497Y-73712793D01*
X151353999Y-73829516D01*
X151362815Y-73907888D01*
X151374738Y-73957646D01*
X151396236Y-74001954D01*
X151431103Y-74043947D01*
X151482021Y-74084164D01*
X151539638Y-74113561D01*
X151607098Y-74131954D01*
X151686575Y-74138447D01*
X151769874Y-74132798D01*
X151838464Y-74117094D01*
X151894914Y-74092651D01*
X151944313Y-74057385D01*
X151979951Y-74015437D01*
X152003541Y-73965889D01*
X152016976Y-73910760D01*
X152026497Y-73831735D01*
X152030163Y-73722257D01*
X152030163Y-73399063D01*
X152027760Y-73286985D01*
X152021981Y-73219666D01*
X152013158Y-73181052D01*
X151997103Y-73142839D01*
X151973133Y-73104567D01*
X151943218Y-73070909D01*
X151905992Y-73041892D01*
X151860415Y-73017433D01*
X151811418Y-73000146D01*
X151756517Y-72989374D01*
X151694757Y-72985621D01*
X151611214Y-72991641D01*
X151542179Y-73008432D01*
X151485074Y-73034713D01*
X151434526Y-73071654D01*
X151399103Y-73112224D01*
X151376447Y-73156957D01*
X151363440Y-73207004D01*
X151354119Y-73280641D01*
X151350497Y-73384836D01*
X151350497Y-73489738D01*
G37*
G36*
X150959647Y-73009068D02*
G01*
X150959647Y-74115000D01*
X151247243Y-74115000D01*
X151247243Y-73009068D01*
X150959647Y-73009068D01*
G37*
G36*
X150844731Y-73009068D02*
G01*
X150365221Y-73009068D01*
X150365221Y-73231817D01*
X150557135Y-73231817D01*
X150557135Y-73438935D01*
X150377494Y-73438935D01*
X150377494Y-73649961D01*
X150557135Y-73649961D01*
X150557135Y-73892250D01*
X150346048Y-73892250D01*
X150346048Y-74115000D01*
X150844731Y-74115000D01*
X150844731Y-73009068D01*
G37*
G36*
X149702712Y-73009068D02*
G01*
X149702712Y-73231817D01*
X149873499Y-73231817D01*
X149873499Y-74115000D01*
X150161095Y-74115000D01*
X150161095Y-73231817D01*
X150331210Y-73231817D01*
X150331210Y-73009068D01*
X149702712Y-73009068D01*
G37*
G36*
X148989279Y-73009068D02*
G01*
X149199022Y-73714685D01*
X149199022Y-74115000D01*
X149465430Y-74115000D01*
X149465430Y-73714685D01*
X149667602Y-73009068D01*
X149403271Y-73009068D01*
X149350498Y-73306839D01*
X149333600Y-73444187D01*
X149303568Y-73257518D01*
X149253672Y-73009068D01*
X148989279Y-73009068D01*
G37*
G36*
X148106646Y-73927421D02*
G01*
X148106646Y-74115000D01*
X148713956Y-74115000D01*
X148713956Y-73958684D01*
X148472446Y-73557226D01*
X148393265Y-73413900D01*
X148362271Y-73342032D01*
X148346730Y-73289098D01*
X148342341Y-73250746D01*
X148346731Y-73209202D01*
X148357728Y-73183640D01*
X148376598Y-73167250D01*
X148404500Y-73161475D01*
X148432193Y-73167750D01*
X148451334Y-73186022D01*
X148461837Y-73216830D01*
X148466660Y-73283292D01*
X148466660Y-73388133D01*
X148713956Y-73388133D01*
X148713956Y-73347711D01*
X148711241Y-73259511D01*
X148704431Y-73200860D01*
X148688322Y-73148568D01*
X148657292Y-73095041D01*
X148629758Y-73063177D01*
X148597374Y-73037032D01*
X148559595Y-73016273D01*
X148518649Y-73001893D01*
X148470979Y-72992763D01*
X148415430Y-72989528D01*
X148332623Y-72995435D01*
X148265305Y-73011790D01*
X148210649Y-73037176D01*
X148166425Y-73071106D01*
X148129567Y-73114515D01*
X148103478Y-73162687D01*
X148087550Y-73216594D01*
X148082039Y-73277613D01*
X148086983Y-73339942D01*
X148102408Y-73406513D01*
X148129544Y-73478258D01*
X148167861Y-73551357D01*
X148252772Y-73690366D01*
X148409263Y-73927421D01*
X148106646Y-73927421D01*
G37*
G36*
X147396693Y-73009068D02*
G01*
X147396693Y-73184923D01*
X147738939Y-73184923D01*
X147738939Y-73374089D01*
X147704200Y-73340663D01*
X147665679Y-73317294D01*
X147622572Y-73303137D01*
X147573647Y-73298251D01*
X147516786Y-73302778D01*
X147470309Y-73315382D01*
X147432253Y-73335159D01*
X147401151Y-73361999D01*
X147378732Y-73394806D01*
X147360404Y-73443090D01*
X147347618Y-73511822D01*
X147342716Y-73606974D01*
X147342716Y-73764450D01*
X147346083Y-73873888D01*
X147354012Y-73936580D01*
X147371491Y-73988996D01*
X147402189Y-74038124D01*
X147429209Y-74066132D01*
X147463114Y-74089993D01*
X147505015Y-74109687D01*
X147549628Y-74122928D01*
X147602762Y-74131476D01*
X147665849Y-74134539D01*
X147736113Y-74130168D01*
X147798361Y-74117635D01*
X147853733Y-74097536D01*
X147903619Y-74068134D01*
X147941577Y-74031581D01*
X147969199Y-73987260D01*
X147986426Y-73936784D01*
X147998616Y-73863479D01*
X148003332Y-73760481D01*
X148003332Y-73700764D01*
X147727337Y-73700764D01*
X147727337Y-73768541D01*
X147725049Y-73866339D01*
X147719827Y-73918323D01*
X147710413Y-73943371D01*
X147693817Y-73957489D01*
X147667925Y-73962592D01*
X147649098Y-73959277D01*
X147634769Y-73949769D01*
X147624864Y-73936103D01*
X147621092Y-73922109D01*
X147618710Y-73793087D01*
X147618710Y-73576261D01*
X147622750Y-73519899D01*
X147631716Y-73492486D01*
X147648483Y-73476008D01*
X147674703Y-73470198D01*
X147692535Y-73473156D01*
X147706882Y-73481739D01*
X147717780Y-73494070D01*
X147723612Y-73506530D01*
X147727337Y-73567896D01*
X148000584Y-73567896D01*
X147988982Y-73009068D01*
X147396693Y-73009068D01*
G37*
G36*
X146751953Y-72989528D02*
G01*
X147079849Y-74134539D01*
X147288921Y-74134539D01*
X146958949Y-72989528D01*
X146751953Y-72989528D01*
G37*
G36*
X146099947Y-73927421D02*
G01*
X146099947Y-74115000D01*
X146707257Y-74115000D01*
X146707257Y-73958684D01*
X146465746Y-73557226D01*
X146386566Y-73413900D01*
X146355572Y-73342032D01*
X146340031Y-73289098D01*
X146335641Y-73250746D01*
X146340032Y-73209202D01*
X146351029Y-73183640D01*
X146369899Y-73167250D01*
X146397801Y-73161475D01*
X146425494Y-73167750D01*
X146444635Y-73186022D01*
X146455138Y-73216830D01*
X146459961Y-73283292D01*
X146459961Y-73388133D01*
X146707257Y-73388133D01*
X146707257Y-73347711D01*
X146704542Y-73259511D01*
X146697731Y-73200860D01*
X146681623Y-73148568D01*
X146650593Y-73095041D01*
X146623058Y-73063177D01*
X146590675Y-73037032D01*
X146552895Y-73016273D01*
X146511950Y-73001893D01*
X146464279Y-72992763D01*
X146408731Y-72989528D01*
X146325923Y-72995435D01*
X146258606Y-73011790D01*
X146203950Y-73037176D01*
X146159726Y-73071106D01*
X146122867Y-73114515D01*
X146096779Y-73162687D01*
X146080850Y-73216594D01*
X146075340Y-73277613D01*
X146080284Y-73339942D01*
X146095709Y-73406513D01*
X146122845Y-73478258D01*
X146161161Y-73551357D01*
X146246072Y-73690366D01*
X146402564Y-73927421D01*
X146099947Y-73927421D01*
G37*
G36*
X145721463Y-72989149D02*
G01*
X145776586Y-72999242D01*
X145825479Y-73015357D01*
X145870742Y-73038837D01*
X145908360Y-73068455D01*
X145939235Y-73104506D01*
X145963330Y-73145572D01*
X145978959Y-73187392D01*
X145986679Y-73230535D01*
X145990630Y-73313238D01*
X145992480Y-73494501D01*
X145992480Y-73647519D01*
X145990428Y-73815777D01*
X145986008Y-73894143D01*
X145978223Y-73935358D01*
X145963344Y-73975603D01*
X145940884Y-74015348D01*
X145912050Y-74050334D01*
X145875865Y-74079757D01*
X145831280Y-74103825D01*
X145782929Y-74120029D01*
X145722909Y-74130665D01*
X145648892Y-74134539D01*
X145589684Y-74131356D01*
X145537758Y-74122295D01*
X145492149Y-74107916D01*
X145449363Y-74087082D01*
X145414415Y-74062127D01*
X145386270Y-74033056D01*
X145354902Y-73982272D01*
X145338825Y-73928154D01*
X145332543Y-73863953D01*
X145329910Y-73755230D01*
X145329910Y-73667058D01*
X145330912Y-73646297D01*
X145605844Y-73646297D01*
X145605844Y-73851950D01*
X145608911Y-73903373D01*
X145616038Y-73931614D01*
X145625017Y-73945312D01*
X145644697Y-73958685D01*
X145661898Y-73962592D01*
X145687468Y-73956783D01*
X145703907Y-73940183D01*
X145712479Y-73911391D01*
X145716547Y-73845172D01*
X145716547Y-73646297D01*
X145712380Y-73591096D01*
X145703236Y-73565148D01*
X145686507Y-73549845D01*
X145661165Y-73544448D01*
X145635469Y-73550108D01*
X145618850Y-73566186D01*
X145609858Y-73592716D01*
X145605844Y-73646297D01*
X145330912Y-73646297D01*
X145334379Y-73574429D01*
X145345664Y-73511964D01*
X145360328Y-73476379D01*
X145384416Y-73443752D01*
X145419425Y-73413534D01*
X145459763Y-73390873D01*
X145504027Y-73377192D01*
X145553271Y-73372501D01*
X145610246Y-73378487D01*
X145654387Y-73394972D01*
X145690174Y-73422801D01*
X145716547Y-73462383D01*
X145716547Y-73286467D01*
X145714532Y-73203913D01*
X145709467Y-73185148D01*
X145698778Y-73170512D01*
X145683487Y-73160903D01*
X145663913Y-73157568D01*
X145640690Y-73161196D01*
X145623979Y-73171245D01*
X145612524Y-73186476D01*
X145607554Y-73205012D01*
X145605844Y-73302159D01*
X145329910Y-73302159D01*
X145333900Y-73233165D01*
X145344958Y-73176264D01*
X145362028Y-73129480D01*
X145387762Y-73087713D01*
X145422837Y-73052494D01*
X145468579Y-73023295D01*
X145519605Y-73003300D01*
X145582321Y-72990319D01*
X145659150Y-72985621D01*
X145721463Y-72989149D01*
G37*
D12*
G36*
X158347821Y-60377110D02*
G01*
X158376350Y-60460533D01*
X158381356Y-60506630D01*
X158384876Y-60539042D01*
X158382171Y-60595207D01*
X158363769Y-60681145D01*
X158322678Y-60770154D01*
X158300662Y-60802253D01*
X158252768Y-60872083D01*
X158147907Y-60996780D01*
X158001965Y-61154093D01*
X157890847Y-61274026D01*
X157789936Y-61394321D01*
X157728540Y-61485889D01*
X157701585Y-61555508D01*
X157698304Y-61585508D01*
X157702764Y-61646044D01*
X157721726Y-61728765D01*
X157757861Y-61842696D01*
X157813840Y-61996866D01*
X157892333Y-62200301D01*
X157928148Y-62289805D01*
X157952162Y-62349819D01*
X158024412Y-62522985D01*
X158090543Y-62673896D01*
X158145103Y-62790172D01*
X158182640Y-62859436D01*
X158192194Y-62873755D01*
X158251199Y-62946662D01*
X158263122Y-62955731D01*
X158320761Y-62999571D01*
X158411434Y-63035555D01*
X158533774Y-63057681D01*
X158698333Y-63069021D01*
X158915668Y-63072643D01*
X159062242Y-63074428D01*
X159269992Y-63085066D01*
X159430218Y-63108485D01*
X159552786Y-63148419D01*
X159647560Y-63208598D01*
X159724407Y-63292756D01*
X159793192Y-63404625D01*
X159799646Y-63416836D01*
X159817343Y-63454484D01*
X159831283Y-63496420D01*
X159841915Y-63550045D01*
X159848962Y-63615982D01*
X159849686Y-63622761D01*
X159855041Y-63721968D01*
X159858428Y-63855069D01*
X159860294Y-64029465D01*
X159861086Y-64252558D01*
X159861166Y-64388875D01*
X159861250Y-64531750D01*
X159861250Y-64641853D01*
X159861250Y-65461850D01*
X159861250Y-65531875D01*
X159781875Y-65673126D01*
X159731683Y-65754518D01*
X159672114Y-65824355D01*
X159599217Y-65875321D01*
X159502958Y-65911007D01*
X159373304Y-65935002D01*
X159200223Y-65950895D01*
X158973682Y-65962277D01*
X158846889Y-65967810D01*
X158644450Y-65980882D01*
X158490106Y-66000969D01*
X158373699Y-66032720D01*
X158285071Y-66080784D01*
X158214065Y-66149810D01*
X158150525Y-66244447D01*
X158084292Y-66369344D01*
X158069236Y-66400249D01*
X158013101Y-66524394D01*
X157949936Y-66673911D01*
X157890757Y-66822973D01*
X157873927Y-66866185D01*
X157808553Y-67022736D01*
X157739446Y-67174668D01*
X157679023Y-67294345D01*
X157575250Y-67482808D01*
X156997602Y-66906325D01*
X156419954Y-66329843D01*
X156056086Y-66462671D01*
X155906667Y-66515677D01*
X155774282Y-66556771D01*
X155664394Y-66581030D01*
X155557769Y-66592568D01*
X155435172Y-66595500D01*
X155318694Y-66597099D01*
X155233111Y-66604165D01*
X155189999Y-66618813D01*
X155178125Y-66643125D01*
X155163027Y-66671471D01*
X155108810Y-66686474D01*
X155003500Y-66690750D01*
X154828875Y-66690750D01*
X154828875Y-66833625D01*
X154828875Y-66976500D01*
X154686000Y-66976500D01*
X154543125Y-66976500D01*
X154543125Y-67151125D01*
X154543120Y-67156575D01*
X154538667Y-67258895D01*
X154523562Y-67311120D01*
X154494309Y-67325750D01*
X154485111Y-67326722D01*
X154465527Y-67343732D01*
X154454927Y-67390574D01*
X154451797Y-67478420D01*
X154454622Y-67618440D01*
X154463750Y-67911130D01*
X155146375Y-68106238D01*
X155829000Y-68301345D01*
X155938354Y-68174360D01*
X156056991Y-68063018D01*
X156226645Y-67970563D01*
X156407317Y-67934076D01*
X156589001Y-67953688D01*
X156761689Y-68029527D01*
X156915374Y-68161724D01*
X156921318Y-68168586D01*
X157021074Y-68328232D01*
X157065961Y-68499112D01*
X157063928Y-68564000D01*
X157060570Y-68671202D01*
X157009493Y-68834480D01*
X156917322Y-68978922D01*
X156788650Y-69094505D01*
X156628068Y-69171205D01*
X156440168Y-69199000D01*
X156282517Y-69185097D01*
X156140810Y-69132053D01*
X156008854Y-69030365D01*
X155900890Y-68909163D01*
X155834439Y-68781122D01*
X155796796Y-68619662D01*
X155791714Y-68587606D01*
X155781128Y-68546149D01*
X156128799Y-68546149D01*
X156136421Y-68654116D01*
X156187847Y-68753784D01*
X156288740Y-68833546D01*
X156368201Y-68867079D01*
X156471099Y-68874601D01*
X156582265Y-68832008D01*
X156640927Y-68792764D01*
X156711610Y-68696781D01*
X156733875Y-68564000D01*
X156721357Y-68459857D01*
X156664004Y-68359612D01*
X156553972Y-68289873D01*
X156549564Y-68288063D01*
X156423102Y-68263424D01*
X156312132Y-68288521D01*
X156222317Y-68351745D01*
X156159318Y-68441490D01*
X156128799Y-68546149D01*
X155781128Y-68546149D01*
X155771469Y-68508326D01*
X155737078Y-68466543D01*
X155674661Y-68442073D01*
X155665414Y-68439489D01*
X155592292Y-68418825D01*
X155471555Y-68384532D01*
X155314043Y-68339695D01*
X155130599Y-68287400D01*
X154932063Y-68230731D01*
X154289125Y-68047102D01*
X154289125Y-67686426D01*
X154288436Y-67562260D01*
X154284681Y-67443884D01*
X154276481Y-67371630D01*
X154262525Y-67335564D01*
X154241500Y-67325750D01*
X154213154Y-67310651D01*
X154198151Y-67256434D01*
X154193875Y-67151125D01*
X154193875Y-66976500D01*
X153971625Y-66976500D01*
X153749375Y-66976500D01*
X153749375Y-67151125D01*
X153745258Y-67255061D01*
X153730471Y-67310072D01*
X153701750Y-67325750D01*
X153692081Y-67327168D01*
X153673111Y-67347297D01*
X153661513Y-67399486D01*
X153655710Y-67494197D01*
X153654125Y-67641893D01*
X153654142Y-67667555D01*
X153656207Y-67809264D01*
X153665341Y-67914626D01*
X153686658Y-68007033D01*
X153725272Y-68109878D01*
X153786295Y-68246556D01*
X153794879Y-68265224D01*
X153857628Y-68395090D01*
X153903901Y-68474535D01*
X153939157Y-68511565D01*
X153968858Y-68514185D01*
X153993806Y-68504403D01*
X154066875Y-68479849D01*
X154079714Y-68485024D01*
X154132583Y-68525188D01*
X154199400Y-68583045D01*
X154217831Y-68599004D01*
X154328278Y-68699491D01*
X154370113Y-68738625D01*
X154456748Y-68819667D01*
X154596062Y-68952549D01*
X154739041Y-69091154D01*
X154878506Y-69228501D01*
X155007280Y-69357606D01*
X155118184Y-69471488D01*
X155204040Y-69563163D01*
X155257669Y-69625651D01*
X155271892Y-69651967D01*
X155260627Y-69658790D01*
X155195401Y-69689968D01*
X155087584Y-69736918D01*
X154949261Y-69794790D01*
X154792519Y-69858737D01*
X154629442Y-69923909D01*
X154472116Y-69985458D01*
X154332627Y-70038534D01*
X154223060Y-70078289D01*
X154155501Y-70099873D01*
X154141274Y-70103509D01*
X154078989Y-70121073D01*
X154031814Y-70143169D01*
X153996975Y-70178200D01*
X153971701Y-70234569D01*
X153953218Y-70320679D01*
X153938753Y-70444934D01*
X153925534Y-70615736D01*
X153910788Y-70841489D01*
X153906861Y-70899578D01*
X153890383Y-71096614D01*
X153871441Y-71264368D01*
X153851473Y-71391444D01*
X153831917Y-71466443D01*
X153760679Y-71569760D01*
X153634734Y-71651329D01*
X153453262Y-71707009D01*
X153433199Y-71709918D01*
X153344664Y-71716113D01*
X153205412Y-71721254D01*
X153024413Y-71725174D01*
X152810636Y-71727709D01*
X152573050Y-71728691D01*
X152320625Y-71727955D01*
X152189131Y-71727053D01*
X151930613Y-71724700D01*
X151724979Y-71721609D01*
X151564839Y-71717364D01*
X151442808Y-71711550D01*
X151351497Y-71703751D01*
X151283518Y-71693553D01*
X151231485Y-71680540D01*
X151188009Y-71664297D01*
X151122148Y-71630882D01*
X151065531Y-71584811D01*
X151022629Y-71520293D01*
X150990375Y-71428322D01*
X150965700Y-71299891D01*
X150945535Y-71125994D01*
X150926813Y-70897625D01*
X150926146Y-70888531D01*
X150910432Y-70663989D01*
X150896933Y-70492810D01*
X150880304Y-70365665D01*
X150855202Y-70273222D01*
X150816282Y-70206151D01*
X150758202Y-70155123D01*
X150675616Y-70110808D01*
X150563181Y-70063874D01*
X150415554Y-70004992D01*
X150387247Y-69993470D01*
X150208795Y-69920756D01*
X150031969Y-69848588D01*
X149875835Y-69784754D01*
X149759461Y-69737042D01*
X149715613Y-69719680D01*
X149513656Y-69660172D01*
X149347268Y-69648289D01*
X149219341Y-69684312D01*
X149174284Y-69716410D01*
X149091914Y-69783495D01*
X148986468Y-69874226D01*
X148870091Y-69978378D01*
X148718900Y-70114777D01*
X148560753Y-70250816D01*
X148433349Y-70348445D01*
X148328775Y-70411308D01*
X148239118Y-70443047D01*
X148156465Y-70447308D01*
X148072902Y-70427732D01*
X147980516Y-70387965D01*
X147946041Y-70367448D01*
X147854324Y-70299432D01*
X147730313Y-70197259D01*
X147581716Y-70068167D01*
X147416243Y-69919394D01*
X147241602Y-69758177D01*
X147065501Y-69591754D01*
X146895649Y-69427364D01*
X146739756Y-69272243D01*
X146605529Y-69133630D01*
X146500677Y-69018763D01*
X146432909Y-68934880D01*
X146349675Y-68795490D01*
X146334290Y-68746388D01*
X151793931Y-68746388D01*
X151810771Y-68751549D01*
X151881814Y-68759055D01*
X151995837Y-68765310D01*
X152140132Y-68770154D01*
X152301990Y-68773429D01*
X152468705Y-68774973D01*
X152627567Y-68774628D01*
X152765869Y-68772234D01*
X152870905Y-68767631D01*
X152929964Y-68760660D01*
X153015428Y-68738625D01*
X152858527Y-68461621D01*
X152701625Y-68184617D01*
X152701625Y-67758580D01*
X152701623Y-67748790D01*
X152701605Y-67746437D01*
X152893039Y-67746437D01*
X152893953Y-68167125D01*
X153047751Y-68437000D01*
X153090091Y-68508744D01*
X153157017Y-68611961D01*
X153211708Y-68684020D01*
X153245274Y-68712520D01*
X153259979Y-68712730D01*
X153332907Y-68702744D01*
X153435907Y-68681502D01*
X153546513Y-68654366D01*
X153642262Y-68626694D01*
X153700691Y-68603848D01*
X153714293Y-68583045D01*
X153708630Y-68533138D01*
X153677678Y-68446410D01*
X153618785Y-68313449D01*
X153583824Y-68237243D01*
X153541617Y-68136885D01*
X153515556Y-68051604D01*
X153501753Y-67961755D01*
X153496322Y-67847696D01*
X153495375Y-67689783D01*
X153494984Y-67599036D01*
X153491505Y-67466368D01*
X153483342Y-67381541D01*
X153469192Y-67334269D01*
X153447750Y-67314268D01*
X153432040Y-67303919D01*
X153407712Y-67246603D01*
X153400125Y-67136246D01*
X153400125Y-66976500D01*
X153177875Y-66976500D01*
X152955625Y-66976500D01*
X152955625Y-67151125D01*
X152952795Y-67222990D01*
X152941263Y-67297043D01*
X152923875Y-67325750D01*
X152911602Y-67350682D01*
X152901305Y-67433107D01*
X152894965Y-67567104D01*
X152893039Y-67746437D01*
X152701605Y-67746437D01*
X152700323Y-67574036D01*
X152695933Y-67452751D01*
X152687432Y-67375392D01*
X152673795Y-67332412D01*
X152654000Y-67314268D01*
X152638290Y-67303919D01*
X152613962Y-67246603D01*
X152606375Y-67136246D01*
X152606375Y-66976500D01*
X152384125Y-66976500D01*
X152161875Y-66976500D01*
X152161875Y-67151125D01*
X152159045Y-67222990D01*
X152147513Y-67297043D01*
X152130125Y-67325750D01*
X152118044Y-67349424D01*
X152107452Y-67430316D01*
X152100728Y-67562371D01*
X152098514Y-67728614D01*
X152098375Y-67739050D01*
X152098375Y-68152351D01*
X151936424Y-68439641D01*
X151887085Y-68529846D01*
X151833430Y-68636180D01*
X151800465Y-68712479D01*
X151793931Y-68746388D01*
X146334290Y-68746388D01*
X146303481Y-68648056D01*
X146306592Y-68575949D01*
X151050625Y-68575949D01*
X151074949Y-68589659D01*
X151137938Y-68607611D01*
X151183137Y-68618103D01*
X151286709Y-68642813D01*
X151402109Y-68670890D01*
X151578968Y-68714370D01*
X151743422Y-68419527D01*
X151907875Y-68124684D01*
X151907875Y-67728614D01*
X151906999Y-67583874D01*
X151902951Y-67458089D01*
X151894566Y-67377795D01*
X151880710Y-67333139D01*
X151860250Y-67314268D01*
X151844540Y-67303919D01*
X151820212Y-67246603D01*
X151812625Y-67136246D01*
X151812625Y-66976500D01*
X151606250Y-66976500D01*
X151399875Y-66976500D01*
X151399875Y-67136246D01*
X151398588Y-67189436D01*
X151384283Y-67276530D01*
X151352250Y-67314268D01*
X151344221Y-67318501D01*
X151324754Y-67347267D01*
X151312619Y-67407776D01*
X151306386Y-67510588D01*
X151304698Y-67659845D01*
X151304625Y-67666265D01*
X151304556Y-67719074D01*
X151302074Y-67857467D01*
X151292664Y-67961027D01*
X151271801Y-68051688D01*
X151234963Y-68151380D01*
X151177625Y-68282037D01*
X151143408Y-68358470D01*
X151095634Y-68466951D01*
X151062820Y-68543809D01*
X151050625Y-68575949D01*
X146306592Y-68575949D01*
X146309664Y-68504736D01*
X146369927Y-68358748D01*
X146432657Y-68274723D01*
X150352125Y-68274723D01*
X150353321Y-68278032D01*
X150390405Y-68306807D01*
X150468920Y-68350484D01*
X150574655Y-68400999D01*
X150593407Y-68409317D01*
X150703751Y-68455567D01*
X150791818Y-68488164D01*
X150839979Y-68500500D01*
X150851150Y-68495090D01*
X150890491Y-68446508D01*
X150942324Y-68358325D01*
X150998449Y-68243823D01*
X151004419Y-68230556D01*
X151055482Y-68111968D01*
X151087646Y-68017504D01*
X151105249Y-67925263D01*
X151112629Y-67813344D01*
X151114125Y-67659845D01*
X151114010Y-67613185D01*
X151111107Y-67474157D01*
X151103199Y-67385087D01*
X151088819Y-67335337D01*
X151066500Y-67314268D01*
X151050790Y-67303919D01*
X151026462Y-67246603D01*
X151018875Y-67136246D01*
X151018875Y-66976500D01*
X150812500Y-66976500D01*
X150606125Y-66976500D01*
X150606125Y-67136246D01*
X150604838Y-67189436D01*
X150590533Y-67276530D01*
X150558500Y-67314268D01*
X150544309Y-67323412D01*
X150524354Y-67364663D01*
X150513900Y-67446140D01*
X150511137Y-67567811D01*
X150510875Y-67579366D01*
X150506848Y-67707410D01*
X150482838Y-67871670D01*
X150431500Y-68037069D01*
X150429073Y-68043531D01*
X150390215Y-68150688D01*
X150362620Y-68233577D01*
X150352125Y-68274723D01*
X146432657Y-68274723D01*
X146485970Y-68203311D01*
X146659495Y-68031642D01*
X146664026Y-68027571D01*
X146832713Y-67866391D01*
X146952505Y-67723738D01*
X147025978Y-67587526D01*
X147055710Y-67445669D01*
X147044280Y-67286083D01*
X146994264Y-67096680D01*
X146908241Y-66865375D01*
X146868680Y-66768605D01*
X148644481Y-66768605D01*
X148649374Y-66781066D01*
X148683666Y-66835002D01*
X148743663Y-66921028D01*
X148821649Y-67027853D01*
X148926915Y-67160341D01*
X149134198Y-67388601D01*
X149369224Y-67616273D01*
X149613659Y-67826003D01*
X149849168Y-68000437D01*
X149931817Y-68054945D01*
X150036769Y-68121035D01*
X150114645Y-68166245D01*
X150152839Y-68183000D01*
X150174247Y-68164138D01*
X150211530Y-68099789D01*
X150252469Y-68005549D01*
X150264199Y-67972133D01*
X150295623Y-67845755D01*
X150315637Y-67705951D01*
X150323800Y-67567811D01*
X150319668Y-67446424D01*
X150302799Y-67356880D01*
X150272750Y-67314268D01*
X150257040Y-67303919D01*
X150232712Y-67246603D01*
X150225125Y-67136246D01*
X150225125Y-66976500D01*
X150082250Y-66976500D01*
X149939375Y-66976500D01*
X149939375Y-66833625D01*
X149939375Y-66690750D01*
X149779629Y-66690750D01*
X149726439Y-66689462D01*
X149639345Y-66675157D01*
X149601607Y-66643125D01*
X149594821Y-66632360D01*
X149536124Y-66604355D01*
X149433974Y-66591448D01*
X149302409Y-66592978D01*
X149155465Y-66608282D01*
X149007181Y-66636698D01*
X148871593Y-66677564D01*
X148856717Y-66683175D01*
X148752344Y-66723326D01*
X148676415Y-66753881D01*
X148644481Y-66768605D01*
X146868680Y-66768605D01*
X146834021Y-66683825D01*
X146747248Y-66483151D01*
X146672567Y-66328774D01*
X146605201Y-66212713D01*
X146540377Y-66126986D01*
X146506688Y-66095147D01*
X148307585Y-66095147D01*
X148318959Y-66149768D01*
X148352986Y-66240529D01*
X148404535Y-66352953D01*
X148407937Y-66359801D01*
X148476691Y-66485790D01*
X148533350Y-66565606D01*
X148573150Y-66592482D01*
X148576801Y-66592092D01*
X148634579Y-66576545D01*
X148729859Y-66543451D01*
X148844000Y-66499228D01*
X148889003Y-66481448D01*
X149026940Y-66436802D01*
X149161101Y-66414114D01*
X149324791Y-66406996D01*
X149411870Y-66405388D01*
X149516909Y-66397843D01*
X149576412Y-66382509D01*
X149601607Y-66357375D01*
X149611956Y-66341664D01*
X149669272Y-66317336D01*
X149779629Y-66309750D01*
X149939375Y-66309750D01*
X149939375Y-66103375D01*
X154828875Y-66103375D01*
X154828875Y-66309750D01*
X154988622Y-66309750D01*
X155041812Y-66311037D01*
X155128906Y-66325342D01*
X155166644Y-66357375D01*
X155183930Y-66378126D01*
X155231598Y-66393739D01*
X155319564Y-66401007D01*
X155459335Y-66401674D01*
X155544907Y-66399638D01*
X155665750Y-66390189D01*
X155778316Y-66369127D01*
X155904732Y-66331784D01*
X156067125Y-66273496D01*
X156182264Y-66228228D01*
X156304454Y-66174867D01*
X156394582Y-66129317D01*
X156438707Y-66098153D01*
X156447663Y-66083322D01*
X156477773Y-66016550D01*
X156516730Y-65916852D01*
X156559230Y-65799582D01*
X156599968Y-65680093D01*
X156633639Y-65573739D01*
X156654937Y-65495873D01*
X156658559Y-65461850D01*
X156656810Y-65461503D01*
X156616359Y-65474583D01*
X156531708Y-65509545D01*
X156413893Y-65561673D01*
X156273947Y-65626248D01*
X155900438Y-65801750D01*
X155539282Y-65801750D01*
X155414489Y-65802445D01*
X155296185Y-65806207D01*
X155223977Y-65814410D01*
X155187933Y-65828362D01*
X155178125Y-65849375D01*
X155163027Y-65877721D01*
X155108810Y-65892724D01*
X155003500Y-65897000D01*
X154828875Y-65897000D01*
X154828875Y-66103375D01*
X149939375Y-66103375D01*
X149939375Y-65897000D01*
X149779629Y-65897000D01*
X149726439Y-65895712D01*
X149639345Y-65881407D01*
X149601607Y-65849375D01*
X149598379Y-65842859D01*
X149570964Y-65822663D01*
X149512093Y-65810062D01*
X149411111Y-65803582D01*
X149257363Y-65801750D01*
X149221476Y-65801782D01*
X149079486Y-65804045D01*
X148972949Y-65813380D01*
X148878628Y-65834662D01*
X148773289Y-65872764D01*
X148633697Y-65932559D01*
X148545897Y-65971670D01*
X148431804Y-66024293D01*
X148348701Y-66064873D01*
X148310260Y-66086887D01*
X148307585Y-66095147D01*
X146506688Y-66095147D01*
X146473319Y-66063611D01*
X146399250Y-66014607D01*
X146375051Y-66006793D01*
X146290133Y-65993281D01*
X146160202Y-65980437D01*
X145996901Y-65969324D01*
X145811875Y-65961003D01*
X145656530Y-65955170D01*
X145494314Y-65946763D01*
X145376681Y-65936470D01*
X145292764Y-65922899D01*
X145231699Y-65904657D01*
X145182620Y-65880351D01*
X145116363Y-65834024D01*
X145050337Y-65765189D01*
X144998002Y-65676127D01*
X144958243Y-65560696D01*
X144935800Y-65443354D01*
X148092600Y-65443354D01*
X148103240Y-65523560D01*
X148135709Y-65652441D01*
X148140446Y-65669267D01*
X148173695Y-65779785D01*
X148202170Y-65862576D01*
X148220149Y-65900808D01*
X148251817Y-65897026D01*
X148329684Y-65870563D01*
X148441173Y-65825485D01*
X148574125Y-65766410D01*
X148703243Y-65707271D01*
X148813413Y-65660991D01*
X148903212Y-65632850D01*
X148992483Y-65618302D01*
X149101069Y-65612797D01*
X149248813Y-65611789D01*
X149342775Y-65610682D01*
X149474550Y-65604606D01*
X149559821Y-65593945D01*
X149590125Y-65579500D01*
X149605692Y-65566433D01*
X149669120Y-65552969D01*
X149764750Y-65547750D01*
X149939375Y-65547750D01*
X149939375Y-65325500D01*
X149939375Y-65103250D01*
X154825974Y-65103250D01*
X154835362Y-65317562D01*
X154844750Y-65531875D01*
X155011438Y-65541471D01*
X155075875Y-65547534D01*
X155149472Y-65562692D01*
X155178125Y-65581159D01*
X155197049Y-65591207D01*
X155269429Y-65601266D01*
X155385808Y-65607563D01*
X155535313Y-65609245D01*
X155892500Y-65607240D01*
X156305250Y-65415954D01*
X156364593Y-65388418D01*
X156504595Y-65323157D01*
X156618183Y-65269785D01*
X156694945Y-65233213D01*
X156724467Y-65218347D01*
X156727121Y-65211847D01*
X156737026Y-65158229D01*
X156749596Y-65065337D01*
X156763024Y-64950213D01*
X156775501Y-64829897D01*
X156785222Y-64721430D01*
X156790379Y-64641853D01*
X156789166Y-64608207D01*
X156786637Y-64607807D01*
X156744788Y-64623839D01*
X156660896Y-64665027D01*
X156545551Y-64725987D01*
X156409342Y-64801334D01*
X156043055Y-65008000D01*
X155610590Y-65008000D01*
X155556726Y-65008064D01*
X155395879Y-65009678D01*
X155286802Y-65014227D01*
X155220288Y-65022726D01*
X155187132Y-65036187D01*
X155178125Y-65055625D01*
X155178125Y-65055627D01*
X155162552Y-65084243D01*
X155107851Y-65099038D01*
X155002050Y-65103250D01*
X154825974Y-65103250D01*
X149939375Y-65103250D01*
X149779629Y-65103250D01*
X149726439Y-65101962D01*
X149639345Y-65087657D01*
X149601607Y-65055625D01*
X149587550Y-65038191D01*
X149548056Y-65023287D01*
X149474642Y-65014041D01*
X149357462Y-65009321D01*
X149186669Y-65008000D01*
X148790006Y-65008000D01*
X148467753Y-65187316D01*
X148348656Y-65254137D01*
X148234156Y-65319567D01*
X148149943Y-65369031D01*
X148108685Y-65395195D01*
X148102683Y-65401283D01*
X148092600Y-65443354D01*
X144935800Y-65443354D01*
X144929947Y-65412752D01*
X144911997Y-65226154D01*
X144903280Y-64994757D01*
X144902680Y-64712420D01*
X144903623Y-64662452D01*
X148002625Y-64662452D01*
X148006382Y-64859038D01*
X148009835Y-64949597D01*
X148018688Y-65062227D01*
X148030194Y-65139685D01*
X148050250Y-65223745D01*
X148399500Y-65022484D01*
X148748750Y-64821224D01*
X149169438Y-64819362D01*
X149334696Y-64816662D01*
X149472143Y-64809777D01*
X149559515Y-64799295D01*
X149590125Y-64785750D01*
X149605692Y-64772683D01*
X149669120Y-64759219D01*
X149764750Y-64754000D01*
X149939375Y-64754000D01*
X149939375Y-64531750D01*
X149939375Y-64309500D01*
X154825974Y-64309500D01*
X154835362Y-64523812D01*
X154844750Y-64738125D01*
X155011438Y-64747721D01*
X155075875Y-64753784D01*
X155149472Y-64768942D01*
X155178125Y-64787409D01*
X155178332Y-64788442D01*
X155213196Y-64800051D01*
X155301243Y-64809038D01*
X155432955Y-64814745D01*
X155598813Y-64816512D01*
X156019500Y-64815524D01*
X156410418Y-64602199D01*
X156801335Y-64388875D01*
X156781037Y-64134875D01*
X156778246Y-64101985D01*
X156765548Y-63985601D01*
X156751746Y-63899142D01*
X156739370Y-63859333D01*
X156739142Y-63859130D01*
X156703708Y-63866160D01*
X156625190Y-63899801D01*
X156515018Y-63954697D01*
X156384625Y-64025494D01*
X156051250Y-64213195D01*
X155614688Y-64213722D01*
X155555954Y-64213869D01*
X155395502Y-64215720D01*
X155286655Y-64220435D01*
X155220252Y-64229025D01*
X155187130Y-64242502D01*
X155178125Y-64261875D01*
X155178125Y-64261877D01*
X155162552Y-64290493D01*
X155107851Y-64305288D01*
X155002050Y-64309500D01*
X154825974Y-64309500D01*
X149939375Y-64309500D01*
X149779629Y-64309500D01*
X149726439Y-64308212D01*
X149639345Y-64293907D01*
X149601607Y-64261875D01*
X149587924Y-64244691D01*
X149548784Y-64229665D01*
X149475793Y-64220342D01*
X149359081Y-64215583D01*
X149188780Y-64214250D01*
X148794228Y-64214250D01*
X148398427Y-64438351D01*
X148002625Y-64662452D01*
X144903623Y-64662452D01*
X144909083Y-64373000D01*
X144909743Y-64347723D01*
X144911821Y-64282181D01*
X148002625Y-64282181D01*
X148004094Y-64335336D01*
X148012697Y-64407527D01*
X148026438Y-64435323D01*
X148026551Y-64435316D01*
X148062486Y-64419725D01*
X148141725Y-64378746D01*
X148252646Y-64318561D01*
X148383625Y-64245351D01*
X148717000Y-64056554D01*
X149153563Y-64056027D01*
X149212297Y-64055880D01*
X149372749Y-64054029D01*
X149481596Y-64049314D01*
X149547999Y-64040724D01*
X149581121Y-64027247D01*
X149590125Y-64007875D01*
X149605224Y-63979528D01*
X149659441Y-63964525D01*
X149764750Y-63960250D01*
X149939375Y-63960250D01*
X149939375Y-63738000D01*
X154828875Y-63738000D01*
X154828875Y-63960250D01*
X155003500Y-63960250D01*
X155107437Y-63964367D01*
X155162448Y-63979154D01*
X155178125Y-64007875D01*
X155186832Y-64027583D01*
X155220494Y-64041563D01*
X155288747Y-64050090D01*
X155401218Y-64054343D01*
X155567533Y-64055500D01*
X155659152Y-64055624D01*
X155781996Y-64054624D01*
X155877623Y-64048501D01*
X155959883Y-64033082D01*
X156042626Y-64004194D01*
X156139702Y-63957665D01*
X156264960Y-63889323D01*
X156432250Y-63794996D01*
X156459260Y-63779695D01*
X156563349Y-63719143D01*
X156642643Y-63670556D01*
X156681745Y-63643297D01*
X156684387Y-63615982D01*
X156674118Y-63543233D01*
X156653387Y-63443727D01*
X156626641Y-63335296D01*
X156598332Y-63235768D01*
X156572910Y-63162976D01*
X156554825Y-63134750D01*
X156531770Y-63143412D01*
X156461111Y-63173477D01*
X156355070Y-63219984D01*
X156225875Y-63277625D01*
X156104841Y-63331492D01*
X155997779Y-63374853D01*
X155908353Y-63401190D01*
X155816279Y-63414747D01*
X155701273Y-63419769D01*
X155543051Y-63420500D01*
X155413342Y-63421242D01*
X155295603Y-63425055D01*
X155223746Y-63433280D01*
X155187883Y-63447206D01*
X155178125Y-63468125D01*
X155163027Y-63496471D01*
X155108810Y-63511474D01*
X155003500Y-63515750D01*
X154828875Y-63515750D01*
X154828875Y-63738000D01*
X149939375Y-63738000D01*
X149939375Y-63515750D01*
X149764750Y-63515750D01*
X149660814Y-63511632D01*
X149605803Y-63496845D01*
X149590125Y-63468125D01*
X149588213Y-63457142D01*
X149566650Y-63438823D01*
X149512742Y-63427626D01*
X149416121Y-63422027D01*
X149266418Y-63420500D01*
X148942711Y-63420500D01*
X148492493Y-63629545D01*
X148042275Y-63838590D01*
X148022450Y-63983226D01*
X148018536Y-64014826D01*
X148007189Y-64150674D01*
X148002625Y-64282181D01*
X144911821Y-64282181D01*
X144918780Y-64062654D01*
X144930133Y-63833235D01*
X144945140Y-63652200D01*
X144956204Y-63574792D01*
X148102601Y-63574792D01*
X148104662Y-63576683D01*
X148146187Y-63570677D01*
X148231813Y-63542170D01*
X148350545Y-63495152D01*
X148491390Y-63433616D01*
X148869030Y-63261750D01*
X149229578Y-63261750D01*
X149353575Y-63261062D01*
X149471971Y-63257308D01*
X149544237Y-63249109D01*
X149580309Y-63235152D01*
X149590125Y-63214125D01*
X149605224Y-63185778D01*
X149659441Y-63170775D01*
X149764750Y-63166500D01*
X149939375Y-63166500D01*
X149939375Y-62944250D01*
X154828875Y-62944250D01*
X154828875Y-63166500D01*
X155003500Y-63166500D01*
X155107437Y-63170617D01*
X155162448Y-63185404D01*
X155178125Y-63214125D01*
X155181636Y-63228333D01*
X155206657Y-63244886D01*
X155264491Y-63254640D01*
X155365349Y-63258940D01*
X155519438Y-63259134D01*
X155611162Y-63258235D01*
X155738543Y-63254020D01*
X155835847Y-63242333D01*
X155924555Y-63218317D01*
X156026148Y-63177118D01*
X156162109Y-63113879D01*
X156256837Y-63068634D01*
X156367200Y-63014708D01*
X156445490Y-62974956D01*
X156478978Y-62955731D01*
X156475200Y-62920943D01*
X156445614Y-62848148D01*
X156398679Y-62753281D01*
X156343055Y-62652088D01*
X156287403Y-62560313D01*
X156240387Y-62493702D01*
X156210666Y-62468000D01*
X156209814Y-62468015D01*
X156159472Y-62479383D01*
X156069596Y-62507820D01*
X155959056Y-62547375D01*
X155896228Y-62569802D01*
X155768363Y-62604415D01*
X155633298Y-62621910D01*
X155463151Y-62626750D01*
X155443452Y-62626772D01*
X155311080Y-62629129D01*
X155229975Y-62636638D01*
X155189278Y-62651115D01*
X155178125Y-62674375D01*
X155163027Y-62702721D01*
X155108810Y-62717724D01*
X155003500Y-62722000D01*
X154828875Y-62722000D01*
X154828875Y-62944250D01*
X149939375Y-62944250D01*
X149939375Y-62722000D01*
X149764750Y-62722000D01*
X149660814Y-62717882D01*
X149605803Y-62703095D01*
X149590125Y-62674375D01*
X149586821Y-62659346D01*
X149557537Y-62639573D01*
X149488276Y-62629539D01*
X149367367Y-62626750D01*
X149277816Y-62629298D01*
X149174435Y-62641287D01*
X149061213Y-62666575D01*
X148921914Y-62708925D01*
X148740304Y-62772099D01*
X148706999Y-62784201D01*
X148557566Y-62841755D01*
X148430723Y-62895715D01*
X148338993Y-62940502D01*
X148294898Y-62970537D01*
X148287579Y-62981853D01*
X148255331Y-63051294D01*
X148214666Y-63157977D01*
X148172624Y-63283863D01*
X148158474Y-63330270D01*
X148126357Y-63445438D01*
X148106450Y-63532273D01*
X148102601Y-63574792D01*
X144956204Y-63574792D01*
X144965139Y-63512281D01*
X144991471Y-63406213D01*
X145025474Y-63326730D01*
X145068487Y-63266564D01*
X145121849Y-63218449D01*
X145153830Y-63195650D01*
X145246022Y-63145199D01*
X145355206Y-63109733D01*
X145492932Y-63087070D01*
X145670749Y-63075028D01*
X145900208Y-63071427D01*
X146001415Y-63070930D01*
X146190362Y-63065220D01*
X146330865Y-63050277D01*
X146433287Y-63022567D01*
X146507988Y-62978561D01*
X146565328Y-62914724D01*
X146615669Y-62827526D01*
X146643253Y-62770726D01*
X146688317Y-62669469D01*
X146716390Y-62595000D01*
X146732078Y-62555427D01*
X146778584Y-62458500D01*
X146849801Y-62320586D01*
X146941444Y-62149766D01*
X147049229Y-61954121D01*
X147168870Y-61741732D01*
X147247938Y-61602840D01*
X147807844Y-62161822D01*
X148367750Y-62720805D01*
X148711177Y-62594402D01*
X148840055Y-62548198D01*
X148972140Y-62506638D01*
X149082643Y-62482295D01*
X149192430Y-62470854D01*
X149322365Y-62468000D01*
X149452657Y-62466103D01*
X149536422Y-62458850D01*
X149578548Y-62444265D01*
X149590125Y-62420375D01*
X149605224Y-62392028D01*
X149659441Y-62377025D01*
X149764750Y-62372750D01*
X149939375Y-62372750D01*
X149939375Y-62229875D01*
X149939375Y-62087000D01*
X150082250Y-62087000D01*
X150225125Y-62087000D01*
X150225125Y-61912375D01*
X150229243Y-61808438D01*
X150244030Y-61753427D01*
X150272750Y-61737750D01*
X150278689Y-61737273D01*
X150299503Y-61720838D01*
X150312243Y-61673087D01*
X150318629Y-61583315D01*
X150320375Y-61440815D01*
X150320375Y-61143881D01*
X149638068Y-60948466D01*
X148955760Y-60753052D01*
X148804630Y-60909067D01*
X148713190Y-60992141D01*
X148544008Y-61090878D01*
X148367231Y-61126615D01*
X148183587Y-61099261D01*
X147993801Y-61008728D01*
X147980143Y-60999794D01*
X147846400Y-60874486D01*
X147758632Y-60718120D01*
X147718190Y-60543797D01*
X147721934Y-60462326D01*
X148044049Y-60462326D01*
X148064084Y-60590360D01*
X148145349Y-60708609D01*
X148225520Y-60764510D01*
X148342495Y-60784284D01*
X148350667Y-60784179D01*
X148477642Y-60765796D01*
X148564185Y-60709330D01*
X148626289Y-60604659D01*
X148650351Y-60516012D01*
X148639882Y-60388710D01*
X148579779Y-60282239D01*
X148478419Y-60209151D01*
X148344182Y-60182000D01*
X148254814Y-60193413D01*
X148143425Y-60255597D01*
X148066905Y-60370619D01*
X148044049Y-60462326D01*
X147721934Y-60462326D01*
X147726425Y-60364621D01*
X147784690Y-60193692D01*
X147894333Y-60044114D01*
X147903049Y-60035666D01*
X147992534Y-59961504D01*
X148081341Y-59904049D01*
X148096051Y-59897052D01*
X148216838Y-59865340D01*
X148363730Y-59855958D01*
X148508206Y-59868901D01*
X148621750Y-59904162D01*
X148758101Y-60001739D01*
X148877673Y-60143972D01*
X148957702Y-60307456D01*
X148986968Y-60474667D01*
X148987005Y-60516012D01*
X148987060Y-60578875D01*
X149598155Y-60751669D01*
X149608448Y-60754580D01*
X149806523Y-60810657D01*
X149993133Y-60863606D01*
X150155868Y-60909894D01*
X150282316Y-60945992D01*
X150360063Y-60968370D01*
X150510875Y-61012276D01*
X150510875Y-61371616D01*
X150511290Y-61465367D01*
X150514805Y-61597626D01*
X150522982Y-61682183D01*
X150537116Y-61729298D01*
X150558500Y-61749231D01*
X150574211Y-61759580D01*
X150598539Y-61816896D01*
X150606125Y-61927253D01*
X150606125Y-62087000D01*
X150812500Y-62087000D01*
X151018875Y-62087000D01*
X151018875Y-61912375D01*
X151022993Y-61808438D01*
X151037780Y-61753427D01*
X151066500Y-61737750D01*
X151079438Y-61734905D01*
X151096787Y-61711053D01*
X151107386Y-61654408D01*
X151112682Y-61554750D01*
X151114125Y-61401858D01*
X151114084Y-61362178D01*
X151111846Y-61218449D01*
X151103106Y-61111790D01*
X151083624Y-61020639D01*
X151049158Y-60923432D01*
X150995466Y-60798608D01*
X150940535Y-60680082D01*
X150888912Y-60589695D01*
X150843312Y-60544848D01*
X150795373Y-60537865D01*
X150736733Y-60561069D01*
X150732983Y-60562747D01*
X150707085Y-60562098D01*
X150667550Y-60542077D01*
X150609317Y-60498284D01*
X150575323Y-60468448D01*
X151050625Y-60468448D01*
X151054763Y-60483698D01*
X151079919Y-60547907D01*
X151122834Y-60647780D01*
X151177625Y-60769375D01*
X151205809Y-60831052D01*
X151252824Y-60940947D01*
X151281923Y-61030709D01*
X151297396Y-61121244D01*
X151303533Y-61233460D01*
X151304625Y-61388264D01*
X151304868Y-61457900D01*
X151308086Y-61593525D01*
X151316136Y-61680319D01*
X151330398Y-61728736D01*
X151352250Y-61749231D01*
X151367961Y-61759580D01*
X151392289Y-61816896D01*
X151399875Y-61927253D01*
X151399875Y-62087000D01*
X151606250Y-62087000D01*
X151812625Y-62087000D01*
X151812625Y-61912375D01*
X151816743Y-61808438D01*
X151831530Y-61753427D01*
X151860250Y-61737750D01*
X151861354Y-61737732D01*
X151881114Y-61727447D01*
X151894517Y-61691728D01*
X151902692Y-61621065D01*
X151906768Y-61505948D01*
X151907875Y-61336867D01*
X151907875Y-60935984D01*
X151746959Y-60638367D01*
X151676210Y-60512189D01*
X151611887Y-60412208D01*
X151562695Y-60357430D01*
X151523296Y-60340750D01*
X151454319Y-60348173D01*
X151356996Y-60367625D01*
X151249962Y-60394242D01*
X151151221Y-60423160D01*
X151078775Y-60449517D01*
X151050625Y-60468448D01*
X150575323Y-60468448D01*
X150527322Y-60426319D01*
X150416502Y-60321782D01*
X150395783Y-60301521D01*
X151780875Y-60301521D01*
X151787689Y-60322712D01*
X151819924Y-60391583D01*
X151872613Y-60493293D01*
X151939049Y-60614564D01*
X152097222Y-60896375D01*
X152097276Y-60935984D01*
X152097799Y-61317062D01*
X152099952Y-61481441D01*
X152106392Y-61619514D01*
X152116616Y-61707110D01*
X152130125Y-61737750D01*
X152143192Y-61753316D01*
X152156656Y-61816744D01*
X152161875Y-61912375D01*
X152161875Y-62087000D01*
X152384125Y-62087000D01*
X152606375Y-62087000D01*
X152606375Y-61912375D01*
X152610493Y-61808438D01*
X152625280Y-61753427D01*
X152654000Y-61737750D01*
X152659822Y-61737190D01*
X152677582Y-61722641D01*
X152689626Y-61681469D01*
X152696970Y-61604459D01*
X152700631Y-61482399D01*
X152701625Y-61306074D01*
X152701625Y-60902816D01*
X152892125Y-60902816D01*
X152892125Y-61320283D01*
X152893996Y-61481334D01*
X152900224Y-61619486D01*
X152910348Y-61707108D01*
X152923875Y-61737750D01*
X152936942Y-61753316D01*
X152950406Y-61816744D01*
X152955625Y-61912375D01*
X152955625Y-62087000D01*
X153177875Y-62087000D01*
X153400125Y-62087000D01*
X153400125Y-61912375D01*
X153404243Y-61808438D01*
X153419030Y-61753427D01*
X153447750Y-61737750D01*
X153464485Y-61732236D01*
X153479947Y-61703301D01*
X153489384Y-61640617D01*
X153494094Y-61534280D01*
X153495039Y-61416308D01*
X153654125Y-61416308D01*
X153654386Y-61487836D01*
X153657517Y-61612767D01*
X153665428Y-61689132D01*
X153679659Y-61727328D01*
X153701750Y-61737750D01*
X153730097Y-61752848D01*
X153745100Y-61807065D01*
X153749375Y-61912375D01*
X153749375Y-62087000D01*
X153971625Y-62087000D01*
X154193875Y-62087000D01*
X154193875Y-61912375D01*
X154197993Y-61808438D01*
X154212780Y-61753427D01*
X154241500Y-61737750D01*
X154243038Y-61737721D01*
X154266019Y-61725053D01*
X154280111Y-61681837D01*
X154287192Y-61597117D01*
X154288264Y-61521707D01*
X154443887Y-61521707D01*
X154447958Y-61632447D01*
X154464987Y-61709103D01*
X154495500Y-61737750D01*
X154523847Y-61752848D01*
X154538850Y-61807065D01*
X154543125Y-61912375D01*
X154543125Y-62087000D01*
X154686000Y-62087000D01*
X154828875Y-62087000D01*
X154828875Y-62229875D01*
X154828875Y-62372750D01*
X155003500Y-62372750D01*
X155107437Y-62376867D01*
X155162448Y-62391654D01*
X155178125Y-62420375D01*
X155189262Y-62441720D01*
X155249328Y-62464289D01*
X155350112Y-62472490D01*
X155478711Y-62467094D01*
X155622226Y-62448874D01*
X155767754Y-62418601D01*
X155902396Y-62377047D01*
X156134542Y-62289805D01*
X155995511Y-62101090D01*
X155801118Y-61859599D01*
X155490133Y-61538218D01*
X155146598Y-61246410D01*
X154788467Y-61000547D01*
X154593271Y-60882469D01*
X154520573Y-61075849D01*
X154504147Y-61124235D01*
X154472509Y-61253676D01*
X154452247Y-61390809D01*
X154443887Y-61521707D01*
X154288264Y-61521707D01*
X154289142Y-61459937D01*
X154293936Y-61300901D01*
X154314455Y-61146007D01*
X154354267Y-61010820D01*
X154380128Y-60935901D01*
X154402280Y-60850422D01*
X154405077Y-60802253D01*
X154404912Y-60801865D01*
X154372193Y-60776483D01*
X154299138Y-60736248D01*
X154201867Y-60688499D01*
X154096504Y-60640575D01*
X153999170Y-60599817D01*
X153925988Y-60573565D01*
X153893080Y-60569158D01*
X153888836Y-60576922D01*
X153863613Y-60629957D01*
X153821761Y-60721169D01*
X153769593Y-60836871D01*
X153769447Y-60837197D01*
X153715959Y-60961242D01*
X153682173Y-61058647D01*
X153663598Y-61151940D01*
X153655745Y-61263651D01*
X153654125Y-61416308D01*
X153495039Y-61416308D01*
X153495375Y-61374383D01*
X153495580Y-61284651D01*
X153498473Y-61149423D01*
X153507576Y-61048929D01*
X153526365Y-60964210D01*
X153558320Y-60876306D01*
X153606916Y-60766258D01*
X153626512Y-60722500D01*
X153670652Y-60616905D01*
X153698110Y-60540207D01*
X153703589Y-60506630D01*
X153700651Y-60504547D01*
X153653894Y-60486323D01*
X153568262Y-60459506D01*
X153462901Y-60429405D01*
X153356958Y-60401331D01*
X153269580Y-60380592D01*
X153219913Y-60372500D01*
X153205589Y-60380982D01*
X153162098Y-60433404D01*
X153102945Y-60523079D01*
X153036663Y-60637658D01*
X152892125Y-60902816D01*
X152701625Y-60902816D01*
X152701625Y-60874399D01*
X152848031Y-60605813D01*
X152885824Y-60534284D01*
X152936950Y-60428094D01*
X152967733Y-60350737D01*
X152972547Y-60315338D01*
X152961688Y-60310784D01*
X152898633Y-60301737D01*
X152791489Y-60294125D01*
X152652203Y-60288087D01*
X152492723Y-60283761D01*
X152324998Y-60281286D01*
X152160976Y-60280800D01*
X152012604Y-60282442D01*
X151891831Y-60286351D01*
X151810606Y-60292664D01*
X151780875Y-60301521D01*
X150395783Y-60301521D01*
X150271794Y-60180272D01*
X150088136Y-59997391D01*
X149495256Y-59403895D01*
X149915753Y-59247856D01*
X149925027Y-59244412D01*
X150106962Y-59175918D01*
X150293368Y-59104250D01*
X150462864Y-59037705D01*
X150594071Y-58984581D01*
X150851892Y-58877345D01*
X150872493Y-58727985D01*
X150875425Y-58704762D01*
X150886166Y-58600887D01*
X150899155Y-58455186D01*
X150913014Y-58283676D01*
X150926363Y-58102375D01*
X150932122Y-58020234D01*
X150946529Y-57843964D01*
X150966083Y-57699892D01*
X150996619Y-57584753D01*
X151043974Y-57495284D01*
X151113981Y-57428219D01*
X151212476Y-57380296D01*
X151345295Y-57348250D01*
X151518271Y-57328817D01*
X151737241Y-57318733D01*
X152008039Y-57314734D01*
X152336500Y-57313555D01*
X152551345Y-57313509D01*
X152831483Y-57315720D01*
X153059506Y-57321386D01*
X153242273Y-57331294D01*
X153386644Y-57346231D01*
X153499477Y-57366984D01*
X153587631Y-57394340D01*
X153657967Y-57429086D01*
X153717343Y-57472009D01*
X153748193Y-57500403D01*
X153789969Y-57553448D01*
X153822457Y-57622518D01*
X153847956Y-57717099D01*
X153868764Y-57846681D01*
X153887178Y-58020749D01*
X153905498Y-58248791D01*
X153911853Y-58340190D01*
X153923457Y-58523275D01*
X153935653Y-58662636D01*
X153955538Y-58767140D01*
X153990210Y-58845657D01*
X154046765Y-58907056D01*
X154132300Y-58960203D01*
X154253912Y-59013969D01*
X154418699Y-59077221D01*
X154633757Y-59158829D01*
X154711281Y-59188697D01*
X154902835Y-59261699D01*
X155075139Y-59326267D01*
X155218222Y-59378727D01*
X155322112Y-59415404D01*
X155376837Y-59432626D01*
X155399294Y-59436774D01*
X155472428Y-59433829D01*
X155554625Y-59402553D01*
X155653966Y-59337987D01*
X155778528Y-59235173D01*
X155936390Y-59089151D01*
X155954868Y-59071517D01*
X156096634Y-58938377D01*
X156204175Y-58843540D01*
X156286733Y-58780719D01*
X156353548Y-58743629D01*
X156413862Y-58725984D01*
X156476916Y-58721500D01*
X156547718Y-58726132D01*
X156629600Y-58745054D01*
X156717786Y-58782313D01*
X156817617Y-58841869D01*
X156934436Y-58927687D01*
X157073584Y-59043728D01*
X157240403Y-59193956D01*
X157440235Y-59382332D01*
X157678421Y-59612821D01*
X157750166Y-59683101D01*
X157945123Y-59878171D01*
X158097940Y-60039302D01*
X158213044Y-60172299D01*
X158294862Y-60282967D01*
X158313072Y-60315338D01*
X158347821Y-60377110D01*
G37*
G36*
X156468683Y-87629763D02*
G01*
X156468051Y-87828618D01*
X156466763Y-88011100D01*
X156464898Y-88172220D01*
X156462538Y-88306989D01*
X156459763Y-88410417D01*
X156456656Y-88477516D01*
X156453297Y-88503297D01*
X156448981Y-88504548D01*
X156407521Y-88507825D01*
X156326566Y-88510820D01*
X156211104Y-88513452D01*
X156066126Y-88515641D01*
X155896620Y-88517304D01*
X155707575Y-88518362D01*
X155503981Y-88518733D01*
X154570101Y-88518733D01*
X154570101Y-87569416D01*
X154570101Y-86897949D01*
X154847949Y-86897949D01*
X154847949Y-87569416D01*
X154847949Y-88240884D01*
X155519417Y-88240884D01*
X156190885Y-88240884D01*
X156190885Y-87569416D01*
X156190885Y-86897949D01*
X155519417Y-86897949D01*
X154847949Y-86897949D01*
X154570101Y-86897949D01*
X154570101Y-86620100D01*
X155519417Y-86620100D01*
X156468733Y-86620100D01*
X156468733Y-87553980D01*
X156468723Y-87569416D01*
X156468683Y-87629763D01*
G37*
G36*
X154292252Y-88379808D02*
G01*
X154292252Y-88518733D01*
X154164905Y-88518733D01*
X154037557Y-88518733D01*
X154037557Y-88379808D01*
X154037557Y-88240884D01*
X154164905Y-88240884D01*
X154292252Y-88240884D01*
X154292252Y-88379808D01*
G37*
G36*
X150240292Y-86900260D02*
G01*
X150373428Y-86893316D01*
X150506564Y-86886372D01*
X150513087Y-86614311D01*
X150519610Y-86342251D01*
X150645067Y-86342251D01*
X150770524Y-86342251D01*
X150777468Y-86475387D01*
X150784412Y-86608523D01*
X150917548Y-86615467D01*
X151050684Y-86622411D01*
X151050684Y-86886372D01*
X151050684Y-87150332D01*
X150917548Y-87157276D01*
X150784412Y-87164220D01*
X150777468Y-87297356D01*
X150770524Y-87430492D01*
X150644333Y-87430492D01*
X150518141Y-87430492D01*
X150518141Y-87290833D01*
X150518141Y-87151174D01*
X150246081Y-87157697D01*
X149974020Y-87164220D01*
X149967076Y-87297356D01*
X149960132Y-87430492D01*
X150239137Y-87430492D01*
X150518141Y-87430492D01*
X150518141Y-87696764D01*
X150518141Y-87708341D01*
X150518141Y-87963035D01*
X150784412Y-87963035D01*
X151050684Y-87963035D01*
X151050684Y-87835688D01*
X151050684Y-87708341D01*
X151455880Y-87708341D01*
X151861076Y-87708341D01*
X151861076Y-87835688D01*
X151861076Y-87963035D01*
X151594804Y-87963035D01*
X151328533Y-87963035D01*
X151328533Y-88101960D01*
X151328533Y-88240884D01*
X151594804Y-88240884D01*
X151861076Y-88240884D01*
X151861076Y-88101960D01*
X151861076Y-87963035D01*
X152000000Y-87963035D01*
X152138925Y-87963035D01*
X152138925Y-88101960D01*
X152138925Y-88240884D01*
X152000000Y-88240884D01*
X151861076Y-88240884D01*
X151861076Y-88379808D01*
X151861076Y-88518733D01*
X151455880Y-88518733D01*
X151050684Y-88518733D01*
X151050684Y-88379808D01*
X151050684Y-88240884D01*
X150785568Y-88240884D01*
X150520452Y-88240884D01*
X150513508Y-88374020D01*
X150506564Y-88507156D01*
X149701960Y-88513244D01*
X148897357Y-88519333D01*
X148897357Y-88380108D01*
X148897357Y-88240884D01*
X148493316Y-88240884D01*
X148089276Y-88240884D01*
X148082332Y-88374020D01*
X148075388Y-88507156D01*
X147942252Y-88514100D01*
X147809116Y-88521044D01*
X147809116Y-88380964D01*
X147809116Y-88240884D01*
X147948040Y-88240884D01*
X148086965Y-88240884D01*
X148086965Y-87974612D01*
X148086965Y-87708341D01*
X148214312Y-87708341D01*
X148341659Y-87708341D01*
X148341659Y-87835688D01*
X148341659Y-87963035D01*
X148619508Y-87963035D01*
X148897357Y-87963035D01*
X148897357Y-88101960D01*
X148897357Y-88240884D01*
X149024704Y-88240884D01*
X149152051Y-88240884D01*
X149152051Y-88101960D01*
X149152051Y-87963035D01*
X149024704Y-87963035D01*
X148897357Y-87963035D01*
X148897357Y-87835688D01*
X148897357Y-87708341D01*
X149163628Y-87708341D01*
X149429900Y-87708341D01*
X149429900Y-87835688D01*
X149429900Y-87963035D01*
X149568824Y-87963035D01*
X149707749Y-87963035D01*
X149707749Y-88101960D01*
X149707749Y-88240884D01*
X149974020Y-88240884D01*
X150240292Y-88240884D01*
X150240292Y-87974612D01*
X150240292Y-87708341D01*
X149835096Y-87708341D01*
X149429900Y-87708341D01*
X149429900Y-87569416D01*
X149429900Y-87430492D01*
X149163628Y-87430492D01*
X148897357Y-87430492D01*
X148897357Y-87569416D01*
X148897357Y-87708341D01*
X148758432Y-87708341D01*
X148619508Y-87708341D01*
X148619508Y-87569416D01*
X148619508Y-87430492D01*
X148480584Y-87430492D01*
X148341659Y-87430492D01*
X148341659Y-87291568D01*
X148341659Y-87152643D01*
X148214312Y-87152643D01*
X148086965Y-87152643D01*
X148086965Y-87291568D01*
X148086965Y-87430492D01*
X147948040Y-87430492D01*
X147809116Y-87430492D01*
X147809116Y-87291568D01*
X147809116Y-87152643D01*
X147670192Y-87152643D01*
X147531267Y-87152643D01*
X147531267Y-87025296D01*
X147531267Y-86897949D01*
X147670192Y-86897949D01*
X147809116Y-86897949D01*
X147809116Y-86759024D01*
X147809116Y-86620100D01*
X147670192Y-86620100D01*
X147531267Y-86620100D01*
X147531267Y-86353828D01*
X147531267Y-86087557D01*
X147809116Y-86087557D01*
X148086965Y-86087557D01*
X148086965Y-86214904D01*
X148086965Y-86342251D01*
X147948040Y-86342251D01*
X147809116Y-86342251D01*
X147809116Y-86481176D01*
X147809116Y-86620100D01*
X147948040Y-86620100D01*
X148086965Y-86620100D01*
X148086965Y-86481176D01*
X148086965Y-86342251D01*
X148213577Y-86342251D01*
X148340190Y-86342251D01*
X148343521Y-86481176D01*
X148346713Y-86614311D01*
X148353236Y-86886372D01*
X148486372Y-86893316D01*
X148619508Y-86900260D01*
X148619508Y-86493908D01*
X148619508Y-86342251D01*
X148897357Y-86342251D01*
X148897357Y-86747447D01*
X148897357Y-87152643D01*
X149302553Y-87152643D01*
X149707749Y-87152643D01*
X149707749Y-86747447D01*
X149707749Y-86342251D01*
X149302553Y-86342251D01*
X148897357Y-86342251D01*
X148619508Y-86342251D01*
X148619508Y-86087557D01*
X148353236Y-86087557D01*
X148086965Y-86087557D01*
X148086965Y-85948632D01*
X148086965Y-85809708D01*
X147948040Y-85809708D01*
X147809116Y-85809708D01*
X147809116Y-85670784D01*
X147809116Y-85531859D01*
X147946885Y-85531859D01*
X148086965Y-85531859D01*
X148086965Y-85670784D01*
X148086965Y-85809708D01*
X148214312Y-85809708D01*
X148341659Y-85809708D01*
X148341659Y-85670784D01*
X148341659Y-85531859D01*
X148619508Y-85531859D01*
X148897357Y-85531859D01*
X148897357Y-85809708D01*
X148897357Y-86087557D01*
X149024704Y-86087557D01*
X149152051Y-86087557D01*
X149152051Y-85948632D01*
X149152051Y-85809708D01*
X149290976Y-85809708D01*
X149429900Y-85809708D01*
X149429900Y-85670784D01*
X149429900Y-85531859D01*
X149695016Y-85531859D01*
X149960132Y-85531859D01*
X149967076Y-85664995D01*
X149974020Y-85798131D01*
X150373428Y-85804466D01*
X150772835Y-85810802D01*
X150772835Y-85949179D01*
X150772835Y-86087557D01*
X150645488Y-86087557D01*
X150518141Y-86087557D01*
X150518141Y-86214904D01*
X150518141Y-86342251D01*
X150379216Y-86342251D01*
X150240292Y-86342251D01*
X150240292Y-86214904D01*
X150240292Y-86087557D01*
X150101368Y-86087557D01*
X149962443Y-86087557D01*
X149962443Y-86214904D01*
X149962443Y-86342251D01*
X150101368Y-86342251D01*
X150240292Y-86342251D01*
X150240292Y-86621255D01*
X150240292Y-86747447D01*
X150240292Y-86900260D01*
G37*
G36*
X153481860Y-88379808D02*
G01*
X153481860Y-88518733D01*
X153354513Y-88518733D01*
X153227165Y-88518733D01*
X153227165Y-88379808D01*
X153227165Y-88240884D01*
X153354513Y-88240884D01*
X153481860Y-88240884D01*
X153481860Y-88379808D01*
G37*
G36*
X152671468Y-88240884D02*
G01*
X152671468Y-88518733D01*
X152544121Y-88518733D01*
X152416773Y-88518733D01*
X152416773Y-88240884D01*
X152416773Y-87963035D01*
X152544121Y-87963035D01*
X152671468Y-87963035D01*
X152671468Y-88240884D01*
G37*
G36*
X149962443Y-82822835D02*
G01*
X149835096Y-82822835D01*
X149707749Y-82822835D01*
X149707749Y-83366955D01*
X149707749Y-83911075D01*
X149835096Y-83911075D01*
X149962443Y-83911075D01*
X149962443Y-83787587D01*
X149963190Y-83739217D01*
X149966673Y-83681110D01*
X149972041Y-83654451D01*
X149987558Y-83651184D01*
X150038599Y-83649978D01*
X150110965Y-83652735D01*
X150240292Y-83660667D01*
X150240292Y-83785871D01*
X150240292Y-83911075D01*
X150379216Y-83911075D01*
X150518141Y-83911075D01*
X150518141Y-83784486D01*
X150518141Y-83657897D01*
X150778624Y-83651351D01*
X151039107Y-83644804D01*
X151046015Y-83512857D01*
X151052924Y-83380910D01*
X150918668Y-83373932D01*
X150784412Y-83366955D01*
X150777468Y-83233819D01*
X150770524Y-83100683D01*
X150910604Y-83100683D01*
X151050684Y-83100683D01*
X151050684Y-83239608D01*
X151050684Y-83378532D01*
X151190035Y-83378532D01*
X151329386Y-83378532D01*
X151323171Y-83914668D01*
X151316956Y-84450803D01*
X151189608Y-84452999D01*
X151062261Y-84455196D01*
X151055317Y-84588332D01*
X151048373Y-84721467D01*
X151315253Y-84721467D01*
X151582134Y-84721467D01*
X151588469Y-84322060D01*
X151594804Y-83922652D01*
X151727940Y-83915708D01*
X151861076Y-83908764D01*
X151861076Y-84048844D01*
X151861076Y-84188924D01*
X152000000Y-84188924D01*
X152138925Y-84188924D01*
X152138925Y-84315116D01*
X152138925Y-84441308D01*
X152005789Y-84448252D01*
X151872653Y-84455196D01*
X151866130Y-84727256D01*
X151859606Y-84999316D01*
X151998845Y-84999316D01*
X152138925Y-84999316D01*
X152138925Y-84733044D01*
X152138925Y-84466773D01*
X152405196Y-84466773D01*
X152671468Y-84466773D01*
X152671468Y-84327848D01*
X152671468Y-84188924D01*
X152810392Y-84188924D01*
X152947006Y-84188924D01*
X152953950Y-84322060D01*
X152960894Y-84455196D01*
X153088241Y-84457313D01*
X153215588Y-84459431D01*
X153222516Y-84589910D01*
X153229444Y-84720390D01*
X152821375Y-84726717D01*
X152413305Y-84733044D01*
X152413324Y-84999316D01*
X152413816Y-85065651D01*
X152417962Y-85175809D01*
X152426161Y-85244143D01*
X152438212Y-85268482D01*
X152448508Y-85269351D01*
X152498476Y-85271898D01*
X152567275Y-85274270D01*
X152671468Y-85277165D01*
X152671468Y-85404512D01*
X152671468Y-85529548D01*
X152541933Y-85536492D01*
X152412399Y-85543436D01*
X152415544Y-85942844D01*
X152418688Y-86342251D01*
X152278806Y-86342251D01*
X152138925Y-86342251D01*
X152138925Y-86481176D01*
X152138925Y-86620100D01*
X152405196Y-86620100D01*
X152671468Y-86620100D01*
X152671468Y-87025296D01*
X152671468Y-87430492D01*
X153076664Y-87430492D01*
X153481860Y-87430492D01*
X153481860Y-87291568D01*
X153481860Y-87152643D01*
X153759709Y-87152643D01*
X154037557Y-87152643D01*
X154037557Y-87026031D01*
X154037557Y-86899418D01*
X153765497Y-86892895D01*
X153493437Y-86886372D01*
X153486493Y-86753236D01*
X153479549Y-86620100D01*
X153619629Y-86620100D01*
X153759709Y-86620100D01*
X153759709Y-86075980D01*
X153759709Y-85531859D01*
X153898633Y-85531859D01*
X154037557Y-85531859D01*
X154037557Y-85937055D01*
X154037557Y-86342251D01*
X154164905Y-86342251D01*
X154292252Y-86342251D01*
X154292252Y-86215639D01*
X154292252Y-86089026D01*
X154564312Y-86082503D01*
X154836372Y-86075980D01*
X154843316Y-85942844D01*
X154850260Y-85809708D01*
X155115376Y-85809708D01*
X155380493Y-85809708D01*
X155380493Y-86075980D01*
X155380493Y-86342251D01*
X154836372Y-86342251D01*
X154292252Y-86342251D01*
X154292252Y-86481176D01*
X154292252Y-86620100D01*
X154164905Y-86620100D01*
X154037557Y-86620100D01*
X154037557Y-86759024D01*
X154037557Y-86897949D01*
X154164905Y-86897949D01*
X154292252Y-86897949D01*
X154292252Y-87430492D01*
X154292252Y-87963035D01*
X154025980Y-87963035D01*
X153759709Y-87963035D01*
X153759709Y-88101960D01*
X153759709Y-88240884D01*
X153620784Y-88240884D01*
X153481860Y-88240884D01*
X153481860Y-87974612D01*
X153481860Y-87708341D01*
X153354513Y-87708341D01*
X153227165Y-87708341D01*
X153227165Y-87835688D01*
X153227165Y-87963035D01*
X152949317Y-87963035D01*
X152671468Y-87963035D01*
X152671468Y-87835688D01*
X152671468Y-87708341D01*
X152266272Y-87708341D01*
X151861076Y-87708341D01*
X151861076Y-87570151D01*
X151861076Y-87569416D01*
X153481860Y-87569416D01*
X153481860Y-87708341D01*
X153620784Y-87708341D01*
X153759709Y-87708341D01*
X153759709Y-87569416D01*
X153759709Y-87430492D01*
X153620784Y-87430492D01*
X153481860Y-87430492D01*
X153481860Y-87569416D01*
X151861076Y-87569416D01*
X151861076Y-87431962D01*
X152133136Y-87425438D01*
X152405196Y-87418915D01*
X152411743Y-87158432D01*
X152418290Y-86897949D01*
X152278607Y-86897949D01*
X152138925Y-86897949D01*
X152138925Y-87025296D01*
X152138925Y-87152643D01*
X152000000Y-87152643D01*
X151861076Y-87152643D01*
X151861076Y-86747447D01*
X151861076Y-86342251D01*
X151720942Y-86342251D01*
X151580807Y-86342251D01*
X151587806Y-86220693D01*
X151594804Y-86099134D01*
X151861076Y-86087557D01*
X152127348Y-86075980D01*
X152134292Y-85942844D01*
X152141236Y-85809708D01*
X151862231Y-85809708D01*
X151583227Y-85809708D01*
X151583227Y-85948632D01*
X151583227Y-86087557D01*
X151455880Y-86087557D01*
X151328533Y-86087557D01*
X151328533Y-85684504D01*
X151328533Y-85281451D01*
X151455912Y-85273519D01*
X151583290Y-85265588D01*
X151583259Y-85398724D01*
X151583227Y-85531859D01*
X151862231Y-85531859D01*
X152141236Y-85531859D01*
X152134292Y-85398724D01*
X152127348Y-85265588D01*
X152000000Y-85263470D01*
X151872653Y-85261352D01*
X151865709Y-85130334D01*
X151858765Y-84999316D01*
X151594070Y-84999316D01*
X151328533Y-84999316D01*
X151328533Y-85126663D01*
X151328533Y-85254011D01*
X151085415Y-85256905D01*
X151010150Y-85257922D01*
X150916818Y-85259558D01*
X150847506Y-85261227D01*
X150813355Y-85262693D01*
X150803303Y-85268897D01*
X150786806Y-85313875D01*
X150777468Y-85398724D01*
X150770524Y-85531859D01*
X150645488Y-85531859D01*
X150520452Y-85531859D01*
X150513508Y-85398724D01*
X150506564Y-85265588D01*
X150373428Y-85258644D01*
X150240292Y-85251700D01*
X150240292Y-85125508D01*
X150240292Y-84999316D01*
X150506564Y-84999316D01*
X150772835Y-84999316D01*
X150772835Y-84455196D01*
X150772835Y-83911075D01*
X150645488Y-83911075D01*
X150518141Y-83911075D01*
X150518141Y-84050000D01*
X150518141Y-84188924D01*
X150379216Y-84188924D01*
X150240292Y-84188924D01*
X150240292Y-84316271D01*
X150240292Y-84443619D01*
X150101368Y-84443619D01*
X149962443Y-84443619D01*
X149962443Y-84316271D01*
X149962443Y-84188924D01*
X149696172Y-84188924D01*
X149429900Y-84188924D01*
X149429900Y-84048844D01*
X149429900Y-83908764D01*
X149296764Y-83915708D01*
X149163628Y-83922652D01*
X149163628Y-84050000D01*
X149163628Y-84177347D01*
X149296764Y-84184291D01*
X149385592Y-84188924D01*
X149429900Y-84191235D01*
X149429900Y-84317427D01*
X149429900Y-84443619D01*
X149325707Y-84446513D01*
X149297780Y-84447360D01*
X149232296Y-84449917D01*
X149192571Y-84452301D01*
X149182519Y-84458505D01*
X149166022Y-84503483D01*
X149156684Y-84588332D01*
X149149740Y-84721467D01*
X149289820Y-84721467D01*
X149429900Y-84721467D01*
X149429900Y-84860392D01*
X149429900Y-84999316D01*
X149164784Y-84999316D01*
X148899668Y-84999316D01*
X148892724Y-85132452D01*
X148887905Y-85190274D01*
X148878791Y-85242093D01*
X148868414Y-85259799D01*
X148847460Y-85257841D01*
X148788026Y-85255858D01*
X148700919Y-85254509D01*
X148596354Y-85254011D01*
X148341659Y-85254011D01*
X148341659Y-85126663D01*
X148341659Y-84999316D01*
X148214312Y-84999316D01*
X148086965Y-84999316D01*
X148086965Y-85125508D01*
X148086965Y-85251700D01*
X147953829Y-85258644D01*
X147820693Y-85265588D01*
X147813749Y-85398724D01*
X147806805Y-85531859D01*
X147669645Y-85531859D01*
X147530174Y-85531859D01*
X147536509Y-85132452D01*
X147542844Y-84733044D01*
X147677100Y-84726067D01*
X147765616Y-84721467D01*
X148339348Y-84721467D01*
X148479428Y-84721467D01*
X148619508Y-84721467D01*
X148619508Y-84595276D01*
X148619508Y-84469084D01*
X148752644Y-84462140D01*
X148885780Y-84455196D01*
X148892724Y-84322060D01*
X148899668Y-84188924D01*
X148759588Y-84188924D01*
X148619508Y-84188924D01*
X148619508Y-84316271D01*
X148619508Y-84443619D01*
X148515315Y-84446513D01*
X148487388Y-84447360D01*
X148421904Y-84449917D01*
X148382179Y-84452301D01*
X148372127Y-84458505D01*
X148355630Y-84503483D01*
X148346292Y-84588332D01*
X148339348Y-84721467D01*
X147765616Y-84721467D01*
X147811356Y-84719090D01*
X147804448Y-84587143D01*
X147797539Y-84455196D01*
X147670192Y-84453024D01*
X147542844Y-84450852D01*
X147536321Y-84180964D01*
X147529798Y-83911075D01*
X147669457Y-83911075D01*
X147809116Y-83911075D01*
X147809116Y-84050000D01*
X147809116Y-84188924D01*
X148075388Y-84188924D01*
X148341659Y-84188924D01*
X148341659Y-84050000D01*
X148341659Y-83911075D01*
X148214312Y-83911075D01*
X148086965Y-83911075D01*
X148086965Y-83783728D01*
X148086965Y-83656381D01*
X148214312Y-83656381D01*
X148341659Y-83656381D01*
X148341659Y-83517456D01*
X148341659Y-83378532D01*
X148480584Y-83378532D01*
X148619508Y-83378532D01*
X148619508Y-83644804D01*
X148619508Y-83911075D01*
X148758432Y-83911075D01*
X148897357Y-83911075D01*
X148897357Y-83505879D01*
X148897357Y-83100683D01*
X148619508Y-83100683D01*
X148341659Y-83100683D01*
X148341659Y-82959616D01*
X148341659Y-82818549D01*
X148214280Y-82826480D01*
X148086902Y-82834412D01*
X148086933Y-82701276D01*
X148086965Y-82568140D01*
X147949196Y-82568140D01*
X147811427Y-82568140D01*
X147804483Y-82698666D01*
X147797539Y-82829191D01*
X147670192Y-82829191D01*
X147542844Y-82829191D01*
X147535900Y-82698666D01*
X147528956Y-82568140D01*
X147669036Y-82568140D01*
X147809116Y-82568140D01*
X147809116Y-82429216D01*
X147809116Y-82290291D01*
X147669036Y-82290291D01*
X147528956Y-82290291D01*
X147535900Y-82157156D01*
X147542844Y-82024020D01*
X147675980Y-82017076D01*
X147809116Y-82010132D01*
X147809116Y-82150212D01*
X147809116Y-82290291D01*
X147948040Y-82290291D01*
X148086965Y-82290291D01*
X148339348Y-82290291D01*
X148346292Y-82423427D01*
X148353236Y-82556563D01*
X148486372Y-82563507D01*
X148619508Y-82570451D01*
X148619508Y-82430371D01*
X148619508Y-82290291D01*
X148758432Y-82290291D01*
X148897357Y-82290291D01*
X148897357Y-82430371D01*
X148897357Y-82570283D01*
X148897357Y-82850275D01*
X149024736Y-82842343D01*
X149152114Y-82834412D01*
X149152083Y-82967548D01*
X149152051Y-83100683D01*
X149290976Y-83100683D01*
X149429900Y-83100683D01*
X149429900Y-82835567D01*
X149429900Y-82570451D01*
X149296764Y-82563507D01*
X149163628Y-82556563D01*
X149156684Y-82423427D01*
X149149740Y-82290291D01*
X149024704Y-82290291D01*
X148899668Y-82290291D01*
X148892724Y-82157156D01*
X148885780Y-82024020D01*
X148752644Y-82017076D01*
X148619508Y-82010132D01*
X148619508Y-82150212D01*
X148619508Y-82290291D01*
X148479428Y-82290291D01*
X148339348Y-82290291D01*
X148086965Y-82290291D01*
X148086965Y-82024020D01*
X148086965Y-81757748D01*
X148758432Y-81757748D01*
X149429900Y-81757748D01*
X149429900Y-82024020D01*
X149429900Y-82290291D01*
X149695016Y-82290291D01*
X149960132Y-82290291D01*
X149967076Y-82157156D01*
X149974020Y-82024020D01*
X150107156Y-82017076D01*
X150240292Y-82010132D01*
X150240292Y-82150212D01*
X150240292Y-82290291D01*
X150101368Y-82290291D01*
X149962443Y-82290291D01*
X149962443Y-82556563D01*
X149962443Y-82570451D01*
X149962443Y-82822835D01*
G37*
G36*
X151861076Y-81885095D02*
G01*
X151861076Y-82010132D01*
X151727940Y-82017076D01*
X151594804Y-82024020D01*
X151588281Y-82296080D01*
X151581758Y-82568140D01*
X151455145Y-82568140D01*
X151328533Y-82568140D01*
X151328533Y-82429216D01*
X151328533Y-82290291D01*
X151189608Y-82290291D01*
X151050684Y-82290291D01*
X151050684Y-82556563D01*
X151050684Y-82822835D01*
X150946491Y-82825729D01*
X150918564Y-82826576D01*
X150853080Y-82829133D01*
X150813355Y-82831517D01*
X150803303Y-82837721D01*
X150786806Y-82882699D01*
X150777468Y-82967548D01*
X150770524Y-83100683D01*
X150644333Y-83100683D01*
X150520452Y-83100683D01*
X150513508Y-82967548D01*
X150506564Y-82834412D01*
X150373428Y-82827468D01*
X150240292Y-82820524D01*
X150240292Y-82694332D01*
X150240292Y-82568140D01*
X150379216Y-82568140D01*
X150518141Y-82568140D01*
X150518141Y-82290291D01*
X150518141Y-82012443D01*
X150923337Y-82012443D01*
X151328533Y-82012443D01*
X151328533Y-81885095D01*
X151328533Y-81757748D01*
X151594804Y-81757748D01*
X151861076Y-81757748D01*
X151861076Y-81885095D01*
G37*
G36*
X147809116Y-87570572D02*
G01*
X147809116Y-87710652D01*
X147675980Y-87703708D01*
X147542844Y-87696764D01*
X147535900Y-87563628D01*
X147528956Y-87430492D01*
X147669036Y-87430492D01*
X147809116Y-87430492D01*
X147809116Y-87570572D01*
G37*
G36*
X156468733Y-85265588D02*
G01*
X156468733Y-86342251D01*
X156329809Y-86342251D01*
X156190885Y-86342251D01*
X156190885Y-85937055D01*
X156190885Y-85531859D01*
X155924613Y-85531859D01*
X155660652Y-85531859D01*
X155653708Y-85398724D01*
X155650226Y-85353625D01*
X155637344Y-85287239D01*
X155617822Y-85262693D01*
X155606785Y-85261846D01*
X155554633Y-85259289D01*
X155484686Y-85256905D01*
X155380493Y-85254011D01*
X155380493Y-85126663D01*
X155380493Y-84999316D01*
X155241568Y-84999316D01*
X155102644Y-84999316D01*
X155102644Y-84860392D01*
X155102644Y-84721467D01*
X155241568Y-84721467D01*
X155380493Y-84721467D01*
X155380493Y-84860392D01*
X155380493Y-84999316D01*
X155786423Y-84999316D01*
X156192354Y-84999316D01*
X156185831Y-84727256D01*
X156179307Y-84455196D01*
X156046172Y-84448252D01*
X155913036Y-84441308D01*
X155913036Y-84315116D01*
X155913036Y-84188924D01*
X156190885Y-84188924D01*
X156468733Y-84188924D01*
X156468733Y-85265588D01*
G37*
G36*
X155102644Y-84594120D02*
G01*
X155102644Y-84721467D01*
X154836372Y-84721467D01*
X154570101Y-84721467D01*
X154570101Y-84860392D01*
X154570101Y-84999316D01*
X154431176Y-84999316D01*
X154292252Y-84999316D01*
X154292252Y-84860392D01*
X154292252Y-84721467D01*
X154164905Y-84721467D01*
X154037557Y-84721467D01*
X154037557Y-84860392D01*
X154037557Y-84999316D01*
X154164905Y-84999316D01*
X154292252Y-84999316D01*
X154292252Y-85265588D01*
X154292252Y-85531859D01*
X154166060Y-85531859D01*
X154039868Y-85531859D01*
X154032924Y-85398724D01*
X154025980Y-85265588D01*
X153898633Y-85265588D01*
X153771286Y-85265588D01*
X153764342Y-85398724D01*
X153757398Y-85531859D01*
X153619629Y-85531859D01*
X153481860Y-85531859D01*
X153481860Y-85670784D01*
X153481860Y-85809708D01*
X153354513Y-85809708D01*
X153227165Y-85809708D01*
X153227165Y-85670784D01*
X153227165Y-85531859D01*
X153088241Y-85531859D01*
X152949317Y-85531859D01*
X152949317Y-85404512D01*
X152949317Y-85277165D01*
X153088241Y-85277165D01*
X153227165Y-85277165D01*
X153227165Y-85404512D01*
X153227165Y-85531859D01*
X153354513Y-85531859D01*
X153481860Y-85531859D01*
X153481860Y-85392935D01*
X153481860Y-85254011D01*
X153354513Y-85254011D01*
X153227165Y-85254011D01*
X153227165Y-85126663D01*
X153227165Y-84999316D01*
X153354513Y-84999316D01*
X153481860Y-84999316D01*
X153481860Y-84860392D01*
X153481860Y-84721467D01*
X153620784Y-84721467D01*
X153759709Y-84721467D01*
X153759709Y-84594120D01*
X153759709Y-84466773D01*
X154431176Y-84466773D01*
X155102644Y-84466773D01*
X155102644Y-84594120D01*
G37*
G36*
X155658341Y-85670784D02*
G01*
X155658341Y-85809708D01*
X155519417Y-85809708D01*
X155380493Y-85809708D01*
X155380493Y-85670784D01*
X155380493Y-85531859D01*
X155520572Y-85531859D01*
X155658341Y-85531859D01*
X155658341Y-85670784D01*
G37*
G36*
X152949317Y-85670784D02*
G01*
X152949317Y-85809708D01*
X152810392Y-85809708D01*
X152671468Y-85809708D01*
X152671468Y-85669628D01*
X152671468Y-85531859D01*
X152810392Y-85531859D01*
X152949317Y-85531859D01*
X152949317Y-85670784D01*
G37*
G36*
X153620784Y-84188924D02*
G01*
X153759709Y-84188924D01*
X153759709Y-84314128D01*
X153759709Y-84439333D01*
X153630382Y-84447264D01*
X153576226Y-84449670D01*
X153517949Y-84449526D01*
X153491457Y-84445548D01*
X153487756Y-84432223D01*
X153483512Y-84383139D01*
X153481860Y-84312412D01*
X153481860Y-84188924D01*
X153620784Y-84188924D01*
G37*
G36*
X155913036Y-83112260D02*
G01*
X155913036Y-83378532D01*
X155785689Y-83378532D01*
X155658341Y-83378532D01*
X155658341Y-83505453D01*
X155658341Y-83632373D01*
X155120009Y-83638588D01*
X154581678Y-83644804D01*
X154574769Y-83776751D01*
X154567861Y-83908698D01*
X154702116Y-83915675D01*
X154836372Y-83922652D01*
X154836372Y-84050000D01*
X154836372Y-84177347D01*
X154703236Y-84184291D01*
X154570101Y-84191235D01*
X154570101Y-84051155D01*
X154570101Y-83911075D01*
X154025980Y-83911075D01*
X153481860Y-83911075D01*
X153481860Y-84050000D01*
X153481860Y-84188924D01*
X153214433Y-84188924D01*
X152949317Y-84188924D01*
X152949317Y-84050000D01*
X152949317Y-83911075D01*
X153088241Y-83911075D01*
X153227165Y-83911075D01*
X153227165Y-83644804D01*
X153227165Y-83378532D01*
X153492281Y-83378532D01*
X153757398Y-83378532D01*
X153764342Y-83511668D01*
X153771286Y-83644804D01*
X154031769Y-83651351D01*
X154292252Y-83657897D01*
X154292252Y-83518950D01*
X154292252Y-83380002D01*
X154564312Y-83373478D01*
X154836372Y-83366955D01*
X154843316Y-83233819D01*
X154850260Y-83100683D01*
X154976452Y-83100683D01*
X155102644Y-83100683D01*
X155102644Y-83239608D01*
X155102644Y-83378532D01*
X155380493Y-83378532D01*
X155658341Y-83378532D01*
X155658341Y-83112260D01*
X155658341Y-82845989D01*
X155785689Y-82845989D01*
X155913036Y-82845989D01*
X155913036Y-83112260D01*
G37*
G36*
X156192040Y-83378532D02*
G01*
X156471044Y-83378532D01*
X156464100Y-83509550D01*
X156457156Y-83640568D01*
X156329809Y-83642686D01*
X156202462Y-83644804D01*
X156195518Y-83777940D01*
X156188574Y-83911075D01*
X155923457Y-83911075D01*
X155658341Y-83911075D01*
X155658341Y-83783728D01*
X155658341Y-83656381D01*
X155785689Y-83656381D01*
X155913036Y-83656381D01*
X155913036Y-83517456D01*
X155913036Y-83378532D01*
X156192040Y-83378532D01*
G37*
G36*
X153620784Y-81202051D02*
G01*
X153759709Y-81202051D01*
X153759709Y-81479899D01*
X153759709Y-81757748D01*
X153899368Y-81757748D01*
X154037557Y-81757748D01*
X154037557Y-82024020D01*
X154037557Y-82290291D01*
X154164905Y-82290291D01*
X154292252Y-82290291D01*
X154292252Y-82429216D01*
X154292252Y-82568140D01*
X154431176Y-82568140D01*
X154570101Y-82568140D01*
X154570101Y-82428060D01*
X154570101Y-82287980D01*
X154703236Y-82294924D01*
X154836372Y-82301868D01*
X154836372Y-82429216D01*
X154836372Y-82556563D01*
X154702116Y-82563540D01*
X154567861Y-82570518D01*
X154574769Y-82702465D01*
X154581678Y-82834412D01*
X154709025Y-82836529D01*
X154836372Y-82838647D01*
X154843316Y-82969665D01*
X154850260Y-83100683D01*
X154443909Y-83100683D01*
X154037557Y-83100683D01*
X154037557Y-82973336D01*
X154037557Y-82845989D01*
X154164905Y-82845989D01*
X154292252Y-82845989D01*
X154292252Y-82707064D01*
X154292252Y-82568140D01*
X154164905Y-82568140D01*
X154037557Y-82568140D01*
X154037557Y-82694086D01*
X154037557Y-82820031D01*
X153769266Y-82827221D01*
X153668773Y-82829200D01*
X153579267Y-82829485D01*
X153516970Y-82827978D01*
X153491418Y-82824764D01*
X153489514Y-82806671D01*
X153487436Y-82746979D01*
X153485595Y-82650844D01*
X153484055Y-82523600D01*
X153482877Y-82370584D01*
X153482125Y-82197134D01*
X153481860Y-82008584D01*
X153481860Y-81202051D01*
X153620784Y-81202051D01*
G37*
G36*
X154292252Y-80947356D02*
G01*
X154292252Y-81757748D01*
X154164905Y-81757748D01*
X154039027Y-81757748D01*
X154032504Y-81485688D01*
X154025980Y-81213628D01*
X153892844Y-81206684D01*
X153759709Y-81199740D01*
X153759709Y-81074703D01*
X153759709Y-80949667D01*
X153892844Y-80942723D01*
X154025980Y-80935779D01*
X154032924Y-80802643D01*
X154039868Y-80669507D01*
X153760864Y-80669507D01*
X153481860Y-80669507D01*
X153481860Y-80935779D01*
X153481860Y-81202051D01*
X153354513Y-81202051D01*
X153227165Y-81202051D01*
X153227165Y-81606512D01*
X153227165Y-82010973D01*
X152955105Y-82017496D01*
X152683045Y-82024020D01*
X152676134Y-82156034D01*
X152669224Y-82288047D01*
X152539821Y-82294958D01*
X152410417Y-82301868D01*
X152410417Y-82429216D01*
X152410417Y-82556563D01*
X152540943Y-82563507D01*
X152671468Y-82570451D01*
X152671468Y-82696643D01*
X152671468Y-82822835D01*
X152544121Y-82822835D01*
X152416773Y-82822835D01*
X152416773Y-82695487D01*
X152416773Y-82568140D01*
X152138925Y-82568140D01*
X151861076Y-82568140D01*
X151861076Y-82289136D01*
X151861076Y-82012443D01*
X152000000Y-82012443D01*
X152138925Y-82012443D01*
X152138925Y-82150212D01*
X152138925Y-82290291D01*
X152279004Y-82290291D01*
X152419084Y-82290291D01*
X152412140Y-82157156D01*
X152405196Y-82024020D01*
X152272060Y-82017076D01*
X152138925Y-82010132D01*
X152138925Y-81746171D01*
X152138925Y-81479899D01*
X152279004Y-81479899D01*
X152419084Y-81479899D01*
X152412140Y-81346764D01*
X152405196Y-81213628D01*
X152272060Y-81206684D01*
X152138925Y-81199740D01*
X152138925Y-81339820D01*
X152138925Y-81479899D01*
X152000000Y-81479899D01*
X151861076Y-81479899D01*
X151861076Y-81213628D01*
X151861076Y-80947356D01*
X151594804Y-80947356D01*
X151328533Y-80947356D01*
X151328533Y-80808432D01*
X151328533Y-80669507D01*
X151594804Y-80669507D01*
X151861076Y-80669507D01*
X151861076Y-80808432D01*
X151861076Y-80947356D01*
X152000000Y-80947356D01*
X152138925Y-80947356D01*
X152138925Y-80808432D01*
X152138925Y-80669507D01*
X152000000Y-80669507D01*
X151861076Y-80669507D01*
X151861076Y-80530583D01*
X151861076Y-80391659D01*
X151594804Y-80391659D01*
X151328533Y-80391659D01*
X151328533Y-80530583D01*
X151328533Y-80669507D01*
X151050684Y-80669507D01*
X150772835Y-80669507D01*
X150772835Y-80808432D01*
X150772835Y-80947356D01*
X150645488Y-80947356D01*
X150518141Y-80947356D01*
X150518141Y-80808432D01*
X150518141Y-80669507D01*
X150379216Y-80669507D01*
X150240292Y-80669507D01*
X150240292Y-80530583D01*
X150240292Y-80391659D01*
X150506564Y-80391659D01*
X150772835Y-80391659D01*
X150772835Y-80264846D01*
X150772835Y-80138033D01*
X151181137Y-80131710D01*
X151589440Y-80125387D01*
X151589440Y-79998040D01*
X151589440Y-79870693D01*
X151179998Y-79864365D01*
X150770557Y-79858038D01*
X150777484Y-79725441D01*
X150784412Y-79592844D01*
X151322744Y-79586629D01*
X151861076Y-79580413D01*
X151861076Y-79986036D01*
X151861076Y-80391659D01*
X152266272Y-80391659D01*
X152671468Y-80391659D01*
X152671468Y-80264311D01*
X152671468Y-80136964D01*
X152405196Y-80136964D01*
X152138925Y-80136964D01*
X152138925Y-79998040D01*
X152138925Y-79859115D01*
X152404041Y-79859115D01*
X152669157Y-79859115D01*
X152676101Y-79725980D01*
X152683045Y-79592844D01*
X152816181Y-79585900D01*
X152949317Y-79578956D01*
X152949317Y-79719036D01*
X152949317Y-79859115D01*
X153088241Y-79859115D01*
X153227165Y-79859115D01*
X153227165Y-79720191D01*
X153227165Y-79581267D01*
X153354513Y-79581267D01*
X153481860Y-79581267D01*
X153481860Y-79720191D01*
X153481860Y-79859115D01*
X153354513Y-79859115D01*
X153227165Y-79859115D01*
X153227165Y-79998040D01*
X153227165Y-80136964D01*
X153088788Y-80136964D01*
X152949317Y-80136964D01*
X152949317Y-80264311D01*
X152949317Y-80391659D01*
X152810392Y-80391659D01*
X152671468Y-80391659D01*
X152671468Y-80530583D01*
X152671468Y-80669507D01*
X152546264Y-80669507D01*
X152421059Y-80669507D01*
X152413128Y-80798834D01*
X152410722Y-80852990D01*
X152410866Y-80911267D01*
X152414844Y-80937759D01*
X152428169Y-80941460D01*
X152477253Y-80945704D01*
X152547980Y-80947356D01*
X152671468Y-80947356D01*
X152671468Y-81352552D01*
X152671468Y-81479899D01*
X152671468Y-81757748D01*
X152810392Y-81757748D01*
X152949317Y-81757748D01*
X152949317Y-81353708D01*
X152949317Y-80949667D01*
X153082452Y-80942723D01*
X153215588Y-80935779D01*
X153221924Y-80536372D01*
X153228259Y-80136964D01*
X153759709Y-80136964D01*
X154292252Y-80136964D01*
X154292252Y-80947356D01*
G37*
G36*
X150911760Y-80947356D02*
G01*
X151050684Y-80947356D01*
X151050684Y-81213628D01*
X151050684Y-81479899D01*
X150911760Y-81479899D01*
X150772835Y-81479899D01*
X150772835Y-81618824D01*
X150772835Y-81757748D01*
X150645488Y-81757748D01*
X150518141Y-81757748D01*
X150518141Y-81618824D01*
X150518141Y-81479899D01*
X150379216Y-81479899D01*
X150240292Y-81479899D01*
X150240292Y-81339820D01*
X150240292Y-81199740D01*
X150373428Y-81206684D01*
X150506564Y-81213628D01*
X150513508Y-81346764D01*
X150520452Y-81479899D01*
X150646643Y-81479899D01*
X150772835Y-81479899D01*
X150772835Y-81213628D01*
X150772835Y-80947356D01*
X150911760Y-80947356D01*
G37*
G36*
X155658341Y-84177347D02*
G01*
X155658341Y-84443619D01*
X155380493Y-84443619D01*
X155102644Y-84443619D01*
X155102644Y-84316271D01*
X155102644Y-84188924D01*
X155241568Y-84188924D01*
X155380493Y-84188924D01*
X155380493Y-84050000D01*
X155380493Y-83911075D01*
X155519417Y-83911075D01*
X155658341Y-83911075D01*
X155658341Y-84177347D01*
G37*
G36*
X150240292Y-82973336D02*
G01*
X150240292Y-83100683D01*
X150380372Y-83100683D01*
X150518141Y-83100683D01*
X150518141Y-83366955D01*
X150518141Y-83633227D01*
X150379216Y-83633227D01*
X150240292Y-83633227D01*
X150240292Y-83507035D01*
X150240292Y-83380843D01*
X150107156Y-83373899D01*
X149974020Y-83366955D01*
X149967474Y-83106472D01*
X149960927Y-82845989D01*
X150100609Y-82845989D01*
X150240292Y-82845989D01*
X150240292Y-82973336D01*
G37*
G36*
X155913036Y-84594120D02*
G01*
X155913036Y-84721467D01*
X155785689Y-84721467D01*
X155658341Y-84721467D01*
X155658341Y-84594120D01*
X155658341Y-84466773D01*
X155785689Y-84466773D01*
X155913036Y-84466773D01*
X155913036Y-84594120D01*
G37*
G36*
X148086965Y-83365745D02*
G01*
X148086965Y-83630807D01*
X147965406Y-83637805D01*
X147919147Y-83639885D01*
X147857804Y-83640461D01*
X147826482Y-83637649D01*
X147819638Y-83624668D01*
X147812062Y-83576224D01*
X147809116Y-83505668D01*
X147809116Y-83380843D01*
X147675980Y-83373899D01*
X147542844Y-83366955D01*
X147535900Y-83233819D01*
X147528956Y-83100683D01*
X147807961Y-83100683D01*
X148086965Y-83100683D01*
X148086965Y-83365745D01*
G37*
G36*
X156432644Y-82840081D02*
G01*
X156459136Y-82844059D01*
X156462837Y-82857385D01*
X156467081Y-82906468D01*
X156468733Y-82977195D01*
X156468733Y-83100683D01*
X156329809Y-83100683D01*
X156190885Y-83100683D01*
X156190885Y-82975479D01*
X156190885Y-82850275D01*
X156320211Y-82842343D01*
X156374368Y-82839937D01*
X156432644Y-82840081D01*
G37*
G36*
X155380493Y-82429216D02*
G01*
X155380493Y-82568140D01*
X155519417Y-82568140D01*
X155658341Y-82568140D01*
X155658341Y-82429216D01*
X155658341Y-82290291D01*
X155924613Y-82290291D01*
X156190885Y-82290291D01*
X156190885Y-82556563D01*
X156190885Y-82822835D01*
X156051960Y-82822835D01*
X155913036Y-82822835D01*
X155913036Y-82695487D01*
X155913036Y-82568140D01*
X155785689Y-82568140D01*
X155658341Y-82568140D01*
X155658341Y-82694277D01*
X155658341Y-82820415D01*
X155536782Y-82827413D01*
X155490524Y-82829494D01*
X155429180Y-82830069D01*
X155397858Y-82827257D01*
X155390928Y-82813875D01*
X155383412Y-82765027D01*
X155380493Y-82694121D01*
X155380493Y-82568140D01*
X155241568Y-82568140D01*
X155102644Y-82568140D01*
X155102644Y-82429216D01*
X155102644Y-82290291D01*
X155241568Y-82290291D01*
X155380493Y-82290291D01*
X155380493Y-82429216D01*
G37*
G36*
X156468733Y-82024020D02*
G01*
X156468733Y-82290291D01*
X156329809Y-82290291D01*
X156190885Y-82290291D01*
X156190885Y-82024020D01*
X156190885Y-81757748D01*
X156329809Y-81757748D01*
X156468733Y-81757748D01*
X156468733Y-82024020D01*
G37*
G36*
X155913036Y-81885095D02*
G01*
X155913036Y-82012443D01*
X155241568Y-82012443D01*
X154570101Y-82012443D01*
X154570101Y-81885095D01*
X154570101Y-81757748D01*
X155241568Y-81757748D01*
X155913036Y-81757748D01*
X155913036Y-81885095D01*
G37*
G36*
X156463204Y-80536372D02*
G01*
X156469253Y-81479899D01*
X155519677Y-81479899D01*
X154570101Y-81479899D01*
X154570101Y-80530323D01*
X154570101Y-79859115D01*
X154847949Y-79859115D01*
X154847949Y-80530583D01*
X154847949Y-81202051D01*
X155519417Y-81202051D01*
X156190885Y-81202051D01*
X156190885Y-80530583D01*
X156190885Y-79859115D01*
X155519417Y-79859115D01*
X154847949Y-79859115D01*
X154570101Y-79859115D01*
X154570101Y-79580747D01*
X155513628Y-79586796D01*
X156457156Y-79592844D01*
X156463167Y-80530583D01*
X156463204Y-80536372D01*
G37*
G36*
X151583227Y-81340975D02*
G01*
X151583227Y-81479899D01*
X151455880Y-81479899D01*
X151328533Y-81479899D01*
X151328533Y-81340975D01*
X151328533Y-81202051D01*
X151455880Y-81202051D01*
X151583227Y-81202051D01*
X151583227Y-81340975D01*
G37*
G36*
X149962443Y-80935779D02*
G01*
X149962443Y-81479899D01*
X149835096Y-81479899D01*
X149707749Y-81479899D01*
X149707749Y-80935779D01*
X149707749Y-80391659D01*
X149835096Y-80391659D01*
X149962443Y-80391659D01*
X149962443Y-80935779D01*
G37*
G36*
X149429900Y-81479899D02*
G01*
X148480324Y-81479899D01*
X147530748Y-81479899D01*
X147536796Y-80536372D01*
X147541137Y-79859115D01*
X147809116Y-79859115D01*
X147809116Y-80530583D01*
X147809116Y-81202051D01*
X148480584Y-81202051D01*
X149152051Y-81202051D01*
X149152051Y-80530583D01*
X149152051Y-79859115D01*
X148480584Y-79859115D01*
X147809116Y-79859115D01*
X147541137Y-79859115D01*
X147542844Y-79592844D01*
X148486372Y-79586796D01*
X149429900Y-79580747D01*
X149429900Y-80530323D01*
X149429900Y-80530583D01*
X149429900Y-81479899D01*
G37*
G36*
X150379216Y-79859115D02*
G01*
X150518141Y-79859115D01*
X150518141Y-79998040D01*
X150518141Y-80136964D01*
X150379216Y-80136964D01*
X150240292Y-80136964D01*
X150240292Y-79998040D01*
X150240292Y-79859115D01*
X150379216Y-79859115D01*
G37*
G36*
X150240292Y-79719036D02*
G01*
X150240292Y-79859115D01*
X150100212Y-79859115D01*
X149960132Y-79859115D01*
X149967076Y-79725980D01*
X149974020Y-79592844D01*
X150107156Y-79585900D01*
X150240292Y-79578956D01*
X150240292Y-79719036D01*
G37*
G36*
X155913036Y-87557839D02*
G01*
X155913036Y-87963035D01*
X155507840Y-87963035D01*
X155102644Y-87963035D01*
X155102644Y-87557839D01*
X155102644Y-87152643D01*
X155507840Y-87152643D01*
X155913036Y-87152643D01*
X155913036Y-87557839D01*
G37*
G36*
X151050684Y-87570572D02*
G01*
X151050684Y-87710652D01*
X150917548Y-87703708D01*
X150784412Y-87696764D01*
X150777468Y-87563628D01*
X150770524Y-87430492D01*
X150910604Y-87430492D01*
X151050684Y-87430492D01*
X151050684Y-87570572D01*
G37*
G36*
X151583227Y-87291568D02*
G01*
X151583227Y-87430492D01*
X151316956Y-87430492D01*
X151050684Y-87430492D01*
X151050684Y-87291568D01*
X151050684Y-87152643D01*
X151316956Y-87152643D01*
X151583227Y-87152643D01*
X151583227Y-87291568D01*
G37*
G36*
X151455880Y-86620100D02*
G01*
X151583227Y-86620100D01*
X151583227Y-86759024D01*
X151583227Y-86897949D01*
X151455880Y-86897949D01*
X151328533Y-86897949D01*
X151328533Y-86759024D01*
X151328533Y-86620100D01*
X151455880Y-86620100D01*
G37*
G36*
X151328533Y-86481176D02*
G01*
X151328533Y-86620100D01*
X151189608Y-86620100D01*
X151050684Y-86620100D01*
X151050684Y-86481176D01*
X151050684Y-86342251D01*
X151189608Y-86342251D01*
X151328533Y-86342251D01*
X151328533Y-86481176D01*
G37*
G36*
X151050684Y-85670784D02*
G01*
X151050684Y-85809708D01*
X150911760Y-85809708D01*
X150772835Y-85809708D01*
X150772835Y-85670784D01*
X150772835Y-85531859D01*
X150911760Y-85531859D01*
X151050684Y-85531859D01*
X151050684Y-85670784D01*
G37*
G36*
X150240292Y-85404512D02*
G01*
X150240292Y-85531859D01*
X150101368Y-85531859D01*
X149962443Y-85531859D01*
X149962443Y-85404512D01*
X149962443Y-85277165D01*
X150101368Y-85277165D01*
X150240292Y-85277165D01*
X150240292Y-85404512D01*
G37*
G36*
X149300573Y-85273519D02*
G01*
X149429900Y-85281451D01*
X149429900Y-85406655D01*
X149429900Y-85531859D01*
X149290976Y-85531859D01*
X149152051Y-85531859D01*
X149152051Y-85408371D01*
X149152798Y-85360001D01*
X149156281Y-85301894D01*
X149161649Y-85275235D01*
X149177166Y-85271968D01*
X149228207Y-85270762D01*
X149300573Y-85273519D01*
G37*
G36*
X148341659Y-85404512D02*
G01*
X148341659Y-85531859D01*
X148214312Y-85531859D01*
X148086965Y-85531859D01*
X148086965Y-85404512D01*
X148086965Y-85277165D01*
X148214312Y-85277165D01*
X148341659Y-85277165D01*
X148341659Y-85404512D01*
G37*
G36*
X149962443Y-85126663D02*
G01*
X149962443Y-85254011D01*
X149696172Y-85254011D01*
X149429900Y-85254011D01*
X149429900Y-85126663D01*
X149429900Y-84999316D01*
X149696172Y-84999316D01*
X149962443Y-84999316D01*
X149962443Y-85126663D01*
G37*
G36*
X150482052Y-84460865D02*
G01*
X150508543Y-84464843D01*
X150512244Y-84478168D01*
X150516488Y-84527252D01*
X150518141Y-84597979D01*
X150518141Y-84721467D01*
X150379216Y-84721467D01*
X150240292Y-84721467D01*
X150240292Y-84596263D01*
X150240292Y-84471059D01*
X150369619Y-84463127D01*
X150423775Y-84460721D01*
X150482052Y-84460865D01*
G37*
G36*
X149835064Y-84463127D02*
G01*
X149962443Y-84471059D01*
X149962443Y-84596263D01*
X149962443Y-84721467D01*
X149835096Y-84721467D01*
X149707749Y-84721467D01*
X149707717Y-84588332D01*
X149707686Y-84455196D01*
X149835064Y-84463127D01*
G37*
G36*
X151583259Y-82967548D02*
G01*
X151583227Y-83100683D01*
X151861076Y-83100683D01*
X152138925Y-83100683D01*
X152138925Y-82972181D01*
X152138925Y-82843678D01*
X152272060Y-82850622D01*
X152405196Y-82857566D01*
X152412195Y-82979125D01*
X152419193Y-83100683D01*
X152545331Y-83100683D01*
X152671468Y-83100683D01*
X152671468Y-83239608D01*
X152671468Y-83378532D01*
X152810392Y-83378532D01*
X152949317Y-83378532D01*
X152949317Y-83644804D01*
X152949317Y-83911075D01*
X152810392Y-83911075D01*
X152671468Y-83911075D01*
X152671468Y-84050000D01*
X152671468Y-84188924D01*
X152544121Y-84188924D01*
X152416773Y-84188924D01*
X152416742Y-83916864D01*
X152416710Y-83644804D01*
X152544089Y-83652735D01*
X152671468Y-83660667D01*
X152671468Y-83520026D01*
X152671468Y-83379386D01*
X152133136Y-83373170D01*
X151594804Y-83366955D01*
X151592687Y-83239608D01*
X151590569Y-83112260D01*
X151459551Y-83105316D01*
X151328533Y-83098372D01*
X151328533Y-82974324D01*
X151328533Y-82850275D01*
X151455912Y-82842343D01*
X151583290Y-82834412D01*
X151583259Y-82967548D01*
G37*
G36*
X152134292Y-83780550D02*
G01*
X152141236Y-83911075D01*
X152000000Y-83911075D01*
X151858765Y-83911075D01*
X151865709Y-83780550D01*
X151872653Y-83650025D01*
X152000000Y-83650025D01*
X152127348Y-83650025D01*
X152134292Y-83780550D01*
G37*
G36*
X154037557Y-83224172D02*
G01*
X154036393Y-83272259D01*
X154030793Y-83332951D01*
X154022121Y-83363096D01*
X154006942Y-83368961D01*
X153955255Y-83375848D01*
X153883197Y-83378532D01*
X153759709Y-83378532D01*
X153759709Y-83239608D01*
X153759709Y-83100683D01*
X153898633Y-83100683D01*
X154037557Y-83100683D01*
X154037557Y-83224172D01*
G37*
G36*
X153191076Y-82840081D02*
G01*
X153217568Y-82844059D01*
X153221269Y-82857385D01*
X153225513Y-82906468D01*
X153227165Y-82977195D01*
X153227165Y-83100683D01*
X153088241Y-83100683D01*
X152949317Y-83100683D01*
X152949317Y-82975479D01*
X152949317Y-82850275D01*
X153078644Y-82842343D01*
X153132800Y-82839937D01*
X153191076Y-82840081D01*
G37*
G36*
X153082452Y-82294924D02*
G01*
X153215588Y-82301868D01*
X153222838Y-82402922D01*
X153224200Y-82427691D01*
X153223847Y-82494082D01*
X153217776Y-82536058D01*
X153210359Y-82546230D01*
X153164737Y-82562792D01*
X153077391Y-82568140D01*
X152949317Y-82568140D01*
X152949317Y-82428060D01*
X152949317Y-82287980D01*
X153082452Y-82294924D01*
G37*
G36*
X153227165Y-86743588D02*
G01*
X153226001Y-86791676D01*
X153220401Y-86852367D01*
X153211729Y-86882513D01*
X153196550Y-86888378D01*
X153144863Y-86895264D01*
X153072805Y-86897949D01*
X152949317Y-86897949D01*
X152949317Y-86759024D01*
X152949317Y-86620100D01*
X153088241Y-86620100D01*
X153227165Y-86620100D01*
X153227165Y-86743588D01*
G37*
G36*
X153481860Y-86214904D02*
G01*
X153481860Y-86342251D01*
X153354513Y-86342251D01*
X153227165Y-86342251D01*
X153227165Y-86214904D01*
X153227165Y-86087557D01*
X153354513Y-86087557D01*
X153481860Y-86087557D01*
X153481860Y-86214904D01*
G37*
G36*
X152949317Y-86214904D02*
G01*
X152949317Y-86342251D01*
X152810392Y-86342251D01*
X152671468Y-86342251D01*
X152671468Y-86214904D01*
X152671468Y-86087557D01*
X152810392Y-86087557D01*
X152949317Y-86087557D01*
X152949317Y-86214904D01*
G37*
G36*
X154847949Y-85670784D02*
G01*
X154847949Y-85809708D01*
X154709025Y-85809708D01*
X154570101Y-85809708D01*
X154570101Y-85670784D01*
X154570101Y-85531859D01*
X154710180Y-85531859D01*
X154847949Y-85531859D01*
X154847949Y-85670784D01*
G37*
G36*
X155107277Y-85132452D02*
G01*
X155110759Y-85177550D01*
X155123641Y-85243936D01*
X155143163Y-85268482D01*
X155154200Y-85269329D01*
X155206352Y-85271886D01*
X155276299Y-85274270D01*
X155380493Y-85277165D01*
X155380493Y-85404512D01*
X155380493Y-85531859D01*
X155114221Y-85531859D01*
X154850260Y-85531859D01*
X154843316Y-85398724D01*
X154839834Y-85353625D01*
X154826952Y-85287239D01*
X154807430Y-85262693D01*
X154796393Y-85261846D01*
X154744241Y-85259289D01*
X154674294Y-85256905D01*
X154570101Y-85254011D01*
X154570101Y-85126663D01*
X154570101Y-84999316D01*
X154835217Y-84999316D01*
X155100333Y-84999316D01*
X155107277Y-85132452D01*
G37*
G36*
X149429900Y-86760180D02*
G01*
X149429900Y-86900260D01*
X149296764Y-86893316D01*
X149163628Y-86886372D01*
X149156684Y-86753236D01*
X149149740Y-86620100D01*
X149289820Y-86620100D01*
X149429900Y-86620100D01*
X149429900Y-86760180D01*
G37*
G36*
X152949317Y-80808432D02*
G01*
X152949317Y-80947356D01*
X152810392Y-80947356D01*
X152671468Y-80947356D01*
X152671468Y-80808432D01*
X152671468Y-80669507D01*
X152810392Y-80669507D01*
X152949317Y-80669507D01*
X152949317Y-80808432D01*
G37*
G36*
X155913036Y-80542160D02*
G01*
X155913036Y-80947356D01*
X155507840Y-80947356D01*
X155102644Y-80947356D01*
X155102644Y-80542160D01*
X155102644Y-80136964D01*
X155507840Y-80136964D01*
X155913036Y-80136964D01*
X155913036Y-80542160D01*
G37*
G36*
X148897357Y-80542160D02*
G01*
X148897357Y-80947356D01*
X148492161Y-80947356D01*
X148086965Y-80947356D01*
X148086965Y-80542160D01*
X148086965Y-80136964D01*
X148492161Y-80136964D01*
X148897357Y-80136964D01*
X148897357Y-80542160D01*
G37*
%LPC*%
D13*
X126000000Y-90000000D03*
X174000000Y-90000000D03*
X174000000Y-55000000D03*
D14*
X137700000Y-68900000D03*
X137700000Y-63900000D03*
X134250000Y-56140000D03*
X134250000Y-63760000D03*
X130750000Y-56150000D03*
X130750000Y-61150000D03*
X137800000Y-56200000D03*
X137800000Y-61200000D03*
D15*
X172200000Y-59650000D03*
D16*
X172200000Y-62190000D03*
X172200000Y-64730000D03*
X172200000Y-67270000D03*
X172200000Y-69810000D03*
X172200000Y-72350000D03*
D17*
X127250000Y-56010000D03*
D18*
X127250000Y-58550000D03*
X127250000Y-61090000D03*
X127250000Y-63630000D03*
D14*
X168100000Y-81800000D03*
X168100000Y-86800000D03*
D19*
X141320000Y-53755000D03*
D20*
X141320000Y-56295000D03*
X141320000Y-58835000D03*
X141320000Y-61375000D03*
X141320000Y-63915000D03*
X141320000Y-66455000D03*
X141320000Y-68995000D03*
X141320000Y-71535000D03*
X141320000Y-74075000D03*
X141320000Y-76615000D03*
X141320000Y-79155000D03*
X141320000Y-81695000D03*
X141320000Y-84235000D03*
X141320000Y-86775000D03*
X141320000Y-89315000D03*
X164180000Y-89315000D03*
X164180000Y-86775000D03*
X164180000Y-84235000D03*
X164180000Y-81695000D03*
X164180000Y-79155000D03*
X164180000Y-76615000D03*
X164180000Y-74075000D03*
X164180000Y-71535000D03*
X164180000Y-68995000D03*
X164180000Y-66455000D03*
X164180000Y-63915000D03*
X164180000Y-61375000D03*
X164180000Y-58835000D03*
X164180000Y-56295000D03*
X164180000Y-53755000D03*
D14*
X137800000Y-77000000D03*
X137800000Y-72000000D03*
X131000000Y-67500000D03*
X131000000Y-75100000D03*
D17*
X172250000Y-84140000D03*
D18*
X172250000Y-81600000D03*
X172250000Y-79060000D03*
X172250000Y-76520000D03*
D21*
X133000000Y-87800000D03*
X133000000Y-80200000D03*
%LPD*%
M02*
