M48
; DRILL file {KiCad 9.0.7} date 2026-03-18T00:55:13+0800
; FORMAT={-:-/ absolute / metric / decimal}
; #@! TF.CreationDate,2026-03-18T00:55:13+08:00
; #@! TF.GenerationSoftware,Kicad,Pcbnew,9.0.7
; #@! TF.FileFunction,Plated,1,2,PTH
FMAT,2
METRIC
; #@! TA.AperFunction,Plated,PTH,ViaDrill
T1C0.300
; #@! TA.AperFunction,Plated,PTH,ComponentDrill
T2C0.800
; #@! TA.AperFunction,Plated,PTH,ComponentDrill
T3C0.900
; #@! TA.AperFunction,Plated,PTH,ComponentDrill
T4C1.150
; #@! TA.AperFunction,Plated,PTH,ComponentDrill
T5C1.200
%
G90
G05
T1
X131.0Y-64.0
X133.0Y-77.0
X133.0Y-90.0
X144.0Y-55.0
X145.0Y-90.0
X161.0Y-90.0
X162.0Y-55.0
X170.0Y-65.0
X170.0Y-84.7
T2
X130.75Y-56.15
X130.75Y-61.15
X131.0Y-67.5
X131.0Y-75.1
X134.25Y-56.14
X134.25Y-63.76
X137.7Y-63.9
X137.7Y-68.9
X137.8Y-56.2
X137.8Y-61.2
X137.8Y-72.0
X137.8Y-77.0
X168.1Y-81.8
X168.1Y-86.8
T3
X133.0Y-80.2
X133.0Y-87.8
X141.32Y-53.755
X141.32Y-56.295
X141.32Y-58.835
X141.32Y-61.375
X141.32Y-63.915
X141.32Y-66.455
X141.32Y-68.995
X141.32Y-71.535
X141.32Y-74.075
X141.32Y-76.615
X141.32Y-79.155
X141.32Y-81.695
X141.32Y-84.235
X141.32Y-86.775
X141.32Y-89.315
X164.18Y-53.755
X164.18Y-56.295
X164.18Y-58.835
X164.18Y-61.375
X164.18Y-63.915
X164.18Y-66.455
X164.18Y-68.995
X164.18Y-71.535
X164.18Y-74.075
X164.18Y-76.615
X164.18Y-79.155
X164.18Y-81.695
X164.18Y-84.235
X164.18Y-86.775
X164.18Y-89.315
T4
X172.2Y-59.65
X172.2Y-62.19
X172.2Y-64.73
X172.2Y-67.27
X172.2Y-69.81
X172.2Y-72.35
T5
X127.25Y-56.01
X127.25Y-58.55
X127.25Y-61.09
X127.25Y-63.63
X172.25Y-76.52
X172.25Y-79.06
X172.25Y-81.6
X172.25Y-84.14
M30
