%TF.GenerationSoftware,KiCad,Pcbnew,9.0.7*%
%TF.CreationDate,2026-03-18T00:55:13+08:00*%
%TF.ProjectId,chemistrylabreport,6368656d-6973-4747-9279-6c6162726570,rev?*%
%TF.SameCoordinates,Original*%
%TF.FileFunction,Drillmap*%
%TF.FilePolarity,Positive*%
%FSLAX45Y45*%
G04 Gerber Fmt 4.5, Leading zero omitted, Abs format (unit mm)*
G04 Created by KiCad (PCBNEW 9.0.7) date 2026-03-18 00:55:13*
%MOMM*%
%LPD*%
G01*
G04 APERTURE LIST*
%ADD10C,0.200000*%
%ADD11C,0.100000*%
%ADD12C,0.115000*%
%ADD13C,0.120000*%
G04 APERTURE END LIST*
D10*
X12250000Y-5202500D02*
X17750000Y-5202500D01*
X17750000Y-9277500D01*
X12250000Y-9277500D01*
X12250000Y-5202500D01*
D11*
X13085000Y-6385000D02*
X13115000Y-6415000D01*
X13115000Y-6385000D02*
X13085000Y-6415000D01*
X13285000Y-7685000D02*
X13315000Y-7715000D01*
X13315000Y-7685000D02*
X13285000Y-7715000D01*
X13285000Y-8985000D02*
X13315000Y-9015000D01*
X13315000Y-8985000D02*
X13285000Y-9015000D01*
X14385000Y-5485000D02*
X14415000Y-5515000D01*
X14415000Y-5485000D02*
X14385000Y-5515000D01*
X14485000Y-8985000D02*
X14515000Y-9015000D01*
X14515000Y-8985000D02*
X14485000Y-9015000D01*
X16085000Y-8985000D02*
X16115000Y-9015000D01*
X16115000Y-8985000D02*
X16085000Y-9015000D01*
X16185000Y-5485000D02*
X16215000Y-5515000D01*
X16215000Y-5485000D02*
X16185000Y-5515000D01*
X16985000Y-6485000D02*
X17015000Y-6515000D01*
X17015000Y-6485000D02*
X16985000Y-6515000D01*
X16985000Y-8455000D02*
X17015000Y-8485000D01*
X17015000Y-8455000D02*
X16985000Y-8485000D01*
X13115000Y-5615000D02*
G75*
G02*
X13035000Y-5615000I-40000J0D01*
G01*
X13035000Y-5615000D02*
G75*
G02*
X13115000Y-5615000I40000J0D01*
G01*
X13115000Y-6115000D02*
G75*
G02*
X13035000Y-6115000I-40000J0D01*
G01*
X13035000Y-6115000D02*
G75*
G02*
X13115000Y-6115000I40000J0D01*
G01*
X13140000Y-6750000D02*
G75*
G02*
X13060000Y-6750000I-40000J0D01*
G01*
X13060000Y-6750000D02*
G75*
G02*
X13140000Y-6750000I40000J0D01*
G01*
X13140000Y-7510000D02*
G75*
G02*
X13060000Y-7510000I-40000J0D01*
G01*
X13060000Y-7510000D02*
G75*
G02*
X13140000Y-7510000I40000J0D01*
G01*
X13465000Y-5614000D02*
G75*
G02*
X13385000Y-5614000I-40000J0D01*
G01*
X13385000Y-5614000D02*
G75*
G02*
X13465000Y-5614000I40000J0D01*
G01*
X13465000Y-6376000D02*
G75*
G02*
X13385000Y-6376000I-40000J0D01*
G01*
X13385000Y-6376000D02*
G75*
G02*
X13465000Y-6376000I40000J0D01*
G01*
X13810000Y-6390000D02*
G75*
G02*
X13730000Y-6390000I-40000J0D01*
G01*
X13730000Y-6390000D02*
G75*
G02*
X13810000Y-6390000I40000J0D01*
G01*
X13810000Y-6890000D02*
G75*
G02*
X13730000Y-6890000I-40000J0D01*
G01*
X13730000Y-6890000D02*
G75*
G02*
X13810000Y-6890000I40000J0D01*
G01*
X13820000Y-5620000D02*
G75*
G02*
X13740000Y-5620000I-40000J0D01*
G01*
X13740000Y-5620000D02*
G75*
G02*
X13820000Y-5620000I40000J0D01*
G01*
X13820000Y-6120000D02*
G75*
G02*
X13740000Y-6120000I-40000J0D01*
G01*
X13740000Y-6120000D02*
G75*
G02*
X13820000Y-6120000I40000J0D01*
G01*
X13820000Y-7200000D02*
G75*
G02*
X13740000Y-7200000I-40000J0D01*
G01*
X13740000Y-7200000D02*
G75*
G02*
X13820000Y-7200000I40000J0D01*
G01*
X13820000Y-7700000D02*
G75*
G02*
X13740000Y-7700000I-40000J0D01*
G01*
X13740000Y-7700000D02*
G75*
G02*
X13820000Y-7700000I40000J0D01*
G01*
X16850000Y-8180000D02*
G75*
G02*
X16770000Y-8180000I-40000J0D01*
G01*
X16770000Y-8180000D02*
G75*
G02*
X16850000Y-8180000I40000J0D01*
G01*
X16850000Y-8680000D02*
G75*
G02*
X16770000Y-8680000I-40000J0D01*
G01*
X16770000Y-8680000D02*
G75*
G02*
X16850000Y-8680000I40000J0D01*
G01*
X13300000Y-7975000D02*
X13300000Y-8065000D01*
X13255000Y-8020000D02*
X13345000Y-8020000D01*
X13300000Y-8735000D02*
X13300000Y-8825000D01*
X13255000Y-8780000D02*
X13345000Y-8780000D01*
X14132000Y-5330500D02*
X14132000Y-5420500D01*
X14087000Y-5375500D02*
X14177000Y-5375500D01*
X14132000Y-5584500D02*
X14132000Y-5674500D01*
X14087000Y-5629500D02*
X14177000Y-5629500D01*
X14132000Y-5838500D02*
X14132000Y-5928500D01*
X14087000Y-5883500D02*
X14177000Y-5883500D01*
X14132000Y-6092500D02*
X14132000Y-6182500D01*
X14087000Y-6137500D02*
X14177000Y-6137500D01*
X14132000Y-6346500D02*
X14132000Y-6436500D01*
X14087000Y-6391500D02*
X14177000Y-6391500D01*
X14132000Y-6600500D02*
X14132000Y-6690500D01*
X14087000Y-6645500D02*
X14177000Y-6645500D01*
X14132000Y-6854500D02*
X14132000Y-6944500D01*
X14087000Y-6899500D02*
X14177000Y-6899500D01*
X14132000Y-7108500D02*
X14132000Y-7198500D01*
X14087000Y-7153500D02*
X14177000Y-7153500D01*
X14132000Y-7362500D02*
X14132000Y-7452500D01*
X14087000Y-7407500D02*
X14177000Y-7407500D01*
X14132000Y-7616500D02*
X14132000Y-7706500D01*
X14087000Y-7661500D02*
X14177000Y-7661500D01*
X14132000Y-7870500D02*
X14132000Y-7960500D01*
X14087000Y-7915500D02*
X14177000Y-7915500D01*
X14132000Y-8124500D02*
X14132000Y-8214500D01*
X14087000Y-8169500D02*
X14177000Y-8169500D01*
X14132000Y-8378500D02*
X14132000Y-8468500D01*
X14087000Y-8423500D02*
X14177000Y-8423500D01*
X14132000Y-8632500D02*
X14132000Y-8722500D01*
X14087000Y-8677500D02*
X14177000Y-8677500D01*
X14132000Y-8886500D02*
X14132000Y-8976500D01*
X14087000Y-8931500D02*
X14177000Y-8931500D01*
X16418000Y-5330500D02*
X16418000Y-5420500D01*
X16373000Y-5375500D02*
X16463000Y-5375500D01*
X16418000Y-5584500D02*
X16418000Y-5674500D01*
X16373000Y-5629500D02*
X16463000Y-5629500D01*
X16418000Y-5838500D02*
X16418000Y-5928500D01*
X16373000Y-5883500D02*
X16463000Y-5883500D01*
X16418000Y-6092500D02*
X16418000Y-6182500D01*
X16373000Y-6137500D02*
X16463000Y-6137500D01*
X16418000Y-6346500D02*
X16418000Y-6436500D01*
X16373000Y-6391500D02*
X16463000Y-6391500D01*
X16418000Y-6600500D02*
X16418000Y-6690500D01*
X16373000Y-6645500D02*
X16463000Y-6645500D01*
X16418000Y-6854500D02*
X16418000Y-6944500D01*
X16373000Y-6899500D02*
X16463000Y-6899500D01*
X16418000Y-7108500D02*
X16418000Y-7198500D01*
X16373000Y-7153500D02*
X16463000Y-7153500D01*
X16418000Y-7362500D02*
X16418000Y-7452500D01*
X16373000Y-7407500D02*
X16463000Y-7407500D01*
X16418000Y-7616500D02*
X16418000Y-7706500D01*
X16373000Y-7661500D02*
X16463000Y-7661500D01*
X16418000Y-7870500D02*
X16418000Y-7960500D01*
X16373000Y-7915500D02*
X16463000Y-7915500D01*
X16418000Y-8124500D02*
X16418000Y-8214500D01*
X16373000Y-8169500D02*
X16463000Y-8169500D01*
X16418000Y-8378500D02*
X16418000Y-8468500D01*
X16373000Y-8423500D02*
X16463000Y-8423500D01*
X16418000Y-8632500D02*
X16418000Y-8722500D01*
X16373000Y-8677500D02*
X16463000Y-8677500D01*
X16418000Y-8886500D02*
X16418000Y-8976500D01*
X16373000Y-8931500D02*
X16463000Y-8931500D01*
D12*
X17260659Y-6005659D02*
X17260659Y-5924341D01*
X17179341Y-5924341D01*
X17179341Y-6005659D01*
X17260659Y-6005659D01*
X17260659Y-6259659D02*
X17260659Y-6178341D01*
X17179341Y-6178341D01*
X17179341Y-6259659D01*
X17260659Y-6259659D01*
X17260659Y-6513659D02*
X17260659Y-6432341D01*
X17179341Y-6432341D01*
X17179341Y-6513659D01*
X17260659Y-6513659D01*
X17260659Y-6767659D02*
X17260659Y-6686341D01*
X17179341Y-6686341D01*
X17179341Y-6767659D01*
X17260659Y-6767659D01*
X17260659Y-7021659D02*
X17260659Y-6940341D01*
X17179341Y-6940341D01*
X17179341Y-7021659D01*
X17260659Y-7021659D01*
X17260659Y-7275659D02*
X17260659Y-7194341D01*
X17179341Y-7194341D01*
X17179341Y-7275659D01*
X17260659Y-7275659D01*
D13*
X12725000Y-5661000D02*
X12785000Y-5601000D01*
X12725000Y-5541000D01*
X12665000Y-5601000D01*
X12725000Y-5661000D01*
X12725000Y-5915000D02*
X12785000Y-5855000D01*
X12725000Y-5795000D01*
X12665000Y-5855000D01*
X12725000Y-5915000D01*
X12725000Y-6169000D02*
X12785000Y-6109000D01*
X12725000Y-6049000D01*
X12665000Y-6109000D01*
X12725000Y-6169000D01*
X12725000Y-6423000D02*
X12785000Y-6363000D01*
X12725000Y-6303000D01*
X12665000Y-6363000D01*
X12725000Y-6423000D01*
X17225000Y-7712000D02*
X17285000Y-7652000D01*
X17225000Y-7592000D01*
X17165000Y-7652000D01*
X17225000Y-7712000D01*
X17225000Y-7966000D02*
X17285000Y-7906000D01*
X17225000Y-7846000D01*
X17165000Y-7906000D01*
X17225000Y-7966000D01*
X17225000Y-8220000D02*
X17285000Y-8160000D01*
X17225000Y-8100000D01*
X17165000Y-8160000D01*
X17225000Y-8220000D01*
X17225000Y-8474000D02*
X17285000Y-8414000D01*
X17225000Y-8354000D01*
X17165000Y-8414000D01*
X17225000Y-8474000D01*
D10*
X12500777Y-9598984D02*
X12500777Y-9398984D01*
X12500777Y-9398984D02*
X12548396Y-9398984D01*
X12548396Y-9398984D02*
X12576967Y-9408508D01*
X12576967Y-9408508D02*
X12596015Y-9427555D01*
X12596015Y-9427555D02*
X12605539Y-9446603D01*
X12605539Y-9446603D02*
X12615062Y-9484698D01*
X12615062Y-9484698D02*
X12615062Y-9513270D01*
X12615062Y-9513270D02*
X12605539Y-9551365D01*
X12605539Y-9551365D02*
X12596015Y-9570412D01*
X12596015Y-9570412D02*
X12576967Y-9589460D01*
X12576967Y-9589460D02*
X12548396Y-9598984D01*
X12548396Y-9598984D02*
X12500777Y-9598984D01*
X12700777Y-9598984D02*
X12700777Y-9465650D01*
X12700777Y-9503746D02*
X12710301Y-9484698D01*
X12710301Y-9484698D02*
X12719824Y-9475174D01*
X12719824Y-9475174D02*
X12738872Y-9465650D01*
X12738872Y-9465650D02*
X12757920Y-9465650D01*
X12824586Y-9598984D02*
X12824586Y-9465650D01*
X12824586Y-9398984D02*
X12815062Y-9408508D01*
X12815062Y-9408508D02*
X12824586Y-9418031D01*
X12824586Y-9418031D02*
X12834110Y-9408508D01*
X12834110Y-9408508D02*
X12824586Y-9398984D01*
X12824586Y-9398984D02*
X12824586Y-9418031D01*
X12948396Y-9598984D02*
X12929348Y-9589460D01*
X12929348Y-9589460D02*
X12919824Y-9570412D01*
X12919824Y-9570412D02*
X12919824Y-9398984D01*
X13053158Y-9598984D02*
X13034110Y-9589460D01*
X13034110Y-9589460D02*
X13024586Y-9570412D01*
X13024586Y-9570412D02*
X13024586Y-9398984D01*
X13281729Y-9598984D02*
X13281729Y-9398984D01*
X13281729Y-9398984D02*
X13348396Y-9541841D01*
X13348396Y-9541841D02*
X13415062Y-9398984D01*
X13415062Y-9398984D02*
X13415062Y-9598984D01*
X13596015Y-9598984D02*
X13596015Y-9494222D01*
X13596015Y-9494222D02*
X13586491Y-9475174D01*
X13586491Y-9475174D02*
X13567443Y-9465650D01*
X13567443Y-9465650D02*
X13529348Y-9465650D01*
X13529348Y-9465650D02*
X13510301Y-9475174D01*
X13596015Y-9589460D02*
X13576967Y-9598984D01*
X13576967Y-9598984D02*
X13529348Y-9598984D01*
X13529348Y-9598984D02*
X13510301Y-9589460D01*
X13510301Y-9589460D02*
X13500777Y-9570412D01*
X13500777Y-9570412D02*
X13500777Y-9551365D01*
X13500777Y-9551365D02*
X13510301Y-9532317D01*
X13510301Y-9532317D02*
X13529348Y-9522793D01*
X13529348Y-9522793D02*
X13576967Y-9522793D01*
X13576967Y-9522793D02*
X13596015Y-9513270D01*
X13691253Y-9465650D02*
X13691253Y-9665650D01*
X13691253Y-9475174D02*
X13710301Y-9465650D01*
X13710301Y-9465650D02*
X13748396Y-9465650D01*
X13748396Y-9465650D02*
X13767443Y-9475174D01*
X13767443Y-9475174D02*
X13776967Y-9484698D01*
X13776967Y-9484698D02*
X13786491Y-9503746D01*
X13786491Y-9503746D02*
X13786491Y-9560889D01*
X13786491Y-9560889D02*
X13776967Y-9579936D01*
X13776967Y-9579936D02*
X13767443Y-9589460D01*
X13767443Y-9589460D02*
X13748396Y-9598984D01*
X13748396Y-9598984D02*
X13710301Y-9598984D01*
X13710301Y-9598984D02*
X13691253Y-9589460D01*
X13872205Y-9579936D02*
X13881729Y-9589460D01*
X13881729Y-9589460D02*
X13872205Y-9598984D01*
X13872205Y-9598984D02*
X13862682Y-9589460D01*
X13862682Y-9589460D02*
X13872205Y-9579936D01*
X13872205Y-9579936D02*
X13872205Y-9598984D01*
X13872205Y-9475174D02*
X13881729Y-9484698D01*
X13881729Y-9484698D02*
X13872205Y-9494222D01*
X13872205Y-9494222D02*
X13862682Y-9484698D01*
X13862682Y-9484698D02*
X13872205Y-9475174D01*
X13872205Y-9475174D02*
X13872205Y-9494222D01*
D11*
X12210000Y-9912500D02*
X12240000Y-9942500D01*
X12240000Y-9912500D02*
X12210000Y-9942500D01*
D10*
X12538872Y-9818984D02*
X12557920Y-9818984D01*
X12557920Y-9818984D02*
X12576967Y-9828508D01*
X12576967Y-9828508D02*
X12586491Y-9838031D01*
X12586491Y-9838031D02*
X12596015Y-9857079D01*
X12596015Y-9857079D02*
X12605539Y-9895174D01*
X12605539Y-9895174D02*
X12605539Y-9942793D01*
X12605539Y-9942793D02*
X12596015Y-9980889D01*
X12596015Y-9980889D02*
X12586491Y-9999936D01*
X12586491Y-9999936D02*
X12576967Y-10009460D01*
X12576967Y-10009460D02*
X12557920Y-10018984D01*
X12557920Y-10018984D02*
X12538872Y-10018984D01*
X12538872Y-10018984D02*
X12519824Y-10009460D01*
X12519824Y-10009460D02*
X12510301Y-9999936D01*
X12510301Y-9999936D02*
X12500777Y-9980889D01*
X12500777Y-9980889D02*
X12491253Y-9942793D01*
X12491253Y-9942793D02*
X12491253Y-9895174D01*
X12491253Y-9895174D02*
X12500777Y-9857079D01*
X12500777Y-9857079D02*
X12510301Y-9838031D01*
X12510301Y-9838031D02*
X12519824Y-9828508D01*
X12519824Y-9828508D02*
X12538872Y-9818984D01*
X12691253Y-9999936D02*
X12700777Y-10009460D01*
X12700777Y-10009460D02*
X12691253Y-10018984D01*
X12691253Y-10018984D02*
X12681729Y-10009460D01*
X12681729Y-10009460D02*
X12691253Y-9999936D01*
X12691253Y-9999936D02*
X12691253Y-10018984D01*
X12767443Y-9818984D02*
X12891253Y-9818984D01*
X12891253Y-9818984D02*
X12824586Y-9895174D01*
X12824586Y-9895174D02*
X12853158Y-9895174D01*
X12853158Y-9895174D02*
X12872205Y-9904698D01*
X12872205Y-9904698D02*
X12881729Y-9914222D01*
X12881729Y-9914222D02*
X12891253Y-9933270D01*
X12891253Y-9933270D02*
X12891253Y-9980889D01*
X12891253Y-9980889D02*
X12881729Y-9999936D01*
X12881729Y-9999936D02*
X12872205Y-10009460D01*
X12872205Y-10009460D02*
X12853158Y-10018984D01*
X12853158Y-10018984D02*
X12796015Y-10018984D01*
X12796015Y-10018984D02*
X12776967Y-10009460D01*
X12776967Y-10009460D02*
X12767443Y-9999936D01*
X13015062Y-9818984D02*
X13034110Y-9818984D01*
X13034110Y-9818984D02*
X13053158Y-9828508D01*
X13053158Y-9828508D02*
X13062682Y-9838031D01*
X13062682Y-9838031D02*
X13072205Y-9857079D01*
X13072205Y-9857079D02*
X13081729Y-9895174D01*
X13081729Y-9895174D02*
X13081729Y-9942793D01*
X13081729Y-9942793D02*
X13072205Y-9980889D01*
X13072205Y-9980889D02*
X13062682Y-9999936D01*
X13062682Y-9999936D02*
X13053158Y-10009460D01*
X13053158Y-10009460D02*
X13034110Y-10018984D01*
X13034110Y-10018984D02*
X13015062Y-10018984D01*
X13015062Y-10018984D02*
X12996015Y-10009460D01*
X12996015Y-10009460D02*
X12986491Y-9999936D01*
X12986491Y-9999936D02*
X12976967Y-9980889D01*
X12976967Y-9980889D02*
X12967443Y-9942793D01*
X12967443Y-9942793D02*
X12967443Y-9895174D01*
X12967443Y-9895174D02*
X12976967Y-9857079D01*
X12976967Y-9857079D02*
X12986491Y-9838031D01*
X12986491Y-9838031D02*
X12996015Y-9828508D01*
X12996015Y-9828508D02*
X13015062Y-9818984D01*
X13205539Y-9818984D02*
X13224586Y-9818984D01*
X13224586Y-9818984D02*
X13243634Y-9828508D01*
X13243634Y-9828508D02*
X13253158Y-9838031D01*
X13253158Y-9838031D02*
X13262682Y-9857079D01*
X13262682Y-9857079D02*
X13272205Y-9895174D01*
X13272205Y-9895174D02*
X13272205Y-9942793D01*
X13272205Y-9942793D02*
X13262682Y-9980889D01*
X13262682Y-9980889D02*
X13253158Y-9999936D01*
X13253158Y-9999936D02*
X13243634Y-10009460D01*
X13243634Y-10009460D02*
X13224586Y-10018984D01*
X13224586Y-10018984D02*
X13205539Y-10018984D01*
X13205539Y-10018984D02*
X13186491Y-10009460D01*
X13186491Y-10009460D02*
X13176967Y-9999936D01*
X13176967Y-9999936D02*
X13167443Y-9980889D01*
X13167443Y-9980889D02*
X13157920Y-9942793D01*
X13157920Y-9942793D02*
X13157920Y-9895174D01*
X13157920Y-9895174D02*
X13167443Y-9857079D01*
X13167443Y-9857079D02*
X13176967Y-9838031D01*
X13176967Y-9838031D02*
X13186491Y-9828508D01*
X13186491Y-9828508D02*
X13205539Y-9818984D01*
X13357920Y-10018984D02*
X13357920Y-9885650D01*
X13357920Y-9904698D02*
X13367443Y-9895174D01*
X13367443Y-9895174D02*
X13386491Y-9885650D01*
X13386491Y-9885650D02*
X13415063Y-9885650D01*
X13415063Y-9885650D02*
X13434110Y-9895174D01*
X13434110Y-9895174D02*
X13443634Y-9914222D01*
X13443634Y-9914222D02*
X13443634Y-10018984D01*
X13443634Y-9914222D02*
X13453158Y-9895174D01*
X13453158Y-9895174D02*
X13472205Y-9885650D01*
X13472205Y-9885650D02*
X13500777Y-9885650D01*
X13500777Y-9885650D02*
X13519824Y-9895174D01*
X13519824Y-9895174D02*
X13529348Y-9914222D01*
X13529348Y-9914222D02*
X13529348Y-10018984D01*
X13624586Y-10018984D02*
X13624586Y-9885650D01*
X13624586Y-9904698D02*
X13634110Y-9895174D01*
X13634110Y-9895174D02*
X13653158Y-9885650D01*
X13653158Y-9885650D02*
X13681729Y-9885650D01*
X13681729Y-9885650D02*
X13700777Y-9895174D01*
X13700777Y-9895174D02*
X13710301Y-9914222D01*
X13710301Y-9914222D02*
X13710301Y-10018984D01*
X13710301Y-9914222D02*
X13719824Y-9895174D01*
X13719824Y-9895174D02*
X13738872Y-9885650D01*
X13738872Y-9885650D02*
X13767443Y-9885650D01*
X13767443Y-9885650D02*
X13786491Y-9895174D01*
X13786491Y-9895174D02*
X13796015Y-9914222D01*
X13796015Y-9914222D02*
X13796015Y-10018984D01*
X14186491Y-9809460D02*
X14015063Y-10066603D01*
X14443634Y-9818984D02*
X14462682Y-9818984D01*
X14462682Y-9818984D02*
X14481729Y-9828508D01*
X14481729Y-9828508D02*
X14491253Y-9838031D01*
X14491253Y-9838031D02*
X14500777Y-9857079D01*
X14500777Y-9857079D02*
X14510301Y-9895174D01*
X14510301Y-9895174D02*
X14510301Y-9942793D01*
X14510301Y-9942793D02*
X14500777Y-9980889D01*
X14500777Y-9980889D02*
X14491253Y-9999936D01*
X14491253Y-9999936D02*
X14481729Y-10009460D01*
X14481729Y-10009460D02*
X14462682Y-10018984D01*
X14462682Y-10018984D02*
X14443634Y-10018984D01*
X14443634Y-10018984D02*
X14424586Y-10009460D01*
X14424586Y-10009460D02*
X14415063Y-9999936D01*
X14415063Y-9999936D02*
X14405539Y-9980889D01*
X14405539Y-9980889D02*
X14396015Y-9942793D01*
X14396015Y-9942793D02*
X14396015Y-9895174D01*
X14396015Y-9895174D02*
X14405539Y-9857079D01*
X14405539Y-9857079D02*
X14415063Y-9838031D01*
X14415063Y-9838031D02*
X14424586Y-9828508D01*
X14424586Y-9828508D02*
X14443634Y-9818984D01*
X14596015Y-9999936D02*
X14605539Y-10009460D01*
X14605539Y-10009460D02*
X14596015Y-10018984D01*
X14596015Y-10018984D02*
X14586491Y-10009460D01*
X14586491Y-10009460D02*
X14596015Y-9999936D01*
X14596015Y-9999936D02*
X14596015Y-10018984D01*
X14729348Y-9818984D02*
X14748396Y-9818984D01*
X14748396Y-9818984D02*
X14767444Y-9828508D01*
X14767444Y-9828508D02*
X14776967Y-9838031D01*
X14776967Y-9838031D02*
X14786491Y-9857079D01*
X14786491Y-9857079D02*
X14796015Y-9895174D01*
X14796015Y-9895174D02*
X14796015Y-9942793D01*
X14796015Y-9942793D02*
X14786491Y-9980889D01*
X14786491Y-9980889D02*
X14776967Y-9999936D01*
X14776967Y-9999936D02*
X14767444Y-10009460D01*
X14767444Y-10009460D02*
X14748396Y-10018984D01*
X14748396Y-10018984D02*
X14729348Y-10018984D01*
X14729348Y-10018984D02*
X14710301Y-10009460D01*
X14710301Y-10009460D02*
X14700777Y-9999936D01*
X14700777Y-9999936D02*
X14691253Y-9980889D01*
X14691253Y-9980889D02*
X14681729Y-9942793D01*
X14681729Y-9942793D02*
X14681729Y-9895174D01*
X14681729Y-9895174D02*
X14691253Y-9857079D01*
X14691253Y-9857079D02*
X14700777Y-9838031D01*
X14700777Y-9838031D02*
X14710301Y-9828508D01*
X14710301Y-9828508D02*
X14729348Y-9818984D01*
X14986491Y-10018984D02*
X14872206Y-10018984D01*
X14929348Y-10018984D02*
X14929348Y-9818984D01*
X14929348Y-9818984D02*
X14910301Y-9847555D01*
X14910301Y-9847555D02*
X14891253Y-9866603D01*
X14891253Y-9866603D02*
X14872206Y-9876127D01*
X15176967Y-10018984D02*
X15062682Y-10018984D01*
X15119825Y-10018984D02*
X15119825Y-9818984D01*
X15119825Y-9818984D02*
X15100777Y-9847555D01*
X15100777Y-9847555D02*
X15081729Y-9866603D01*
X15081729Y-9866603D02*
X15062682Y-9876127D01*
X15291253Y-9904698D02*
X15272206Y-9895174D01*
X15272206Y-9895174D02*
X15262682Y-9885650D01*
X15262682Y-9885650D02*
X15253158Y-9866603D01*
X15253158Y-9866603D02*
X15253158Y-9857079D01*
X15253158Y-9857079D02*
X15262682Y-9838031D01*
X15262682Y-9838031D02*
X15272206Y-9828508D01*
X15272206Y-9828508D02*
X15291253Y-9818984D01*
X15291253Y-9818984D02*
X15329348Y-9818984D01*
X15329348Y-9818984D02*
X15348396Y-9828508D01*
X15348396Y-9828508D02*
X15357920Y-9838031D01*
X15357920Y-9838031D02*
X15367444Y-9857079D01*
X15367444Y-9857079D02*
X15367444Y-9866603D01*
X15367444Y-9866603D02*
X15357920Y-9885650D01*
X15357920Y-9885650D02*
X15348396Y-9895174D01*
X15348396Y-9895174D02*
X15329348Y-9904698D01*
X15329348Y-9904698D02*
X15291253Y-9904698D01*
X15291253Y-9904698D02*
X15272206Y-9914222D01*
X15272206Y-9914222D02*
X15262682Y-9923746D01*
X15262682Y-9923746D02*
X15253158Y-9942793D01*
X15253158Y-9942793D02*
X15253158Y-9980889D01*
X15253158Y-9980889D02*
X15262682Y-9999936D01*
X15262682Y-9999936D02*
X15272206Y-10009460D01*
X15272206Y-10009460D02*
X15291253Y-10018984D01*
X15291253Y-10018984D02*
X15329348Y-10018984D01*
X15329348Y-10018984D02*
X15348396Y-10009460D01*
X15348396Y-10009460D02*
X15357920Y-9999936D01*
X15357920Y-9999936D02*
X15367444Y-9980889D01*
X15367444Y-9980889D02*
X15367444Y-9942793D01*
X15367444Y-9942793D02*
X15357920Y-9923746D01*
X15357920Y-9923746D02*
X15348396Y-9914222D01*
X15348396Y-9914222D02*
X15329348Y-9904698D01*
X15443634Y-9818984D02*
X15443634Y-9857079D01*
X15519825Y-9818984D02*
X15519825Y-9857079D01*
X15815063Y-10095174D02*
X15805539Y-10085650D01*
X15805539Y-10085650D02*
X15786491Y-10057079D01*
X15786491Y-10057079D02*
X15776968Y-10038031D01*
X15776968Y-10038031D02*
X15767444Y-10009460D01*
X15767444Y-10009460D02*
X15757920Y-9961841D01*
X15757920Y-9961841D02*
X15757920Y-9923746D01*
X15757920Y-9923746D02*
X15767444Y-9876127D01*
X15767444Y-9876127D02*
X15776968Y-9847555D01*
X15776968Y-9847555D02*
X15786491Y-9828508D01*
X15786491Y-9828508D02*
X15805539Y-9799936D01*
X15805539Y-9799936D02*
X15815063Y-9790412D01*
X15900777Y-10018984D02*
X15938872Y-10018984D01*
X15938872Y-10018984D02*
X15957920Y-10009460D01*
X15957920Y-10009460D02*
X15967444Y-9999936D01*
X15967444Y-9999936D02*
X15986491Y-9971365D01*
X15986491Y-9971365D02*
X15996015Y-9933270D01*
X15996015Y-9933270D02*
X15996015Y-9857079D01*
X15996015Y-9857079D02*
X15986491Y-9838031D01*
X15986491Y-9838031D02*
X15976968Y-9828508D01*
X15976968Y-9828508D02*
X15957920Y-9818984D01*
X15957920Y-9818984D02*
X15919825Y-9818984D01*
X15919825Y-9818984D02*
X15900777Y-9828508D01*
X15900777Y-9828508D02*
X15891253Y-9838031D01*
X15891253Y-9838031D02*
X15881729Y-9857079D01*
X15881729Y-9857079D02*
X15881729Y-9904698D01*
X15881729Y-9904698D02*
X15891253Y-9923746D01*
X15891253Y-9923746D02*
X15900777Y-9933270D01*
X15900777Y-9933270D02*
X15919825Y-9942793D01*
X15919825Y-9942793D02*
X15957920Y-9942793D01*
X15957920Y-9942793D02*
X15976968Y-9933270D01*
X15976968Y-9933270D02*
X15986491Y-9923746D01*
X15986491Y-9923746D02*
X15996015Y-9904698D01*
X16234110Y-10018984D02*
X16234110Y-9818984D01*
X16319825Y-10018984D02*
X16319825Y-9914222D01*
X16319825Y-9914222D02*
X16310301Y-9895174D01*
X16310301Y-9895174D02*
X16291253Y-9885650D01*
X16291253Y-9885650D02*
X16262682Y-9885650D01*
X16262682Y-9885650D02*
X16243634Y-9895174D01*
X16243634Y-9895174D02*
X16234110Y-9904698D01*
X16443634Y-10018984D02*
X16424587Y-10009460D01*
X16424587Y-10009460D02*
X16415063Y-9999936D01*
X16415063Y-9999936D02*
X16405539Y-9980889D01*
X16405539Y-9980889D02*
X16405539Y-9923746D01*
X16405539Y-9923746D02*
X16415063Y-9904698D01*
X16415063Y-9904698D02*
X16424587Y-9895174D01*
X16424587Y-9895174D02*
X16443634Y-9885650D01*
X16443634Y-9885650D02*
X16472206Y-9885650D01*
X16472206Y-9885650D02*
X16491253Y-9895174D01*
X16491253Y-9895174D02*
X16500777Y-9904698D01*
X16500777Y-9904698D02*
X16510301Y-9923746D01*
X16510301Y-9923746D02*
X16510301Y-9980889D01*
X16510301Y-9980889D02*
X16500777Y-9999936D01*
X16500777Y-9999936D02*
X16491253Y-10009460D01*
X16491253Y-10009460D02*
X16472206Y-10018984D01*
X16472206Y-10018984D02*
X16443634Y-10018984D01*
X16624587Y-10018984D02*
X16605539Y-10009460D01*
X16605539Y-10009460D02*
X16596015Y-9990412D01*
X16596015Y-9990412D02*
X16596015Y-9818984D01*
X16776968Y-10009460D02*
X16757920Y-10018984D01*
X16757920Y-10018984D02*
X16719825Y-10018984D01*
X16719825Y-10018984D02*
X16700777Y-10009460D01*
X16700777Y-10009460D02*
X16691253Y-9990412D01*
X16691253Y-9990412D02*
X16691253Y-9914222D01*
X16691253Y-9914222D02*
X16700777Y-9895174D01*
X16700777Y-9895174D02*
X16719825Y-9885650D01*
X16719825Y-9885650D02*
X16757920Y-9885650D01*
X16757920Y-9885650D02*
X16776968Y-9895174D01*
X16776968Y-9895174D02*
X16786492Y-9914222D01*
X16786492Y-9914222D02*
X16786492Y-9933270D01*
X16786492Y-9933270D02*
X16691253Y-9952317D01*
X16862682Y-10009460D02*
X16881730Y-10018984D01*
X16881730Y-10018984D02*
X16919825Y-10018984D01*
X16919825Y-10018984D02*
X16938873Y-10009460D01*
X16938873Y-10009460D02*
X16948396Y-9990412D01*
X16948396Y-9990412D02*
X16948396Y-9980889D01*
X16948396Y-9980889D02*
X16938873Y-9961841D01*
X16938873Y-9961841D02*
X16919825Y-9952317D01*
X16919825Y-9952317D02*
X16891253Y-9952317D01*
X16891253Y-9952317D02*
X16872206Y-9942793D01*
X16872206Y-9942793D02*
X16862682Y-9923746D01*
X16862682Y-9923746D02*
X16862682Y-9914222D01*
X16862682Y-9914222D02*
X16872206Y-9895174D01*
X16872206Y-9895174D02*
X16891253Y-9885650D01*
X16891253Y-9885650D02*
X16919825Y-9885650D01*
X16919825Y-9885650D02*
X16938873Y-9895174D01*
X17015063Y-10095174D02*
X17024587Y-10085650D01*
X17024587Y-10085650D02*
X17043634Y-10057079D01*
X17043634Y-10057079D02*
X17053158Y-10038031D01*
X17053158Y-10038031D02*
X17062682Y-10009460D01*
X17062682Y-10009460D02*
X17072206Y-9961841D01*
X17072206Y-9961841D02*
X17072206Y-9923746D01*
X17072206Y-9923746D02*
X17062682Y-9876127D01*
X17062682Y-9876127D02*
X17053158Y-9847555D01*
X17053158Y-9847555D02*
X17043634Y-9828508D01*
X17043634Y-9828508D02*
X17024587Y-9799936D01*
X17024587Y-9799936D02*
X17015063Y-9790412D01*
D11*
X12240000Y-10191500D02*
G75*
G02*
X12160000Y-10191500I-40000J0D01*
G01*
X12160000Y-10191500D02*
G75*
G02*
X12240000Y-10191500I40000J0D01*
G01*
D10*
X12538872Y-10082984D02*
X12557920Y-10082984D01*
X12557920Y-10082984D02*
X12576967Y-10092508D01*
X12576967Y-10092508D02*
X12586491Y-10102031D01*
X12586491Y-10102031D02*
X12596015Y-10121079D01*
X12596015Y-10121079D02*
X12605539Y-10159174D01*
X12605539Y-10159174D02*
X12605539Y-10206793D01*
X12605539Y-10206793D02*
X12596015Y-10244889D01*
X12596015Y-10244889D02*
X12586491Y-10263936D01*
X12586491Y-10263936D02*
X12576967Y-10273460D01*
X12576967Y-10273460D02*
X12557920Y-10282984D01*
X12557920Y-10282984D02*
X12538872Y-10282984D01*
X12538872Y-10282984D02*
X12519824Y-10273460D01*
X12519824Y-10273460D02*
X12510301Y-10263936D01*
X12510301Y-10263936D02*
X12500777Y-10244889D01*
X12500777Y-10244889D02*
X12491253Y-10206793D01*
X12491253Y-10206793D02*
X12491253Y-10159174D01*
X12491253Y-10159174D02*
X12500777Y-10121079D01*
X12500777Y-10121079D02*
X12510301Y-10102031D01*
X12510301Y-10102031D02*
X12519824Y-10092508D01*
X12519824Y-10092508D02*
X12538872Y-10082984D01*
X12691253Y-10263936D02*
X12700777Y-10273460D01*
X12700777Y-10273460D02*
X12691253Y-10282984D01*
X12691253Y-10282984D02*
X12681729Y-10273460D01*
X12681729Y-10273460D02*
X12691253Y-10263936D01*
X12691253Y-10263936D02*
X12691253Y-10282984D01*
X12815062Y-10168698D02*
X12796015Y-10159174D01*
X12796015Y-10159174D02*
X12786491Y-10149650D01*
X12786491Y-10149650D02*
X12776967Y-10130603D01*
X12776967Y-10130603D02*
X12776967Y-10121079D01*
X12776967Y-10121079D02*
X12786491Y-10102031D01*
X12786491Y-10102031D02*
X12796015Y-10092508D01*
X12796015Y-10092508D02*
X12815062Y-10082984D01*
X12815062Y-10082984D02*
X12853158Y-10082984D01*
X12853158Y-10082984D02*
X12872205Y-10092508D01*
X12872205Y-10092508D02*
X12881729Y-10102031D01*
X12881729Y-10102031D02*
X12891253Y-10121079D01*
X12891253Y-10121079D02*
X12891253Y-10130603D01*
X12891253Y-10130603D02*
X12881729Y-10149650D01*
X12881729Y-10149650D02*
X12872205Y-10159174D01*
X12872205Y-10159174D02*
X12853158Y-10168698D01*
X12853158Y-10168698D02*
X12815062Y-10168698D01*
X12815062Y-10168698D02*
X12796015Y-10178222D01*
X12796015Y-10178222D02*
X12786491Y-10187746D01*
X12786491Y-10187746D02*
X12776967Y-10206793D01*
X12776967Y-10206793D02*
X12776967Y-10244889D01*
X12776967Y-10244889D02*
X12786491Y-10263936D01*
X12786491Y-10263936D02*
X12796015Y-10273460D01*
X12796015Y-10273460D02*
X12815062Y-10282984D01*
X12815062Y-10282984D02*
X12853158Y-10282984D01*
X12853158Y-10282984D02*
X12872205Y-10273460D01*
X12872205Y-10273460D02*
X12881729Y-10263936D01*
X12881729Y-10263936D02*
X12891253Y-10244889D01*
X12891253Y-10244889D02*
X12891253Y-10206793D01*
X12891253Y-10206793D02*
X12881729Y-10187746D01*
X12881729Y-10187746D02*
X12872205Y-10178222D01*
X12872205Y-10178222D02*
X12853158Y-10168698D01*
X13015062Y-10082984D02*
X13034110Y-10082984D01*
X13034110Y-10082984D02*
X13053158Y-10092508D01*
X13053158Y-10092508D02*
X13062682Y-10102031D01*
X13062682Y-10102031D02*
X13072205Y-10121079D01*
X13072205Y-10121079D02*
X13081729Y-10159174D01*
X13081729Y-10159174D02*
X13081729Y-10206793D01*
X13081729Y-10206793D02*
X13072205Y-10244889D01*
X13072205Y-10244889D02*
X13062682Y-10263936D01*
X13062682Y-10263936D02*
X13053158Y-10273460D01*
X13053158Y-10273460D02*
X13034110Y-10282984D01*
X13034110Y-10282984D02*
X13015062Y-10282984D01*
X13015062Y-10282984D02*
X12996015Y-10273460D01*
X12996015Y-10273460D02*
X12986491Y-10263936D01*
X12986491Y-10263936D02*
X12976967Y-10244889D01*
X12976967Y-10244889D02*
X12967443Y-10206793D01*
X12967443Y-10206793D02*
X12967443Y-10159174D01*
X12967443Y-10159174D02*
X12976967Y-10121079D01*
X12976967Y-10121079D02*
X12986491Y-10102031D01*
X12986491Y-10102031D02*
X12996015Y-10092508D01*
X12996015Y-10092508D02*
X13015062Y-10082984D01*
X13205539Y-10082984D02*
X13224586Y-10082984D01*
X13224586Y-10082984D02*
X13243634Y-10092508D01*
X13243634Y-10092508D02*
X13253158Y-10102031D01*
X13253158Y-10102031D02*
X13262682Y-10121079D01*
X13262682Y-10121079D02*
X13272205Y-10159174D01*
X13272205Y-10159174D02*
X13272205Y-10206793D01*
X13272205Y-10206793D02*
X13262682Y-10244889D01*
X13262682Y-10244889D02*
X13253158Y-10263936D01*
X13253158Y-10263936D02*
X13243634Y-10273460D01*
X13243634Y-10273460D02*
X13224586Y-10282984D01*
X13224586Y-10282984D02*
X13205539Y-10282984D01*
X13205539Y-10282984D02*
X13186491Y-10273460D01*
X13186491Y-10273460D02*
X13176967Y-10263936D01*
X13176967Y-10263936D02*
X13167443Y-10244889D01*
X13167443Y-10244889D02*
X13157920Y-10206793D01*
X13157920Y-10206793D02*
X13157920Y-10159174D01*
X13157920Y-10159174D02*
X13167443Y-10121079D01*
X13167443Y-10121079D02*
X13176967Y-10102031D01*
X13176967Y-10102031D02*
X13186491Y-10092508D01*
X13186491Y-10092508D02*
X13205539Y-10082984D01*
X13357920Y-10282984D02*
X13357920Y-10149650D01*
X13357920Y-10168698D02*
X13367443Y-10159174D01*
X13367443Y-10159174D02*
X13386491Y-10149650D01*
X13386491Y-10149650D02*
X13415063Y-10149650D01*
X13415063Y-10149650D02*
X13434110Y-10159174D01*
X13434110Y-10159174D02*
X13443634Y-10178222D01*
X13443634Y-10178222D02*
X13443634Y-10282984D01*
X13443634Y-10178222D02*
X13453158Y-10159174D01*
X13453158Y-10159174D02*
X13472205Y-10149650D01*
X13472205Y-10149650D02*
X13500777Y-10149650D01*
X13500777Y-10149650D02*
X13519824Y-10159174D01*
X13519824Y-10159174D02*
X13529348Y-10178222D01*
X13529348Y-10178222D02*
X13529348Y-10282984D01*
X13624586Y-10282984D02*
X13624586Y-10149650D01*
X13624586Y-10168698D02*
X13634110Y-10159174D01*
X13634110Y-10159174D02*
X13653158Y-10149650D01*
X13653158Y-10149650D02*
X13681729Y-10149650D01*
X13681729Y-10149650D02*
X13700777Y-10159174D01*
X13700777Y-10159174D02*
X13710301Y-10178222D01*
X13710301Y-10178222D02*
X13710301Y-10282984D01*
X13710301Y-10178222D02*
X13719824Y-10159174D01*
X13719824Y-10159174D02*
X13738872Y-10149650D01*
X13738872Y-10149650D02*
X13767443Y-10149650D01*
X13767443Y-10149650D02*
X13786491Y-10159174D01*
X13786491Y-10159174D02*
X13796015Y-10178222D01*
X13796015Y-10178222D02*
X13796015Y-10282984D01*
X14186491Y-10073460D02*
X14015063Y-10330603D01*
X14443634Y-10082984D02*
X14462682Y-10082984D01*
X14462682Y-10082984D02*
X14481729Y-10092508D01*
X14481729Y-10092508D02*
X14491253Y-10102031D01*
X14491253Y-10102031D02*
X14500777Y-10121079D01*
X14500777Y-10121079D02*
X14510301Y-10159174D01*
X14510301Y-10159174D02*
X14510301Y-10206793D01*
X14510301Y-10206793D02*
X14500777Y-10244889D01*
X14500777Y-10244889D02*
X14491253Y-10263936D01*
X14491253Y-10263936D02*
X14481729Y-10273460D01*
X14481729Y-10273460D02*
X14462682Y-10282984D01*
X14462682Y-10282984D02*
X14443634Y-10282984D01*
X14443634Y-10282984D02*
X14424586Y-10273460D01*
X14424586Y-10273460D02*
X14415063Y-10263936D01*
X14415063Y-10263936D02*
X14405539Y-10244889D01*
X14405539Y-10244889D02*
X14396015Y-10206793D01*
X14396015Y-10206793D02*
X14396015Y-10159174D01*
X14396015Y-10159174D02*
X14405539Y-10121079D01*
X14405539Y-10121079D02*
X14415063Y-10102031D01*
X14415063Y-10102031D02*
X14424586Y-10092508D01*
X14424586Y-10092508D02*
X14443634Y-10082984D01*
X14596015Y-10263936D02*
X14605539Y-10273460D01*
X14605539Y-10273460D02*
X14596015Y-10282984D01*
X14596015Y-10282984D02*
X14586491Y-10273460D01*
X14586491Y-10273460D02*
X14596015Y-10263936D01*
X14596015Y-10263936D02*
X14596015Y-10282984D01*
X14729348Y-10082984D02*
X14748396Y-10082984D01*
X14748396Y-10082984D02*
X14767444Y-10092508D01*
X14767444Y-10092508D02*
X14776967Y-10102031D01*
X14776967Y-10102031D02*
X14786491Y-10121079D01*
X14786491Y-10121079D02*
X14796015Y-10159174D01*
X14796015Y-10159174D02*
X14796015Y-10206793D01*
X14796015Y-10206793D02*
X14786491Y-10244889D01*
X14786491Y-10244889D02*
X14776967Y-10263936D01*
X14776967Y-10263936D02*
X14767444Y-10273460D01*
X14767444Y-10273460D02*
X14748396Y-10282984D01*
X14748396Y-10282984D02*
X14729348Y-10282984D01*
X14729348Y-10282984D02*
X14710301Y-10273460D01*
X14710301Y-10273460D02*
X14700777Y-10263936D01*
X14700777Y-10263936D02*
X14691253Y-10244889D01*
X14691253Y-10244889D02*
X14681729Y-10206793D01*
X14681729Y-10206793D02*
X14681729Y-10159174D01*
X14681729Y-10159174D02*
X14691253Y-10121079D01*
X14691253Y-10121079D02*
X14700777Y-10102031D01*
X14700777Y-10102031D02*
X14710301Y-10092508D01*
X14710301Y-10092508D02*
X14729348Y-10082984D01*
X14862682Y-10082984D02*
X14986491Y-10082984D01*
X14986491Y-10082984D02*
X14919825Y-10159174D01*
X14919825Y-10159174D02*
X14948396Y-10159174D01*
X14948396Y-10159174D02*
X14967444Y-10168698D01*
X14967444Y-10168698D02*
X14976967Y-10178222D01*
X14976967Y-10178222D02*
X14986491Y-10197270D01*
X14986491Y-10197270D02*
X14986491Y-10244889D01*
X14986491Y-10244889D02*
X14976967Y-10263936D01*
X14976967Y-10263936D02*
X14967444Y-10273460D01*
X14967444Y-10273460D02*
X14948396Y-10282984D01*
X14948396Y-10282984D02*
X14891253Y-10282984D01*
X14891253Y-10282984D02*
X14872206Y-10273460D01*
X14872206Y-10273460D02*
X14862682Y-10263936D01*
X15176967Y-10282984D02*
X15062682Y-10282984D01*
X15119825Y-10282984D02*
X15119825Y-10082984D01*
X15119825Y-10082984D02*
X15100777Y-10111555D01*
X15100777Y-10111555D02*
X15081729Y-10130603D01*
X15081729Y-10130603D02*
X15062682Y-10140127D01*
X15357920Y-10082984D02*
X15262682Y-10082984D01*
X15262682Y-10082984D02*
X15253158Y-10178222D01*
X15253158Y-10178222D02*
X15262682Y-10168698D01*
X15262682Y-10168698D02*
X15281729Y-10159174D01*
X15281729Y-10159174D02*
X15329348Y-10159174D01*
X15329348Y-10159174D02*
X15348396Y-10168698D01*
X15348396Y-10168698D02*
X15357920Y-10178222D01*
X15357920Y-10178222D02*
X15367444Y-10197270D01*
X15367444Y-10197270D02*
X15367444Y-10244889D01*
X15367444Y-10244889D02*
X15357920Y-10263936D01*
X15357920Y-10263936D02*
X15348396Y-10273460D01*
X15348396Y-10273460D02*
X15329348Y-10282984D01*
X15329348Y-10282984D02*
X15281729Y-10282984D01*
X15281729Y-10282984D02*
X15262682Y-10273460D01*
X15262682Y-10273460D02*
X15253158Y-10263936D01*
X15443634Y-10082984D02*
X15443634Y-10121079D01*
X15519825Y-10082984D02*
X15519825Y-10121079D01*
X15815063Y-10359174D02*
X15805539Y-10349650D01*
X15805539Y-10349650D02*
X15786491Y-10321079D01*
X15786491Y-10321079D02*
X15776968Y-10302031D01*
X15776968Y-10302031D02*
X15767444Y-10273460D01*
X15767444Y-10273460D02*
X15757920Y-10225841D01*
X15757920Y-10225841D02*
X15757920Y-10187746D01*
X15757920Y-10187746D02*
X15767444Y-10140127D01*
X15767444Y-10140127D02*
X15776968Y-10111555D01*
X15776968Y-10111555D02*
X15786491Y-10092508D01*
X15786491Y-10092508D02*
X15805539Y-10063936D01*
X15805539Y-10063936D02*
X15815063Y-10054412D01*
X15996015Y-10282984D02*
X15881729Y-10282984D01*
X15938872Y-10282984D02*
X15938872Y-10082984D01*
X15938872Y-10082984D02*
X15919825Y-10111555D01*
X15919825Y-10111555D02*
X15900777Y-10130603D01*
X15900777Y-10130603D02*
X15881729Y-10140127D01*
X16167444Y-10149650D02*
X16167444Y-10282984D01*
X16119825Y-10073460D02*
X16072206Y-10216317D01*
X16072206Y-10216317D02*
X16196015Y-10216317D01*
X16424587Y-10282984D02*
X16424587Y-10082984D01*
X16510301Y-10282984D02*
X16510301Y-10178222D01*
X16510301Y-10178222D02*
X16500777Y-10159174D01*
X16500777Y-10159174D02*
X16481730Y-10149650D01*
X16481730Y-10149650D02*
X16453158Y-10149650D01*
X16453158Y-10149650D02*
X16434110Y-10159174D01*
X16434110Y-10159174D02*
X16424587Y-10168698D01*
X16634110Y-10282984D02*
X16615063Y-10273460D01*
X16615063Y-10273460D02*
X16605539Y-10263936D01*
X16605539Y-10263936D02*
X16596015Y-10244889D01*
X16596015Y-10244889D02*
X16596015Y-10187746D01*
X16596015Y-10187746D02*
X16605539Y-10168698D01*
X16605539Y-10168698D02*
X16615063Y-10159174D01*
X16615063Y-10159174D02*
X16634110Y-10149650D01*
X16634110Y-10149650D02*
X16662682Y-10149650D01*
X16662682Y-10149650D02*
X16681730Y-10159174D01*
X16681730Y-10159174D02*
X16691253Y-10168698D01*
X16691253Y-10168698D02*
X16700777Y-10187746D01*
X16700777Y-10187746D02*
X16700777Y-10244889D01*
X16700777Y-10244889D02*
X16691253Y-10263936D01*
X16691253Y-10263936D02*
X16681730Y-10273460D01*
X16681730Y-10273460D02*
X16662682Y-10282984D01*
X16662682Y-10282984D02*
X16634110Y-10282984D01*
X16815063Y-10282984D02*
X16796015Y-10273460D01*
X16796015Y-10273460D02*
X16786492Y-10254412D01*
X16786492Y-10254412D02*
X16786492Y-10082984D01*
X16967444Y-10273460D02*
X16948396Y-10282984D01*
X16948396Y-10282984D02*
X16910301Y-10282984D01*
X16910301Y-10282984D02*
X16891253Y-10273460D01*
X16891253Y-10273460D02*
X16881730Y-10254412D01*
X16881730Y-10254412D02*
X16881730Y-10178222D01*
X16881730Y-10178222D02*
X16891253Y-10159174D01*
X16891253Y-10159174D02*
X16910301Y-10149650D01*
X16910301Y-10149650D02*
X16948396Y-10149650D01*
X16948396Y-10149650D02*
X16967444Y-10159174D01*
X16967444Y-10159174D02*
X16976968Y-10178222D01*
X16976968Y-10178222D02*
X16976968Y-10197270D01*
X16976968Y-10197270D02*
X16881730Y-10216317D01*
X17053158Y-10273460D02*
X17072206Y-10282984D01*
X17072206Y-10282984D02*
X17110301Y-10282984D01*
X17110301Y-10282984D02*
X17129349Y-10273460D01*
X17129349Y-10273460D02*
X17138873Y-10254412D01*
X17138873Y-10254412D02*
X17138873Y-10244889D01*
X17138873Y-10244889D02*
X17129349Y-10225841D01*
X17129349Y-10225841D02*
X17110301Y-10216317D01*
X17110301Y-10216317D02*
X17081730Y-10216317D01*
X17081730Y-10216317D02*
X17062682Y-10206793D01*
X17062682Y-10206793D02*
X17053158Y-10187746D01*
X17053158Y-10187746D02*
X17053158Y-10178222D01*
X17053158Y-10178222D02*
X17062682Y-10159174D01*
X17062682Y-10159174D02*
X17081730Y-10149650D01*
X17081730Y-10149650D02*
X17110301Y-10149650D01*
X17110301Y-10149650D02*
X17129349Y-10159174D01*
X17205539Y-10359174D02*
X17215063Y-10349650D01*
X17215063Y-10349650D02*
X17234111Y-10321079D01*
X17234111Y-10321079D02*
X17243634Y-10302031D01*
X17243634Y-10302031D02*
X17253158Y-10273460D01*
X17253158Y-10273460D02*
X17262682Y-10225841D01*
X17262682Y-10225841D02*
X17262682Y-10187746D01*
X17262682Y-10187746D02*
X17253158Y-10140127D01*
X17253158Y-10140127D02*
X17243634Y-10111555D01*
X17243634Y-10111555D02*
X17234111Y-10092508D01*
X17234111Y-10092508D02*
X17215063Y-10063936D01*
X17215063Y-10063936D02*
X17205539Y-10054412D01*
D11*
X12195000Y-10410500D02*
X12195000Y-10500500D01*
X12150000Y-10455500D02*
X12240000Y-10455500D01*
D10*
X12538872Y-10346984D02*
X12557920Y-10346984D01*
X12557920Y-10346984D02*
X12576967Y-10356508D01*
X12576967Y-10356508D02*
X12586491Y-10366031D01*
X12586491Y-10366031D02*
X12596015Y-10385079D01*
X12596015Y-10385079D02*
X12605539Y-10423174D01*
X12605539Y-10423174D02*
X12605539Y-10470793D01*
X12605539Y-10470793D02*
X12596015Y-10508889D01*
X12596015Y-10508889D02*
X12586491Y-10527936D01*
X12586491Y-10527936D02*
X12576967Y-10537460D01*
X12576967Y-10537460D02*
X12557920Y-10546984D01*
X12557920Y-10546984D02*
X12538872Y-10546984D01*
X12538872Y-10546984D02*
X12519824Y-10537460D01*
X12519824Y-10537460D02*
X12510301Y-10527936D01*
X12510301Y-10527936D02*
X12500777Y-10508889D01*
X12500777Y-10508889D02*
X12491253Y-10470793D01*
X12491253Y-10470793D02*
X12491253Y-10423174D01*
X12491253Y-10423174D02*
X12500777Y-10385079D01*
X12500777Y-10385079D02*
X12510301Y-10366031D01*
X12510301Y-10366031D02*
X12519824Y-10356508D01*
X12519824Y-10356508D02*
X12538872Y-10346984D01*
X12691253Y-10527936D02*
X12700777Y-10537460D01*
X12700777Y-10537460D02*
X12691253Y-10546984D01*
X12691253Y-10546984D02*
X12681729Y-10537460D01*
X12681729Y-10537460D02*
X12691253Y-10527936D01*
X12691253Y-10527936D02*
X12691253Y-10546984D01*
X12796015Y-10546984D02*
X12834110Y-10546984D01*
X12834110Y-10546984D02*
X12853158Y-10537460D01*
X12853158Y-10537460D02*
X12862682Y-10527936D01*
X12862682Y-10527936D02*
X12881729Y-10499365D01*
X12881729Y-10499365D02*
X12891253Y-10461270D01*
X12891253Y-10461270D02*
X12891253Y-10385079D01*
X12891253Y-10385079D02*
X12881729Y-10366031D01*
X12881729Y-10366031D02*
X12872205Y-10356508D01*
X12872205Y-10356508D02*
X12853158Y-10346984D01*
X12853158Y-10346984D02*
X12815062Y-10346984D01*
X12815062Y-10346984D02*
X12796015Y-10356508D01*
X12796015Y-10356508D02*
X12786491Y-10366031D01*
X12786491Y-10366031D02*
X12776967Y-10385079D01*
X12776967Y-10385079D02*
X12776967Y-10432698D01*
X12776967Y-10432698D02*
X12786491Y-10451746D01*
X12786491Y-10451746D02*
X12796015Y-10461270D01*
X12796015Y-10461270D02*
X12815062Y-10470793D01*
X12815062Y-10470793D02*
X12853158Y-10470793D01*
X12853158Y-10470793D02*
X12872205Y-10461270D01*
X12872205Y-10461270D02*
X12881729Y-10451746D01*
X12881729Y-10451746D02*
X12891253Y-10432698D01*
X13015062Y-10346984D02*
X13034110Y-10346984D01*
X13034110Y-10346984D02*
X13053158Y-10356508D01*
X13053158Y-10356508D02*
X13062682Y-10366031D01*
X13062682Y-10366031D02*
X13072205Y-10385079D01*
X13072205Y-10385079D02*
X13081729Y-10423174D01*
X13081729Y-10423174D02*
X13081729Y-10470793D01*
X13081729Y-10470793D02*
X13072205Y-10508889D01*
X13072205Y-10508889D02*
X13062682Y-10527936D01*
X13062682Y-10527936D02*
X13053158Y-10537460D01*
X13053158Y-10537460D02*
X13034110Y-10546984D01*
X13034110Y-10546984D02*
X13015062Y-10546984D01*
X13015062Y-10546984D02*
X12996015Y-10537460D01*
X12996015Y-10537460D02*
X12986491Y-10527936D01*
X12986491Y-10527936D02*
X12976967Y-10508889D01*
X12976967Y-10508889D02*
X12967443Y-10470793D01*
X12967443Y-10470793D02*
X12967443Y-10423174D01*
X12967443Y-10423174D02*
X12976967Y-10385079D01*
X12976967Y-10385079D02*
X12986491Y-10366031D01*
X12986491Y-10366031D02*
X12996015Y-10356508D01*
X12996015Y-10356508D02*
X13015062Y-10346984D01*
X13205539Y-10346984D02*
X13224586Y-10346984D01*
X13224586Y-10346984D02*
X13243634Y-10356508D01*
X13243634Y-10356508D02*
X13253158Y-10366031D01*
X13253158Y-10366031D02*
X13262682Y-10385079D01*
X13262682Y-10385079D02*
X13272205Y-10423174D01*
X13272205Y-10423174D02*
X13272205Y-10470793D01*
X13272205Y-10470793D02*
X13262682Y-10508889D01*
X13262682Y-10508889D02*
X13253158Y-10527936D01*
X13253158Y-10527936D02*
X13243634Y-10537460D01*
X13243634Y-10537460D02*
X13224586Y-10546984D01*
X13224586Y-10546984D02*
X13205539Y-10546984D01*
X13205539Y-10546984D02*
X13186491Y-10537460D01*
X13186491Y-10537460D02*
X13176967Y-10527936D01*
X13176967Y-10527936D02*
X13167443Y-10508889D01*
X13167443Y-10508889D02*
X13157920Y-10470793D01*
X13157920Y-10470793D02*
X13157920Y-10423174D01*
X13157920Y-10423174D02*
X13167443Y-10385079D01*
X13167443Y-10385079D02*
X13176967Y-10366031D01*
X13176967Y-10366031D02*
X13186491Y-10356508D01*
X13186491Y-10356508D02*
X13205539Y-10346984D01*
X13357920Y-10546984D02*
X13357920Y-10413650D01*
X13357920Y-10432698D02*
X13367443Y-10423174D01*
X13367443Y-10423174D02*
X13386491Y-10413650D01*
X13386491Y-10413650D02*
X13415063Y-10413650D01*
X13415063Y-10413650D02*
X13434110Y-10423174D01*
X13434110Y-10423174D02*
X13443634Y-10442222D01*
X13443634Y-10442222D02*
X13443634Y-10546984D01*
X13443634Y-10442222D02*
X13453158Y-10423174D01*
X13453158Y-10423174D02*
X13472205Y-10413650D01*
X13472205Y-10413650D02*
X13500777Y-10413650D01*
X13500777Y-10413650D02*
X13519824Y-10423174D01*
X13519824Y-10423174D02*
X13529348Y-10442222D01*
X13529348Y-10442222D02*
X13529348Y-10546984D01*
X13624586Y-10546984D02*
X13624586Y-10413650D01*
X13624586Y-10432698D02*
X13634110Y-10423174D01*
X13634110Y-10423174D02*
X13653158Y-10413650D01*
X13653158Y-10413650D02*
X13681729Y-10413650D01*
X13681729Y-10413650D02*
X13700777Y-10423174D01*
X13700777Y-10423174D02*
X13710301Y-10442222D01*
X13710301Y-10442222D02*
X13710301Y-10546984D01*
X13710301Y-10442222D02*
X13719824Y-10423174D01*
X13719824Y-10423174D02*
X13738872Y-10413650D01*
X13738872Y-10413650D02*
X13767443Y-10413650D01*
X13767443Y-10413650D02*
X13786491Y-10423174D01*
X13786491Y-10423174D02*
X13796015Y-10442222D01*
X13796015Y-10442222D02*
X13796015Y-10546984D01*
X14186491Y-10337460D02*
X14015063Y-10594603D01*
X14443634Y-10346984D02*
X14462682Y-10346984D01*
X14462682Y-10346984D02*
X14481729Y-10356508D01*
X14481729Y-10356508D02*
X14491253Y-10366031D01*
X14491253Y-10366031D02*
X14500777Y-10385079D01*
X14500777Y-10385079D02*
X14510301Y-10423174D01*
X14510301Y-10423174D02*
X14510301Y-10470793D01*
X14510301Y-10470793D02*
X14500777Y-10508889D01*
X14500777Y-10508889D02*
X14491253Y-10527936D01*
X14491253Y-10527936D02*
X14481729Y-10537460D01*
X14481729Y-10537460D02*
X14462682Y-10546984D01*
X14462682Y-10546984D02*
X14443634Y-10546984D01*
X14443634Y-10546984D02*
X14424586Y-10537460D01*
X14424586Y-10537460D02*
X14415063Y-10527936D01*
X14415063Y-10527936D02*
X14405539Y-10508889D01*
X14405539Y-10508889D02*
X14396015Y-10470793D01*
X14396015Y-10470793D02*
X14396015Y-10423174D01*
X14396015Y-10423174D02*
X14405539Y-10385079D01*
X14405539Y-10385079D02*
X14415063Y-10366031D01*
X14415063Y-10366031D02*
X14424586Y-10356508D01*
X14424586Y-10356508D02*
X14443634Y-10346984D01*
X14596015Y-10527936D02*
X14605539Y-10537460D01*
X14605539Y-10537460D02*
X14596015Y-10546984D01*
X14596015Y-10546984D02*
X14586491Y-10537460D01*
X14586491Y-10537460D02*
X14596015Y-10527936D01*
X14596015Y-10527936D02*
X14596015Y-10546984D01*
X14729348Y-10346984D02*
X14748396Y-10346984D01*
X14748396Y-10346984D02*
X14767444Y-10356508D01*
X14767444Y-10356508D02*
X14776967Y-10366031D01*
X14776967Y-10366031D02*
X14786491Y-10385079D01*
X14786491Y-10385079D02*
X14796015Y-10423174D01*
X14796015Y-10423174D02*
X14796015Y-10470793D01*
X14796015Y-10470793D02*
X14786491Y-10508889D01*
X14786491Y-10508889D02*
X14776967Y-10527936D01*
X14776967Y-10527936D02*
X14767444Y-10537460D01*
X14767444Y-10537460D02*
X14748396Y-10546984D01*
X14748396Y-10546984D02*
X14729348Y-10546984D01*
X14729348Y-10546984D02*
X14710301Y-10537460D01*
X14710301Y-10537460D02*
X14700777Y-10527936D01*
X14700777Y-10527936D02*
X14691253Y-10508889D01*
X14691253Y-10508889D02*
X14681729Y-10470793D01*
X14681729Y-10470793D02*
X14681729Y-10423174D01*
X14681729Y-10423174D02*
X14691253Y-10385079D01*
X14691253Y-10385079D02*
X14700777Y-10366031D01*
X14700777Y-10366031D02*
X14710301Y-10356508D01*
X14710301Y-10356508D02*
X14729348Y-10346984D01*
X14862682Y-10346984D02*
X14986491Y-10346984D01*
X14986491Y-10346984D02*
X14919825Y-10423174D01*
X14919825Y-10423174D02*
X14948396Y-10423174D01*
X14948396Y-10423174D02*
X14967444Y-10432698D01*
X14967444Y-10432698D02*
X14976967Y-10442222D01*
X14976967Y-10442222D02*
X14986491Y-10461270D01*
X14986491Y-10461270D02*
X14986491Y-10508889D01*
X14986491Y-10508889D02*
X14976967Y-10527936D01*
X14976967Y-10527936D02*
X14967444Y-10537460D01*
X14967444Y-10537460D02*
X14948396Y-10546984D01*
X14948396Y-10546984D02*
X14891253Y-10546984D01*
X14891253Y-10546984D02*
X14872206Y-10537460D01*
X14872206Y-10537460D02*
X14862682Y-10527936D01*
X15167444Y-10346984D02*
X15072206Y-10346984D01*
X15072206Y-10346984D02*
X15062682Y-10442222D01*
X15062682Y-10442222D02*
X15072206Y-10432698D01*
X15072206Y-10432698D02*
X15091253Y-10423174D01*
X15091253Y-10423174D02*
X15138872Y-10423174D01*
X15138872Y-10423174D02*
X15157920Y-10432698D01*
X15157920Y-10432698D02*
X15167444Y-10442222D01*
X15167444Y-10442222D02*
X15176967Y-10461270D01*
X15176967Y-10461270D02*
X15176967Y-10508889D01*
X15176967Y-10508889D02*
X15167444Y-10527936D01*
X15167444Y-10527936D02*
X15157920Y-10537460D01*
X15157920Y-10537460D02*
X15138872Y-10546984D01*
X15138872Y-10546984D02*
X15091253Y-10546984D01*
X15091253Y-10546984D02*
X15072206Y-10537460D01*
X15072206Y-10537460D02*
X15062682Y-10527936D01*
X15348396Y-10413650D02*
X15348396Y-10546984D01*
X15300777Y-10337460D02*
X15253158Y-10480317D01*
X15253158Y-10480317D02*
X15376967Y-10480317D01*
X15443634Y-10346984D02*
X15443634Y-10385079D01*
X15519825Y-10346984D02*
X15519825Y-10385079D01*
X15815063Y-10623174D02*
X15805539Y-10613650D01*
X15805539Y-10613650D02*
X15786491Y-10585079D01*
X15786491Y-10585079D02*
X15776968Y-10566031D01*
X15776968Y-10566031D02*
X15767444Y-10537460D01*
X15767444Y-10537460D02*
X15757920Y-10489841D01*
X15757920Y-10489841D02*
X15757920Y-10451746D01*
X15757920Y-10451746D02*
X15767444Y-10404127D01*
X15767444Y-10404127D02*
X15776968Y-10375555D01*
X15776968Y-10375555D02*
X15786491Y-10356508D01*
X15786491Y-10356508D02*
X15805539Y-10327936D01*
X15805539Y-10327936D02*
X15815063Y-10318412D01*
X15872206Y-10346984D02*
X15996015Y-10346984D01*
X15996015Y-10346984D02*
X15929348Y-10423174D01*
X15929348Y-10423174D02*
X15957920Y-10423174D01*
X15957920Y-10423174D02*
X15976968Y-10432698D01*
X15976968Y-10432698D02*
X15986491Y-10442222D01*
X15986491Y-10442222D02*
X15996015Y-10461270D01*
X15996015Y-10461270D02*
X15996015Y-10508889D01*
X15996015Y-10508889D02*
X15986491Y-10527936D01*
X15986491Y-10527936D02*
X15976968Y-10537460D01*
X15976968Y-10537460D02*
X15957920Y-10546984D01*
X15957920Y-10546984D02*
X15900777Y-10546984D01*
X15900777Y-10546984D02*
X15881729Y-10537460D01*
X15881729Y-10537460D02*
X15872206Y-10527936D01*
X16072206Y-10366031D02*
X16081729Y-10356508D01*
X16081729Y-10356508D02*
X16100777Y-10346984D01*
X16100777Y-10346984D02*
X16148396Y-10346984D01*
X16148396Y-10346984D02*
X16167444Y-10356508D01*
X16167444Y-10356508D02*
X16176968Y-10366031D01*
X16176968Y-10366031D02*
X16186491Y-10385079D01*
X16186491Y-10385079D02*
X16186491Y-10404127D01*
X16186491Y-10404127D02*
X16176968Y-10432698D01*
X16176968Y-10432698D02*
X16062682Y-10546984D01*
X16062682Y-10546984D02*
X16186491Y-10546984D01*
X16424587Y-10546984D02*
X16424587Y-10346984D01*
X16510301Y-10546984D02*
X16510301Y-10442222D01*
X16510301Y-10442222D02*
X16500777Y-10423174D01*
X16500777Y-10423174D02*
X16481730Y-10413650D01*
X16481730Y-10413650D02*
X16453158Y-10413650D01*
X16453158Y-10413650D02*
X16434110Y-10423174D01*
X16434110Y-10423174D02*
X16424587Y-10432698D01*
X16634110Y-10546984D02*
X16615063Y-10537460D01*
X16615063Y-10537460D02*
X16605539Y-10527936D01*
X16605539Y-10527936D02*
X16596015Y-10508889D01*
X16596015Y-10508889D02*
X16596015Y-10451746D01*
X16596015Y-10451746D02*
X16605539Y-10432698D01*
X16605539Y-10432698D02*
X16615063Y-10423174D01*
X16615063Y-10423174D02*
X16634110Y-10413650D01*
X16634110Y-10413650D02*
X16662682Y-10413650D01*
X16662682Y-10413650D02*
X16681730Y-10423174D01*
X16681730Y-10423174D02*
X16691253Y-10432698D01*
X16691253Y-10432698D02*
X16700777Y-10451746D01*
X16700777Y-10451746D02*
X16700777Y-10508889D01*
X16700777Y-10508889D02*
X16691253Y-10527936D01*
X16691253Y-10527936D02*
X16681730Y-10537460D01*
X16681730Y-10537460D02*
X16662682Y-10546984D01*
X16662682Y-10546984D02*
X16634110Y-10546984D01*
X16815063Y-10546984D02*
X16796015Y-10537460D01*
X16796015Y-10537460D02*
X16786492Y-10518412D01*
X16786492Y-10518412D02*
X16786492Y-10346984D01*
X16967444Y-10537460D02*
X16948396Y-10546984D01*
X16948396Y-10546984D02*
X16910301Y-10546984D01*
X16910301Y-10546984D02*
X16891253Y-10537460D01*
X16891253Y-10537460D02*
X16881730Y-10518412D01*
X16881730Y-10518412D02*
X16881730Y-10442222D01*
X16881730Y-10442222D02*
X16891253Y-10423174D01*
X16891253Y-10423174D02*
X16910301Y-10413650D01*
X16910301Y-10413650D02*
X16948396Y-10413650D01*
X16948396Y-10413650D02*
X16967444Y-10423174D01*
X16967444Y-10423174D02*
X16976968Y-10442222D01*
X16976968Y-10442222D02*
X16976968Y-10461270D01*
X16976968Y-10461270D02*
X16881730Y-10480317D01*
X17053158Y-10537460D02*
X17072206Y-10546984D01*
X17072206Y-10546984D02*
X17110301Y-10546984D01*
X17110301Y-10546984D02*
X17129349Y-10537460D01*
X17129349Y-10537460D02*
X17138873Y-10518412D01*
X17138873Y-10518412D02*
X17138873Y-10508889D01*
X17138873Y-10508889D02*
X17129349Y-10489841D01*
X17129349Y-10489841D02*
X17110301Y-10480317D01*
X17110301Y-10480317D02*
X17081730Y-10480317D01*
X17081730Y-10480317D02*
X17062682Y-10470793D01*
X17062682Y-10470793D02*
X17053158Y-10451746D01*
X17053158Y-10451746D02*
X17053158Y-10442222D01*
X17053158Y-10442222D02*
X17062682Y-10423174D01*
X17062682Y-10423174D02*
X17081730Y-10413650D01*
X17081730Y-10413650D02*
X17110301Y-10413650D01*
X17110301Y-10413650D02*
X17129349Y-10423174D01*
X17205539Y-10623174D02*
X17215063Y-10613650D01*
X17215063Y-10613650D02*
X17234111Y-10585079D01*
X17234111Y-10585079D02*
X17243634Y-10566031D01*
X17243634Y-10566031D02*
X17253158Y-10537460D01*
X17253158Y-10537460D02*
X17262682Y-10489841D01*
X17262682Y-10489841D02*
X17262682Y-10451746D01*
X17262682Y-10451746D02*
X17253158Y-10404127D01*
X17253158Y-10404127D02*
X17243634Y-10375555D01*
X17243634Y-10375555D02*
X17234111Y-10356508D01*
X17234111Y-10356508D02*
X17215063Y-10327936D01*
X17215063Y-10327936D02*
X17205539Y-10318412D01*
D12*
X12223159Y-10760159D02*
X12223159Y-10678841D01*
X12141841Y-10678841D01*
X12141841Y-10760159D01*
X12223159Y-10760159D01*
D10*
X12605539Y-10810984D02*
X12491253Y-10810984D01*
X12548396Y-10810984D02*
X12548396Y-10610984D01*
X12548396Y-10610984D02*
X12529348Y-10639555D01*
X12529348Y-10639555D02*
X12510301Y-10658603D01*
X12510301Y-10658603D02*
X12491253Y-10668127D01*
X12691253Y-10791936D02*
X12700777Y-10801460D01*
X12700777Y-10801460D02*
X12691253Y-10810984D01*
X12691253Y-10810984D02*
X12681729Y-10801460D01*
X12681729Y-10801460D02*
X12691253Y-10791936D01*
X12691253Y-10791936D02*
X12691253Y-10810984D01*
X12891253Y-10810984D02*
X12776967Y-10810984D01*
X12834110Y-10810984D02*
X12834110Y-10610984D01*
X12834110Y-10610984D02*
X12815062Y-10639555D01*
X12815062Y-10639555D02*
X12796015Y-10658603D01*
X12796015Y-10658603D02*
X12776967Y-10668127D01*
X13072205Y-10610984D02*
X12976967Y-10610984D01*
X12976967Y-10610984D02*
X12967443Y-10706222D01*
X12967443Y-10706222D02*
X12976967Y-10696698D01*
X12976967Y-10696698D02*
X12996015Y-10687174D01*
X12996015Y-10687174D02*
X13043634Y-10687174D01*
X13043634Y-10687174D02*
X13062682Y-10696698D01*
X13062682Y-10696698D02*
X13072205Y-10706222D01*
X13072205Y-10706222D02*
X13081729Y-10725270D01*
X13081729Y-10725270D02*
X13081729Y-10772889D01*
X13081729Y-10772889D02*
X13072205Y-10791936D01*
X13072205Y-10791936D02*
X13062682Y-10801460D01*
X13062682Y-10801460D02*
X13043634Y-10810984D01*
X13043634Y-10810984D02*
X12996015Y-10810984D01*
X12996015Y-10810984D02*
X12976967Y-10801460D01*
X12976967Y-10801460D02*
X12967443Y-10791936D01*
X13205539Y-10610984D02*
X13224586Y-10610984D01*
X13224586Y-10610984D02*
X13243634Y-10620508D01*
X13243634Y-10620508D02*
X13253158Y-10630031D01*
X13253158Y-10630031D02*
X13262682Y-10649079D01*
X13262682Y-10649079D02*
X13272205Y-10687174D01*
X13272205Y-10687174D02*
X13272205Y-10734793D01*
X13272205Y-10734793D02*
X13262682Y-10772889D01*
X13262682Y-10772889D02*
X13253158Y-10791936D01*
X13253158Y-10791936D02*
X13243634Y-10801460D01*
X13243634Y-10801460D02*
X13224586Y-10810984D01*
X13224586Y-10810984D02*
X13205539Y-10810984D01*
X13205539Y-10810984D02*
X13186491Y-10801460D01*
X13186491Y-10801460D02*
X13176967Y-10791936D01*
X13176967Y-10791936D02*
X13167443Y-10772889D01*
X13167443Y-10772889D02*
X13157920Y-10734793D01*
X13157920Y-10734793D02*
X13157920Y-10687174D01*
X13157920Y-10687174D02*
X13167443Y-10649079D01*
X13167443Y-10649079D02*
X13176967Y-10630031D01*
X13176967Y-10630031D02*
X13186491Y-10620508D01*
X13186491Y-10620508D02*
X13205539Y-10610984D01*
X13357920Y-10810984D02*
X13357920Y-10677650D01*
X13357920Y-10696698D02*
X13367443Y-10687174D01*
X13367443Y-10687174D02*
X13386491Y-10677650D01*
X13386491Y-10677650D02*
X13415063Y-10677650D01*
X13415063Y-10677650D02*
X13434110Y-10687174D01*
X13434110Y-10687174D02*
X13443634Y-10706222D01*
X13443634Y-10706222D02*
X13443634Y-10810984D01*
X13443634Y-10706222D02*
X13453158Y-10687174D01*
X13453158Y-10687174D02*
X13472205Y-10677650D01*
X13472205Y-10677650D02*
X13500777Y-10677650D01*
X13500777Y-10677650D02*
X13519824Y-10687174D01*
X13519824Y-10687174D02*
X13529348Y-10706222D01*
X13529348Y-10706222D02*
X13529348Y-10810984D01*
X13624586Y-10810984D02*
X13624586Y-10677650D01*
X13624586Y-10696698D02*
X13634110Y-10687174D01*
X13634110Y-10687174D02*
X13653158Y-10677650D01*
X13653158Y-10677650D02*
X13681729Y-10677650D01*
X13681729Y-10677650D02*
X13700777Y-10687174D01*
X13700777Y-10687174D02*
X13710301Y-10706222D01*
X13710301Y-10706222D02*
X13710301Y-10810984D01*
X13710301Y-10706222D02*
X13719824Y-10687174D01*
X13719824Y-10687174D02*
X13738872Y-10677650D01*
X13738872Y-10677650D02*
X13767443Y-10677650D01*
X13767443Y-10677650D02*
X13786491Y-10687174D01*
X13786491Y-10687174D02*
X13796015Y-10706222D01*
X13796015Y-10706222D02*
X13796015Y-10810984D01*
X14186491Y-10601460D02*
X14015063Y-10858603D01*
X14443634Y-10610984D02*
X14462682Y-10610984D01*
X14462682Y-10610984D02*
X14481729Y-10620508D01*
X14481729Y-10620508D02*
X14491253Y-10630031D01*
X14491253Y-10630031D02*
X14500777Y-10649079D01*
X14500777Y-10649079D02*
X14510301Y-10687174D01*
X14510301Y-10687174D02*
X14510301Y-10734793D01*
X14510301Y-10734793D02*
X14500777Y-10772889D01*
X14500777Y-10772889D02*
X14491253Y-10791936D01*
X14491253Y-10791936D02*
X14481729Y-10801460D01*
X14481729Y-10801460D02*
X14462682Y-10810984D01*
X14462682Y-10810984D02*
X14443634Y-10810984D01*
X14443634Y-10810984D02*
X14424586Y-10801460D01*
X14424586Y-10801460D02*
X14415063Y-10791936D01*
X14415063Y-10791936D02*
X14405539Y-10772889D01*
X14405539Y-10772889D02*
X14396015Y-10734793D01*
X14396015Y-10734793D02*
X14396015Y-10687174D01*
X14396015Y-10687174D02*
X14405539Y-10649079D01*
X14405539Y-10649079D02*
X14415063Y-10630031D01*
X14415063Y-10630031D02*
X14424586Y-10620508D01*
X14424586Y-10620508D02*
X14443634Y-10610984D01*
X14596015Y-10791936D02*
X14605539Y-10801460D01*
X14605539Y-10801460D02*
X14596015Y-10810984D01*
X14596015Y-10810984D02*
X14586491Y-10801460D01*
X14586491Y-10801460D02*
X14596015Y-10791936D01*
X14596015Y-10791936D02*
X14596015Y-10810984D01*
X14729348Y-10610984D02*
X14748396Y-10610984D01*
X14748396Y-10610984D02*
X14767444Y-10620508D01*
X14767444Y-10620508D02*
X14776967Y-10630031D01*
X14776967Y-10630031D02*
X14786491Y-10649079D01*
X14786491Y-10649079D02*
X14796015Y-10687174D01*
X14796015Y-10687174D02*
X14796015Y-10734793D01*
X14796015Y-10734793D02*
X14786491Y-10772889D01*
X14786491Y-10772889D02*
X14776967Y-10791936D01*
X14776967Y-10791936D02*
X14767444Y-10801460D01*
X14767444Y-10801460D02*
X14748396Y-10810984D01*
X14748396Y-10810984D02*
X14729348Y-10810984D01*
X14729348Y-10810984D02*
X14710301Y-10801460D01*
X14710301Y-10801460D02*
X14700777Y-10791936D01*
X14700777Y-10791936D02*
X14691253Y-10772889D01*
X14691253Y-10772889D02*
X14681729Y-10734793D01*
X14681729Y-10734793D02*
X14681729Y-10687174D01*
X14681729Y-10687174D02*
X14691253Y-10649079D01*
X14691253Y-10649079D02*
X14700777Y-10630031D01*
X14700777Y-10630031D02*
X14710301Y-10620508D01*
X14710301Y-10620508D02*
X14729348Y-10610984D01*
X14967444Y-10677650D02*
X14967444Y-10810984D01*
X14919825Y-10601460D02*
X14872206Y-10744317D01*
X14872206Y-10744317D02*
X14996015Y-10744317D01*
X15167444Y-10610984D02*
X15072206Y-10610984D01*
X15072206Y-10610984D02*
X15062682Y-10706222D01*
X15062682Y-10706222D02*
X15072206Y-10696698D01*
X15072206Y-10696698D02*
X15091253Y-10687174D01*
X15091253Y-10687174D02*
X15138872Y-10687174D01*
X15138872Y-10687174D02*
X15157920Y-10696698D01*
X15157920Y-10696698D02*
X15167444Y-10706222D01*
X15167444Y-10706222D02*
X15176967Y-10725270D01*
X15176967Y-10725270D02*
X15176967Y-10772889D01*
X15176967Y-10772889D02*
X15167444Y-10791936D01*
X15167444Y-10791936D02*
X15157920Y-10801460D01*
X15157920Y-10801460D02*
X15138872Y-10810984D01*
X15138872Y-10810984D02*
X15091253Y-10810984D01*
X15091253Y-10810984D02*
X15072206Y-10801460D01*
X15072206Y-10801460D02*
X15062682Y-10791936D01*
X15243634Y-10610984D02*
X15367444Y-10610984D01*
X15367444Y-10610984D02*
X15300777Y-10687174D01*
X15300777Y-10687174D02*
X15329348Y-10687174D01*
X15329348Y-10687174D02*
X15348396Y-10696698D01*
X15348396Y-10696698D02*
X15357920Y-10706222D01*
X15357920Y-10706222D02*
X15367444Y-10725270D01*
X15367444Y-10725270D02*
X15367444Y-10772889D01*
X15367444Y-10772889D02*
X15357920Y-10791936D01*
X15357920Y-10791936D02*
X15348396Y-10801460D01*
X15348396Y-10801460D02*
X15329348Y-10810984D01*
X15329348Y-10810984D02*
X15272206Y-10810984D01*
X15272206Y-10810984D02*
X15253158Y-10801460D01*
X15253158Y-10801460D02*
X15243634Y-10791936D01*
X15443634Y-10610984D02*
X15443634Y-10649079D01*
X15519825Y-10610984D02*
X15519825Y-10649079D01*
X15815063Y-10887174D02*
X15805539Y-10877650D01*
X15805539Y-10877650D02*
X15786491Y-10849079D01*
X15786491Y-10849079D02*
X15776968Y-10830031D01*
X15776968Y-10830031D02*
X15767444Y-10801460D01*
X15767444Y-10801460D02*
X15757920Y-10753841D01*
X15757920Y-10753841D02*
X15757920Y-10715746D01*
X15757920Y-10715746D02*
X15767444Y-10668127D01*
X15767444Y-10668127D02*
X15776968Y-10639555D01*
X15776968Y-10639555D02*
X15786491Y-10620508D01*
X15786491Y-10620508D02*
X15805539Y-10591936D01*
X15805539Y-10591936D02*
X15815063Y-10582412D01*
X15976968Y-10610984D02*
X15938872Y-10610984D01*
X15938872Y-10610984D02*
X15919825Y-10620508D01*
X15919825Y-10620508D02*
X15910301Y-10630031D01*
X15910301Y-10630031D02*
X15891253Y-10658603D01*
X15891253Y-10658603D02*
X15881729Y-10696698D01*
X15881729Y-10696698D02*
X15881729Y-10772889D01*
X15881729Y-10772889D02*
X15891253Y-10791936D01*
X15891253Y-10791936D02*
X15900777Y-10801460D01*
X15900777Y-10801460D02*
X15919825Y-10810984D01*
X15919825Y-10810984D02*
X15957920Y-10810984D01*
X15957920Y-10810984D02*
X15976968Y-10801460D01*
X15976968Y-10801460D02*
X15986491Y-10791936D01*
X15986491Y-10791936D02*
X15996015Y-10772889D01*
X15996015Y-10772889D02*
X15996015Y-10725270D01*
X15996015Y-10725270D02*
X15986491Y-10706222D01*
X15986491Y-10706222D02*
X15976968Y-10696698D01*
X15976968Y-10696698D02*
X15957920Y-10687174D01*
X15957920Y-10687174D02*
X15919825Y-10687174D01*
X15919825Y-10687174D02*
X15900777Y-10696698D01*
X15900777Y-10696698D02*
X15891253Y-10706222D01*
X15891253Y-10706222D02*
X15881729Y-10725270D01*
X16234110Y-10810984D02*
X16234110Y-10610984D01*
X16319825Y-10810984D02*
X16319825Y-10706222D01*
X16319825Y-10706222D02*
X16310301Y-10687174D01*
X16310301Y-10687174D02*
X16291253Y-10677650D01*
X16291253Y-10677650D02*
X16262682Y-10677650D01*
X16262682Y-10677650D02*
X16243634Y-10687174D01*
X16243634Y-10687174D02*
X16234110Y-10696698D01*
X16443634Y-10810984D02*
X16424587Y-10801460D01*
X16424587Y-10801460D02*
X16415063Y-10791936D01*
X16415063Y-10791936D02*
X16405539Y-10772889D01*
X16405539Y-10772889D02*
X16405539Y-10715746D01*
X16405539Y-10715746D02*
X16415063Y-10696698D01*
X16415063Y-10696698D02*
X16424587Y-10687174D01*
X16424587Y-10687174D02*
X16443634Y-10677650D01*
X16443634Y-10677650D02*
X16472206Y-10677650D01*
X16472206Y-10677650D02*
X16491253Y-10687174D01*
X16491253Y-10687174D02*
X16500777Y-10696698D01*
X16500777Y-10696698D02*
X16510301Y-10715746D01*
X16510301Y-10715746D02*
X16510301Y-10772889D01*
X16510301Y-10772889D02*
X16500777Y-10791936D01*
X16500777Y-10791936D02*
X16491253Y-10801460D01*
X16491253Y-10801460D02*
X16472206Y-10810984D01*
X16472206Y-10810984D02*
X16443634Y-10810984D01*
X16624587Y-10810984D02*
X16605539Y-10801460D01*
X16605539Y-10801460D02*
X16596015Y-10782412D01*
X16596015Y-10782412D02*
X16596015Y-10610984D01*
X16776968Y-10801460D02*
X16757920Y-10810984D01*
X16757920Y-10810984D02*
X16719825Y-10810984D01*
X16719825Y-10810984D02*
X16700777Y-10801460D01*
X16700777Y-10801460D02*
X16691253Y-10782412D01*
X16691253Y-10782412D02*
X16691253Y-10706222D01*
X16691253Y-10706222D02*
X16700777Y-10687174D01*
X16700777Y-10687174D02*
X16719825Y-10677650D01*
X16719825Y-10677650D02*
X16757920Y-10677650D01*
X16757920Y-10677650D02*
X16776968Y-10687174D01*
X16776968Y-10687174D02*
X16786492Y-10706222D01*
X16786492Y-10706222D02*
X16786492Y-10725270D01*
X16786492Y-10725270D02*
X16691253Y-10744317D01*
X16862682Y-10801460D02*
X16881730Y-10810984D01*
X16881730Y-10810984D02*
X16919825Y-10810984D01*
X16919825Y-10810984D02*
X16938873Y-10801460D01*
X16938873Y-10801460D02*
X16948396Y-10782412D01*
X16948396Y-10782412D02*
X16948396Y-10772889D01*
X16948396Y-10772889D02*
X16938873Y-10753841D01*
X16938873Y-10753841D02*
X16919825Y-10744317D01*
X16919825Y-10744317D02*
X16891253Y-10744317D01*
X16891253Y-10744317D02*
X16872206Y-10734793D01*
X16872206Y-10734793D02*
X16862682Y-10715746D01*
X16862682Y-10715746D02*
X16862682Y-10706222D01*
X16862682Y-10706222D02*
X16872206Y-10687174D01*
X16872206Y-10687174D02*
X16891253Y-10677650D01*
X16891253Y-10677650D02*
X16919825Y-10677650D01*
X16919825Y-10677650D02*
X16938873Y-10687174D01*
X17015063Y-10887174D02*
X17024587Y-10877650D01*
X17024587Y-10877650D02*
X17043634Y-10849079D01*
X17043634Y-10849079D02*
X17053158Y-10830031D01*
X17053158Y-10830031D02*
X17062682Y-10801460D01*
X17062682Y-10801460D02*
X17072206Y-10753841D01*
X17072206Y-10753841D02*
X17072206Y-10715746D01*
X17072206Y-10715746D02*
X17062682Y-10668127D01*
X17062682Y-10668127D02*
X17053158Y-10639555D01*
X17053158Y-10639555D02*
X17043634Y-10620508D01*
X17043634Y-10620508D02*
X17024587Y-10591936D01*
X17024587Y-10591936D02*
X17015063Y-10582412D01*
D13*
X12180000Y-11043500D02*
X12240000Y-10983500D01*
X12180000Y-10923500D01*
X12120000Y-10983500D01*
X12180000Y-11043500D01*
D10*
X12605539Y-11074984D02*
X12491253Y-11074984D01*
X12548396Y-11074984D02*
X12548396Y-10874984D01*
X12548396Y-10874984D02*
X12529348Y-10903555D01*
X12529348Y-10903555D02*
X12510301Y-10922603D01*
X12510301Y-10922603D02*
X12491253Y-10932127D01*
X12691253Y-11055936D02*
X12700777Y-11065460D01*
X12700777Y-11065460D02*
X12691253Y-11074984D01*
X12691253Y-11074984D02*
X12681729Y-11065460D01*
X12681729Y-11065460D02*
X12691253Y-11055936D01*
X12691253Y-11055936D02*
X12691253Y-11074984D01*
X12776967Y-10894031D02*
X12786491Y-10884508D01*
X12786491Y-10884508D02*
X12805539Y-10874984D01*
X12805539Y-10874984D02*
X12853158Y-10874984D01*
X12853158Y-10874984D02*
X12872205Y-10884508D01*
X12872205Y-10884508D02*
X12881729Y-10894031D01*
X12881729Y-10894031D02*
X12891253Y-10913079D01*
X12891253Y-10913079D02*
X12891253Y-10932127D01*
X12891253Y-10932127D02*
X12881729Y-10960698D01*
X12881729Y-10960698D02*
X12767443Y-11074984D01*
X12767443Y-11074984D02*
X12891253Y-11074984D01*
X13015062Y-10874984D02*
X13034110Y-10874984D01*
X13034110Y-10874984D02*
X13053158Y-10884508D01*
X13053158Y-10884508D02*
X13062682Y-10894031D01*
X13062682Y-10894031D02*
X13072205Y-10913079D01*
X13072205Y-10913079D02*
X13081729Y-10951174D01*
X13081729Y-10951174D02*
X13081729Y-10998793D01*
X13081729Y-10998793D02*
X13072205Y-11036889D01*
X13072205Y-11036889D02*
X13062682Y-11055936D01*
X13062682Y-11055936D02*
X13053158Y-11065460D01*
X13053158Y-11065460D02*
X13034110Y-11074984D01*
X13034110Y-11074984D02*
X13015062Y-11074984D01*
X13015062Y-11074984D02*
X12996015Y-11065460D01*
X12996015Y-11065460D02*
X12986491Y-11055936D01*
X12986491Y-11055936D02*
X12976967Y-11036889D01*
X12976967Y-11036889D02*
X12967443Y-10998793D01*
X12967443Y-10998793D02*
X12967443Y-10951174D01*
X12967443Y-10951174D02*
X12976967Y-10913079D01*
X12976967Y-10913079D02*
X12986491Y-10894031D01*
X12986491Y-10894031D02*
X12996015Y-10884508D01*
X12996015Y-10884508D02*
X13015062Y-10874984D01*
X13205539Y-10874984D02*
X13224586Y-10874984D01*
X13224586Y-10874984D02*
X13243634Y-10884508D01*
X13243634Y-10884508D02*
X13253158Y-10894031D01*
X13253158Y-10894031D02*
X13262682Y-10913079D01*
X13262682Y-10913079D02*
X13272205Y-10951174D01*
X13272205Y-10951174D02*
X13272205Y-10998793D01*
X13272205Y-10998793D02*
X13262682Y-11036889D01*
X13262682Y-11036889D02*
X13253158Y-11055936D01*
X13253158Y-11055936D02*
X13243634Y-11065460D01*
X13243634Y-11065460D02*
X13224586Y-11074984D01*
X13224586Y-11074984D02*
X13205539Y-11074984D01*
X13205539Y-11074984D02*
X13186491Y-11065460D01*
X13186491Y-11065460D02*
X13176967Y-11055936D01*
X13176967Y-11055936D02*
X13167443Y-11036889D01*
X13167443Y-11036889D02*
X13157920Y-10998793D01*
X13157920Y-10998793D02*
X13157920Y-10951174D01*
X13157920Y-10951174D02*
X13167443Y-10913079D01*
X13167443Y-10913079D02*
X13176967Y-10894031D01*
X13176967Y-10894031D02*
X13186491Y-10884508D01*
X13186491Y-10884508D02*
X13205539Y-10874984D01*
X13357920Y-11074984D02*
X13357920Y-10941650D01*
X13357920Y-10960698D02*
X13367443Y-10951174D01*
X13367443Y-10951174D02*
X13386491Y-10941650D01*
X13386491Y-10941650D02*
X13415063Y-10941650D01*
X13415063Y-10941650D02*
X13434110Y-10951174D01*
X13434110Y-10951174D02*
X13443634Y-10970222D01*
X13443634Y-10970222D02*
X13443634Y-11074984D01*
X13443634Y-10970222D02*
X13453158Y-10951174D01*
X13453158Y-10951174D02*
X13472205Y-10941650D01*
X13472205Y-10941650D02*
X13500777Y-10941650D01*
X13500777Y-10941650D02*
X13519824Y-10951174D01*
X13519824Y-10951174D02*
X13529348Y-10970222D01*
X13529348Y-10970222D02*
X13529348Y-11074984D01*
X13624586Y-11074984D02*
X13624586Y-10941650D01*
X13624586Y-10960698D02*
X13634110Y-10951174D01*
X13634110Y-10951174D02*
X13653158Y-10941650D01*
X13653158Y-10941650D02*
X13681729Y-10941650D01*
X13681729Y-10941650D02*
X13700777Y-10951174D01*
X13700777Y-10951174D02*
X13710301Y-10970222D01*
X13710301Y-10970222D02*
X13710301Y-11074984D01*
X13710301Y-10970222D02*
X13719824Y-10951174D01*
X13719824Y-10951174D02*
X13738872Y-10941650D01*
X13738872Y-10941650D02*
X13767443Y-10941650D01*
X13767443Y-10941650D02*
X13786491Y-10951174D01*
X13786491Y-10951174D02*
X13796015Y-10970222D01*
X13796015Y-10970222D02*
X13796015Y-11074984D01*
X14186491Y-10865460D02*
X14015063Y-11122603D01*
X14443634Y-10874984D02*
X14462682Y-10874984D01*
X14462682Y-10874984D02*
X14481729Y-10884508D01*
X14481729Y-10884508D02*
X14491253Y-10894031D01*
X14491253Y-10894031D02*
X14500777Y-10913079D01*
X14500777Y-10913079D02*
X14510301Y-10951174D01*
X14510301Y-10951174D02*
X14510301Y-10998793D01*
X14510301Y-10998793D02*
X14500777Y-11036889D01*
X14500777Y-11036889D02*
X14491253Y-11055936D01*
X14491253Y-11055936D02*
X14481729Y-11065460D01*
X14481729Y-11065460D02*
X14462682Y-11074984D01*
X14462682Y-11074984D02*
X14443634Y-11074984D01*
X14443634Y-11074984D02*
X14424586Y-11065460D01*
X14424586Y-11065460D02*
X14415063Y-11055936D01*
X14415063Y-11055936D02*
X14405539Y-11036889D01*
X14405539Y-11036889D02*
X14396015Y-10998793D01*
X14396015Y-10998793D02*
X14396015Y-10951174D01*
X14396015Y-10951174D02*
X14405539Y-10913079D01*
X14405539Y-10913079D02*
X14415063Y-10894031D01*
X14415063Y-10894031D02*
X14424586Y-10884508D01*
X14424586Y-10884508D02*
X14443634Y-10874984D01*
X14596015Y-11055936D02*
X14605539Y-11065460D01*
X14605539Y-11065460D02*
X14596015Y-11074984D01*
X14596015Y-11074984D02*
X14586491Y-11065460D01*
X14586491Y-11065460D02*
X14596015Y-11055936D01*
X14596015Y-11055936D02*
X14596015Y-11074984D01*
X14729348Y-10874984D02*
X14748396Y-10874984D01*
X14748396Y-10874984D02*
X14767444Y-10884508D01*
X14767444Y-10884508D02*
X14776967Y-10894031D01*
X14776967Y-10894031D02*
X14786491Y-10913079D01*
X14786491Y-10913079D02*
X14796015Y-10951174D01*
X14796015Y-10951174D02*
X14796015Y-10998793D01*
X14796015Y-10998793D02*
X14786491Y-11036889D01*
X14786491Y-11036889D02*
X14776967Y-11055936D01*
X14776967Y-11055936D02*
X14767444Y-11065460D01*
X14767444Y-11065460D02*
X14748396Y-11074984D01*
X14748396Y-11074984D02*
X14729348Y-11074984D01*
X14729348Y-11074984D02*
X14710301Y-11065460D01*
X14710301Y-11065460D02*
X14700777Y-11055936D01*
X14700777Y-11055936D02*
X14691253Y-11036889D01*
X14691253Y-11036889D02*
X14681729Y-10998793D01*
X14681729Y-10998793D02*
X14681729Y-10951174D01*
X14681729Y-10951174D02*
X14691253Y-10913079D01*
X14691253Y-10913079D02*
X14700777Y-10894031D01*
X14700777Y-10894031D02*
X14710301Y-10884508D01*
X14710301Y-10884508D02*
X14729348Y-10874984D01*
X14967444Y-10941650D02*
X14967444Y-11074984D01*
X14919825Y-10865460D02*
X14872206Y-11008317D01*
X14872206Y-11008317D02*
X14996015Y-11008317D01*
X15053158Y-10874984D02*
X15186491Y-10874984D01*
X15186491Y-10874984D02*
X15100777Y-11074984D01*
X15253158Y-10894031D02*
X15262682Y-10884508D01*
X15262682Y-10884508D02*
X15281729Y-10874984D01*
X15281729Y-10874984D02*
X15329348Y-10874984D01*
X15329348Y-10874984D02*
X15348396Y-10884508D01*
X15348396Y-10884508D02*
X15357920Y-10894031D01*
X15357920Y-10894031D02*
X15367444Y-10913079D01*
X15367444Y-10913079D02*
X15367444Y-10932127D01*
X15367444Y-10932127D02*
X15357920Y-10960698D01*
X15357920Y-10960698D02*
X15243634Y-11074984D01*
X15243634Y-11074984D02*
X15367444Y-11074984D01*
X15443634Y-10874984D02*
X15443634Y-10913079D01*
X15519825Y-10874984D02*
X15519825Y-10913079D01*
X15815063Y-11151174D02*
X15805539Y-11141650D01*
X15805539Y-11141650D02*
X15786491Y-11113079D01*
X15786491Y-11113079D02*
X15776968Y-11094031D01*
X15776968Y-11094031D02*
X15767444Y-11065460D01*
X15767444Y-11065460D02*
X15757920Y-11017841D01*
X15757920Y-11017841D02*
X15757920Y-10979746D01*
X15757920Y-10979746D02*
X15767444Y-10932127D01*
X15767444Y-10932127D02*
X15776968Y-10903555D01*
X15776968Y-10903555D02*
X15786491Y-10884508D01*
X15786491Y-10884508D02*
X15805539Y-10855936D01*
X15805539Y-10855936D02*
X15815063Y-10846412D01*
X15919825Y-10960698D02*
X15900777Y-10951174D01*
X15900777Y-10951174D02*
X15891253Y-10941650D01*
X15891253Y-10941650D02*
X15881729Y-10922603D01*
X15881729Y-10922603D02*
X15881729Y-10913079D01*
X15881729Y-10913079D02*
X15891253Y-10894031D01*
X15891253Y-10894031D02*
X15900777Y-10884508D01*
X15900777Y-10884508D02*
X15919825Y-10874984D01*
X15919825Y-10874984D02*
X15957920Y-10874984D01*
X15957920Y-10874984D02*
X15976968Y-10884508D01*
X15976968Y-10884508D02*
X15986491Y-10894031D01*
X15986491Y-10894031D02*
X15996015Y-10913079D01*
X15996015Y-10913079D02*
X15996015Y-10922603D01*
X15996015Y-10922603D02*
X15986491Y-10941650D01*
X15986491Y-10941650D02*
X15976968Y-10951174D01*
X15976968Y-10951174D02*
X15957920Y-10960698D01*
X15957920Y-10960698D02*
X15919825Y-10960698D01*
X15919825Y-10960698D02*
X15900777Y-10970222D01*
X15900777Y-10970222D02*
X15891253Y-10979746D01*
X15891253Y-10979746D02*
X15881729Y-10998793D01*
X15881729Y-10998793D02*
X15881729Y-11036889D01*
X15881729Y-11036889D02*
X15891253Y-11055936D01*
X15891253Y-11055936D02*
X15900777Y-11065460D01*
X15900777Y-11065460D02*
X15919825Y-11074984D01*
X15919825Y-11074984D02*
X15957920Y-11074984D01*
X15957920Y-11074984D02*
X15976968Y-11065460D01*
X15976968Y-11065460D02*
X15986491Y-11055936D01*
X15986491Y-11055936D02*
X15996015Y-11036889D01*
X15996015Y-11036889D02*
X15996015Y-10998793D01*
X15996015Y-10998793D02*
X15986491Y-10979746D01*
X15986491Y-10979746D02*
X15976968Y-10970222D01*
X15976968Y-10970222D02*
X15957920Y-10960698D01*
X16234110Y-11074984D02*
X16234110Y-10874984D01*
X16319825Y-11074984D02*
X16319825Y-10970222D01*
X16319825Y-10970222D02*
X16310301Y-10951174D01*
X16310301Y-10951174D02*
X16291253Y-10941650D01*
X16291253Y-10941650D02*
X16262682Y-10941650D01*
X16262682Y-10941650D02*
X16243634Y-10951174D01*
X16243634Y-10951174D02*
X16234110Y-10960698D01*
X16443634Y-11074984D02*
X16424587Y-11065460D01*
X16424587Y-11065460D02*
X16415063Y-11055936D01*
X16415063Y-11055936D02*
X16405539Y-11036889D01*
X16405539Y-11036889D02*
X16405539Y-10979746D01*
X16405539Y-10979746D02*
X16415063Y-10960698D01*
X16415063Y-10960698D02*
X16424587Y-10951174D01*
X16424587Y-10951174D02*
X16443634Y-10941650D01*
X16443634Y-10941650D02*
X16472206Y-10941650D01*
X16472206Y-10941650D02*
X16491253Y-10951174D01*
X16491253Y-10951174D02*
X16500777Y-10960698D01*
X16500777Y-10960698D02*
X16510301Y-10979746D01*
X16510301Y-10979746D02*
X16510301Y-11036889D01*
X16510301Y-11036889D02*
X16500777Y-11055936D01*
X16500777Y-11055936D02*
X16491253Y-11065460D01*
X16491253Y-11065460D02*
X16472206Y-11074984D01*
X16472206Y-11074984D02*
X16443634Y-11074984D01*
X16624587Y-11074984D02*
X16605539Y-11065460D01*
X16605539Y-11065460D02*
X16596015Y-11046412D01*
X16596015Y-11046412D02*
X16596015Y-10874984D01*
X16776968Y-11065460D02*
X16757920Y-11074984D01*
X16757920Y-11074984D02*
X16719825Y-11074984D01*
X16719825Y-11074984D02*
X16700777Y-11065460D01*
X16700777Y-11065460D02*
X16691253Y-11046412D01*
X16691253Y-11046412D02*
X16691253Y-10970222D01*
X16691253Y-10970222D02*
X16700777Y-10951174D01*
X16700777Y-10951174D02*
X16719825Y-10941650D01*
X16719825Y-10941650D02*
X16757920Y-10941650D01*
X16757920Y-10941650D02*
X16776968Y-10951174D01*
X16776968Y-10951174D02*
X16786492Y-10970222D01*
X16786492Y-10970222D02*
X16786492Y-10989270D01*
X16786492Y-10989270D02*
X16691253Y-11008317D01*
X16862682Y-11065460D02*
X16881730Y-11074984D01*
X16881730Y-11074984D02*
X16919825Y-11074984D01*
X16919825Y-11074984D02*
X16938873Y-11065460D01*
X16938873Y-11065460D02*
X16948396Y-11046412D01*
X16948396Y-11046412D02*
X16948396Y-11036889D01*
X16948396Y-11036889D02*
X16938873Y-11017841D01*
X16938873Y-11017841D02*
X16919825Y-11008317D01*
X16919825Y-11008317D02*
X16891253Y-11008317D01*
X16891253Y-11008317D02*
X16872206Y-10998793D01*
X16872206Y-10998793D02*
X16862682Y-10979746D01*
X16862682Y-10979746D02*
X16862682Y-10970222D01*
X16862682Y-10970222D02*
X16872206Y-10951174D01*
X16872206Y-10951174D02*
X16891253Y-10941650D01*
X16891253Y-10941650D02*
X16919825Y-10941650D01*
X16919825Y-10941650D02*
X16938873Y-10951174D01*
X17015063Y-11151174D02*
X17024587Y-11141650D01*
X17024587Y-11141650D02*
X17043634Y-11113079D01*
X17043634Y-11113079D02*
X17053158Y-11094031D01*
X17053158Y-11094031D02*
X17062682Y-11065460D01*
X17062682Y-11065460D02*
X17072206Y-11017841D01*
X17072206Y-11017841D02*
X17072206Y-10979746D01*
X17072206Y-10979746D02*
X17062682Y-10932127D01*
X17062682Y-10932127D02*
X17053158Y-10903555D01*
X17053158Y-10903555D02*
X17043634Y-10884508D01*
X17043634Y-10884508D02*
X17024587Y-10855936D01*
X17024587Y-10855936D02*
X17015063Y-10846412D01*
M02*
