G04 #@! TF.GenerationSoftware,KiCad,Pcbnew,9.0.7*
G04 #@! TF.CreationDate,2026-03-18T00:55:47+08:00*
G04 #@! TF.ProjectId,chemistrylabreport,6368656d-6973-4747-9279-6c6162726570,rev?*
G04 #@! TF.SameCoordinates,Original*
G04 #@! TF.FileFunction,Soldermask,Bot*
G04 #@! TF.FilePolarity,Negative*
%FSLAX46Y46*%
G04 Gerber Fmt 4.6, Leading zero omitted, Abs format (unit mm)*
G04 Created by KiCad (PCBNEW 9.0.7) date 2026-03-18 00:55:47*
%MOMM*%
%LPD*%
G01*
G04 APERTURE LIST*
%ADD10C,2.200000*%
%ADD11C,1.600000*%
%ADD12R,1.725000X1.725000*%
%ADD13C,1.725000*%
%ADD14R,1.800000X1.800000*%
%ADD15C,1.800000*%
%ADD16R,1.500000X1.500000*%
%ADD17C,1.500000*%
%ADD18C,1.612000*%
G04 APERTURE END LIST*
D10*
X126000000Y-90000000D03*
X174000000Y-90000000D03*
X174000000Y-55000000D03*
D11*
X137700000Y-68900000D03*
X137700000Y-63900000D03*
X134250000Y-56140000D03*
X134250000Y-63760000D03*
X130750000Y-56150000D03*
X130750000Y-61150000D03*
X137800000Y-56200000D03*
X137800000Y-61200000D03*
D12*
X172200000Y-59650000D03*
D13*
X172200000Y-62190000D03*
X172200000Y-64730000D03*
X172200000Y-67270000D03*
X172200000Y-69810000D03*
X172200000Y-72350000D03*
D14*
X127250000Y-56010000D03*
D15*
X127250000Y-58550000D03*
X127250000Y-61090000D03*
X127250000Y-63630000D03*
D11*
X168100000Y-81800000D03*
X168100000Y-86800000D03*
D16*
X141320000Y-53755000D03*
D17*
X141320000Y-56295000D03*
X141320000Y-58835000D03*
X141320000Y-61375000D03*
X141320000Y-63915000D03*
X141320000Y-66455000D03*
X141320000Y-68995000D03*
X141320000Y-71535000D03*
X141320000Y-74075000D03*
X141320000Y-76615000D03*
X141320000Y-79155000D03*
X141320000Y-81695000D03*
X141320000Y-84235000D03*
X141320000Y-86775000D03*
X141320000Y-89315000D03*
X164180000Y-89315000D03*
X164180000Y-86775000D03*
X164180000Y-84235000D03*
X164180000Y-81695000D03*
X164180000Y-79155000D03*
X164180000Y-76615000D03*
X164180000Y-74075000D03*
X164180000Y-71535000D03*
X164180000Y-68995000D03*
X164180000Y-66455000D03*
X164180000Y-63915000D03*
X164180000Y-61375000D03*
X164180000Y-58835000D03*
X164180000Y-56295000D03*
X164180000Y-53755000D03*
D11*
X137800000Y-77000000D03*
X137800000Y-72000000D03*
X131000000Y-67500000D03*
X131000000Y-75100000D03*
D14*
X172250000Y-84140000D03*
D15*
X172250000Y-81600000D03*
X172250000Y-79060000D03*
X172250000Y-76520000D03*
D18*
X133000000Y-87800000D03*
X133000000Y-80200000D03*
M02*
